<?xml version="1.0" encoding="utf-8" standalone="no"?>
<!DOCTYPE svg PUBLIC "-//W3C//DTD SVG 1.1//EN"
  "http://www.w3.org/Graphics/SVG/1.1/DTD/svg11.dtd">
<svg xmlns:xlink="http://www.w3.org/1999/xlink" width="1008pt" height="576pt" viewBox="0 0 1008 576" xmlns="http://www.w3.org/2000/svg" version="1.1">
 <metadata>
  <rdf:RDF xmlns:dc="http://purl.org/dc/elements/1.1/" xmlns:cc="http://creativecommons.org/ns#" xmlns:rdf="http://www.w3.org/1999/02/22-rdf-syntax-ns#">
   <cc:Work>
    <dc:type rdf:resource="http://purl.org/dc/dcmitype/StillImage"/>
    <dc:date>2022-05-18T23:55:54.549726</dc:date>
    <dc:format>image/svg+xml</dc:format>
    <dc:creator>
     <cc:Agent>
      <dc:title>Matplotlib v3.5.2, https://matplotlib.org/</dc:title>
     </cc:Agent>
    </dc:creator>
   </cc:Work>
  </rdf:RDF>
 </metadata>
 <defs>
  <style type="text/css">*{stroke-linejoin: round; stroke-linecap: butt}</style>
 </defs>
 <g id="figure_1">
  <g id="patch_1">
   <path d="M 0 576 
L 1008 576 
L 1008 0 
L 0 0 
z
" style="fill: #ffffff"/>
  </g>
  <g id="axes_1">
   <g id="patch_2">
    <path d="M 126 512.64 
L 907.2 512.64 
L 907.2 69.12 
L 126 69.12 
z
" style="fill: #ffffff"/>
   </g>
   <g id="patch_3">
    <path d="M 161.509091 512.64 
L 170.135623 512.64 
L 170.135623 316.500373 
L 161.509091 316.500373 
z
" clip-path="url(#p647edcfc59)" style="fill: #bfbf00"/>
   </g>
   <g id="patch_4">
    <path d="M 234.262972 512.64 
L 242.889504 512.64 
L 242.889504 293.501094 
L 234.262972 293.501094 
z
" clip-path="url(#p647edcfc59)" style="fill: #bfbf00"/>
   </g>
   <g id="patch_5">
    <path d="M 307.016854 512.64 
L 315.643386 512.64 
L 315.643386 239.619648 
L 307.016854 239.619648 
z
" clip-path="url(#p647edcfc59)" style="fill: #bfbf00"/>
   </g>
   <g id="patch_6">
    <path d="M 379.770736 512.64 
L 388.397267 512.64 
L 388.397267 408.682139 
L 379.770736 408.682139 
z
" clip-path="url(#p647edcfc59)" style="fill: #bfbf00"/>
   </g>
   <g id="patch_7">
    <path d="M 452.524617 512.64 
L 461.151149 512.64 
L 461.151149 240.301192 
L 452.524617 240.301192 
z
" clip-path="url(#p647edcfc59)" style="fill: #bfbf00"/>
   </g>
   <g id="patch_8">
    <path d="M 525.278499 512.64 
L 533.90503 512.64 
L 533.90503 256.874034 
L 525.278499 256.874034 
z
" clip-path="url(#p647edcfc59)" style="fill: #bfbf00"/>
   </g>
   <g id="patch_9">
    <path d="M 598.03238 512.64 
L 606.658912 512.64 
L 606.658912 239.619648 
L 598.03238 239.619648 
z
" clip-path="url(#p647edcfc59)" style="fill: #bfbf00"/>
   </g>
   <g id="patch_10">
    <path d="M 670.786262 512.64 
L 679.412794 512.64 
L 679.412794 309.771027 
L 670.786262 309.771027 
z
" clip-path="url(#p647edcfc59)" style="fill: #bfbf00"/>
   </g>
   <g id="patch_11">
    <path d="M 743.540143 512.64 
L 752.166675 512.64 
L 752.166675 247.387389 
L 743.540143 247.387389 
z
" clip-path="url(#p647edcfc59)" style="fill: #bfbf00"/>
   </g>
   <g id="patch_12">
    <path d="M 816.294025 512.64 
L 824.920557 512.64 
L 824.920557 261.181148 
L 816.294025 261.181148 
z
" clip-path="url(#p647edcfc59)" style="fill: #bfbf00"/>
   </g>
   <g id="patch_13">
    <path d="M 170.863161 512.64 
L 179.489693 512.64 
L 179.489693 382.831161 
L 170.863161 382.831161 
z
" clip-path="url(#p647edcfc59)" style="fill: #0000ff"/>
   </g>
   <g id="patch_14">
    <path d="M 243.617043 512.64 
L 252.243575 512.64 
L 252.243575 361.596429 
L 243.617043 361.596429 
z
" clip-path="url(#p647edcfc59)" style="fill: #0000ff"/>
   </g>
   <g id="patch_15">
    <path d="M 316.370925 512.64 
L 324.997456 512.64 
L 324.997456 252.913399 
L 316.370925 252.913399 
z
" clip-path="url(#p647edcfc59)" style="fill: #0000ff"/>
   </g>
   <g id="patch_16">
    <path d="M 389.124806 512.64 
L 397.751338 512.64 
L 397.751338 475.281602 
L 389.124806 475.281602 
z
" clip-path="url(#p647edcfc59)" style="fill: #0000ff"/>
   </g>
   <g id="patch_17">
    <path d="M 461.878688 512.64 
L 470.505219 512.64 
L 470.505219 274.580709 
L 461.878688 274.580709 
z
" clip-path="url(#p647edcfc59)" style="fill: #0000ff"/>
   </g>
   <g id="patch_18">
    <path d="M 534.632569 512.64 
L 543.259101 512.64 
L 543.259101 313.023147 
L 534.632569 313.023147 
z
" clip-path="url(#p647edcfc59)" style="fill: #0000ff"/>
   </g>
   <g id="patch_19">
    <path d="M 607.386451 512.64 
L 616.012982 512.64 
L 616.012982 238.718183 
L 607.386451 238.718183 
z
" clip-path="url(#p647edcfc59)" style="fill: #0000ff"/>
   </g>
   <g id="patch_20">
    <path d="M 680.140332 512.64 
L 688.766864 512.64 
L 688.766864 379.792737 
L 680.140332 379.792737 
z
" clip-path="url(#p647edcfc59)" style="fill: #0000ff"/>
   </g>
   <g id="patch_21">
    <path d="M 752.894214 512.64 
L 761.520746 512.64 
L 761.520746 291.901487 
L 752.894214 291.901487 
z
" clip-path="url(#p647edcfc59)" style="fill: #0000ff"/>
   </g>
   <g id="patch_22">
    <path d="M 825.648095 512.64 
L 834.274627 512.64 
L 834.274627 318.549156 
L 825.648095 318.549156 
z
" clip-path="url(#p647edcfc59)" style="fill: #0000ff"/>
   </g>
   <g id="patch_23">
    <path d="M 180.217232 512.64 
L 188.843764 512.64 
L 188.843764 351.79339 
L 180.217232 351.79339 
z
" clip-path="url(#p647edcfc59)" style="fill: #008000"/>
   </g>
   <g id="patch_24">
    <path d="M 252.971113 512.64 
L 261.597645 512.64 
L 261.597645 315.324008 
L 252.971113 315.324008 
z
" clip-path="url(#p647edcfc59)" style="fill: #008000"/>
   </g>
   <g id="patch_25">
    <path d="M 325.724995 512.64 
L 334.351527 512.64 
L 334.351527 251.408192 
L 325.724995 251.408192 
z
" clip-path="url(#p647edcfc59)" style="fill: #008000"/>
   </g>
   <g id="patch_26">
    <path d="M 398.478877 512.64 
L 407.105408 512.64 
L 407.105408 440.931545 
L 398.478877 440.931545 
z
" clip-path="url(#p647edcfc59)" style="fill: #008000"/>
   </g>
   <g id="patch_27">
    <path d="M 471.232758 512.64 
L 479.85929 512.64 
L 479.85929 251.808612 
L 471.232758 251.808612 
z
" clip-path="url(#p647edcfc59)" style="fill: #008000"/>
   </g>
   <g id="patch_28">
    <path d="M 543.98664 512.64 
L 552.613171 512.64 
L 552.613171 274.833825 
L 543.98664 274.833825 
z
" clip-path="url(#p647edcfc59)" style="fill: #008000"/>
   </g>
   <g id="patch_29">
    <path d="M 616.740521 512.64 
L 625.367053 512.64 
L 625.367053 240.634185 
L 616.740521 240.634185 
z
" clip-path="url(#p647edcfc59)" style="fill: #008000"/>
   </g>
   <g id="patch_30">
    <path d="M 689.494403 512.64 
L 698.120935 512.64 
L 698.120935 328.994321 
L 689.494403 328.994321 
z
" clip-path="url(#p647edcfc59)" style="fill: #008000"/>
   </g>
   <g id="patch_31">
    <path d="M 762.248284 512.64 
L 770.874816 512.64 
L 770.874816 263.949858 
L 762.248284 263.949858 
z
" clip-path="url(#p647edcfc59)" style="fill: #008000"/>
   </g>
   <g id="patch_32">
    <path d="M 835.002166 512.64 
L 843.628698 512.64 
L 843.628698 281.779979 
L 835.002166 281.779979 
z
" clip-path="url(#p647edcfc59)" style="fill: #008000"/>
   </g>
   <g id="patch_33">
    <path d="M 189.571302 512.64 
L 198.197834 512.64 
L 198.197834 240.527337 
L 189.571302 240.527337 
z
" clip-path="url(#p647edcfc59)" style="fill: #00bfbf"/>
   </g>
   <g id="patch_34">
    <path d="M 262.325184 512.64 
L 270.951716 512.64 
L 270.951716 240.527337 
L 262.325184 240.527337 
z
" clip-path="url(#p647edcfc59)" style="fill: #00bfbf"/>
   </g>
   <g id="patch_35">
    <path d="M 335.079065 512.64 
L 343.705597 512.64 
L 343.705597 240.525262 
L 335.079065 240.525262 
z
" clip-path="url(#p647edcfc59)" style="fill: #00bfbf"/>
   </g>
   <g id="patch_36">
    <path d="M 407.832947 512.64 
L 416.459479 512.64 
L 416.459479 240.527337 
L 407.832947 240.527337 
z
" clip-path="url(#p647edcfc59)" style="fill: #00bfbf"/>
   </g>
   <g id="patch_37">
    <path d="M 480.586829 512.64 
L 489.21336 512.64 
L 489.21336 240.529411 
L 480.586829 240.529411 
z
" clip-path="url(#p647edcfc59)" style="fill: #00bfbf"/>
   </g>
   <g id="patch_38">
    <path d="M 553.34071 512.64 
L 561.967242 512.64 
L 561.967242 240.529411 
L 553.34071 240.529411 
z
" clip-path="url(#p647edcfc59)" style="fill: #00bfbf"/>
   </g>
   <g id="patch_39">
    <path d="M 626.094592 512.64 
L 634.721123 512.64 
L 634.721123 240.533561 
L 626.094592 240.533561 
z
" clip-path="url(#p647edcfc59)" style="fill: #00bfbf"/>
   </g>
   <g id="patch_40">
    <path d="M 698.848473 512.64 
L 707.475005 512.64 
L 707.475005 240.529411 
L 698.848473 240.529411 
z
" clip-path="url(#p647edcfc59)" style="fill: #00bfbf"/>
   </g>
   <g id="patch_41">
    <path d="M 771.602355 512.64 
L 780.228887 512.64 
L 780.228887 240.527337 
L 771.602355 240.527337 
z
" clip-path="url(#p647edcfc59)" style="fill: #00bfbf"/>
   </g>
   <g id="patch_42">
    <path d="M 844.356236 512.64 
L 852.982768 512.64 
L 852.982768 240.527337 
L 844.356236 240.527337 
z
" clip-path="url(#p647edcfc59)" style="fill: #00bfbf"/>
   </g>
   <g id="patch_43">
    <path d="M 198.925373 512.64 
L 207.551905 512.64 
L 207.551905 240.68709 
L 198.925373 240.68709 
z
" clip-path="url(#p647edcfc59)"/>
   </g>
   <g id="patch_44">
    <path d="M 271.679254 512.64 
L 280.305786 512.64 
L 280.305786 240.68709 
L 271.679254 240.68709 
z
" clip-path="url(#p647edcfc59)"/>
   </g>
   <g id="patch_45">
    <path d="M 344.433136 512.64 
L 353.059668 512.64 
L 353.059668 240.68709 
L 344.433136 240.68709 
z
" clip-path="url(#p647edcfc59)"/>
   </g>
   <g id="patch_46">
    <path d="M 417.187018 512.64 
L 425.813549 512.64 
L 425.813549 240.68709 
L 417.187018 240.68709 
z
" clip-path="url(#p647edcfc59)"/>
   </g>
   <g id="patch_47">
    <path d="M 489.940899 512.64 
L 498.567431 512.64 
L 498.567431 240.68709 
L 489.940899 240.68709 
z
" clip-path="url(#p647edcfc59)"/>
   </g>
   <g id="patch_48">
    <path d="M 562.694781 512.64 
L 571.321312 512.64 
L 571.321312 240.68709 
L 562.694781 240.68709 
z
" clip-path="url(#p647edcfc59)"/>
   </g>
   <g id="patch_49">
    <path d="M 635.448662 512.64 
L 644.075194 512.64 
L 644.075194 240.68709 
L 635.448662 240.68709 
z
" clip-path="url(#p647edcfc59)"/>
   </g>
   <g id="patch_50">
    <path d="M 708.202544 512.64 
L 716.829075 512.64 
L 716.829075 240.68709 
L 708.202544 240.68709 
z
" clip-path="url(#p647edcfc59)"/>
   </g>
   <g id="patch_51">
    <path d="M 780.956425 512.64 
L 789.582957 512.64 
L 789.582957 240.68709 
L 780.956425 240.68709 
z
" clip-path="url(#p647edcfc59)"/>
   </g>
   <g id="patch_52">
    <path d="M 853.710307 512.64 
L 862.336839 512.64 
L 862.336839 240.68709 
L 853.710307 240.68709 
z
" clip-path="url(#p647edcfc59)"/>
   </g>
   <g id="patch_53">
    <path d="M 208.279443 512.64 
L 216.905975 512.64 
L 216.905975 279.322476 
L 208.279443 279.322476 
z
" clip-path="url(#p647edcfc59)" style="fill: #bf00bf"/>
   </g>
   <g id="patch_54">
    <path d="M 281.033325 512.64 
L 289.659857 512.64 
L 289.659857 243.927798 
L 281.033325 243.927798 
z
" clip-path="url(#p647edcfc59)" style="fill: #bf00bf"/>
   </g>
   <g id="patch_55">
    <path d="M 353.787206 512.64 
L 362.413738 512.64 
L 362.413738 139.806034 
L 353.787206 139.806034 
z
" clip-path="url(#p647edcfc59)" style="fill: #bf00bf"/>
   </g>
   <g id="patch_56">
    <path d="M 426.541088 512.64 
L 435.16762 512.64 
L 435.16762 369.684714 
L 426.541088 369.684714 
z
" clip-path="url(#p647edcfc59)" style="fill: #bf00bf"/>
   </g>
   <g id="patch_57">
    <path d="M 499.29497 512.64 
L 507.921501 512.64 
L 507.921501 126.924114 
L 499.29497 126.924114 
z
" clip-path="url(#p647edcfc59)" style="fill: #bf00bf"/>
   </g>
   <g id="patch_58">
    <path d="M 572.048851 512.64 
L 580.675383 512.64 
L 580.675383 168.582364 
L 572.048851 168.582364 
z
" clip-path="url(#p647edcfc59)" style="fill: #bf00bf"/>
   </g>
   <g id="patch_59">
    <path d="M 644.802733 512.64 
L 653.429264 512.64 
L 653.429264 90.24 
L 644.802733 90.24 
z
" clip-path="url(#p647edcfc59)" style="fill: #bf00bf"/>
   </g>
   <g id="patch_60">
    <path d="M 717.556614 512.64 
L 726.183146 512.64 
L 726.183146 262.200871 
L 717.556614 262.200871 
z
" clip-path="url(#p647edcfc59)" style="fill: #bf00bf"/>
   </g>
   <g id="patch_61">
    <path d="M 790.310496 512.64 
L 798.937028 512.64 
L 798.937028 166.999354 
L 790.310496 166.999354 
z
" clip-path="url(#p647edcfc59)" style="fill: #bf00bf"/>
   </g>
   <g id="patch_62">
    <path d="M 863.064377 512.64 
L 871.690909 512.64 
L 871.690909 194.818202 
L 863.064377 194.818202 
z
" clip-path="url(#p647edcfc59)" style="fill: #bf00bf"/>
   </g>
   <g id="matplotlib.axis_1">
    <g id="xtick_1">
     <g id="line2d_1">
      <defs>
       <path id="m5f24d09a80" d="M 0 0 
L 0 3.5 
" style="stroke: #000000; stroke-width: 0.8"/>
      </defs>
      <g>
       <use xlink:href="#m5f24d09a80" x="193.884568" y="512.64" style="stroke: #000000; stroke-width: 0.8"/>
      </g>
     </g>
     <g id="text_1">
      <!-- geometr_09 -->
      <g transform="translate(163.749412 527.061875)scale(0.1 -0.1)">
       <defs>
        <path id="DejaVuSans-67" d="M 2906 1791 
Q 2906 2416 2648 2759 
Q 2391 3103 1925 3103 
Q 1463 3103 1205 2759 
Q 947 2416 947 1791 
Q 947 1169 1205 825 
Q 1463 481 1925 481 
Q 2391 481 2648 825 
Q 2906 1169 2906 1791 
z
M 3481 434 
Q 3481 -459 3084 -895 
Q 2688 -1331 1869 -1331 
Q 1566 -1331 1297 -1286 
Q 1028 -1241 775 -1147 
L 775 -588 
Q 1028 -725 1275 -790 
Q 1522 -856 1778 -856 
Q 2344 -856 2625 -561 
Q 2906 -266 2906 331 
L 2906 616 
Q 2728 306 2450 153 
Q 2172 0 1784 0 
Q 1141 0 747 490 
Q 353 981 353 1791 
Q 353 2603 747 3093 
Q 1141 3584 1784 3584 
Q 2172 3584 2450 3431 
Q 2728 3278 2906 2969 
L 2906 3500 
L 3481 3500 
L 3481 434 
z
" transform="scale(0.015625)"/>
        <path id="DejaVuSans-65" d="M 3597 1894 
L 3597 1613 
L 953 1613 
Q 991 1019 1311 708 
Q 1631 397 2203 397 
Q 2534 397 2845 478 
Q 3156 559 3463 722 
L 3463 178 
Q 3153 47 2828 -22 
Q 2503 -91 2169 -91 
Q 1331 -91 842 396 
Q 353 884 353 1716 
Q 353 2575 817 3079 
Q 1281 3584 2069 3584 
Q 2775 3584 3186 3129 
Q 3597 2675 3597 1894 
z
M 3022 2063 
Q 3016 2534 2758 2815 
Q 2500 3097 2075 3097 
Q 1594 3097 1305 2825 
Q 1016 2553 972 2059 
L 3022 2063 
z
" transform="scale(0.015625)"/>
        <path id="DejaVuSans-6f" d="M 1959 3097 
Q 1497 3097 1228 2736 
Q 959 2375 959 1747 
Q 959 1119 1226 758 
Q 1494 397 1959 397 
Q 2419 397 2687 759 
Q 2956 1122 2956 1747 
Q 2956 2369 2687 2733 
Q 2419 3097 1959 3097 
z
M 1959 3584 
Q 2709 3584 3137 3096 
Q 3566 2609 3566 1747 
Q 3566 888 3137 398 
Q 2709 -91 1959 -91 
Q 1206 -91 779 398 
Q 353 888 353 1747 
Q 353 2609 779 3096 
Q 1206 3584 1959 3584 
z
" transform="scale(0.015625)"/>
        <path id="DejaVuSans-6d" d="M 3328 2828 
Q 3544 3216 3844 3400 
Q 4144 3584 4550 3584 
Q 5097 3584 5394 3201 
Q 5691 2819 5691 2113 
L 5691 0 
L 5113 0 
L 5113 2094 
Q 5113 2597 4934 2840 
Q 4756 3084 4391 3084 
Q 3944 3084 3684 2787 
Q 3425 2491 3425 1978 
L 3425 0 
L 2847 0 
L 2847 2094 
Q 2847 2600 2669 2842 
Q 2491 3084 2119 3084 
Q 1678 3084 1418 2786 
Q 1159 2488 1159 1978 
L 1159 0 
L 581 0 
L 581 3500 
L 1159 3500 
L 1159 2956 
Q 1356 3278 1631 3431 
Q 1906 3584 2284 3584 
Q 2666 3584 2933 3390 
Q 3200 3197 3328 2828 
z
" transform="scale(0.015625)"/>
        <path id="DejaVuSans-74" d="M 1172 4494 
L 1172 3500 
L 2356 3500 
L 2356 3053 
L 1172 3053 
L 1172 1153 
Q 1172 725 1289 603 
Q 1406 481 1766 481 
L 2356 481 
L 2356 0 
L 1766 0 
Q 1100 0 847 248 
Q 594 497 594 1153 
L 594 3053 
L 172 3053 
L 172 3500 
L 594 3500 
L 594 4494 
L 1172 4494 
z
" transform="scale(0.015625)"/>
        <path id="DejaVuSans-72" d="M 2631 2963 
Q 2534 3019 2420 3045 
Q 2306 3072 2169 3072 
Q 1681 3072 1420 2755 
Q 1159 2438 1159 1844 
L 1159 0 
L 581 0 
L 581 3500 
L 1159 3500 
L 1159 2956 
Q 1341 3275 1631 3429 
Q 1922 3584 2338 3584 
Q 2397 3584 2469 3576 
Q 2541 3569 2628 3553 
L 2631 2963 
z
" transform="scale(0.015625)"/>
        <path id="DejaVuSans-5f" d="M 3263 -1063 
L 3263 -1509 
L -63 -1509 
L -63 -1063 
L 3263 -1063 
z
" transform="scale(0.015625)"/>
        <path id="DejaVuSans-30" d="M 2034 4250 
Q 1547 4250 1301 3770 
Q 1056 3291 1056 2328 
Q 1056 1369 1301 889 
Q 1547 409 2034 409 
Q 2525 409 2770 889 
Q 3016 1369 3016 2328 
Q 3016 3291 2770 3770 
Q 2525 4250 2034 4250 
z
M 2034 4750 
Q 2819 4750 3233 4129 
Q 3647 3509 3647 2328 
Q 3647 1150 3233 529 
Q 2819 -91 2034 -91 
Q 1250 -91 836 529 
Q 422 1150 422 2328 
Q 422 3509 836 4129 
Q 1250 4750 2034 4750 
z
" transform="scale(0.015625)"/>
        <path id="DejaVuSans-39" d="M 703 97 
L 703 672 
Q 941 559 1184 500 
Q 1428 441 1663 441 
Q 2288 441 2617 861 
Q 2947 1281 2994 2138 
Q 2813 1869 2534 1725 
Q 2256 1581 1919 1581 
Q 1219 1581 811 2004 
Q 403 2428 403 3163 
Q 403 3881 828 4315 
Q 1253 4750 1959 4750 
Q 2769 4750 3195 4129 
Q 3622 3509 3622 2328 
Q 3622 1225 3098 567 
Q 2575 -91 1691 -91 
Q 1453 -91 1209 -44 
Q 966 3 703 97 
z
M 1959 2075 
Q 2384 2075 2632 2365 
Q 2881 2656 2881 3163 
Q 2881 3666 2632 3958 
Q 2384 4250 1959 4250 
Q 1534 4250 1286 3958 
Q 1038 3666 1038 3163 
Q 1038 2656 1286 2365 
Q 1534 2075 1959 2075 
z
" transform="scale(0.015625)"/>
       </defs>
       <use xlink:href="#DejaVuSans-67"/>
       <use xlink:href="#DejaVuSans-65" x="63.476562"/>
       <use xlink:href="#DejaVuSans-6f" x="125"/>
       <use xlink:href="#DejaVuSans-6d" x="186.181641"/>
       <use xlink:href="#DejaVuSans-65" x="283.59375"/>
       <use xlink:href="#DejaVuSans-74" x="345.117188"/>
       <use xlink:href="#DejaVuSans-72" x="384.326172"/>
       <use xlink:href="#DejaVuSans-5f" x="425.439453"/>
       <use xlink:href="#DejaVuSans-30" x="475.439453"/>
       <use xlink:href="#DejaVuSans-39" x="539.0625"/>
      </g>
     </g>
    </g>
    <g id="xtick_2">
     <g id="line2d_2">
      <g>
       <use xlink:href="#m5f24d09a80" x="266.63845" y="512.64" style="stroke: #000000; stroke-width: 0.8"/>
      </g>
     </g>
     <g id="text_2">
      <!-- laplace_10 -->
      <g transform="translate(239.8697 527.238438)scale(0.1 -0.1)">
       <defs>
        <path id="DejaVuSans-6c" d="M 603 4863 
L 1178 4863 
L 1178 0 
L 603 0 
L 603 4863 
z
" transform="scale(0.015625)"/>
        <path id="DejaVuSans-61" d="M 2194 1759 
Q 1497 1759 1228 1600 
Q 959 1441 959 1056 
Q 959 750 1161 570 
Q 1363 391 1709 391 
Q 2188 391 2477 730 
Q 2766 1069 2766 1631 
L 2766 1759 
L 2194 1759 
z
M 3341 1997 
L 3341 0 
L 2766 0 
L 2766 531 
Q 2569 213 2275 61 
Q 1981 -91 1556 -91 
Q 1019 -91 701 211 
Q 384 513 384 1019 
Q 384 1609 779 1909 
Q 1175 2209 1959 2209 
L 2766 2209 
L 2766 2266 
Q 2766 2663 2505 2880 
Q 2244 3097 1772 3097 
Q 1472 3097 1187 3025 
Q 903 2953 641 2809 
L 641 3341 
Q 956 3463 1253 3523 
Q 1550 3584 1831 3584 
Q 2591 3584 2966 3190 
Q 3341 2797 3341 1997 
z
" transform="scale(0.015625)"/>
        <path id="DejaVuSans-70" d="M 1159 525 
L 1159 -1331 
L 581 -1331 
L 581 3500 
L 1159 3500 
L 1159 2969 
Q 1341 3281 1617 3432 
Q 1894 3584 2278 3584 
Q 2916 3584 3314 3078 
Q 3713 2572 3713 1747 
Q 3713 922 3314 415 
Q 2916 -91 2278 -91 
Q 1894 -91 1617 61 
Q 1341 213 1159 525 
z
M 3116 1747 
Q 3116 2381 2855 2742 
Q 2594 3103 2138 3103 
Q 1681 3103 1420 2742 
Q 1159 2381 1159 1747 
Q 1159 1113 1420 752 
Q 1681 391 2138 391 
Q 2594 391 2855 752 
Q 3116 1113 3116 1747 
z
" transform="scale(0.015625)"/>
        <path id="DejaVuSans-63" d="M 3122 3366 
L 3122 2828 
Q 2878 2963 2633 3030 
Q 2388 3097 2138 3097 
Q 1578 3097 1268 2742 
Q 959 2388 959 1747 
Q 959 1106 1268 751 
Q 1578 397 2138 397 
Q 2388 397 2633 464 
Q 2878 531 3122 666 
L 3122 134 
Q 2881 22 2623 -34 
Q 2366 -91 2075 -91 
Q 1284 -91 818 406 
Q 353 903 353 1747 
Q 353 2603 823 3093 
Q 1294 3584 2113 3584 
Q 2378 3584 2631 3529 
Q 2884 3475 3122 3366 
z
" transform="scale(0.015625)"/>
        <path id="DejaVuSans-31" d="M 794 531 
L 1825 531 
L 1825 4091 
L 703 3866 
L 703 4441 
L 1819 4666 
L 2450 4666 
L 2450 531 
L 3481 531 
L 3481 0 
L 794 0 
L 794 531 
z
" transform="scale(0.015625)"/>
       </defs>
       <use xlink:href="#DejaVuSans-6c"/>
       <use xlink:href="#DejaVuSans-61" x="27.783203"/>
       <use xlink:href="#DejaVuSans-70" x="89.0625"/>
       <use xlink:href="#DejaVuSans-6c" x="152.539062"/>
       <use xlink:href="#DejaVuSans-61" x="180.322266"/>
       <use xlink:href="#DejaVuSans-63" x="241.601562"/>
       <use xlink:href="#DejaVuSans-65" x="296.582031"/>
       <use xlink:href="#DejaVuSans-5f" x="358.105469"/>
       <use xlink:href="#DejaVuSans-31" x="408.105469"/>
       <use xlink:href="#DejaVuSans-30" x="471.728516"/>
      </g>
     </g>
    </g>
    <g id="xtick_3">
     <g id="line2d_3">
      <g>
       <use xlink:href="#m5f24d09a80" x="339.392331" y="512.64" style="stroke: #000000; stroke-width: 0.8"/>
      </g>
     </g>
     <g id="text_3">
      <!-- geometr_099 -->
      <g transform="translate(306.075925 527.061875)scale(0.1 -0.1)">
       <use xlink:href="#DejaVuSans-67"/>
       <use xlink:href="#DejaVuSans-65" x="63.476562"/>
       <use xlink:href="#DejaVuSans-6f" x="125"/>
       <use xlink:href="#DejaVuSans-6d" x="186.181641"/>
       <use xlink:href="#DejaVuSans-65" x="283.59375"/>
       <use xlink:href="#DejaVuSans-74" x="345.117188"/>
       <use xlink:href="#DejaVuSans-72" x="384.326172"/>
       <use xlink:href="#DejaVuSans-5f" x="425.439453"/>
       <use xlink:href="#DejaVuSans-30" x="475.439453"/>
       <use xlink:href="#DejaVuSans-39" x="539.0625"/>
       <use xlink:href="#DejaVuSans-39" x="602.685547"/>
      </g>
     </g>
    </g>
    <g id="xtick_4">
     <g id="line2d_4">
      <g>
       <use xlink:href="#m5f24d09a80" x="412.146213" y="512.64" style="stroke: #000000; stroke-width: 0.8"/>
      </g>
     </g>
     <g id="text_4">
      <!-- geometr_05 -->
      <g transform="translate(382.011057 527.061875)scale(0.1 -0.1)">
       <defs>
        <path id="DejaVuSans-35" d="M 691 4666 
L 3169 4666 
L 3169 4134 
L 1269 4134 
L 1269 2991 
Q 1406 3038 1543 3061 
Q 1681 3084 1819 3084 
Q 2600 3084 3056 2656 
Q 3513 2228 3513 1497 
Q 3513 744 3044 326 
Q 2575 -91 1722 -91 
Q 1428 -91 1123 -41 
Q 819 9 494 109 
L 494 744 
Q 775 591 1075 516 
Q 1375 441 1709 441 
Q 2250 441 2565 725 
Q 2881 1009 2881 1497 
Q 2881 1984 2565 2268 
Q 2250 2553 1709 2553 
Q 1456 2553 1204 2497 
Q 953 2441 691 2322 
L 691 4666 
z
" transform="scale(0.015625)"/>
       </defs>
       <use xlink:href="#DejaVuSans-67"/>
       <use xlink:href="#DejaVuSans-65" x="63.476562"/>
       <use xlink:href="#DejaVuSans-6f" x="125"/>
       <use xlink:href="#DejaVuSans-6d" x="186.181641"/>
       <use xlink:href="#DejaVuSans-65" x="283.59375"/>
       <use xlink:href="#DejaVuSans-74" x="345.117188"/>
       <use xlink:href="#DejaVuSans-72" x="384.326172"/>
       <use xlink:href="#DejaVuSans-5f" x="425.439453"/>
       <use xlink:href="#DejaVuSans-30" x="475.439453"/>
       <use xlink:href="#DejaVuSans-35" x="539.0625"/>
      </g>
     </g>
    </g>
    <g id="xtick_5">
     <g id="line2d_5">
      <g>
       <use xlink:href="#m5f24d09a80" x="484.900094" y="512.64" style="stroke: #000000; stroke-width: 0.8"/>
      </g>
     </g>
     <g id="text_5">
      <!-- normal_50 -->
      <g transform="translate(458.518063 527.238438)scale(0.1 -0.1)">
       <defs>
        <path id="DejaVuSans-6e" d="M 3513 2113 
L 3513 0 
L 2938 0 
L 2938 2094 
Q 2938 2591 2744 2837 
Q 2550 3084 2163 3084 
Q 1697 3084 1428 2787 
Q 1159 2491 1159 1978 
L 1159 0 
L 581 0 
L 581 3500 
L 1159 3500 
L 1159 2956 
Q 1366 3272 1645 3428 
Q 1925 3584 2291 3584 
Q 2894 3584 3203 3211 
Q 3513 2838 3513 2113 
z
" transform="scale(0.015625)"/>
       </defs>
       <use xlink:href="#DejaVuSans-6e"/>
       <use xlink:href="#DejaVuSans-6f" x="63.378906"/>
       <use xlink:href="#DejaVuSans-72" x="124.560547"/>
       <use xlink:href="#DejaVuSans-6d" x="163.923828"/>
       <use xlink:href="#DejaVuSans-61" x="261.335938"/>
       <use xlink:href="#DejaVuSans-6c" x="322.615234"/>
       <use xlink:href="#DejaVuSans-5f" x="350.398438"/>
       <use xlink:href="#DejaVuSans-35" x="400.398438"/>
       <use xlink:href="#DejaVuSans-30" x="464.021484"/>
      </g>
     </g>
    </g>
    <g id="xtick_6">
     <g id="line2d_6">
      <g>
       <use xlink:href="#m5f24d09a80" x="557.653976" y="512.64" style="stroke: #000000; stroke-width: 0.8"/>
      </g>
     </g>
     <g id="text_6">
      <!-- normal_30 -->
      <g transform="translate(531.271945 527.238438)scale(0.1 -0.1)">
       <defs>
        <path id="DejaVuSans-33" d="M 2597 2516 
Q 3050 2419 3304 2112 
Q 3559 1806 3559 1356 
Q 3559 666 3084 287 
Q 2609 -91 1734 -91 
Q 1441 -91 1130 -33 
Q 819 25 488 141 
L 488 750 
Q 750 597 1062 519 
Q 1375 441 1716 441 
Q 2309 441 2620 675 
Q 2931 909 2931 1356 
Q 2931 1769 2642 2001 
Q 2353 2234 1838 2234 
L 1294 2234 
L 1294 2753 
L 1863 2753 
Q 2328 2753 2575 2939 
Q 2822 3125 2822 3475 
Q 2822 3834 2567 4026 
Q 2313 4219 1838 4219 
Q 1578 4219 1281 4162 
Q 984 4106 628 3988 
L 628 4550 
Q 988 4650 1302 4700 
Q 1616 4750 1894 4750 
Q 2613 4750 3031 4423 
Q 3450 4097 3450 3541 
Q 3450 3153 3228 2886 
Q 3006 2619 2597 2516 
z
" transform="scale(0.015625)"/>
       </defs>
       <use xlink:href="#DejaVuSans-6e"/>
       <use xlink:href="#DejaVuSans-6f" x="63.378906"/>
       <use xlink:href="#DejaVuSans-72" x="124.560547"/>
       <use xlink:href="#DejaVuSans-6d" x="163.923828"/>
       <use xlink:href="#DejaVuSans-61" x="261.335938"/>
       <use xlink:href="#DejaVuSans-6c" x="322.615234"/>
       <use xlink:href="#DejaVuSans-5f" x="350.398438"/>
       <use xlink:href="#DejaVuSans-33" x="400.398438"/>
       <use xlink:href="#DejaVuSans-30" x="464.021484"/>
      </g>
     </g>
    </g>
    <g id="xtick_7">
     <g id="line2d_7">
      <g>
       <use xlink:href="#m5f24d09a80" x="630.407858" y="512.64" style="stroke: #000000; stroke-width: 0.8"/>
      </g>
     </g>
     <g id="text_7">
      <!-- uniform -->
      <g transform="translate(611.023483 527.238438)scale(0.1 -0.1)">
       <defs>
        <path id="DejaVuSans-75" d="M 544 1381 
L 544 3500 
L 1119 3500 
L 1119 1403 
Q 1119 906 1312 657 
Q 1506 409 1894 409 
Q 2359 409 2629 706 
Q 2900 1003 2900 1516 
L 2900 3500 
L 3475 3500 
L 3475 0 
L 2900 0 
L 2900 538 
Q 2691 219 2414 64 
Q 2138 -91 1772 -91 
Q 1169 -91 856 284 
Q 544 659 544 1381 
z
M 1991 3584 
L 1991 3584 
z
" transform="scale(0.015625)"/>
        <path id="DejaVuSans-69" d="M 603 3500 
L 1178 3500 
L 1178 0 
L 603 0 
L 603 3500 
z
M 603 4863 
L 1178 4863 
L 1178 4134 
L 603 4134 
L 603 4863 
z
" transform="scale(0.015625)"/>
        <path id="DejaVuSans-66" d="M 2375 4863 
L 2375 4384 
L 1825 4384 
Q 1516 4384 1395 4259 
Q 1275 4134 1275 3809 
L 1275 3500 
L 2222 3500 
L 2222 3053 
L 1275 3053 
L 1275 0 
L 697 0 
L 697 3053 
L 147 3053 
L 147 3500 
L 697 3500 
L 697 3744 
Q 697 4328 969 4595 
Q 1241 4863 1831 4863 
L 2375 4863 
z
" transform="scale(0.015625)"/>
       </defs>
       <use xlink:href="#DejaVuSans-75"/>
       <use xlink:href="#DejaVuSans-6e" x="63.378906"/>
       <use xlink:href="#DejaVuSans-69" x="126.757812"/>
       <use xlink:href="#DejaVuSans-66" x="154.541016"/>
       <use xlink:href="#DejaVuSans-6f" x="189.746094"/>
       <use xlink:href="#DejaVuSans-72" x="250.927734"/>
       <use xlink:href="#DejaVuSans-6d" x="290.291016"/>
      </g>
     </g>
    </g>
    <g id="xtick_8">
     <g id="line2d_8">
      <g>
       <use xlink:href="#m5f24d09a80" x="703.161739" y="512.64" style="stroke: #000000; stroke-width: 0.8"/>
      </g>
     </g>
     <g id="text_8">
      <!-- normal_10 -->
      <g transform="translate(676.779708 527.238438)scale(0.1 -0.1)">
       <use xlink:href="#DejaVuSans-6e"/>
       <use xlink:href="#DejaVuSans-6f" x="63.378906"/>
       <use xlink:href="#DejaVuSans-72" x="124.560547"/>
       <use xlink:href="#DejaVuSans-6d" x="163.923828"/>
       <use xlink:href="#DejaVuSans-61" x="261.335938"/>
       <use xlink:href="#DejaVuSans-6c" x="322.615234"/>
       <use xlink:href="#DejaVuSans-5f" x="350.398438"/>
       <use xlink:href="#DejaVuSans-31" x="400.398438"/>
       <use xlink:href="#DejaVuSans-30" x="464.021484"/>
      </g>
     </g>
    </g>
    <g id="xtick_9">
     <g id="line2d_9">
      <g>
       <use xlink:href="#m5f24d09a80" x="775.915621" y="512.64" style="stroke: #000000; stroke-width: 0.8"/>
      </g>
     </g>
     <g id="text_9">
      <!-- laplace_30 -->
      <g transform="translate(749.146871 527.238438)scale(0.1 -0.1)">
       <use xlink:href="#DejaVuSans-6c"/>
       <use xlink:href="#DejaVuSans-61" x="27.783203"/>
       <use xlink:href="#DejaVuSans-70" x="89.0625"/>
       <use xlink:href="#DejaVuSans-6c" x="152.539062"/>
       <use xlink:href="#DejaVuSans-61" x="180.322266"/>
       <use xlink:href="#DejaVuSans-63" x="241.601562"/>
       <use xlink:href="#DejaVuSans-65" x="296.582031"/>
       <use xlink:href="#DejaVuSans-5f" x="358.105469"/>
       <use xlink:href="#DejaVuSans-33" x="408.105469"/>
       <use xlink:href="#DejaVuSans-30" x="471.728516"/>
      </g>
     </g>
    </g>
    <g id="xtick_10">
     <g id="line2d_10">
      <g>
       <use xlink:href="#m5f24d09a80" x="848.669502" y="512.64" style="stroke: #000000; stroke-width: 0.8"/>
      </g>
     </g>
     <g id="text_10">
      <!-- laplace_20 -->
      <g transform="translate(821.900752 527.238438)scale(0.1 -0.1)">
       <defs>
        <path id="DejaVuSans-32" d="M 1228 531 
L 3431 531 
L 3431 0 
L 469 0 
L 469 531 
Q 828 903 1448 1529 
Q 2069 2156 2228 2338 
Q 2531 2678 2651 2914 
Q 2772 3150 2772 3378 
Q 2772 3750 2511 3984 
Q 2250 4219 1831 4219 
Q 1534 4219 1204 4116 
Q 875 4013 500 3803 
L 500 4441 
Q 881 4594 1212 4672 
Q 1544 4750 1819 4750 
Q 2544 4750 2975 4387 
Q 3406 4025 3406 3419 
Q 3406 3131 3298 2873 
Q 3191 2616 2906 2266 
Q 2828 2175 2409 1742 
Q 1991 1309 1228 531 
z
" transform="scale(0.015625)"/>
       </defs>
       <use xlink:href="#DejaVuSans-6c"/>
       <use xlink:href="#DejaVuSans-61" x="27.783203"/>
       <use xlink:href="#DejaVuSans-70" x="89.0625"/>
       <use xlink:href="#DejaVuSans-6c" x="152.539062"/>
       <use xlink:href="#DejaVuSans-61" x="180.322266"/>
       <use xlink:href="#DejaVuSans-63" x="241.601562"/>
       <use xlink:href="#DejaVuSans-65" x="296.582031"/>
       <use xlink:href="#DejaVuSans-5f" x="358.105469"/>
       <use xlink:href="#DejaVuSans-32" x="408.105469"/>
       <use xlink:href="#DejaVuSans-30" x="471.728516"/>
      </g>
     </g>
    </g>
    <g id="text_11">
     <!-- image -->
     <g transform="translate(501.025781 541.194687)scale(0.1 -0.1)">
      <use xlink:href="#DejaVuSans-69"/>
      <use xlink:href="#DejaVuSans-6d" x="27.783203"/>
      <use xlink:href="#DejaVuSans-61" x="125.195312"/>
      <use xlink:href="#DejaVuSans-67" x="186.474609"/>
      <use xlink:href="#DejaVuSans-65" x="249.951172"/>
     </g>
    </g>
   </g>
   <g id="matplotlib.axis_2">
    <g id="ytick_1">
     <g id="line2d_11">
      <defs>
       <path id="mccec98552a" d="M 0 0 
L -3.5 0 
" style="stroke: #000000; stroke-width: 0.8"/>
      </defs>
      <g>
       <use xlink:href="#mccec98552a" x="126" y="512.64" style="stroke: #000000; stroke-width: 0.8"/>
      </g>
     </g>
     <g id="text_12">
      <!-- 0 -->
      <g transform="translate(112.6375 516.439219)scale(0.1 -0.1)">
       <use xlink:href="#DejaVuSans-30"/>
      </g>
     </g>
    </g>
    <g id="ytick_2">
     <g id="line2d_12">
      <g>
       <use xlink:href="#mccec98552a" x="126" y="460.772067" style="stroke: #000000; stroke-width: 0.8"/>
      </g>
     </g>
     <g id="text_13">
      <!-- 50000 -->
      <g transform="translate(87.1875 464.571286)scale(0.1 -0.1)">
       <use xlink:href="#DejaVuSans-35"/>
       <use xlink:href="#DejaVuSans-30" x="63.623047"/>
       <use xlink:href="#DejaVuSans-30" x="127.246094"/>
       <use xlink:href="#DejaVuSans-30" x="190.869141"/>
       <use xlink:href="#DejaVuSans-30" x="254.492188"/>
      </g>
     </g>
    </g>
    <g id="ytick_3">
     <g id="line2d_13">
      <g>
       <use xlink:href="#mccec98552a" x="126" y="408.904134" style="stroke: #000000; stroke-width: 0.8"/>
      </g>
     </g>
     <g id="text_14">
      <!-- 100000 -->
      <g transform="translate(80.825 412.703352)scale(0.1 -0.1)">
       <use xlink:href="#DejaVuSans-31"/>
       <use xlink:href="#DejaVuSans-30" x="63.623047"/>
       <use xlink:href="#DejaVuSans-30" x="127.246094"/>
       <use xlink:href="#DejaVuSans-30" x="190.869141"/>
       <use xlink:href="#DejaVuSans-30" x="254.492188"/>
       <use xlink:href="#DejaVuSans-30" x="318.115234"/>
      </g>
     </g>
    </g>
    <g id="ytick_4">
     <g id="line2d_14">
      <g>
       <use xlink:href="#mccec98552a" x="126" y="357.0362" style="stroke: #000000; stroke-width: 0.8"/>
      </g>
     </g>
     <g id="text_15">
      <!-- 150000 -->
      <g transform="translate(80.825 360.835419)scale(0.1 -0.1)">
       <use xlink:href="#DejaVuSans-31"/>
       <use xlink:href="#DejaVuSans-35" x="63.623047"/>
       <use xlink:href="#DejaVuSans-30" x="127.246094"/>
       <use xlink:href="#DejaVuSans-30" x="190.869141"/>
       <use xlink:href="#DejaVuSans-30" x="254.492188"/>
       <use xlink:href="#DejaVuSans-30" x="318.115234"/>
      </g>
     </g>
    </g>
    <g id="ytick_5">
     <g id="line2d_15">
      <g>
       <use xlink:href="#mccec98552a" x="126" y="305.168267" style="stroke: #000000; stroke-width: 0.8"/>
      </g>
     </g>
     <g id="text_16">
      <!-- 200000 -->
      <g transform="translate(80.825 308.967486)scale(0.1 -0.1)">
       <use xlink:href="#DejaVuSans-32"/>
       <use xlink:href="#DejaVuSans-30" x="63.623047"/>
       <use xlink:href="#DejaVuSans-30" x="127.246094"/>
       <use xlink:href="#DejaVuSans-30" x="190.869141"/>
       <use xlink:href="#DejaVuSans-30" x="254.492188"/>
       <use xlink:href="#DejaVuSans-30" x="318.115234"/>
      </g>
     </g>
    </g>
    <g id="ytick_6">
     <g id="line2d_16">
      <g>
       <use xlink:href="#mccec98552a" x="126" y="253.300334" style="stroke: #000000; stroke-width: 0.8"/>
      </g>
     </g>
     <g id="text_17">
      <!-- 250000 -->
      <g transform="translate(80.825 257.099553)scale(0.1 -0.1)">
       <use xlink:href="#DejaVuSans-32"/>
       <use xlink:href="#DejaVuSans-35" x="63.623047"/>
       <use xlink:href="#DejaVuSans-30" x="127.246094"/>
       <use xlink:href="#DejaVuSans-30" x="190.869141"/>
       <use xlink:href="#DejaVuSans-30" x="254.492188"/>
       <use xlink:href="#DejaVuSans-30" x="318.115234"/>
      </g>
     </g>
    </g>
    <g id="ytick_7">
     <g id="line2d_17">
      <g>
       <use xlink:href="#mccec98552a" x="126" y="201.432401" style="stroke: #000000; stroke-width: 0.8"/>
      </g>
     </g>
     <g id="text_18">
      <!-- 300000 -->
      <g transform="translate(80.825 205.231619)scale(0.1 -0.1)">
       <use xlink:href="#DejaVuSans-33"/>
       <use xlink:href="#DejaVuSans-30" x="63.623047"/>
       <use xlink:href="#DejaVuSans-30" x="127.246094"/>
       <use xlink:href="#DejaVuSans-30" x="190.869141"/>
       <use xlink:href="#DejaVuSans-30" x="254.492188"/>
       <use xlink:href="#DejaVuSans-30" x="318.115234"/>
      </g>
     </g>
    </g>
    <g id="ytick_8">
     <g id="line2d_18">
      <g>
       <use xlink:href="#mccec98552a" x="126" y="149.564467" style="stroke: #000000; stroke-width: 0.8"/>
      </g>
     </g>
     <g id="text_19">
      <!-- 350000 -->
      <g transform="translate(80.825 153.363686)scale(0.1 -0.1)">
       <use xlink:href="#DejaVuSans-33"/>
       <use xlink:href="#DejaVuSans-35" x="63.623047"/>
       <use xlink:href="#DejaVuSans-30" x="127.246094"/>
       <use xlink:href="#DejaVuSans-30" x="190.869141"/>
       <use xlink:href="#DejaVuSans-30" x="254.492188"/>
       <use xlink:href="#DejaVuSans-30" x="318.115234"/>
      </g>
     </g>
    </g>
    <g id="ytick_9">
     <g id="line2d_19">
      <g>
       <use xlink:href="#mccec98552a" x="126" y="97.696534" style="stroke: #000000; stroke-width: 0.8"/>
      </g>
     </g>
     <g id="text_20">
      <!-- 400000 -->
      <g transform="translate(80.825 101.495753)scale(0.1 -0.1)">
       <defs>
        <path id="DejaVuSans-34" d="M 2419 4116 
L 825 1625 
L 2419 1625 
L 2419 4116 
z
M 2253 4666 
L 3047 4666 
L 3047 1625 
L 3713 1625 
L 3713 1100 
L 3047 1100 
L 3047 0 
L 2419 0 
L 2419 1100 
L 313 1100 
L 313 1709 
L 2253 4666 
z
" transform="scale(0.015625)"/>
       </defs>
       <use xlink:href="#DejaVuSans-34"/>
       <use xlink:href="#DejaVuSans-30" x="63.623047"/>
       <use xlink:href="#DejaVuSans-30" x="127.246094"/>
       <use xlink:href="#DejaVuSans-30" x="190.869141"/>
       <use xlink:href="#DejaVuSans-30" x="254.492188"/>
       <use xlink:href="#DejaVuSans-30" x="318.115234"/>
      </g>
     </g>
    </g>
    <g id="text_21">
     <!-- size [bytes] -->
     <g transform="translate(74.745312 319.840156)rotate(-90)scale(0.1 -0.1)">
      <defs>
       <path id="DejaVuSans-73" d="M 2834 3397 
L 2834 2853 
Q 2591 2978 2328 3040 
Q 2066 3103 1784 3103 
Q 1356 3103 1142 2972 
Q 928 2841 928 2578 
Q 928 2378 1081 2264 
Q 1234 2150 1697 2047 
L 1894 2003 
Q 2506 1872 2764 1633 
Q 3022 1394 3022 966 
Q 3022 478 2636 193 
Q 2250 -91 1575 -91 
Q 1294 -91 989 -36 
Q 684 19 347 128 
L 347 722 
Q 666 556 975 473 
Q 1284 391 1588 391 
Q 1994 391 2212 530 
Q 2431 669 2431 922 
Q 2431 1156 2273 1281 
Q 2116 1406 1581 1522 
L 1381 1569 
Q 847 1681 609 1914 
Q 372 2147 372 2553 
Q 372 3047 722 3315 
Q 1072 3584 1716 3584 
Q 2034 3584 2315 3537 
Q 2597 3491 2834 3397 
z
" transform="scale(0.015625)"/>
       <path id="DejaVuSans-7a" d="M 353 3500 
L 3084 3500 
L 3084 2975 
L 922 459 
L 3084 459 
L 3084 0 
L 275 0 
L 275 525 
L 2438 3041 
L 353 3041 
L 353 3500 
z
" transform="scale(0.015625)"/>
       <path id="DejaVuSans-20" transform="scale(0.015625)"/>
       <path id="DejaVuSans-5b" d="M 550 4863 
L 1875 4863 
L 1875 4416 
L 1125 4416 
L 1125 -397 
L 1875 -397 
L 1875 -844 
L 550 -844 
L 550 4863 
z
" transform="scale(0.015625)"/>
       <path id="DejaVuSans-62" d="M 3116 1747 
Q 3116 2381 2855 2742 
Q 2594 3103 2138 3103 
Q 1681 3103 1420 2742 
Q 1159 2381 1159 1747 
Q 1159 1113 1420 752 
Q 1681 391 2138 391 
Q 2594 391 2855 752 
Q 3116 1113 3116 1747 
z
M 1159 2969 
Q 1341 3281 1617 3432 
Q 1894 3584 2278 3584 
Q 2916 3584 3314 3078 
Q 3713 2572 3713 1747 
Q 3713 922 3314 415 
Q 2916 -91 2278 -91 
Q 1894 -91 1617 61 
Q 1341 213 1159 525 
L 1159 0 
L 581 0 
L 581 4863 
L 1159 4863 
L 1159 2969 
z
" transform="scale(0.015625)"/>
       <path id="DejaVuSans-79" d="M 2059 -325 
Q 1816 -950 1584 -1140 
Q 1353 -1331 966 -1331 
L 506 -1331 
L 506 -850 
L 844 -850 
Q 1081 -850 1212 -737 
Q 1344 -625 1503 -206 
L 1606 56 
L 191 3500 
L 800 3500 
L 1894 763 
L 2988 3500 
L 3597 3500 
L 2059 -325 
z
" transform="scale(0.015625)"/>
       <path id="DejaVuSans-5d" d="M 1947 4863 
L 1947 -844 
L 622 -844 
L 622 -397 
L 1369 -397 
L 1369 4416 
L 622 4416 
L 622 4863 
L 1947 4863 
z
" transform="scale(0.015625)"/>
      </defs>
      <use xlink:href="#DejaVuSans-73"/>
      <use xlink:href="#DejaVuSans-69" x="52.099609"/>
      <use xlink:href="#DejaVuSans-7a" x="79.882812"/>
      <use xlink:href="#DejaVuSans-65" x="132.373047"/>
      <use xlink:href="#DejaVuSans-20" x="193.896484"/>
      <use xlink:href="#DejaVuSans-5b" x="225.683594"/>
      <use xlink:href="#DejaVuSans-62" x="264.697266"/>
      <use xlink:href="#DejaVuSans-79" x="328.173828"/>
      <use xlink:href="#DejaVuSans-74" x="387.353516"/>
      <use xlink:href="#DejaVuSans-65" x="426.5625"/>
      <use xlink:href="#DejaVuSans-73" x="488.085938"/>
      <use xlink:href="#DejaVuSans-5d" x="540.185547"/>
     </g>
    </g>
   </g>
   <g id="patch_63">
    <path d="M 126 512.64 
L 126 69.12 
" style="fill: none; stroke: #000000; stroke-width: 0.8; stroke-linejoin: miter; stroke-linecap: square"/>
   </g>
   <g id="patch_64">
    <path d="M 907.2 512.64 
L 907.2 69.12 
" style="fill: none; stroke: #000000; stroke-width: 0.8; stroke-linejoin: miter; stroke-linecap: square"/>
   </g>
   <g id="patch_65">
    <path d="M 126 512.64 
L 907.2 512.64 
" style="fill: none; stroke: #000000; stroke-width: 0.8; stroke-linejoin: miter; stroke-linecap: square"/>
   </g>
   <g id="patch_66">
    <path d="M 126 69.12 
L 907.2 69.12 
" style="fill: none; stroke: #000000; stroke-width: 0.8; stroke-linejoin: miter; stroke-linecap: square"/>
   </g>
   <g id="text_22">
    <!-- Different compression methods -->
    <g transform="translate(422.069063 63.12)scale(0.12 -0.12)">
     <defs>
      <path id="DejaVuSans-44" d="M 1259 4147 
L 1259 519 
L 2022 519 
Q 2988 519 3436 956 
Q 3884 1394 3884 2338 
Q 3884 3275 3436 3711 
Q 2988 4147 2022 4147 
L 1259 4147 
z
M 628 4666 
L 1925 4666 
Q 3281 4666 3915 4102 
Q 4550 3538 4550 2338 
Q 4550 1131 3912 565 
Q 3275 0 1925 0 
L 628 0 
L 628 4666 
z
" transform="scale(0.015625)"/>
      <path id="DejaVuSans-68" d="M 3513 2113 
L 3513 0 
L 2938 0 
L 2938 2094 
Q 2938 2591 2744 2837 
Q 2550 3084 2163 3084 
Q 1697 3084 1428 2787 
Q 1159 2491 1159 1978 
L 1159 0 
L 581 0 
L 581 4863 
L 1159 4863 
L 1159 2956 
Q 1366 3272 1645 3428 
Q 1925 3584 2291 3584 
Q 2894 3584 3203 3211 
Q 3513 2838 3513 2113 
z
" transform="scale(0.015625)"/>
      <path id="DejaVuSans-64" d="M 2906 2969 
L 2906 4863 
L 3481 4863 
L 3481 0 
L 2906 0 
L 2906 525 
Q 2725 213 2448 61 
Q 2172 -91 1784 -91 
Q 1150 -91 751 415 
Q 353 922 353 1747 
Q 353 2572 751 3078 
Q 1150 3584 1784 3584 
Q 2172 3584 2448 3432 
Q 2725 3281 2906 2969 
z
M 947 1747 
Q 947 1113 1208 752 
Q 1469 391 1925 391 
Q 2381 391 2643 752 
Q 2906 1113 2906 1747 
Q 2906 2381 2643 2742 
Q 2381 3103 1925 3103 
Q 1469 3103 1208 2742 
Q 947 2381 947 1747 
z
" transform="scale(0.015625)"/>
     </defs>
     <use xlink:href="#DejaVuSans-44"/>
     <use xlink:href="#DejaVuSans-69" x="77.001953"/>
     <use xlink:href="#DejaVuSans-66" x="104.785156"/>
     <use xlink:href="#DejaVuSans-66" x="139.990234"/>
     <use xlink:href="#DejaVuSans-65" x="175.195312"/>
     <use xlink:href="#DejaVuSans-72" x="236.71875"/>
     <use xlink:href="#DejaVuSans-65" x="275.582031"/>
     <use xlink:href="#DejaVuSans-6e" x="337.105469"/>
     <use xlink:href="#DejaVuSans-74" x="400.484375"/>
     <use xlink:href="#DejaVuSans-20" x="439.693359"/>
     <use xlink:href="#DejaVuSans-63" x="471.480469"/>
     <use xlink:href="#DejaVuSans-6f" x="526.460938"/>
     <use xlink:href="#DejaVuSans-6d" x="587.642578"/>
     <use xlink:href="#DejaVuSans-70" x="685.054688"/>
     <use xlink:href="#DejaVuSans-72" x="748.53125"/>
     <use xlink:href="#DejaVuSans-65" x="787.394531"/>
     <use xlink:href="#DejaVuSans-73" x="848.917969"/>
     <use xlink:href="#DejaVuSans-73" x="901.017578"/>
     <use xlink:href="#DejaVuSans-69" x="953.117188"/>
     <use xlink:href="#DejaVuSans-6f" x="980.900391"/>
     <use xlink:href="#DejaVuSans-6e" x="1042.082031"/>
     <use xlink:href="#DejaVuSans-20" x="1105.460938"/>
     <use xlink:href="#DejaVuSans-6d" x="1137.248047"/>
     <use xlink:href="#DejaVuSans-65" x="1234.660156"/>
     <use xlink:href="#DejaVuSans-74" x="1296.183594"/>
     <use xlink:href="#DejaVuSans-68" x="1335.392578"/>
     <use xlink:href="#DejaVuSans-6f" x="1398.771484"/>
     <use xlink:href="#DejaVuSans-64" x="1459.953125"/>
     <use xlink:href="#DejaVuSans-73" x="1523.429688"/>
    </g>
   </g>
   <g id="legend_1">
    <g id="patch_67">
     <path d="M 830.115625 165.18875 
L 900.2 165.18875 
Q 902.2 165.18875 902.2 163.18875 
L 902.2 76.12 
Q 902.2 74.12 900.2 74.12 
L 830.115625 74.12 
Q 828.115625 74.12 828.115625 76.12 
L 828.115625 163.18875 
Q 828.115625 165.18875 830.115625 165.18875 
z
" style="fill: #ffffff; opacity: 0.8; stroke: #cccccc; stroke-linejoin: miter"/>
    </g>
    <g id="patch_68">
     <path d="M 832.115625 85.718438 
L 852.115625 85.718438 
L 852.115625 78.718438 
L 832.115625 78.718438 
z
" style="fill: #bfbf00"/>
    </g>
    <g id="text_23">
     <!-- .png -->
     <g transform="translate(860.115625 85.718438)scale(0.1 -0.1)">
      <defs>
       <path id="DejaVuSans-2e" d="M 684 794 
L 1344 794 
L 1344 0 
L 684 0 
L 684 794 
z
" transform="scale(0.015625)"/>
      </defs>
      <use xlink:href="#DejaVuSans-2e"/>
      <use xlink:href="#DejaVuSans-70" x="31.787109"/>
      <use xlink:href="#DejaVuSans-6e" x="95.263672"/>
      <use xlink:href="#DejaVuSans-67" x="158.642578"/>
     </g>
    </g>
    <g id="patch_69">
     <path d="M 832.115625 100.396563 
L 852.115625 100.396563 
L 852.115625 93.396563 
L 832.115625 93.396563 
z
" style="fill: #0000ff"/>
    </g>
    <g id="text_24">
     <!-- .jpg -->
     <g transform="translate(860.115625 100.396563)scale(0.1 -0.1)">
      <defs>
       <path id="DejaVuSans-6a" d="M 603 3500 
L 1178 3500 
L 1178 -63 
Q 1178 -731 923 -1031 
Q 669 -1331 103 -1331 
L -116 -1331 
L -116 -844 
L 38 -844 
Q 366 -844 484 -692 
Q 603 -541 603 -63 
L 603 3500 
z
M 603 4863 
L 1178 4863 
L 1178 4134 
L 603 4134 
L 603 4863 
z
" transform="scale(0.015625)"/>
      </defs>
      <use xlink:href="#DejaVuSans-2e"/>
      <use xlink:href="#DejaVuSans-6a" x="31.787109"/>
      <use xlink:href="#DejaVuSans-70" x="59.570312"/>
      <use xlink:href="#DejaVuSans-67" x="123.046875"/>
     </g>
    </g>
    <g id="patch_70">
     <path d="M 832.115625 115.074688 
L 852.115625 115.074688 
L 852.115625 108.074688 
L 832.115625 108.074688 
z
" style="fill: #008000"/>
    </g>
    <g id="text_25">
     <!-- .webp -->
     <g transform="translate(860.115625 115.074688)scale(0.1 -0.1)">
      <defs>
       <path id="DejaVuSans-77" d="M 269 3500 
L 844 3500 
L 1563 769 
L 2278 3500 
L 2956 3500 
L 3675 769 
L 4391 3500 
L 4966 3500 
L 4050 0 
L 3372 0 
L 2619 2869 
L 1863 0 
L 1184 0 
L 269 3500 
z
" transform="scale(0.015625)"/>
      </defs>
      <use xlink:href="#DejaVuSans-2e"/>
      <use xlink:href="#DejaVuSans-77" x="31.787109"/>
      <use xlink:href="#DejaVuSans-65" x="113.574219"/>
      <use xlink:href="#DejaVuSans-62" x="175.097656"/>
      <use xlink:href="#DejaVuSans-70" x="238.574219"/>
     </g>
    </g>
    <g id="patch_71">
     <path d="M 832.115625 129.752813 
L 852.115625 129.752813 
L 852.115625 122.752813 
L 832.115625 122.752813 
z
" style="fill: #00bfbf"/>
    </g>
    <g id="text_26">
     <!-- .zip -->
     <g transform="translate(860.115625 129.752813)scale(0.1 -0.1)">
      <use xlink:href="#DejaVuSans-2e"/>
      <use xlink:href="#DejaVuSans-7a" x="31.787109"/>
      <use xlink:href="#DejaVuSans-69" x="84.277344"/>
      <use xlink:href="#DejaVuSans-70" x="112.060547"/>
     </g>
    </g>
    <g id="patch_72">
     <path d="M 832.115625 144.430938 
L 852.115625 144.430938 
L 852.115625 137.430938 
L 832.115625 137.430938 
z
"/>
    </g>
    <g id="text_27">
     <!-- .pgm -->
     <g transform="translate(860.115625 144.430938)scale(0.1 -0.1)">
      <use xlink:href="#DejaVuSans-2e"/>
      <use xlink:href="#DejaVuSans-70" x="31.787109"/>
      <use xlink:href="#DejaVuSans-67" x="95.263672"/>
      <use xlink:href="#DejaVuSans-6d" x="158.740234"/>
     </g>
    </g>
    <g id="patch_73">
     <path d="M 832.115625 159.109063 
L 852.115625 159.109063 
L 852.115625 152.109063 
L 832.115625 152.109063 
z
" style="fill: #bf00bf"/>
    </g>
    <g id="text_28">
     <!-- Tunstall -->
     <g transform="translate(860.115625 159.109063)scale(0.1 -0.1)">
      <defs>
       <path id="DejaVuSans-54" d="M -19 4666 
L 3928 4666 
L 3928 4134 
L 2272 4134 
L 2272 0 
L 1638 0 
L 1638 4134 
L -19 4134 
L -19 4666 
z
" transform="scale(0.015625)"/>
      </defs>
      <use xlink:href="#DejaVuSans-54"/>
      <use xlink:href="#DejaVuSans-75" x="45.958984"/>
      <use xlink:href="#DejaVuSans-6e" x="109.337891"/>
      <use xlink:href="#DejaVuSans-73" x="172.716797"/>
      <use xlink:href="#DejaVuSans-74" x="224.816406"/>
      <use xlink:href="#DejaVuSans-61" x="264.025391"/>
      <use xlink:href="#DejaVuSans-6c" x="325.304688"/>
      <use xlink:href="#DejaVuSans-6c" x="353.087891"/>
     </g>
    </g>
   </g>
  </g>
 </g>
 <defs>
  <clipPath id="p647edcfc59">
   <rect x="126" y="69.12" width="781.2" height="443.52"/>
  </clipPath>
 </defs>
</svg>
