<?xml version="1.0" encoding="utf-8" standalone="no"?>
<!DOCTYPE svg PUBLIC "-//W3C//DTD SVG 1.1//EN"
  "http://www.w3.org/Graphics/SVG/1.1/DTD/svg11.dtd">
<svg xmlns:xlink="http://www.w3.org/1999/xlink" width="1152pt" height="720pt" viewBox="0 0 1152 720" xmlns="http://www.w3.org/2000/svg" version="1.1">
 <metadata>
  <rdf:RDF xmlns:dc="http://purl.org/dc/elements/1.1/" xmlns:cc="http://creativecommons.org/ns#" xmlns:rdf="http://www.w3.org/1999/02/22-rdf-syntax-ns#">
   <cc:Work>
    <dc:type rdf:resource="http://purl.org/dc/dcmitype/StillImage"/>
    <dc:date>2022-05-15T23:52:21.939709</dc:date>
    <dc:format>image/svg+xml</dc:format>
    <dc:creator>
     <cc:Agent>
      <dc:title>Matplotlib v3.5.2, https://matplotlib.org/</dc:title>
     </cc:Agent>
    </dc:creator>
   </cc:Work>
  </rdf:RDF>
 </metadata>
 <defs>
  <style type="text/css">*{stroke-linejoin: round; stroke-linecap: butt}</style>
 </defs>
 <g id="figure_1">
  <g id="patch_1">
   <path d="M 0 720 
L 1152 720 
L 1152 0 
L 0 0 
z
" style="fill: #ffffff"/>
  </g>
  <g id="axes_1">
   <g id="patch_2">
    <path d="M 144 640.8 
L 1036.8 640.8 
L 1036.8 86.4 
L 144 86.4 
z
" style="fill: #ffffff"/>
   </g>
   <g id="patch_3">
    <path d="M 184.581818 640.802012 
L 200.920848 640.802012 
L 200.920848 113.216639 
L 184.581818 113.216639 
z
" clip-path="url(#p908c8ea4ea)" style="fill: #bfbf00"/>
   </g>
   <g id="patch_4">
    <path d="M 322.380861 640.802012 
L 338.719891 640.802012 
L 338.719891 113.216639 
L 322.380861 113.216639 
z
" clip-path="url(#p908c8ea4ea)" style="fill: #bfbf00"/>
   </g>
   <g id="patch_5">
    <path d="M 460.179904 640.802012 
L 476.518934 640.802012 
L 476.518934 113.216639 
L 460.179904 113.216639 
z
" clip-path="url(#p908c8ea4ea)" style="fill: #bfbf00"/>
   </g>
   <g id="patch_6">
    <path d="M 597.978947 640.802012 
L 614.317977 640.802012 
L 614.317977 113.216639 
L 597.978947 113.216639 
z
" clip-path="url(#p908c8ea4ea)" style="fill: #bfbf00"/>
   </g>
   <g id="patch_7">
    <path d="M 735.77799 640.802012 
L 752.11702 640.802012 
L 752.11702 113.216639 
L 735.77799 113.216639 
z
" clip-path="url(#p908c8ea4ea)" style="fill: #bfbf00"/>
   </g>
   <g id="patch_8">
    <path d="M 873.577033 640.802012 
L 889.916063 640.802012 
L 889.916063 113.216639 
L 873.577033 113.216639 
z
" clip-path="url(#p908c8ea4ea)" style="fill: #bfbf00"/>
   </g>
   <g id="patch_9">
    <path d="M 202.298838 640.802012 
L 218.637867 640.802012 
L 218.637867 113.216639 
L 202.298838 113.216639 
z
" clip-path="url(#p908c8ea4ea)"/>
   </g>
   <g id="patch_10">
    <path d="M 340.097881 640.802012 
L 356.43691 640.802012 
L 356.43691 113.216639 
L 340.097881 113.216639 
z
" clip-path="url(#p908c8ea4ea)"/>
   </g>
   <g id="patch_11">
    <path d="M 477.896924 640.802012 
L 494.235954 640.802012 
L 494.235954 113.216639 
L 477.896924 113.216639 
z
" clip-path="url(#p908c8ea4ea)"/>
   </g>
   <g id="patch_12">
    <path d="M 615.695967 640.802012 
L 632.034997 640.802012 
L 632.034997 113.216639 
L 615.695967 113.216639 
z
" clip-path="url(#p908c8ea4ea)"/>
   </g>
   <g id="patch_13">
    <path d="M 753.49501 640.802012 
L 769.83404 640.802012 
L 769.83404 113.216639 
L 753.49501 113.216639 
z
" clip-path="url(#p908c8ea4ea)"/>
   </g>
   <g id="patch_14">
    <path d="M 891.294053 640.802012 
L 907.633083 640.802012 
L 907.633083 113.216639 
L 891.294053 113.216639 
z
" clip-path="url(#p908c8ea4ea)"/>
   </g>
   <g id="patch_15">
    <path d="M 202.298838 640.802012 
L 218.637867 640.802012 
L 218.637867 640.8 
L 202.298838 640.8 
z
" clip-path="url(#p908c8ea4ea)" style="fill: #008000"/>
   </g>
   <g id="patch_16">
    <path d="M 340.097881 640.802012 
L 356.43691 640.802012 
L 356.43691 640.795975 
L 340.097881 640.795975 
z
" clip-path="url(#p908c8ea4ea)" style="fill: #008000"/>
   </g>
   <g id="patch_17">
    <path d="M 477.896924 640.802012 
L 494.235954 640.802012 
L 494.235954 640.781889 
L 477.896924 640.781889 
z
" clip-path="url(#p908c8ea4ea)" style="fill: #008000"/>
   </g>
   <g id="patch_18">
    <path d="M 615.695967 640.802012 
L 632.034997 640.802012 
L 632.034997 640.717496 
L 615.695967 640.717496 
z
" clip-path="url(#p908c8ea4ea)" style="fill: #008000"/>
   </g>
   <g id="patch_19">
    <path d="M 753.49501 640.802012 
L 769.83404 640.802012 
L 769.83404 640.23656 
L 753.49501 640.23656 
z
" clip-path="url(#p908c8ea4ea)" style="fill: #008000"/>
   </g>
   <g id="patch_20">
    <path d="M 891.294053 640.802012 
L 907.633083 640.802012 
L 907.633083 631.261761 
L 891.294053 631.261761 
z
" clip-path="url(#p908c8ea4ea)" style="fill: #008000"/>
   </g>
   <g id="patch_21">
    <path d="M 202.298838 640.8 
L 218.637867 640.8 
L 218.637867 113.220664 
L 202.298838 113.220664 
z
" clip-path="url(#p908c8ea4ea)" style="fill: #ff0000"/>
   </g>
   <g id="patch_22">
    <path d="M 340.097881 640.795975 
L 356.43691 640.795975 
L 356.43691 113.224688 
L 340.097881 113.224688 
z
" clip-path="url(#p908c8ea4ea)" style="fill: #ff0000"/>
   </g>
   <g id="patch_23">
    <path d="M 477.896924 640.781889 
L 494.235954 640.781889 
L 494.235954 113.236762 
L 477.896924 113.236762 
z
" clip-path="url(#p908c8ea4ea)" style="fill: #ff0000"/>
   </g>
   <g id="patch_24">
    <path d="M 615.695967 640.717496 
L 632.034997 640.717496 
L 632.034997 113.264934 
L 615.695967 113.264934 
z
" clip-path="url(#p908c8ea4ea)" style="fill: #ff0000"/>
   </g>
   <g id="patch_25">
    <path d="M 753.49501 640.23656 
L 769.83404 640.23656 
L 769.83404 113.403782 
L 753.49501 113.403782 
z
" clip-path="url(#p908c8ea4ea)" style="fill: #ff0000"/>
   </g>
   <g id="patch_26">
    <path d="M 891.294053 631.261761 
L 907.633083 631.261761 
L 907.633083 114.578957 
L 891.294053 114.578957 
z
" clip-path="url(#p908c8ea4ea)" style="fill: #ff0000"/>
   </g>
   <g id="patch_27">
    <path d="M 202.298838 113.220664 
L 218.637867 113.220664 
L 218.637867 113.212615 
L 202.298838 113.212615 
z
" clip-path="url(#p908c8ea4ea)" style="fill: #0000ff"/>
   </g>
   <g id="patch_28">
    <path d="M 340.097881 113.224688 
L 356.43691 113.224688 
L 356.43691 113.204565 
L 340.097881 113.204565 
z
" clip-path="url(#p908c8ea4ea)" style="fill: #0000ff"/>
   </g>
   <g id="patch_29">
    <path d="M 477.896924 113.236762 
L 494.235954 113.236762 
L 494.235954 113.190479 
L 477.896924 113.190479 
z
" clip-path="url(#p908c8ea4ea)" style="fill: #0000ff"/>
   </g>
   <g id="patch_30">
    <path d="M 615.695967 113.264934 
L 632.034997 113.264934 
L 632.034997 113.162307 
L 615.695967 113.162307 
z
" clip-path="url(#p908c8ea4ea)" style="fill: #0000ff"/>
   </g>
   <g id="patch_31">
    <path d="M 753.49501 113.403782 
L 769.83404 113.403782 
L 769.83404 113.180418 
L 753.49501 113.180418 
z
" clip-path="url(#p908c8ea4ea)" style="fill: #0000ff"/>
   </g>
   <g id="patch_32">
    <path d="M 891.294053 114.578957 
L 907.633083 114.578957 
L 907.633083 114.098021 
L 891.294053 114.098021 
z
" clip-path="url(#p908c8ea4ea)" style="fill: #0000ff"/>
   </g>
   <g id="patch_33">
    <path d="M 220.015858 640.802012 
L 236.354887 640.802012 
L 236.354887 113.216639 
L 220.015858 113.216639 
z
" clip-path="url(#p908c8ea4ea)"/>
   </g>
   <g id="patch_34">
    <path d="M 357.814901 640.802012 
L 374.15393 640.802012 
L 374.15393 113.216639 
L 357.814901 113.216639 
z
" clip-path="url(#p908c8ea4ea)"/>
   </g>
   <g id="patch_35">
    <path d="M 495.613944 640.802012 
L 511.952973 640.802012 
L 511.952973 113.216639 
L 495.613944 113.216639 
z
" clip-path="url(#p908c8ea4ea)"/>
   </g>
   <g id="patch_36">
    <path d="M 633.412987 640.802012 
L 649.752016 640.802012 
L 649.752016 113.216639 
L 633.412987 113.216639 
z
" clip-path="url(#p908c8ea4ea)"/>
   </g>
   <g id="patch_37">
    <path d="M 771.21203 640.802012 
L 787.551059 640.802012 
L 787.551059 113.216639 
L 771.21203 113.216639 
z
" clip-path="url(#p908c8ea4ea)"/>
   </g>
   <g id="patch_38">
    <path d="M 909.011073 640.802012 
L 925.350103 640.802012 
L 925.350103 113.216639 
L 909.011073 113.216639 
z
" clip-path="url(#p908c8ea4ea)"/>
   </g>
   <g id="patch_39">
    <path d="M 220.015858 640.802012 
L 236.354887 640.802012 
L 236.354887 640.8 
L 220.015858 640.8 
z
" clip-path="url(#p908c8ea4ea)" style="fill: #008000"/>
   </g>
   <g id="patch_40">
    <path d="M 357.814901 640.802012 
L 374.15393 640.802012 
L 374.15393 640.795975 
L 357.814901 640.795975 
z
" clip-path="url(#p908c8ea4ea)" style="fill: #008000"/>
   </g>
   <g id="patch_41">
    <path d="M 495.613944 640.802012 
L 511.952973 640.802012 
L 511.952973 640.781889 
L 495.613944 640.781889 
z
" clip-path="url(#p908c8ea4ea)" style="fill: #008000"/>
   </g>
   <g id="patch_42">
    <path d="M 633.412987 640.802012 
L 649.752016 640.802012 
L 649.752016 640.735607 
L 633.412987 640.735607 
z
" clip-path="url(#p908c8ea4ea)" style="fill: #008000"/>
   </g>
   <g id="patch_43">
    <path d="M 771.21203 640.802012 
L 787.551059 640.802012 
L 787.551059 640.647066 
L 771.21203 640.647066 
z
" clip-path="url(#p908c8ea4ea)" style="fill: #008000"/>
   </g>
   <g id="patch_44">
    <path d="M 909.011073 640.802012 
L 925.350103 640.802012 
L 925.350103 640.343211 
L 909.011073 640.343211 
z
" clip-path="url(#p908c8ea4ea)" style="fill: #008000"/>
   </g>
   <g id="patch_45">
    <path d="M 220.015858 640.8 
L 236.354887 640.8 
L 236.354887 113.220664 
L 220.015858 113.220664 
z
" clip-path="url(#p908c8ea4ea)" style="fill: #ff0000"/>
   </g>
   <g id="patch_46">
    <path d="M 357.814901 640.795975 
L 374.15393 640.795975 
L 374.15393 113.224688 
L 357.814901 113.224688 
z
" clip-path="url(#p908c8ea4ea)" style="fill: #ff0000"/>
   </g>
   <g id="patch_47">
    <path d="M 495.613944 640.781889 
L 511.952973 640.781889 
L 511.952973 113.236762 
L 495.613944 113.236762 
z
" clip-path="url(#p908c8ea4ea)" style="fill: #ff0000"/>
   </g>
   <g id="patch_48">
    <path d="M 633.412987 640.735607 
L 649.752016 640.735607 
L 649.752016 113.254873 
L 633.412987 113.254873 
z
" clip-path="url(#p908c8ea4ea)" style="fill: #ff0000"/>
   </g>
   <g id="patch_49">
    <path d="M 771.21203 640.647066 
L 787.551059 640.647066 
L 787.551059 113.266946 
L 771.21203 113.266946 
z
" clip-path="url(#p908c8ea4ea)" style="fill: #ff0000"/>
   </g>
   <g id="patch_50">
    <path d="M 909.011073 640.343211 
L 925.350103 640.343211 
L 925.350103 113.281032 
L 909.011073 113.281032 
z
" clip-path="url(#p908c8ea4ea)" style="fill: #ff0000"/>
   </g>
   <g id="patch_51">
    <path d="M 220.015858 113.220664 
L 236.354887 113.220664 
L 236.354887 113.212615 
L 220.015858 113.212615 
z
" clip-path="url(#p908c8ea4ea)" style="fill: #0000ff"/>
   </g>
   <g id="patch_52">
    <path d="M 357.814901 113.224688 
L 374.15393 113.224688 
L 374.15393 113.204565 
L 357.814901 113.204565 
z
" clip-path="url(#p908c8ea4ea)" style="fill: #0000ff"/>
   </g>
   <g id="patch_53">
    <path d="M 495.613944 113.236762 
L 511.952973 113.236762 
L 511.952973 113.190479 
L 495.613944 113.190479 
z
" clip-path="url(#p908c8ea4ea)" style="fill: #0000ff"/>
   </g>
   <g id="patch_54">
    <path d="M 633.412987 113.254873 
L 649.752016 113.254873 
L 649.752016 113.152246 
L 633.412987 113.152246 
z
" clip-path="url(#p908c8ea4ea)" style="fill: #0000ff"/>
   </g>
   <g id="patch_55">
    <path d="M 771.21203 113.266946 
L 787.551059 113.266946 
L 787.551059 113.043583 
L 771.21203 113.043583 
z
" clip-path="url(#p908c8ea4ea)" style="fill: #0000ff"/>
   </g>
   <g id="patch_56">
    <path d="M 909.011073 113.281032 
L 925.350103 113.281032 
L 925.350103 112.800096 
L 909.011073 112.800096 
z
" clip-path="url(#p908c8ea4ea)" style="fill: #0000ff"/>
   </g>
   <g id="patch_57">
    <path d="M 237.732878 640.802012 
L 254.071907 640.802012 
L 254.071907 113.216639 
L 237.732878 113.216639 
z
" clip-path="url(#p908c8ea4ea)"/>
   </g>
   <g id="patch_58">
    <path d="M 375.531921 640.802012 
L 391.87095 640.802012 
L 391.87095 113.216639 
L 375.531921 113.216639 
z
" clip-path="url(#p908c8ea4ea)"/>
   </g>
   <g id="patch_59">
    <path d="M 513.330964 640.802012 
L 529.669993 640.802012 
L 529.669993 113.216639 
L 513.330964 113.216639 
z
" clip-path="url(#p908c8ea4ea)"/>
   </g>
   <g id="patch_60">
    <path d="M 651.130007 640.802012 
L 667.469036 640.802012 
L 667.469036 113.216639 
L 651.130007 113.216639 
z
" clip-path="url(#p908c8ea4ea)"/>
   </g>
   <g id="patch_61">
    <path d="M 788.92905 640.802012 
L 805.268079 640.802012 
L 805.268079 113.216639 
L 788.92905 113.216639 
z
" clip-path="url(#p908c8ea4ea)"/>
   </g>
   <g id="patch_62">
    <path d="M 926.728093 640.802012 
L 943.067122 640.802012 
L 943.067122 113.216639 
L 926.728093 113.216639 
z
" clip-path="url(#p908c8ea4ea)"/>
   </g>
   <g id="patch_63">
    <path d="M 237.732878 640.802012 
L 254.071907 640.802012 
L 254.071907 640.8 
L 237.732878 640.8 
z
" clip-path="url(#p908c8ea4ea)" style="fill: #008000"/>
   </g>
   <g id="patch_64">
    <path d="M 375.531921 640.802012 
L 391.87095 640.802012 
L 391.87095 640.795975 
L 375.531921 640.795975 
z
" clip-path="url(#p908c8ea4ea)" style="fill: #008000"/>
   </g>
   <g id="patch_65">
    <path d="M 513.330964 640.802012 
L 529.669993 640.802012 
L 529.669993 640.781889 
L 513.330964 640.781889 
z
" clip-path="url(#p908c8ea4ea)" style="fill: #008000"/>
   </g>
   <g id="patch_66">
    <path d="M 651.130007 640.802012 
L 667.469036 640.802012 
L 667.469036 640.453887 
L 651.130007 640.453887 
z
" clip-path="url(#p908c8ea4ea)" style="fill: #008000"/>
   </g>
   <g id="patch_67">
    <path d="M 788.92905 640.802012 
L 805.268079 640.802012 
L 805.268079 640.3251 
L 788.92905 640.3251 
z
" clip-path="url(#p908c8ea4ea)" style="fill: #008000"/>
   </g>
   <g id="patch_68">
    <path d="M 926.728093 640.802012 
L 943.067122 640.802012 
L 943.067122 637.556194 
L 926.728093 637.556194 
z
" clip-path="url(#p908c8ea4ea)" style="fill: #008000"/>
   </g>
   <g id="patch_69">
    <path d="M 237.732878 640.8 
L 254.071907 640.8 
L 254.071907 113.220664 
L 237.732878 113.220664 
z
" clip-path="url(#p908c8ea4ea)" style="fill: #ff0000"/>
   </g>
   <g id="patch_70">
    <path d="M 375.531921 640.795975 
L 391.87095 640.795975 
L 391.87095 113.224688 
L 375.531921 113.224688 
z
" clip-path="url(#p908c8ea4ea)" style="fill: #ff0000"/>
   </g>
   <g id="patch_71">
    <path d="M 513.330964 640.781889 
L 529.669993 640.781889 
L 529.669993 113.236762 
L 513.330964 113.236762 
z
" clip-path="url(#p908c8ea4ea)" style="fill: #ff0000"/>
   </g>
   <g id="patch_72">
    <path d="M 651.130007 640.453887 
L 667.469036 640.453887 
L 667.469036 113.423905 
L 651.130007 113.423905 
z
" clip-path="url(#p908c8ea4ea)" style="fill: #ff0000"/>
   </g>
   <g id="patch_73">
    <path d="M 788.92905 640.3251 
L 805.268079 640.3251 
L 805.268079 113.37561 
L 788.92905 113.37561 
z
" clip-path="url(#p908c8ea4ea)" style="fill: #ff0000"/>
   </g>
   <g id="patch_74">
    <path d="M 926.728093 637.556194 
L 943.067122 637.556194 
L 943.067122 113.679465 
L 926.728093 113.679465 
z
" clip-path="url(#p908c8ea4ea)" style="fill: #ff0000"/>
   </g>
   <g id="patch_75">
    <path d="M 237.732878 113.220664 
L 254.071907 113.220664 
L 254.071907 113.212615 
L 237.732878 113.212615 
z
" clip-path="url(#p908c8ea4ea)" style="fill: #0000ff"/>
   </g>
   <g id="patch_76">
    <path d="M 375.531921 113.224688 
L 391.87095 113.224688 
L 391.87095 113.204565 
L 375.531921 113.204565 
z
" clip-path="url(#p908c8ea4ea)" style="fill: #0000ff"/>
   </g>
   <g id="patch_77">
    <path d="M 513.330964 113.236762 
L 529.669993 113.236762 
L 529.669993 113.190479 
L 513.330964 113.190479 
z
" clip-path="url(#p908c8ea4ea)" style="fill: #0000ff"/>
   </g>
   <g id="patch_78">
    <path d="M 651.130007 113.423905 
L 667.469036 113.423905 
L 667.469036 113.321278 
L 651.130007 113.321278 
z
" clip-path="url(#p908c8ea4ea)" style="fill: #0000ff"/>
   </g>
   <g id="patch_79">
    <path d="M 788.92905 113.37561 
L 805.268079 113.37561 
L 805.268079 113.152246 
L 788.92905 113.152246 
z
" clip-path="url(#p908c8ea4ea)" style="fill: #0000ff"/>
   </g>
   <g id="patch_80">
    <path d="M 926.728093 113.679465 
L 943.067122 113.679465 
L 943.067122 113.198529 
L 926.728093 113.198529 
z
" clip-path="url(#p908c8ea4ea)" style="fill: #0000ff"/>
   </g>
   <g id="patch_81">
    <path d="M 255.449897 640.802012 
L 271.788927 640.802012 
L 271.788927 113.216639 
L 255.449897 113.216639 
z
" clip-path="url(#p908c8ea4ea)"/>
   </g>
   <g id="patch_82">
    <path d="M 393.248941 640.802012 
L 409.58797 640.802012 
L 409.58797 113.216639 
L 393.248941 113.216639 
z
" clip-path="url(#p908c8ea4ea)"/>
   </g>
   <g id="patch_83">
    <path d="M 531.047984 640.802012 
L 547.387013 640.802012 
L 547.387013 113.216639 
L 531.047984 113.216639 
z
" clip-path="url(#p908c8ea4ea)"/>
   </g>
   <g id="patch_84">
    <path d="M 668.847027 640.802012 
L 685.186056 640.802012 
L 685.186056 113.216639 
L 668.847027 113.216639 
z
" clip-path="url(#p908c8ea4ea)"/>
   </g>
   <g id="patch_85">
    <path d="M 806.64607 640.802012 
L 822.985099 640.802012 
L 822.985099 113.216639 
L 806.64607 113.216639 
z
" clip-path="url(#p908c8ea4ea)"/>
   </g>
   <g id="patch_86">
    <path d="M 944.445113 640.802012 
L 960.784142 640.802012 
L 960.784142 113.216639 
L 944.445113 113.216639 
z
" clip-path="url(#p908c8ea4ea)"/>
   </g>
   <g id="patch_87">
    <path d="M 255.449897 640.802012 
L 271.788927 640.802012 
L 271.788927 640.8 
L 255.449897 640.8 
z
" clip-path="url(#p908c8ea4ea)" style="fill: #008000"/>
   </g>
   <g id="patch_88">
    <path d="M 393.248941 640.802012 
L 409.58797 640.802012 
L 409.58797 640.795975 
L 393.248941 640.795975 
z
" clip-path="url(#p908c8ea4ea)" style="fill: #008000"/>
   </g>
   <g id="patch_89">
    <path d="M 531.047984 640.802012 
L 547.387013 640.802012 
L 547.387013 640.781889 
L 531.047984 640.781889 
z
" clip-path="url(#p908c8ea4ea)" style="fill: #008000"/>
   </g>
   <g id="patch_90">
    <path d="M 668.847027 640.802012 
L 685.186056 640.802012 
L 685.186056 640.739631 
L 668.847027 640.739631 
z
" clip-path="url(#p908c8ea4ea)" style="fill: #008000"/>
   </g>
   <g id="patch_91">
    <path d="M 806.64607 640.802012 
L 822.985099 640.802012 
L 822.985099 640.667189 
L 806.64607 640.667189 
z
" clip-path="url(#p908c8ea4ea)" style="fill: #008000"/>
   </g>
   <g id="patch_92">
    <path d="M 944.445113 640.802012 
L 960.784142 640.802012 
L 960.784142 640.216437 
L 944.445113 640.216437 
z
" clip-path="url(#p908c8ea4ea)" style="fill: #008000"/>
   </g>
   <g id="patch_93">
    <path d="M 255.449897 640.8 
L 271.788927 640.8 
L 271.788927 113.220664 
L 255.449897 113.220664 
z
" clip-path="url(#p908c8ea4ea)" style="fill: #ff0000"/>
   </g>
   <g id="patch_94">
    <path d="M 393.248941 640.795975 
L 409.58797 640.795975 
L 409.58797 113.224688 
L 393.248941 113.224688 
z
" clip-path="url(#p908c8ea4ea)" style="fill: #ff0000"/>
   </g>
   <g id="patch_95">
    <path d="M 531.047984 640.781889 
L 547.387013 640.781889 
L 547.387013 113.236762 
L 531.047984 113.236762 
z
" clip-path="url(#p908c8ea4ea)" style="fill: #ff0000"/>
   </g>
   <g id="patch_96">
    <path d="M 668.847027 640.739631 
L 685.186056 640.739631 
L 685.186056 113.25286 
L 668.847027 113.25286 
z
" clip-path="url(#p908c8ea4ea)" style="fill: #ff0000"/>
   </g>
   <g id="patch_97">
    <path d="M 806.64607 640.667189 
L 822.985099 640.667189 
L 822.985099 113.260909 
L 806.64607 113.260909 
z
" clip-path="url(#p908c8ea4ea)" style="fill: #ff0000"/>
   </g>
   <g id="patch_98">
    <path d="M 944.445113 640.216437 
L 960.784142 640.216437 
L 960.784142 113.299143 
L 944.445113 113.299143 
z
" clip-path="url(#p908c8ea4ea)" style="fill: #ff0000"/>
   </g>
   <g id="patch_99">
    <path d="M 255.449897 113.220664 
L 271.788927 113.220664 
L 271.788927 113.212615 
L 255.449897 113.212615 
z
" clip-path="url(#p908c8ea4ea)" style="fill: #0000ff"/>
   </g>
   <g id="patch_100">
    <path d="M 393.248941 113.224688 
L 409.58797 113.224688 
L 409.58797 113.204565 
L 393.248941 113.204565 
z
" clip-path="url(#p908c8ea4ea)" style="fill: #0000ff"/>
   </g>
   <g id="patch_101">
    <path d="M 531.047984 113.236762 
L 547.387013 113.236762 
L 547.387013 113.190479 
L 531.047984 113.190479 
z
" clip-path="url(#p908c8ea4ea)" style="fill: #0000ff"/>
   </g>
   <g id="patch_102">
    <path d="M 668.847027 113.25286 
L 685.186056 113.25286 
L 685.186056 113.150234 
L 668.847027 113.150234 
z
" clip-path="url(#p908c8ea4ea)" style="fill: #0000ff"/>
   </g>
   <g id="patch_103">
    <path d="M 806.64607 113.260909 
L 822.985099 113.260909 
L 822.985099 113.037546 
L 806.64607 113.037546 
z
" clip-path="url(#p908c8ea4ea)" style="fill: #0000ff"/>
   </g>
   <g id="patch_104">
    <path d="M 944.445113 113.299143 
L 960.784142 113.299143 
L 960.784142 112.818206 
L 944.445113 112.818206 
z
" clip-path="url(#p908c8ea4ea)" style="fill: #0000ff"/>
   </g>
   <g id="patch_105">
    <path d="M 273.166917 640.802012 
L 289.505947 640.802012 
L 289.505947 113.216639 
L 273.166917 113.216639 
z
" clip-path="url(#p908c8ea4ea)"/>
   </g>
   <g id="patch_106">
    <path d="M 410.96596 640.802012 
L 427.30499 640.802012 
L 427.30499 113.216639 
L 410.96596 113.216639 
z
" clip-path="url(#p908c8ea4ea)"/>
   </g>
   <g id="patch_107">
    <path d="M 548.765003 640.802012 
L 565.104033 640.802012 
L 565.104033 113.216639 
L 548.765003 113.216639 
z
" clip-path="url(#p908c8ea4ea)"/>
   </g>
   <g id="patch_108">
    <path d="M 686.564046 640.802012 
L 702.903076 640.802012 
L 702.903076 113.216639 
L 686.564046 113.216639 
z
" clip-path="url(#p908c8ea4ea)"/>
   </g>
   <g id="patch_109">
    <path d="M 824.36309 640.802012 
L 840.702119 640.802012 
L 840.702119 113.216639 
L 824.36309 113.216639 
z
" clip-path="url(#p908c8ea4ea)"/>
   </g>
   <g id="patch_110">
    <path d="M 962.162133 640.802012 
L 978.501162 640.802012 
L 978.501162 113.216639 
L 962.162133 113.216639 
z
" clip-path="url(#p908c8ea4ea)"/>
   </g>
   <g id="patch_111">
    <path d="M 273.166917 640.802012 
L 289.505947 640.802012 
L 289.505947 640.8 
L 273.166917 640.8 
z
" clip-path="url(#p908c8ea4ea)" style="fill: #008000"/>
   </g>
   <g id="patch_112">
    <path d="M 410.96596 640.802012 
L 427.30499 640.802012 
L 427.30499 640.795975 
L 410.96596 640.795975 
z
" clip-path="url(#p908c8ea4ea)" style="fill: #008000"/>
   </g>
   <g id="patch_113">
    <path d="M 548.765003 640.802012 
L 565.104033 640.802012 
L 565.104033 640.781889 
L 548.765003 640.781889 
z
" clip-path="url(#p908c8ea4ea)" style="fill: #008000"/>
   </g>
   <g id="patch_114">
    <path d="M 686.564046 640.802012 
L 702.903076 640.802012 
L 702.903076 640.711459 
L 686.564046 640.711459 
z
" clip-path="url(#p908c8ea4ea)" style="fill: #008000"/>
   </g>
   <g id="patch_115">
    <path d="M 824.36309 640.802012 
L 840.702119 640.802012 
L 840.702119 640.554501 
L 824.36309 640.554501 
z
" clip-path="url(#p908c8ea4ea)" style="fill: #008000"/>
   </g>
   <g id="patch_116">
    <path d="M 962.162133 640.802012 
L 978.501162 640.802012 
L 978.501162 634.425075 
L 962.162133 634.425075 
z
" clip-path="url(#p908c8ea4ea)" style="fill: #008000"/>
   </g>
   <g id="patch_117">
    <path d="M 273.166917 640.8 
L 289.505947 640.8 
L 289.505947 113.220664 
L 273.166917 113.220664 
z
" clip-path="url(#p908c8ea4ea)" style="fill: #ff0000"/>
   </g>
   <g id="patch_118">
    <path d="M 410.96596 640.795975 
L 427.30499 640.795975 
L 427.30499 113.224688 
L 410.96596 113.224688 
z
" clip-path="url(#p908c8ea4ea)" style="fill: #ff0000"/>
   </g>
   <g id="patch_119">
    <path d="M 548.765003 640.781889 
L 565.104033 640.781889 
L 565.104033 113.236762 
L 548.765003 113.236762 
z
" clip-path="url(#p908c8ea4ea)" style="fill: #ff0000"/>
   </g>
   <g id="patch_120">
    <path d="M 686.564046 640.711459 
L 702.903076 640.711459 
L 702.903076 113.268959 
L 686.564046 113.268959 
z
" clip-path="url(#p908c8ea4ea)" style="fill: #ff0000"/>
   </g>
   <g id="patch_121">
    <path d="M 824.36309 640.554501 
L 840.702119 640.554501 
L 840.702119 113.297131 
L 824.36309 113.297131 
z
" clip-path="url(#p908c8ea4ea)" style="fill: #ff0000"/>
   </g>
   <g id="patch_122">
    <path d="M 962.162133 634.425075 
L 978.501162 634.425075 
L 978.501162 114.126193 
L 962.162133 114.126193 
z
" clip-path="url(#p908c8ea4ea)" style="fill: #ff0000"/>
   </g>
   <g id="patch_123">
    <path d="M 273.166917 113.220664 
L 289.505947 113.220664 
L 289.505947 113.212615 
L 273.166917 113.212615 
z
" clip-path="url(#p908c8ea4ea)" style="fill: #0000ff"/>
   </g>
   <g id="patch_124">
    <path d="M 410.96596 113.224688 
L 427.30499 113.224688 
L 427.30499 113.204565 
L 410.96596 113.204565 
z
" clip-path="url(#p908c8ea4ea)" style="fill: #0000ff"/>
   </g>
   <g id="patch_125">
    <path d="M 548.765003 113.236762 
L 565.104033 113.236762 
L 565.104033 113.190479 
L 548.765003 113.190479 
z
" clip-path="url(#p908c8ea4ea)" style="fill: #0000ff"/>
   </g>
   <g id="patch_126">
    <path d="M 686.564046 113.268959 
L 702.903076 113.268959 
L 702.903076 113.166332 
L 686.564046 113.166332 
z
" clip-path="url(#p908c8ea4ea)" style="fill: #0000ff"/>
   </g>
   <g id="patch_127">
    <path d="M 824.36309 113.297131 
L 840.702119 113.297131 
L 840.702119 113.073767 
L 824.36309 113.073767 
z
" clip-path="url(#p908c8ea4ea)" style="fill: #0000ff"/>
   </g>
   <g id="patch_128">
    <path d="M 962.162133 114.126193 
L 978.501162 114.126193 
L 978.501162 113.645256 
L 962.162133 113.645256 
z
" clip-path="url(#p908c8ea4ea)" style="fill: #0000ff"/>
   </g>
   <g id="patch_129">
    <path d="M 290.883937 640.802012 
L 307.222967 640.802012 
L 307.222967 113.216639 
L 290.883937 113.216639 
z
" clip-path="url(#p908c8ea4ea)"/>
   </g>
   <g id="patch_130">
    <path d="M 428.68298 640.802012 
L 445.02201 640.802012 
L 445.02201 113.216639 
L 428.68298 113.216639 
z
" clip-path="url(#p908c8ea4ea)"/>
   </g>
   <g id="patch_131">
    <path d="M 566.482023 640.802012 
L 582.821053 640.802012 
L 582.821053 113.216639 
L 566.482023 113.216639 
z
" clip-path="url(#p908c8ea4ea)"/>
   </g>
   <g id="patch_132">
    <path d="M 704.281066 640.802012 
L 720.620096 640.802012 
L 720.620096 113.216639 
L 704.281066 113.216639 
z
" clip-path="url(#p908c8ea4ea)"/>
   </g>
   <g id="patch_133">
    <path d="M 842.080109 640.802012 
L 858.419139 640.802012 
L 858.419139 113.216639 
L 842.080109 113.216639 
z
" clip-path="url(#p908c8ea4ea)"/>
   </g>
   <g id="patch_134">
    <path d="M 979.879152 640.802012 
L 996.218182 640.802012 
L 996.218182 113.216639 
L 979.879152 113.216639 
z
" clip-path="url(#p908c8ea4ea)"/>
   </g>
   <g id="patch_135">
    <path d="M 290.883937 640.802012 
L 307.222967 640.802012 
L 307.222967 640.8 
L 290.883937 640.8 
z
" clip-path="url(#p908c8ea4ea)" style="fill: #008000"/>
   </g>
   <g id="patch_136">
    <path d="M 428.68298 640.802012 
L 445.02201 640.802012 
L 445.02201 640.795975 
L 428.68298 640.795975 
z
" clip-path="url(#p908c8ea4ea)" style="fill: #008000"/>
   </g>
   <g id="patch_137">
    <path d="M 566.482023 640.802012 
L 582.821053 640.802012 
L 582.821053 640.781889 
L 566.482023 640.781889 
z
" clip-path="url(#p908c8ea4ea)" style="fill: #008000"/>
   </g>
   <g id="patch_138">
    <path d="M 704.281066 640.802012 
L 720.620096 640.802012 
L 720.620096 640.639017 
L 704.281066 640.639017 
z
" clip-path="url(#p908c8ea4ea)" style="fill: #008000"/>
   </g>
   <g id="patch_139">
    <path d="M 842.080109 640.802012 
L 858.419139 640.802012 
L 858.419139 640.248633 
L 842.080109 640.248633 
z
" clip-path="url(#p908c8ea4ea)" style="fill: #008000"/>
   </g>
   <g id="patch_140">
    <path d="M 979.879152 640.802012 
L 996.218182 640.802012 
L 996.218182 625.639431 
L 979.879152 625.639431 
z
" clip-path="url(#p908c8ea4ea)" style="fill: #008000"/>
   </g>
   <g id="patch_141">
    <path d="M 290.883937 640.8 
L 307.222967 640.8 
L 307.222967 113.220664 
L 290.883937 113.220664 
z
" clip-path="url(#p908c8ea4ea)" style="fill: #ff0000"/>
   </g>
   <g id="patch_142">
    <path d="M 428.68298 640.795975 
L 445.02201 640.795975 
L 445.02201 113.224688 
L 428.68298 113.224688 
z
" clip-path="url(#p908c8ea4ea)" style="fill: #ff0000"/>
   </g>
   <g id="patch_143">
    <path d="M 566.482023 640.781889 
L 582.821053 640.781889 
L 582.821053 113.236762 
L 566.482023 113.236762 
z
" clip-path="url(#p908c8ea4ea)" style="fill: #ff0000"/>
   </g>
   <g id="patch_144">
    <path d="M 704.281066 640.639017 
L 720.620096 640.639017 
L 720.620096 113.313229 
L 704.281066 113.313229 
z
" clip-path="url(#p908c8ea4ea)" style="fill: #ff0000"/>
   </g>
   <g id="patch_145">
    <path d="M 842.080109 640.248633 
L 858.419139 640.248633 
L 858.419139 113.399757 
L 842.080109 113.399757 
z
" clip-path="url(#p908c8ea4ea)" style="fill: #ff0000"/>
   </g>
   <g id="patch_146">
    <path d="M 979.879152 625.639431 
L 996.218182 625.639431 
L 996.218182 115.38186 
L 979.879152 115.38186 
z
" clip-path="url(#p908c8ea4ea)" style="fill: #ff0000"/>
   </g>
   <g id="patch_147">
    <path d="M 290.883937 113.220664 
L 307.222967 113.220664 
L 307.222967 113.212615 
L 290.883937 113.212615 
z
" clip-path="url(#p908c8ea4ea)" style="fill: #0000ff"/>
   </g>
   <g id="patch_148">
    <path d="M 428.68298 113.224688 
L 445.02201 113.224688 
L 445.02201 113.204565 
L 428.68298 113.204565 
z
" clip-path="url(#p908c8ea4ea)" style="fill: #0000ff"/>
   </g>
   <g id="patch_149">
    <path d="M 566.482023 113.236762 
L 582.821053 113.236762 
L 582.821053 113.190479 
L 566.482023 113.190479 
z
" clip-path="url(#p908c8ea4ea)" style="fill: #0000ff"/>
   </g>
   <g id="patch_150">
    <path d="M 704.281066 113.313229 
L 720.620096 113.313229 
L 720.620096 113.210602 
L 704.281066 113.210602 
z
" clip-path="url(#p908c8ea4ea)" style="fill: #0000ff"/>
   </g>
   <g id="patch_151">
    <path d="M 842.080109 113.399757 
L 858.419139 113.399757 
L 858.419139 113.176393 
L 842.080109 113.176393 
z
" clip-path="url(#p908c8ea4ea)" style="fill: #0000ff"/>
   </g>
   <g id="patch_152">
    <path d="M 979.879152 115.38186 
L 996.218182 115.38186 
L 996.218182 114.900923 
L 979.879152 114.900923 
z
" clip-path="url(#p908c8ea4ea)" style="fill: #0000ff"/>
   </g>
   <g id="matplotlib.axis_1">
    <g id="xtick_1">
     <g id="line2d_1">
      <defs>
       <path id="mc88a4aa17e" d="M 0 0 
L 0 3.5 
" style="stroke: #000000; stroke-width: 0.8"/>
      </defs>
      <g>
       <use xlink:href="#mc88a4aa17e" x="263.619412" y="640.8" style="stroke: #000000; stroke-width: 0.8"/>
      </g>
     </g>
     <g id="text_1">
      <!-- 2 -->
      <g transform="translate(260.438162 655.398438)scale(0.1 -0.1)">
       <defs>
        <path id="DejaVuSans-32" d="M 1228 531 
L 3431 531 
L 3431 0 
L 469 0 
L 469 531 
Q 828 903 1448 1529 
Q 2069 2156 2228 2338 
Q 2531 2678 2651 2914 
Q 2772 3150 2772 3378 
Q 2772 3750 2511 3984 
Q 2250 4219 1831 4219 
Q 1534 4219 1204 4116 
Q 875 4013 500 3803 
L 500 4441 
Q 881 4594 1212 4672 
Q 1544 4750 1819 4750 
Q 2544 4750 2975 4387 
Q 3406 4025 3406 3419 
Q 3406 3131 3298 2873 
Q 3191 2616 2906 2266 
Q 2828 2175 2409 1742 
Q 1991 1309 1228 531 
z
" transform="scale(0.015625)"/>
       </defs>
       <use xlink:href="#DejaVuSans-32"/>
      </g>
     </g>
    </g>
    <g id="xtick_2">
     <g id="line2d_2">
      <g>
       <use xlink:href="#mc88a4aa17e" x="401.418455" y="640.8" style="stroke: #000000; stroke-width: 0.8"/>
      </g>
     </g>
     <g id="text_2">
      <!-- 3 -->
      <g transform="translate(398.237205 655.398438)scale(0.1 -0.1)">
       <defs>
        <path id="DejaVuSans-33" d="M 2597 2516 
Q 3050 2419 3304 2112 
Q 3559 1806 3559 1356 
Q 3559 666 3084 287 
Q 2609 -91 1734 -91 
Q 1441 -91 1130 -33 
Q 819 25 488 141 
L 488 750 
Q 750 597 1062 519 
Q 1375 441 1716 441 
Q 2309 441 2620 675 
Q 2931 909 2931 1356 
Q 2931 1769 2642 2001 
Q 2353 2234 1838 2234 
L 1294 2234 
L 1294 2753 
L 1863 2753 
Q 2328 2753 2575 2939 
Q 2822 3125 2822 3475 
Q 2822 3834 2567 4026 
Q 2313 4219 1838 4219 
Q 1578 4219 1281 4162 
Q 984 4106 628 3988 
L 628 4550 
Q 988 4650 1302 4700 
Q 1616 4750 1894 4750 
Q 2613 4750 3031 4423 
Q 3450 4097 3450 3541 
Q 3450 3153 3228 2886 
Q 3006 2619 2597 2516 
z
" transform="scale(0.015625)"/>
       </defs>
       <use xlink:href="#DejaVuSans-33"/>
      </g>
     </g>
    </g>
    <g id="xtick_3">
     <g id="line2d_3">
      <g>
       <use xlink:href="#mc88a4aa17e" x="539.217498" y="640.8" style="stroke: #000000; stroke-width: 0.8"/>
      </g>
     </g>
     <g id="text_3">
      <!-- 4 -->
      <g transform="translate(536.036248 655.398438)scale(0.1 -0.1)">
       <defs>
        <path id="DejaVuSans-34" d="M 2419 4116 
L 825 1625 
L 2419 1625 
L 2419 4116 
z
M 2253 4666 
L 3047 4666 
L 3047 1625 
L 3713 1625 
L 3713 1100 
L 3047 1100 
L 3047 0 
L 2419 0 
L 2419 1100 
L 313 1100 
L 313 1709 
L 2253 4666 
z
" transform="scale(0.015625)"/>
       </defs>
       <use xlink:href="#DejaVuSans-34"/>
      </g>
     </g>
    </g>
    <g id="xtick_4">
     <g id="line2d_4">
      <g>
       <use xlink:href="#mc88a4aa17e" x="677.016541" y="640.8" style="stroke: #000000; stroke-width: 0.8"/>
      </g>
     </g>
     <g id="text_4">
      <!-- 5 -->
      <g transform="translate(673.835291 655.398438)scale(0.1 -0.1)">
       <defs>
        <path id="DejaVuSans-35" d="M 691 4666 
L 3169 4666 
L 3169 4134 
L 1269 4134 
L 1269 2991 
Q 1406 3038 1543 3061 
Q 1681 3084 1819 3084 
Q 2600 3084 3056 2656 
Q 3513 2228 3513 1497 
Q 3513 744 3044 326 
Q 2575 -91 1722 -91 
Q 1428 -91 1123 -41 
Q 819 9 494 109 
L 494 744 
Q 775 591 1075 516 
Q 1375 441 1709 441 
Q 2250 441 2565 725 
Q 2881 1009 2881 1497 
Q 2881 1984 2565 2268 
Q 2250 2553 1709 2553 
Q 1456 2553 1204 2497 
Q 953 2441 691 2322 
L 691 4666 
z
" transform="scale(0.015625)"/>
       </defs>
       <use xlink:href="#DejaVuSans-35"/>
      </g>
     </g>
    </g>
    <g id="xtick_5">
     <g id="line2d_5">
      <g>
       <use xlink:href="#mc88a4aa17e" x="814.815584" y="640.8" style="stroke: #000000; stroke-width: 0.8"/>
      </g>
     </g>
     <g id="text_5">
      <!-- 6 -->
      <g transform="translate(811.634334 655.398438)scale(0.1 -0.1)">
       <defs>
        <path id="DejaVuSans-36" d="M 2113 2584 
Q 1688 2584 1439 2293 
Q 1191 2003 1191 1497 
Q 1191 994 1439 701 
Q 1688 409 2113 409 
Q 2538 409 2786 701 
Q 3034 994 3034 1497 
Q 3034 2003 2786 2293 
Q 2538 2584 2113 2584 
z
M 3366 4563 
L 3366 3988 
Q 3128 4100 2886 4159 
Q 2644 4219 2406 4219 
Q 1781 4219 1451 3797 
Q 1122 3375 1075 2522 
Q 1259 2794 1537 2939 
Q 1816 3084 2150 3084 
Q 2853 3084 3261 2657 
Q 3669 2231 3669 1497 
Q 3669 778 3244 343 
Q 2819 -91 2113 -91 
Q 1303 -91 875 529 
Q 447 1150 447 2328 
Q 447 3434 972 4092 
Q 1497 4750 2381 4750 
Q 2619 4750 2861 4703 
Q 3103 4656 3366 4563 
z
" transform="scale(0.015625)"/>
       </defs>
       <use xlink:href="#DejaVuSans-36"/>
      </g>
     </g>
    </g>
    <g id="xtick_6">
     <g id="line2d_6">
      <g>
       <use xlink:href="#mc88a4aa17e" x="952.614627" y="640.8" style="stroke: #000000; stroke-width: 0.8"/>
      </g>
     </g>
     <g id="text_6">
      <!-- 7 -->
      <g transform="translate(949.433377 655.398438)scale(0.1 -0.1)">
       <defs>
        <path id="DejaVuSans-37" d="M 525 4666 
L 3525 4666 
L 3525 4397 
L 1831 0 
L 1172 0 
L 2766 4134 
L 525 4134 
L 525 4666 
z
" transform="scale(0.015625)"/>
       </defs>
       <use xlink:href="#DejaVuSans-37"/>
      </g>
     </g>
    </g>
    <g id="text_7">
     <!-- code length [bits] -->
     <g transform="translate(546.195312 669.076563)scale(0.1 -0.1)">
      <defs>
       <path id="DejaVuSans-63" d="M 3122 3366 
L 3122 2828 
Q 2878 2963 2633 3030 
Q 2388 3097 2138 3097 
Q 1578 3097 1268 2742 
Q 959 2388 959 1747 
Q 959 1106 1268 751 
Q 1578 397 2138 397 
Q 2388 397 2633 464 
Q 2878 531 3122 666 
L 3122 134 
Q 2881 22 2623 -34 
Q 2366 -91 2075 -91 
Q 1284 -91 818 406 
Q 353 903 353 1747 
Q 353 2603 823 3093 
Q 1294 3584 2113 3584 
Q 2378 3584 2631 3529 
Q 2884 3475 3122 3366 
z
" transform="scale(0.015625)"/>
       <path id="DejaVuSans-6f" d="M 1959 3097 
Q 1497 3097 1228 2736 
Q 959 2375 959 1747 
Q 959 1119 1226 758 
Q 1494 397 1959 397 
Q 2419 397 2687 759 
Q 2956 1122 2956 1747 
Q 2956 2369 2687 2733 
Q 2419 3097 1959 3097 
z
M 1959 3584 
Q 2709 3584 3137 3096 
Q 3566 2609 3566 1747 
Q 3566 888 3137 398 
Q 2709 -91 1959 -91 
Q 1206 -91 779 398 
Q 353 888 353 1747 
Q 353 2609 779 3096 
Q 1206 3584 1959 3584 
z
" transform="scale(0.015625)"/>
       <path id="DejaVuSans-64" d="M 2906 2969 
L 2906 4863 
L 3481 4863 
L 3481 0 
L 2906 0 
L 2906 525 
Q 2725 213 2448 61 
Q 2172 -91 1784 -91 
Q 1150 -91 751 415 
Q 353 922 353 1747 
Q 353 2572 751 3078 
Q 1150 3584 1784 3584 
Q 2172 3584 2448 3432 
Q 2725 3281 2906 2969 
z
M 947 1747 
Q 947 1113 1208 752 
Q 1469 391 1925 391 
Q 2381 391 2643 752 
Q 2906 1113 2906 1747 
Q 2906 2381 2643 2742 
Q 2381 3103 1925 3103 
Q 1469 3103 1208 2742 
Q 947 2381 947 1747 
z
" transform="scale(0.015625)"/>
       <path id="DejaVuSans-65" d="M 3597 1894 
L 3597 1613 
L 953 1613 
Q 991 1019 1311 708 
Q 1631 397 2203 397 
Q 2534 397 2845 478 
Q 3156 559 3463 722 
L 3463 178 
Q 3153 47 2828 -22 
Q 2503 -91 2169 -91 
Q 1331 -91 842 396 
Q 353 884 353 1716 
Q 353 2575 817 3079 
Q 1281 3584 2069 3584 
Q 2775 3584 3186 3129 
Q 3597 2675 3597 1894 
z
M 3022 2063 
Q 3016 2534 2758 2815 
Q 2500 3097 2075 3097 
Q 1594 3097 1305 2825 
Q 1016 2553 972 2059 
L 3022 2063 
z
" transform="scale(0.015625)"/>
       <path id="DejaVuSans-20" transform="scale(0.015625)"/>
       <path id="DejaVuSans-6c" d="M 603 4863 
L 1178 4863 
L 1178 0 
L 603 0 
L 603 4863 
z
" transform="scale(0.015625)"/>
       <path id="DejaVuSans-6e" d="M 3513 2113 
L 3513 0 
L 2938 0 
L 2938 2094 
Q 2938 2591 2744 2837 
Q 2550 3084 2163 3084 
Q 1697 3084 1428 2787 
Q 1159 2491 1159 1978 
L 1159 0 
L 581 0 
L 581 3500 
L 1159 3500 
L 1159 2956 
Q 1366 3272 1645 3428 
Q 1925 3584 2291 3584 
Q 2894 3584 3203 3211 
Q 3513 2838 3513 2113 
z
" transform="scale(0.015625)"/>
       <path id="DejaVuSans-67" d="M 2906 1791 
Q 2906 2416 2648 2759 
Q 2391 3103 1925 3103 
Q 1463 3103 1205 2759 
Q 947 2416 947 1791 
Q 947 1169 1205 825 
Q 1463 481 1925 481 
Q 2391 481 2648 825 
Q 2906 1169 2906 1791 
z
M 3481 434 
Q 3481 -459 3084 -895 
Q 2688 -1331 1869 -1331 
Q 1566 -1331 1297 -1286 
Q 1028 -1241 775 -1147 
L 775 -588 
Q 1028 -725 1275 -790 
Q 1522 -856 1778 -856 
Q 2344 -856 2625 -561 
Q 2906 -266 2906 331 
L 2906 616 
Q 2728 306 2450 153 
Q 2172 0 1784 0 
Q 1141 0 747 490 
Q 353 981 353 1791 
Q 353 2603 747 3093 
Q 1141 3584 1784 3584 
Q 2172 3584 2450 3431 
Q 2728 3278 2906 2969 
L 2906 3500 
L 3481 3500 
L 3481 434 
z
" transform="scale(0.015625)"/>
       <path id="DejaVuSans-74" d="M 1172 4494 
L 1172 3500 
L 2356 3500 
L 2356 3053 
L 1172 3053 
L 1172 1153 
Q 1172 725 1289 603 
Q 1406 481 1766 481 
L 2356 481 
L 2356 0 
L 1766 0 
Q 1100 0 847 248 
Q 594 497 594 1153 
L 594 3053 
L 172 3053 
L 172 3500 
L 594 3500 
L 594 4494 
L 1172 4494 
z
" transform="scale(0.015625)"/>
       <path id="DejaVuSans-68" d="M 3513 2113 
L 3513 0 
L 2938 0 
L 2938 2094 
Q 2938 2591 2744 2837 
Q 2550 3084 2163 3084 
Q 1697 3084 1428 2787 
Q 1159 2491 1159 1978 
L 1159 0 
L 581 0 
L 581 4863 
L 1159 4863 
L 1159 2956 
Q 1366 3272 1645 3428 
Q 1925 3584 2291 3584 
Q 2894 3584 3203 3211 
Q 3513 2838 3513 2113 
z
" transform="scale(0.015625)"/>
       <path id="DejaVuSans-5b" d="M 550 4863 
L 1875 4863 
L 1875 4416 
L 1125 4416 
L 1125 -397 
L 1875 -397 
L 1875 -844 
L 550 -844 
L 550 4863 
z
" transform="scale(0.015625)"/>
       <path id="DejaVuSans-62" d="M 3116 1747 
Q 3116 2381 2855 2742 
Q 2594 3103 2138 3103 
Q 1681 3103 1420 2742 
Q 1159 2381 1159 1747 
Q 1159 1113 1420 752 
Q 1681 391 2138 391 
Q 2594 391 2855 752 
Q 3116 1113 3116 1747 
z
M 1159 2969 
Q 1341 3281 1617 3432 
Q 1894 3584 2278 3584 
Q 2916 3584 3314 3078 
Q 3713 2572 3713 1747 
Q 3713 922 3314 415 
Q 2916 -91 2278 -91 
Q 1894 -91 1617 61 
Q 1341 213 1159 525 
L 1159 0 
L 581 0 
L 581 4863 
L 1159 4863 
L 1159 2969 
z
" transform="scale(0.015625)"/>
       <path id="DejaVuSans-69" d="M 603 3500 
L 1178 3500 
L 1178 0 
L 603 0 
L 603 3500 
z
M 603 4863 
L 1178 4863 
L 1178 4134 
L 603 4134 
L 603 4863 
z
" transform="scale(0.015625)"/>
       <path id="DejaVuSans-73" d="M 2834 3397 
L 2834 2853 
Q 2591 2978 2328 3040 
Q 2066 3103 1784 3103 
Q 1356 3103 1142 2972 
Q 928 2841 928 2578 
Q 928 2378 1081 2264 
Q 1234 2150 1697 2047 
L 1894 2003 
Q 2506 1872 2764 1633 
Q 3022 1394 3022 966 
Q 3022 478 2636 193 
Q 2250 -91 1575 -91 
Q 1294 -91 989 -36 
Q 684 19 347 128 
L 347 722 
Q 666 556 975 473 
Q 1284 391 1588 391 
Q 1994 391 2212 530 
Q 2431 669 2431 922 
Q 2431 1156 2273 1281 
Q 2116 1406 1581 1522 
L 1381 1569 
Q 847 1681 609 1914 
Q 372 2147 372 2553 
Q 372 3047 722 3315 
Q 1072 3584 1716 3584 
Q 2034 3584 2315 3537 
Q 2597 3491 2834 3397 
z
" transform="scale(0.015625)"/>
       <path id="DejaVuSans-5d" d="M 1947 4863 
L 1947 -844 
L 622 -844 
L 622 -397 
L 1369 -397 
L 1369 4416 
L 622 4416 
L 622 4863 
L 1947 4863 
z
" transform="scale(0.015625)"/>
      </defs>
      <use xlink:href="#DejaVuSans-63"/>
      <use xlink:href="#DejaVuSans-6f" x="54.980469"/>
      <use xlink:href="#DejaVuSans-64" x="116.162109"/>
      <use xlink:href="#DejaVuSans-65" x="179.638672"/>
      <use xlink:href="#DejaVuSans-20" x="241.162109"/>
      <use xlink:href="#DejaVuSans-6c" x="272.949219"/>
      <use xlink:href="#DejaVuSans-65" x="300.732422"/>
      <use xlink:href="#DejaVuSans-6e" x="362.255859"/>
      <use xlink:href="#DejaVuSans-67" x="425.634766"/>
      <use xlink:href="#DejaVuSans-74" x="489.111328"/>
      <use xlink:href="#DejaVuSans-68" x="528.320312"/>
      <use xlink:href="#DejaVuSans-20" x="591.699219"/>
      <use xlink:href="#DejaVuSans-5b" x="623.486328"/>
      <use xlink:href="#DejaVuSans-62" x="662.5"/>
      <use xlink:href="#DejaVuSans-69" x="725.976562"/>
      <use xlink:href="#DejaVuSans-74" x="753.759766"/>
      <use xlink:href="#DejaVuSans-73" x="792.96875"/>
      <use xlink:href="#DejaVuSans-5d" x="845.068359"/>
     </g>
    </g>
   </g>
   <g id="matplotlib.axis_2">
    <g id="ytick_1">
     <g id="line2d_7">
      <defs>
       <path id="m59db45debc" d="M 0 0 
L -3.5 0 
" style="stroke: #000000; stroke-width: 0.8"/>
      </defs>
      <g>
       <use xlink:href="#m59db45debc" x="144" y="540.187673" style="stroke: #000000; stroke-width: 0.8"/>
      </g>
     </g>
     <g id="text_8">
      <!-- 50000 -->
      <g transform="translate(105.1875 543.986892)scale(0.1 -0.1)">
       <defs>
        <path id="DejaVuSans-30" d="M 2034 4250 
Q 1547 4250 1301 3770 
Q 1056 3291 1056 2328 
Q 1056 1369 1301 889 
Q 1547 409 2034 409 
Q 2525 409 2770 889 
Q 3016 1369 3016 2328 
Q 3016 3291 2770 3770 
Q 2525 4250 2034 4250 
z
M 2034 4750 
Q 2819 4750 3233 4129 
Q 3647 3509 3647 2328 
Q 3647 1150 3233 529 
Q 2819 -91 2034 -91 
Q 1250 -91 836 529 
Q 422 1150 422 2328 
Q 422 3509 836 4129 
Q 1250 4750 2034 4750 
z
" transform="scale(0.015625)"/>
       </defs>
       <use xlink:href="#DejaVuSans-35"/>
       <use xlink:href="#DejaVuSans-30" x="63.623047"/>
       <use xlink:href="#DejaVuSans-30" x="127.246094"/>
       <use xlink:href="#DejaVuSans-30" x="190.869141"/>
       <use xlink:href="#DejaVuSans-30" x="254.492188"/>
      </g>
     </g>
    </g>
    <g id="ytick_2">
     <g id="line2d_8">
      <g>
       <use xlink:href="#m59db45debc" x="144" y="439.573334" style="stroke: #000000; stroke-width: 0.8"/>
      </g>
     </g>
     <g id="text_9">
      <!-- 100000 -->
      <g transform="translate(98.825 443.372553)scale(0.1 -0.1)">
       <defs>
        <path id="DejaVuSans-31" d="M 794 531 
L 1825 531 
L 1825 4091 
L 703 3866 
L 703 4441 
L 1819 4666 
L 2450 4666 
L 2450 531 
L 3481 531 
L 3481 0 
L 794 0 
L 794 531 
z
" transform="scale(0.015625)"/>
       </defs>
       <use xlink:href="#DejaVuSans-31"/>
       <use xlink:href="#DejaVuSans-30" x="63.623047"/>
       <use xlink:href="#DejaVuSans-30" x="127.246094"/>
       <use xlink:href="#DejaVuSans-30" x="190.869141"/>
       <use xlink:href="#DejaVuSans-30" x="254.492188"/>
       <use xlink:href="#DejaVuSans-30" x="318.115234"/>
      </g>
     </g>
    </g>
    <g id="ytick_3">
     <g id="line2d_9">
      <g>
       <use xlink:href="#m59db45debc" x="144" y="338.958995" style="stroke: #000000; stroke-width: 0.8"/>
      </g>
     </g>
     <g id="text_10">
      <!-- 150000 -->
      <g transform="translate(98.825 342.758214)scale(0.1 -0.1)">
       <use xlink:href="#DejaVuSans-31"/>
       <use xlink:href="#DejaVuSans-35" x="63.623047"/>
       <use xlink:href="#DejaVuSans-30" x="127.246094"/>
       <use xlink:href="#DejaVuSans-30" x="190.869141"/>
       <use xlink:href="#DejaVuSans-30" x="254.492188"/>
       <use xlink:href="#DejaVuSans-30" x="318.115234"/>
      </g>
     </g>
    </g>
    <g id="ytick_4">
     <g id="line2d_10">
      <g>
       <use xlink:href="#m59db45debc" x="144" y="238.344656" style="stroke: #000000; stroke-width: 0.8"/>
      </g>
     </g>
     <g id="text_11">
      <!-- 200000 -->
      <g transform="translate(98.825 242.143875)scale(0.1 -0.1)">
       <use xlink:href="#DejaVuSans-32"/>
       <use xlink:href="#DejaVuSans-30" x="63.623047"/>
       <use xlink:href="#DejaVuSans-30" x="127.246094"/>
       <use xlink:href="#DejaVuSans-30" x="190.869141"/>
       <use xlink:href="#DejaVuSans-30" x="254.492188"/>
       <use xlink:href="#DejaVuSans-30" x="318.115234"/>
      </g>
     </g>
    </g>
    <g id="ytick_5">
     <g id="line2d_11">
      <g>
       <use xlink:href="#m59db45debc" x="144" y="137.730317" style="stroke: #000000; stroke-width: 0.8"/>
      </g>
     </g>
     <g id="text_12">
      <!-- 250000 -->
      <g transform="translate(98.825 141.529536)scale(0.1 -0.1)">
       <use xlink:href="#DejaVuSans-32"/>
       <use xlink:href="#DejaVuSans-35" x="63.623047"/>
       <use xlink:href="#DejaVuSans-30" x="127.246094"/>
       <use xlink:href="#DejaVuSans-30" x="190.869141"/>
       <use xlink:href="#DejaVuSans-30" x="254.492188"/>
       <use xlink:href="#DejaVuSans-30" x="318.115234"/>
      </g>
     </g>
    </g>
    <g id="text_13">
     <!-- compression size [bytes] -->
     <g transform="translate(92.745312 425.848437)rotate(-90)scale(0.1 -0.1)">
      <defs>
       <path id="DejaVuSans-6d" d="M 3328 2828 
Q 3544 3216 3844 3400 
Q 4144 3584 4550 3584 
Q 5097 3584 5394 3201 
Q 5691 2819 5691 2113 
L 5691 0 
L 5113 0 
L 5113 2094 
Q 5113 2597 4934 2840 
Q 4756 3084 4391 3084 
Q 3944 3084 3684 2787 
Q 3425 2491 3425 1978 
L 3425 0 
L 2847 0 
L 2847 2094 
Q 2847 2600 2669 2842 
Q 2491 3084 2119 3084 
Q 1678 3084 1418 2786 
Q 1159 2488 1159 1978 
L 1159 0 
L 581 0 
L 581 3500 
L 1159 3500 
L 1159 2956 
Q 1356 3278 1631 3431 
Q 1906 3584 2284 3584 
Q 2666 3584 2933 3390 
Q 3200 3197 3328 2828 
z
" transform="scale(0.015625)"/>
       <path id="DejaVuSans-70" d="M 1159 525 
L 1159 -1331 
L 581 -1331 
L 581 3500 
L 1159 3500 
L 1159 2969 
Q 1341 3281 1617 3432 
Q 1894 3584 2278 3584 
Q 2916 3584 3314 3078 
Q 3713 2572 3713 1747 
Q 3713 922 3314 415 
Q 2916 -91 2278 -91 
Q 1894 -91 1617 61 
Q 1341 213 1159 525 
z
M 3116 1747 
Q 3116 2381 2855 2742 
Q 2594 3103 2138 3103 
Q 1681 3103 1420 2742 
Q 1159 2381 1159 1747 
Q 1159 1113 1420 752 
Q 1681 391 2138 391 
Q 2594 391 2855 752 
Q 3116 1113 3116 1747 
z
" transform="scale(0.015625)"/>
       <path id="DejaVuSans-72" d="M 2631 2963 
Q 2534 3019 2420 3045 
Q 2306 3072 2169 3072 
Q 1681 3072 1420 2755 
Q 1159 2438 1159 1844 
L 1159 0 
L 581 0 
L 581 3500 
L 1159 3500 
L 1159 2956 
Q 1341 3275 1631 3429 
Q 1922 3584 2338 3584 
Q 2397 3584 2469 3576 
Q 2541 3569 2628 3553 
L 2631 2963 
z
" transform="scale(0.015625)"/>
       <path id="DejaVuSans-7a" d="M 353 3500 
L 3084 3500 
L 3084 2975 
L 922 459 
L 3084 459 
L 3084 0 
L 275 0 
L 275 525 
L 2438 3041 
L 353 3041 
L 353 3500 
z
" transform="scale(0.015625)"/>
       <path id="DejaVuSans-79" d="M 2059 -325 
Q 1816 -950 1584 -1140 
Q 1353 -1331 966 -1331 
L 506 -1331 
L 506 -850 
L 844 -850 
Q 1081 -850 1212 -737 
Q 1344 -625 1503 -206 
L 1606 56 
L 191 3500 
L 800 3500 
L 1894 763 
L 2988 3500 
L 3597 3500 
L 2059 -325 
z
" transform="scale(0.015625)"/>
      </defs>
      <use xlink:href="#DejaVuSans-63"/>
      <use xlink:href="#DejaVuSans-6f" x="54.980469"/>
      <use xlink:href="#DejaVuSans-6d" x="116.162109"/>
      <use xlink:href="#DejaVuSans-70" x="213.574219"/>
      <use xlink:href="#DejaVuSans-72" x="277.050781"/>
      <use xlink:href="#DejaVuSans-65" x="315.914062"/>
      <use xlink:href="#DejaVuSans-73" x="377.4375"/>
      <use xlink:href="#DejaVuSans-73" x="429.537109"/>
      <use xlink:href="#DejaVuSans-69" x="481.636719"/>
      <use xlink:href="#DejaVuSans-6f" x="509.419922"/>
      <use xlink:href="#DejaVuSans-6e" x="570.601562"/>
      <use xlink:href="#DejaVuSans-20" x="633.980469"/>
      <use xlink:href="#DejaVuSans-73" x="665.767578"/>
      <use xlink:href="#DejaVuSans-69" x="717.867188"/>
      <use xlink:href="#DejaVuSans-7a" x="745.650391"/>
      <use xlink:href="#DejaVuSans-65" x="798.140625"/>
      <use xlink:href="#DejaVuSans-20" x="859.664062"/>
      <use xlink:href="#DejaVuSans-5b" x="891.451172"/>
      <use xlink:href="#DejaVuSans-62" x="930.464844"/>
      <use xlink:href="#DejaVuSans-79" x="993.941406"/>
      <use xlink:href="#DejaVuSans-74" x="1053.121094"/>
      <use xlink:href="#DejaVuSans-65" x="1092.330078"/>
      <use xlink:href="#DejaVuSans-73" x="1153.853516"/>
      <use xlink:href="#DejaVuSans-5d" x="1205.953125"/>
     </g>
    </g>
   </g>
   <g id="patch_153">
    <path d="M 144 640.8 
L 144 86.4 
" style="fill: none; stroke: #000000; stroke-width: 0.8; stroke-linejoin: miter; stroke-linecap: square"/>
   </g>
   <g id="patch_154">
    <path d="M 1036.8 640.8 
L 1036.8 86.4 
" style="fill: none; stroke: #000000; stroke-width: 0.8; stroke-linejoin: miter; stroke-linecap: square"/>
   </g>
   <g id="patch_155">
    <path d="M 144 640.8 
L 1036.8 640.8 
" style="fill: none; stroke: #000000; stroke-width: 0.8; stroke-linejoin: miter; stroke-linecap: square"/>
   </g>
   <g id="patch_156">
    <path d="M 144 86.4 
L 1036.8 86.4 
" style="fill: none; stroke: #000000; stroke-width: 0.8; stroke-linejoin: miter; stroke-linecap: square"/>
   </g>
   <g id="text_14">
    <!-- Original file size vs compressed file size part 1 -->
    <g transform="translate(450.925313 80.4)scale(0.12 -0.12)">
     <defs>
      <path id="DejaVuSans-4f" d="M 2522 4238 
Q 1834 4238 1429 3725 
Q 1025 3213 1025 2328 
Q 1025 1447 1429 934 
Q 1834 422 2522 422 
Q 3209 422 3611 934 
Q 4013 1447 4013 2328 
Q 4013 3213 3611 3725 
Q 3209 4238 2522 4238 
z
M 2522 4750 
Q 3503 4750 4090 4092 
Q 4678 3434 4678 2328 
Q 4678 1225 4090 567 
Q 3503 -91 2522 -91 
Q 1538 -91 948 565 
Q 359 1222 359 2328 
Q 359 3434 948 4092 
Q 1538 4750 2522 4750 
z
" transform="scale(0.015625)"/>
      <path id="DejaVuSans-61" d="M 2194 1759 
Q 1497 1759 1228 1600 
Q 959 1441 959 1056 
Q 959 750 1161 570 
Q 1363 391 1709 391 
Q 2188 391 2477 730 
Q 2766 1069 2766 1631 
L 2766 1759 
L 2194 1759 
z
M 3341 1997 
L 3341 0 
L 2766 0 
L 2766 531 
Q 2569 213 2275 61 
Q 1981 -91 1556 -91 
Q 1019 -91 701 211 
Q 384 513 384 1019 
Q 384 1609 779 1909 
Q 1175 2209 1959 2209 
L 2766 2209 
L 2766 2266 
Q 2766 2663 2505 2880 
Q 2244 3097 1772 3097 
Q 1472 3097 1187 3025 
Q 903 2953 641 2809 
L 641 3341 
Q 956 3463 1253 3523 
Q 1550 3584 1831 3584 
Q 2591 3584 2966 3190 
Q 3341 2797 3341 1997 
z
" transform="scale(0.015625)"/>
      <path id="DejaVuSans-66" d="M 2375 4863 
L 2375 4384 
L 1825 4384 
Q 1516 4384 1395 4259 
Q 1275 4134 1275 3809 
L 1275 3500 
L 2222 3500 
L 2222 3053 
L 1275 3053 
L 1275 0 
L 697 0 
L 697 3053 
L 147 3053 
L 147 3500 
L 697 3500 
L 697 3744 
Q 697 4328 969 4595 
Q 1241 4863 1831 4863 
L 2375 4863 
z
" transform="scale(0.015625)"/>
      <path id="DejaVuSans-76" d="M 191 3500 
L 800 3500 
L 1894 563 
L 2988 3500 
L 3597 3500 
L 2284 0 
L 1503 0 
L 191 3500 
z
" transform="scale(0.015625)"/>
     </defs>
     <use xlink:href="#DejaVuSans-4f"/>
     <use xlink:href="#DejaVuSans-72" x="78.710938"/>
     <use xlink:href="#DejaVuSans-69" x="119.824219"/>
     <use xlink:href="#DejaVuSans-67" x="147.607422"/>
     <use xlink:href="#DejaVuSans-69" x="211.083984"/>
     <use xlink:href="#DejaVuSans-6e" x="238.867188"/>
     <use xlink:href="#DejaVuSans-61" x="302.246094"/>
     <use xlink:href="#DejaVuSans-6c" x="363.525391"/>
     <use xlink:href="#DejaVuSans-20" x="391.308594"/>
     <use xlink:href="#DejaVuSans-66" x="423.095703"/>
     <use xlink:href="#DejaVuSans-69" x="458.300781"/>
     <use xlink:href="#DejaVuSans-6c" x="486.083984"/>
     <use xlink:href="#DejaVuSans-65" x="513.867188"/>
     <use xlink:href="#DejaVuSans-20" x="575.390625"/>
     <use xlink:href="#DejaVuSans-73" x="607.177734"/>
     <use xlink:href="#DejaVuSans-69" x="659.277344"/>
     <use xlink:href="#DejaVuSans-7a" x="687.060547"/>
     <use xlink:href="#DejaVuSans-65" x="739.550781"/>
     <use xlink:href="#DejaVuSans-20" x="801.074219"/>
     <use xlink:href="#DejaVuSans-76" x="832.861328"/>
     <use xlink:href="#DejaVuSans-73" x="892.041016"/>
     <use xlink:href="#DejaVuSans-20" x="944.140625"/>
     <use xlink:href="#DejaVuSans-63" x="975.927734"/>
     <use xlink:href="#DejaVuSans-6f" x="1030.908203"/>
     <use xlink:href="#DejaVuSans-6d" x="1092.089844"/>
     <use xlink:href="#DejaVuSans-70" x="1189.501953"/>
     <use xlink:href="#DejaVuSans-72" x="1252.978516"/>
     <use xlink:href="#DejaVuSans-65" x="1291.841797"/>
     <use xlink:href="#DejaVuSans-73" x="1353.365234"/>
     <use xlink:href="#DejaVuSans-73" x="1405.464844"/>
     <use xlink:href="#DejaVuSans-65" x="1457.564453"/>
     <use xlink:href="#DejaVuSans-64" x="1519.087891"/>
     <use xlink:href="#DejaVuSans-20" x="1582.564453"/>
     <use xlink:href="#DejaVuSans-66" x="1614.351562"/>
     <use xlink:href="#DejaVuSans-69" x="1649.556641"/>
     <use xlink:href="#DejaVuSans-6c" x="1677.339844"/>
     <use xlink:href="#DejaVuSans-65" x="1705.123047"/>
     <use xlink:href="#DejaVuSans-20" x="1766.646484"/>
     <use xlink:href="#DejaVuSans-73" x="1798.433594"/>
     <use xlink:href="#DejaVuSans-69" x="1850.533203"/>
     <use xlink:href="#DejaVuSans-7a" x="1878.316406"/>
     <use xlink:href="#DejaVuSans-65" x="1930.806641"/>
     <use xlink:href="#DejaVuSans-20" x="1992.330078"/>
     <use xlink:href="#DejaVuSans-70" x="2024.117188"/>
     <use xlink:href="#DejaVuSans-61" x="2087.59375"/>
     <use xlink:href="#DejaVuSans-72" x="2148.873047"/>
     <use xlink:href="#DejaVuSans-74" x="2189.986328"/>
     <use xlink:href="#DejaVuSans-20" x="2229.195312"/>
     <use xlink:href="#DejaVuSans-31" x="2260.982422"/>
    </g>
   </g>
   <g id="legend_1">
    <g id="patch_157">
     <path d="M 151 635.8 
L 239.614062 635.8 
Q 241.614062 635.8 241.614062 633.8 
L 241.614062 561.409375 
Q 241.614062 559.409375 239.614062 559.409375 
L 151 559.409375 
Q 149 559.409375 149 561.409375 
L 149 633.8 
Q 149 635.8 151 635.8 
z
" style="fill: #ffffff; opacity: 0.8; stroke: #cccccc; stroke-linejoin: miter"/>
    </g>
    <g id="patch_158">
     <path d="M 153 571.007812 
L 173 571.007812 
L 173 564.007812 
L 153 564.007812 
z
" style="fill: #bfbf00"/>
    </g>
    <g id="text_15">
     <!-- Original -->
     <g transform="translate(181 571.007812)scale(0.1 -0.1)">
      <use xlink:href="#DejaVuSans-4f"/>
      <use xlink:href="#DejaVuSans-72" x="78.710938"/>
      <use xlink:href="#DejaVuSans-69" x="119.824219"/>
      <use xlink:href="#DejaVuSans-67" x="147.607422"/>
      <use xlink:href="#DejaVuSans-69" x="211.083984"/>
      <use xlink:href="#DejaVuSans-6e" x="238.867188"/>
      <use xlink:href="#DejaVuSans-61" x="302.246094"/>
      <use xlink:href="#DejaVuSans-6c" x="363.525391"/>
     </g>
    </g>
    <g id="patch_159">
     <path d="M 153 585.685938 
L 173 585.685938 
L 173 578.685938 
L 153 578.685938 
z
"/>
    </g>
    <g id="text_16">
     <!-- Difference -->
     <g transform="translate(181 585.685938)scale(0.1 -0.1)">
      <defs>
       <path id="DejaVuSans-44" d="M 1259 4147 
L 1259 519 
L 2022 519 
Q 2988 519 3436 956 
Q 3884 1394 3884 2338 
Q 3884 3275 3436 3711 
Q 2988 4147 2022 4147 
L 1259 4147 
z
M 628 4666 
L 1925 4666 
Q 3281 4666 3915 4102 
Q 4550 3538 4550 2338 
Q 4550 1131 3912 565 
Q 3275 0 1925 0 
L 628 0 
L 628 4666 
z
" transform="scale(0.015625)"/>
      </defs>
      <use xlink:href="#DejaVuSans-44"/>
      <use xlink:href="#DejaVuSans-69" x="77.001953"/>
      <use xlink:href="#DejaVuSans-66" x="104.785156"/>
      <use xlink:href="#DejaVuSans-66" x="139.990234"/>
      <use xlink:href="#DejaVuSans-65" x="175.195312"/>
      <use xlink:href="#DejaVuSans-72" x="236.71875"/>
      <use xlink:href="#DejaVuSans-65" x="275.582031"/>
      <use xlink:href="#DejaVuSans-6e" x="337.105469"/>
      <use xlink:href="#DejaVuSans-63" x="400.484375"/>
      <use xlink:href="#DejaVuSans-65" x="455.464844"/>
     </g>
    </g>
    <g id="patch_160">
     <path d="M 153 600.364063 
L 173 600.364063 
L 173 593.364063 
L 153 593.364063 
z
" style="fill: #008000"/>
    </g>
    <g id="text_17">
     <!-- Encoded -->
     <g transform="translate(181 600.364063)scale(0.1 -0.1)">
      <defs>
       <path id="DejaVuSans-45" d="M 628 4666 
L 3578 4666 
L 3578 4134 
L 1259 4134 
L 1259 2753 
L 3481 2753 
L 3481 2222 
L 1259 2222 
L 1259 531 
L 3634 531 
L 3634 0 
L 628 0 
L 628 4666 
z
" transform="scale(0.015625)"/>
      </defs>
      <use xlink:href="#DejaVuSans-45"/>
      <use xlink:href="#DejaVuSans-6e" x="63.183594"/>
      <use xlink:href="#DejaVuSans-63" x="126.5625"/>
      <use xlink:href="#DejaVuSans-6f" x="181.542969"/>
      <use xlink:href="#DejaVuSans-64" x="242.724609"/>
      <use xlink:href="#DejaVuSans-65" x="306.201172"/>
      <use xlink:href="#DejaVuSans-64" x="367.724609"/>
     </g>
    </g>
    <g id="patch_161">
     <path d="M 153 615.042187 
L 173 615.042187 
L 173 608.042187 
L 153 608.042187 
z
" style="fill: #ff0000"/>
    </g>
    <g id="text_18">
     <!-- Unencoded -->
     <g transform="translate(181 615.042187)scale(0.1 -0.1)">
      <defs>
       <path id="DejaVuSans-55" d="M 556 4666 
L 1191 4666 
L 1191 1831 
Q 1191 1081 1462 751 
Q 1734 422 2344 422 
Q 2950 422 3222 751 
Q 3494 1081 3494 1831 
L 3494 4666 
L 4128 4666 
L 4128 1753 
Q 4128 841 3676 375 
Q 3225 -91 2344 -91 
Q 1459 -91 1007 375 
Q 556 841 556 1753 
L 556 4666 
z
" transform="scale(0.015625)"/>
      </defs>
      <use xlink:href="#DejaVuSans-55"/>
      <use xlink:href="#DejaVuSans-6e" x="73.193359"/>
      <use xlink:href="#DejaVuSans-65" x="136.572266"/>
      <use xlink:href="#DejaVuSans-6e" x="198.095703"/>
      <use xlink:href="#DejaVuSans-63" x="261.474609"/>
      <use xlink:href="#DejaVuSans-6f" x="316.455078"/>
      <use xlink:href="#DejaVuSans-64" x="377.636719"/>
      <use xlink:href="#DejaVuSans-65" x="441.113281"/>
      <use xlink:href="#DejaVuSans-64" x="502.636719"/>
     </g>
    </g>
    <g id="patch_162">
     <path d="M 153 629.720312 
L 173 629.720312 
L 173 622.720312 
L 153 622.720312 
z
" style="fill: #0000ff"/>
    </g>
    <g id="text_19">
     <!-- Encoding -->
     <g transform="translate(181 629.720312)scale(0.1 -0.1)">
      <use xlink:href="#DejaVuSans-45"/>
      <use xlink:href="#DejaVuSans-6e" x="63.183594"/>
      <use xlink:href="#DejaVuSans-63" x="126.5625"/>
      <use xlink:href="#DejaVuSans-6f" x="181.542969"/>
      <use xlink:href="#DejaVuSans-64" x="242.724609"/>
      <use xlink:href="#DejaVuSans-69" x="306.201172"/>
      <use xlink:href="#DejaVuSans-6e" x="333.984375"/>
      <use xlink:href="#DejaVuSans-67" x="397.363281"/>
     </g>
    </g>
   </g>
  </g>
  <g id="text_20">
   <!-- Each bar represents different image in order: -->
   <g transform="translate(57.6 674.672222)scale(0.0833 -0.0833)">
    <defs>
     <path id="DejaVuSans-3a" d="M 750 794 
L 1409 794 
L 1409 0 
L 750 0 
L 750 794 
z
M 750 3309 
L 1409 3309 
L 1409 2516 
L 750 2516 
L 750 3309 
z
" transform="scale(0.015625)"/>
    </defs>
    <use xlink:href="#DejaVuSans-45"/>
    <use xlink:href="#DejaVuSans-61" x="63.183594"/>
    <use xlink:href="#DejaVuSans-63" x="124.462891"/>
    <use xlink:href="#DejaVuSans-68" x="179.443359"/>
    <use xlink:href="#DejaVuSans-20" x="242.822266"/>
    <use xlink:href="#DejaVuSans-62" x="274.609375"/>
    <use xlink:href="#DejaVuSans-61" x="338.085938"/>
    <use xlink:href="#DejaVuSans-72" x="399.365234"/>
    <use xlink:href="#DejaVuSans-20" x="440.478516"/>
    <use xlink:href="#DejaVuSans-72" x="472.265625"/>
    <use xlink:href="#DejaVuSans-65" x="511.128906"/>
    <use xlink:href="#DejaVuSans-70" x="572.652344"/>
    <use xlink:href="#DejaVuSans-72" x="636.128906"/>
    <use xlink:href="#DejaVuSans-65" x="674.992188"/>
    <use xlink:href="#DejaVuSans-73" x="736.515625"/>
    <use xlink:href="#DejaVuSans-65" x="788.615234"/>
    <use xlink:href="#DejaVuSans-6e" x="850.138672"/>
    <use xlink:href="#DejaVuSans-74" x="913.517578"/>
    <use xlink:href="#DejaVuSans-73" x="952.726562"/>
    <use xlink:href="#DejaVuSans-20" x="1004.826172"/>
    <use xlink:href="#DejaVuSans-64" x="1036.613281"/>
    <use xlink:href="#DejaVuSans-69" x="1100.089844"/>
    <use xlink:href="#DejaVuSans-66" x="1127.873047"/>
    <use xlink:href="#DejaVuSans-66" x="1163.078125"/>
    <use xlink:href="#DejaVuSans-65" x="1198.283203"/>
    <use xlink:href="#DejaVuSans-72" x="1259.806641"/>
    <use xlink:href="#DejaVuSans-65" x="1298.669922"/>
    <use xlink:href="#DejaVuSans-6e" x="1360.193359"/>
    <use xlink:href="#DejaVuSans-74" x="1423.572266"/>
    <use xlink:href="#DejaVuSans-20" x="1462.78125"/>
    <use xlink:href="#DejaVuSans-69" x="1494.568359"/>
    <use xlink:href="#DejaVuSans-6d" x="1522.351562"/>
    <use xlink:href="#DejaVuSans-61" x="1619.763672"/>
    <use xlink:href="#DejaVuSans-67" x="1681.042969"/>
    <use xlink:href="#DejaVuSans-65" x="1744.519531"/>
    <use xlink:href="#DejaVuSans-20" x="1806.042969"/>
    <use xlink:href="#DejaVuSans-69" x="1837.830078"/>
    <use xlink:href="#DejaVuSans-6e" x="1865.613281"/>
    <use xlink:href="#DejaVuSans-20" x="1928.992188"/>
    <use xlink:href="#DejaVuSans-6f" x="1960.779297"/>
    <use xlink:href="#DejaVuSans-72" x="2021.960938"/>
    <use xlink:href="#DejaVuSans-64" x="2061.324219"/>
    <use xlink:href="#DejaVuSans-65" x="2124.800781"/>
    <use xlink:href="#DejaVuSans-72" x="2186.324219"/>
    <use xlink:href="#DejaVuSans-3a" x="2225.6875"/>
   </g>
   <!--   boat.pgm, mandril.pgm, chronometer.pgm, barbara.pgm, lena.pgm, peppers.pgm -->
   <g transform="translate(57.6 684)scale(0.0833 -0.0833)">
    <defs>
     <path id="DejaVuSans-2e" d="M 684 794 
L 1344 794 
L 1344 0 
L 684 0 
L 684 794 
z
" transform="scale(0.015625)"/>
     <path id="DejaVuSans-2c" d="M 750 794 
L 1409 794 
L 1409 256 
L 897 -744 
L 494 -744 
L 750 256 
L 750 794 
z
" transform="scale(0.015625)"/>
    </defs>
    <use xlink:href="#DejaVuSans-20"/>
    <use xlink:href="#DejaVuSans-20" x="31.787109"/>
    <use xlink:href="#DejaVuSans-62" x="63.574219"/>
    <use xlink:href="#DejaVuSans-6f" x="127.050781"/>
    <use xlink:href="#DejaVuSans-61" x="188.232422"/>
    <use xlink:href="#DejaVuSans-74" x="249.511719"/>
    <use xlink:href="#DejaVuSans-2e" x="288.720703"/>
    <use xlink:href="#DejaVuSans-70" x="320.507812"/>
    <use xlink:href="#DejaVuSans-67" x="383.984375"/>
    <use xlink:href="#DejaVuSans-6d" x="447.460938"/>
    <use xlink:href="#DejaVuSans-2c" x="544.873047"/>
    <use xlink:href="#DejaVuSans-20" x="576.660156"/>
    <use xlink:href="#DejaVuSans-6d" x="608.447266"/>
    <use xlink:href="#DejaVuSans-61" x="705.859375"/>
    <use xlink:href="#DejaVuSans-6e" x="767.138672"/>
    <use xlink:href="#DejaVuSans-64" x="830.517578"/>
    <use xlink:href="#DejaVuSans-72" x="893.994141"/>
    <use xlink:href="#DejaVuSans-69" x="935.107422"/>
    <use xlink:href="#DejaVuSans-6c" x="962.890625"/>
    <use xlink:href="#DejaVuSans-2e" x="990.673828"/>
    <use xlink:href="#DejaVuSans-70" x="1022.460938"/>
    <use xlink:href="#DejaVuSans-67" x="1085.9375"/>
    <use xlink:href="#DejaVuSans-6d" x="1149.414062"/>
    <use xlink:href="#DejaVuSans-2c" x="1246.826172"/>
    <use xlink:href="#DejaVuSans-20" x="1278.613281"/>
    <use xlink:href="#DejaVuSans-63" x="1310.400391"/>
    <use xlink:href="#DejaVuSans-68" x="1365.380859"/>
    <use xlink:href="#DejaVuSans-72" x="1428.759766"/>
    <use xlink:href="#DejaVuSans-6f" x="1467.623047"/>
    <use xlink:href="#DejaVuSans-6e" x="1528.804688"/>
    <use xlink:href="#DejaVuSans-6f" x="1592.183594"/>
    <use xlink:href="#DejaVuSans-6d" x="1653.365234"/>
    <use xlink:href="#DejaVuSans-65" x="1750.777344"/>
    <use xlink:href="#DejaVuSans-74" x="1812.300781"/>
    <use xlink:href="#DejaVuSans-65" x="1851.509766"/>
    <use xlink:href="#DejaVuSans-72" x="1913.033203"/>
    <use xlink:href="#DejaVuSans-2e" x="1945.021484"/>
    <use xlink:href="#DejaVuSans-70" x="1976.808594"/>
    <use xlink:href="#DejaVuSans-67" x="2040.285156"/>
    <use xlink:href="#DejaVuSans-6d" x="2103.761719"/>
    <use xlink:href="#DejaVuSans-2c" x="2201.173828"/>
    <use xlink:href="#DejaVuSans-20" x="2232.960938"/>
    <use xlink:href="#DejaVuSans-62" x="2264.748047"/>
    <use xlink:href="#DejaVuSans-61" x="2328.224609"/>
    <use xlink:href="#DejaVuSans-72" x="2389.503906"/>
    <use xlink:href="#DejaVuSans-62" x="2430.617188"/>
    <use xlink:href="#DejaVuSans-61" x="2494.09375"/>
    <use xlink:href="#DejaVuSans-72" x="2555.373047"/>
    <use xlink:href="#DejaVuSans-61" x="2596.486328"/>
    <use xlink:href="#DejaVuSans-2e" x="2657.765625"/>
    <use xlink:href="#DejaVuSans-70" x="2689.552734"/>
    <use xlink:href="#DejaVuSans-67" x="2753.029297"/>
    <use xlink:href="#DejaVuSans-6d" x="2816.505859"/>
    <use xlink:href="#DejaVuSans-2c" x="2913.917969"/>
    <use xlink:href="#DejaVuSans-20" x="2945.705078"/>
    <use xlink:href="#DejaVuSans-6c" x="2977.492188"/>
    <use xlink:href="#DejaVuSans-65" x="3005.275391"/>
    <use xlink:href="#DejaVuSans-6e" x="3066.798828"/>
    <use xlink:href="#DejaVuSans-61" x="3130.177734"/>
    <use xlink:href="#DejaVuSans-2e" x="3191.457031"/>
    <use xlink:href="#DejaVuSans-70" x="3223.244141"/>
    <use xlink:href="#DejaVuSans-67" x="3286.720703"/>
    <use xlink:href="#DejaVuSans-6d" x="3350.197266"/>
    <use xlink:href="#DejaVuSans-2c" x="3447.609375"/>
    <use xlink:href="#DejaVuSans-20" x="3479.396484"/>
    <use xlink:href="#DejaVuSans-70" x="3511.183594"/>
    <use xlink:href="#DejaVuSans-65" x="3574.660156"/>
    <use xlink:href="#DejaVuSans-70" x="3636.183594"/>
    <use xlink:href="#DejaVuSans-70" x="3699.660156"/>
    <use xlink:href="#DejaVuSans-65" x="3763.136719"/>
    <use xlink:href="#DejaVuSans-72" x="3824.660156"/>
    <use xlink:href="#DejaVuSans-73" x="3865.773438"/>
    <use xlink:href="#DejaVuSans-2e" x="3917.873047"/>
    <use xlink:href="#DejaVuSans-70" x="3949.660156"/>
    <use xlink:href="#DejaVuSans-67" x="4013.136719"/>
    <use xlink:href="#DejaVuSans-6d" x="4076.613281"/>
   </g>
  </g>
 </g>
 <defs>
  <clipPath id="p908c8ea4ea">
   <rect x="144" y="86.4" width="892.8" height="554.4"/>
  </clipPath>
 </defs>
</svg>
