<?xml version="1.0" encoding="utf-8" standalone="no"?>
<!DOCTYPE svg PUBLIC "-//W3C//DTD SVG 1.1//EN"
  "http://www.w3.org/Graphics/SVG/1.1/DTD/svg11.dtd">
<svg xmlns:xlink="http://www.w3.org/1999/xlink" width="1152pt" height="720pt" viewBox="0 0 1152 720" xmlns="http://www.w3.org/2000/svg" version="1.1">
 <metadata>
  <rdf:RDF xmlns:dc="http://purl.org/dc/elements/1.1/" xmlns:cc="http://creativecommons.org/ns#" xmlns:rdf="http://www.w3.org/1999/02/22-rdf-syntax-ns#">
   <cc:Work>
    <dc:type rdf:resource="http://purl.org/dc/dcmitype/StillImage"/>
    <dc:date>2022-05-15T23:52:14.024899</dc:date>
    <dc:format>image/svg+xml</dc:format>
    <dc:creator>
     <cc:Agent>
      <dc:title>Matplotlib v3.5.2, https://matplotlib.org/</dc:title>
     </cc:Agent>
    </dc:creator>
   </cc:Work>
  </rdf:RDF>
 </metadata>
 <defs>
  <style type="text/css">*{stroke-linejoin: round; stroke-linecap: butt}</style>
 </defs>
 <g id="figure_1">
  <g id="patch_1">
   <path d="M 0 720 
L 1152 720 
L 1152 0 
L 0 0 
z
" style="fill: #ffffff"/>
  </g>
  <g id="axes_1">
   <g id="patch_2">
    <path d="M 144 640.8 
L 1036.8 640.8 
L 1036.8 86.4 
L 144 86.4 
z
" style="fill: #ffffff"/>
   </g>
   <g id="patch_3">
    <path d="M 184.581818 640.8 
L 196.502114 640.8 
L 196.502114 589.218724 
L 184.581818 589.218724 
z
" clip-path="url(#pa9a8779954)" style="fill: #bfbf00"/>
   </g>
   <g id="patch_4">
    <path d="M 350.560625 640.8 
L 362.480921 640.8 
L 362.480921 589.218724 
L 350.560625 589.218724 
z
" clip-path="url(#pa9a8779954)" style="fill: #bfbf00"/>
   </g>
   <g id="patch_5">
    <path d="M 516.539431 640.8 
L 528.459727 640.8 
L 528.459727 589.218724 
L 516.539431 589.218724 
z
" clip-path="url(#pa9a8779954)" style="fill: #bfbf00"/>
   </g>
   <g id="patch_6">
    <path d="M 682.518238 640.8 
L 694.438534 640.8 
L 694.438534 589.218724 
L 682.518238 589.218724 
z
" clip-path="url(#pa9a8779954)" style="fill: #bfbf00"/>
   </g>
   <g id="patch_7">
    <path d="M 848.497044 640.8 
L 860.41734 640.8 
L 860.41734 589.218724 
L 848.497044 589.218724 
z
" clip-path="url(#pa9a8779954)" style="fill: #bfbf00"/>
   </g>
   <g id="patch_8">
    <path d="M 198.161902 640.8 
L 210.082198 640.8 
L 210.082198 589.218724 
L 198.161902 589.218724 
z
" clip-path="url(#pa9a8779954)"/>
   </g>
   <g id="patch_9">
    <path d="M 364.140709 640.8 
L 376.061005 640.8 
L 376.061005 589.218724 
L 364.140709 589.218724 
z
" clip-path="url(#pa9a8779954)"/>
   </g>
   <g id="patch_10">
    <path d="M 530.119515 640.8 
L 542.039811 640.8 
L 542.039811 589.218724 
L 530.119515 589.218724 
z
" clip-path="url(#pa9a8779954)"/>
   </g>
   <g id="patch_11">
    <path d="M 696.098322 640.8 
L 708.018618 640.8 
L 708.018618 589.218724 
L 696.098322 589.218724 
z
" clip-path="url(#pa9a8779954)"/>
   </g>
   <g id="patch_12">
    <path d="M 862.077128 640.8 
L 873.997424 640.8 
L 873.997424 589.218724 
L 862.077128 589.218724 
z
" clip-path="url(#pa9a8779954)"/>
   </g>
   <g id="patch_13">
    <path d="M 198.161902 640.8 
L 210.082198 640.8 
L 210.082198 604.200096 
L 198.161902 604.200096 
z
" clip-path="url(#pa9a8779954)" style="fill: #008000"/>
   </g>
   <g id="patch_14">
    <path d="M 364.140709 640.8 
L 376.061005 640.8 
L 376.061005 604.895037 
L 364.140709 604.895037 
z
" clip-path="url(#pa9a8779954)" style="fill: #008000"/>
   </g>
   <g id="patch_15">
    <path d="M 530.119515 640.8 
L 542.039811 640.8 
L 542.039811 605.142753 
L 530.119515 605.142753 
z
" clip-path="url(#pa9a8779954)" style="fill: #008000"/>
   </g>
   <g id="patch_16">
    <path d="M 696.098322 640.8 
L 708.018618 640.8 
L 708.018618 605.464448 
L 696.098322 605.464448 
z
" clip-path="url(#pa9a8779954)" style="fill: #008000"/>
   </g>
   <g id="patch_17">
    <path d="M 862.077128 640.8 
L 873.997424 640.8 
L 873.997424 605.825298 
L 862.077128 605.825298 
z
" clip-path="url(#pa9a8779954)" style="fill: #008000"/>
   </g>
   <g id="patch_18">
    <path d="M 198.161902 604.200096 
L 210.082198 604.200096 
L 210.082198 604.200096 
L 198.161902 604.200096 
z
" clip-path="url(#pa9a8779954)" style="fill: #ff0000"/>
   </g>
   <g id="patch_19">
    <path d="M 364.140709 604.895037 
L 376.061005 604.895037 
L 376.061005 604.894841 
L 364.140709 604.894841 
z
" clip-path="url(#pa9a8779954)" style="fill: #ff0000"/>
   </g>
   <g id="patch_20">
    <path d="M 530.119515 605.142753 
L 542.039811 605.142753 
L 542.039811 605.142556 
L 530.119515 605.142556 
z
" clip-path="url(#pa9a8779954)" style="fill: #ff0000"/>
   </g>
   <g id="patch_21">
    <path d="M 696.098322 605.464448 
L 708.018618 605.464448 
L 708.018618 605.464252 
L 696.098322 605.464252 
z
" clip-path="url(#pa9a8779954)" style="fill: #ff0000"/>
   </g>
   <g id="patch_22">
    <path d="M 862.077128 605.825298 
L 873.997424 605.825298 
L 873.997424 605.825102 
L 862.077128 605.825102 
z
" clip-path="url(#pa9a8779954)" style="fill: #ff0000"/>
   </g>
   <g id="patch_23">
    <path d="M 198.161902 604.200096 
L 210.082198 604.200096 
L 210.082198 589.652964 
L 198.161902 589.652964 
z
" clip-path="url(#pa9a8779954)" style="fill: #0000ff"/>
   </g>
   <g id="patch_24">
    <path d="M 364.140709 604.894841 
L 376.061005 604.894841 
L 376.061005 574.346945 
L 364.140709 574.346945 
z
" clip-path="url(#pa9a8779954)" style="fill: #0000ff"/>
   </g>
   <g id="patch_25">
    <path d="M 530.119515 605.142556 
L 542.039811 605.142556 
L 542.039811 539.213855 
L 530.119515 539.213855 
z
" clip-path="url(#pa9a8779954)" style="fill: #0000ff"/>
   </g>
   <g id="patch_26">
    <path d="M 696.098322 605.464252 
L 708.018618 605.464252 
L 708.018618 463.068812 
L 696.098322 463.068812 
z
" clip-path="url(#pa9a8779954)" style="fill: #0000ff"/>
   </g>
   <g id="patch_27">
    <path d="M 862.077128 605.825102 
L 873.997424 605.825102 
L 873.997424 304.188787 
L 862.077128 304.188787 
z
" clip-path="url(#pa9a8779954)" style="fill: #0000ff"/>
   </g>
   <g id="patch_28">
    <path d="M 211.741987 640.8 
L 223.662283 640.8 
L 223.662283 589.218724 
L 211.741987 589.218724 
z
" clip-path="url(#pa9a8779954)"/>
   </g>
   <g id="patch_29">
    <path d="M 377.720793 640.8 
L 389.641089 640.8 
L 389.641089 589.218724 
L 377.720793 589.218724 
z
" clip-path="url(#pa9a8779954)"/>
   </g>
   <g id="patch_30">
    <path d="M 543.699599 640.8 
L 555.619896 640.8 
L 555.619896 589.218724 
L 543.699599 589.218724 
z
" clip-path="url(#pa9a8779954)"/>
   </g>
   <g id="patch_31">
    <path d="M 709.678406 640.8 
L 721.598702 640.8 
L 721.598702 589.218724 
L 709.678406 589.218724 
z
" clip-path="url(#pa9a8779954)"/>
   </g>
   <g id="patch_32">
    <path d="M 875.657212 640.8 
L 887.577508 640.8 
L 887.577508 589.218724 
L 875.657212 589.218724 
z
" clip-path="url(#pa9a8779954)"/>
   </g>
   <g id="patch_33">
    <path d="M 211.741987 640.8 
L 223.662283 640.8 
L 223.662283 595.411413 
L 211.741987 595.411413 
z
" clip-path="url(#pa9a8779954)" style="fill: #008000"/>
   </g>
   <g id="patch_34">
    <path d="M 377.720793 640.8 
L 389.641089 640.8 
L 389.641089 595.020263 
L 377.720793 595.020263 
z
" clip-path="url(#pa9a8779954)" style="fill: #008000"/>
   </g>
   <g id="patch_35">
    <path d="M 543.699599 640.8 
L 555.619896 640.8 
L 555.619896 595.529663 
L 543.699599 595.529663 
z
" clip-path="url(#pa9a8779954)" style="fill: #008000"/>
   </g>
   <g id="patch_36">
    <path d="M 709.678406 640.8 
L 721.598702 640.8 
L 721.598702 596.5827 
L 709.678406 596.5827 
z
" clip-path="url(#pa9a8779954)" style="fill: #008000"/>
   </g>
   <g id="patch_37">
    <path d="M 875.657212 640.8 
L 887.577508 640.8 
L 887.577508 597.612322 
L 875.657212 597.612322 
z
" clip-path="url(#pa9a8779954)" style="fill: #008000"/>
   </g>
   <g id="patch_38">
    <path d="M 211.741987 595.411413 
L 223.662283 595.411413 
L 223.662283 595.411216 
L 211.741987 595.411216 
z
" clip-path="url(#pa9a8779954)" style="fill: #ff0000"/>
   </g>
   <g id="patch_39">
    <path d="M 377.720793 595.020263 
L 389.641089 595.020263 
L 389.641089 595.020066 
L 377.720793 595.020066 
z
" clip-path="url(#pa9a8779954)" style="fill: #ff0000"/>
   </g>
   <g id="patch_40">
    <path d="M 543.699599 595.529663 
L 555.619896 595.529663 
L 555.619896 595.529467 
L 543.699599 595.529467 
z
" clip-path="url(#pa9a8779954)" style="fill: #ff0000"/>
   </g>
   <g id="patch_41">
    <path d="M 709.678406 596.5827 
L 721.598702 596.5827 
L 721.598702 596.582306 
L 709.678406 596.582306 
z
" clip-path="url(#pa9a8779954)" style="fill: #ff0000"/>
   </g>
   <g id="patch_42">
    <path d="M 875.657212 597.612322 
L 887.577508 597.612322 
L 887.577508 597.611929 
L 875.657212 597.611929 
z
" clip-path="url(#pa9a8779954)" style="fill: #ff0000"/>
   </g>
   <g id="patch_43">
    <path d="M 211.741987 595.411216 
L 223.662283 595.411216 
L 223.662283 582.96209 
L 211.741987 582.96209 
z
" clip-path="url(#pa9a8779954)" style="fill: #0000ff"/>
   </g>
   <g id="patch_44">
    <path d="M 377.720793 595.020066 
L 389.641089 595.020066 
L 389.641089 566.748831 
L 377.720793 566.748831 
z
" clip-path="url(#pa9a8779954)" style="fill: #0000ff"/>
   </g>
   <g id="patch_45">
    <path d="M 543.699599 595.529467 
L 555.619896 595.529467 
L 555.619896 534.520248 
L 543.699599 534.520248 
z
" clip-path="url(#pa9a8779954)" style="fill: #0000ff"/>
   </g>
   <g id="patch_46">
    <path d="M 709.678406 596.582306 
L 721.598702 596.582306 
L 721.598702 468.236404 
L 709.678406 468.236404 
z
" clip-path="url(#pa9a8779954)" style="fill: #0000ff"/>
   </g>
   <g id="patch_47">
    <path d="M 875.657212 597.611929 
L 887.577508 597.611929 
L 887.577508 331.169699 
L 875.657212 331.169699 
z
" clip-path="url(#pa9a8779954)" style="fill: #0000ff"/>
   </g>
   <g id="patch_48">
    <path d="M 225.322071 640.8 
L 237.242367 640.8 
L 237.242367 589.218724 
L 225.322071 589.218724 
z
" clip-path="url(#pa9a8779954)"/>
   </g>
   <g id="patch_49">
    <path d="M 391.300877 640.8 
L 403.221173 640.8 
L 403.221173 589.218724 
L 391.300877 589.218724 
z
" clip-path="url(#pa9a8779954)"/>
   </g>
   <g id="patch_50">
    <path d="M 557.279684 640.8 
L 569.19998 640.8 
L 569.19998 589.218724 
L 557.279684 589.218724 
z
" clip-path="url(#pa9a8779954)"/>
   </g>
   <g id="patch_51">
    <path d="M 723.25849 640.8 
L 735.178786 640.8 
L 735.178786 589.218724 
L 723.25849 589.218724 
z
" clip-path="url(#pa9a8779954)"/>
   </g>
   <g id="patch_52">
    <path d="M 889.237297 640.8 
L 901.157593 640.8 
L 901.157593 589.218724 
L 889.237297 589.218724 
z
" clip-path="url(#pa9a8779954)"/>
   </g>
   <g id="patch_53">
    <path d="M 225.322071 640.8 
L 237.242367 640.8 
L 237.242367 581.019324 
L 225.322071 581.019324 
z
" clip-path="url(#pa9a8779954)" style="fill: #008000"/>
   </g>
   <g id="patch_54">
    <path d="M 391.300877 640.8 
L 403.221173 640.8 
L 403.221173 586.525926 
L 391.300877 586.525926 
z
" clip-path="url(#pa9a8779954)" style="fill: #008000"/>
   </g>
   <g id="patch_55">
    <path d="M 557.279684 640.8 
L 569.19998 640.8 
L 569.19998 589.198459 
L 557.279684 589.198459 
z
" clip-path="url(#pa9a8779954)" style="fill: #008000"/>
   </g>
   <g id="patch_56">
    <path d="M 723.25849 640.8 
L 735.178786 640.8 
L 735.178786 586.702416 
L 723.25849 586.702416 
z
" clip-path="url(#pa9a8779954)" style="fill: #008000"/>
   </g>
   <g id="patch_57">
    <path d="M 889.237297 640.8 
L 901.157593 640.8 
L 901.157593 584.723054 
L 889.237297 584.723054 
z
" clip-path="url(#pa9a8779954)" style="fill: #008000"/>
   </g>
   <g id="patch_58">
    <path d="M 225.322071 581.019324 
L 237.242367 581.019324 
L 237.242367 581.019324 
L 225.322071 581.019324 
z
" clip-path="url(#pa9a8779954)" style="fill: #ff0000"/>
   </g>
   <g id="patch_59">
    <path d="M 391.300877 586.525926 
L 403.221173 586.525926 
L 403.221173 586.525926 
L 391.300877 586.525926 
z
" clip-path="url(#pa9a8779954)" style="fill: #ff0000"/>
   </g>
   <g id="patch_60">
    <path d="M 557.279684 589.198459 
L 569.19998 589.198459 
L 569.19998 589.198262 
L 557.279684 589.198262 
z
" clip-path="url(#pa9a8779954)" style="fill: #ff0000"/>
   </g>
   <g id="patch_61">
    <path d="M 723.25849 586.702416 
L 735.178786 586.702416 
L 735.178786 586.702219 
L 723.25849 586.702219 
z
" clip-path="url(#pa9a8779954)" style="fill: #ff0000"/>
   </g>
   <g id="patch_62">
    <path d="M 889.237297 584.723054 
L 901.157593 584.723054 
L 901.157593 584.723054 
L 889.237297 584.723054 
z
" clip-path="url(#pa9a8779954)" style="fill: #ff0000"/>
   </g>
   <g id="patch_63">
    <path d="M 225.322071 581.019324 
L 237.242367 581.019324 
L 237.242367 569.015063 
L 225.322071 569.015063 
z
" clip-path="url(#pa9a8779954)" style="fill: #0000ff"/>
   </g>
   <g id="patch_64">
    <path d="M 391.300877 586.525926 
L 403.221173 586.525926 
L 403.221173 561.664861 
L 391.300877 561.664861 
z
" clip-path="url(#pa9a8779954)" style="fill: #0000ff"/>
   </g>
   <g id="patch_65">
    <path d="M 557.279684 589.198262 
L 569.19998 589.198262 
L 569.19998 537.820825 
L 557.279684 537.820825 
z
" clip-path="url(#pa9a8779954)" style="fill: #0000ff"/>
   </g>
   <g id="patch_66">
    <path d="M 723.25849 586.702219 
L 735.178786 586.702219 
L 735.178786 467.377762 
L 723.25849 467.377762 
z
" clip-path="url(#pa9a8779954)" style="fill: #0000ff"/>
   </g>
   <g id="patch_67">
    <path d="M 889.237297 584.723054 
L 901.157593 584.723054 
L 901.157593 326.682685 
L 889.237297 326.682685 
z
" clip-path="url(#pa9a8779954)" style="fill: #0000ff"/>
   </g>
   <g id="patch_68">
    <path d="M 238.902155 640.8 
L 250.822451 640.8 
L 250.822451 589.218724 
L 238.902155 589.218724 
z
" clip-path="url(#pa9a8779954)"/>
   </g>
   <g id="patch_69">
    <path d="M 404.880961 640.8 
L 416.801257 640.8 
L 416.801257 589.218724 
L 404.880961 589.218724 
z
" clip-path="url(#pa9a8779954)"/>
   </g>
   <g id="patch_70">
    <path d="M 570.859768 640.8 
L 582.780064 640.8 
L 582.780064 589.218724 
L 570.859768 589.218724 
z
" clip-path="url(#pa9a8779954)"/>
   </g>
   <g id="patch_71">
    <path d="M 736.838574 640.8 
L 748.75887 640.8 
L 748.75887 589.218724 
L 736.838574 589.218724 
z
" clip-path="url(#pa9a8779954)"/>
   </g>
   <g id="patch_72">
    <path d="M 902.817381 640.8 
L 914.737677 640.8 
L 914.737677 589.218724 
L 902.817381 589.218724 
z
" clip-path="url(#pa9a8779954)"/>
   </g>
   <g id="patch_73">
    <path d="M 238.902155 640.8 
L 250.822451 640.8 
L 250.822451 625.025899 
L 238.902155 625.025899 
z
" clip-path="url(#pa9a8779954)" style="fill: #008000"/>
   </g>
   <g id="patch_74">
    <path d="M 404.880961 640.8 
L 416.801257 640.8 
L 416.801257 625.265548 
L 404.880961 625.265548 
z
" clip-path="url(#pa9a8779954)" style="fill: #008000"/>
   </g>
   <g id="patch_75">
    <path d="M 570.859768 640.8 
L 582.780064 640.8 
L 582.780064 625.46132 
L 570.859768 625.46132 
z
" clip-path="url(#pa9a8779954)" style="fill: #008000"/>
   </g>
   <g id="patch_76">
    <path d="M 736.838574 640.8 
L 748.75887 640.8 
L 748.75887 625.615183 
L 736.838574 625.615183 
z
" clip-path="url(#pa9a8779954)" style="fill: #008000"/>
   </g>
   <g id="patch_77">
    <path d="M 902.817381 640.8 
L 914.737677 640.8 
L 914.737677 625.774752 
L 902.817381 625.774752 
z
" clip-path="url(#pa9a8779954)" style="fill: #008000"/>
   </g>
   <g id="patch_78">
    <path d="M 238.902155 625.025899 
L 250.822451 625.025899 
L 250.822451 625.025703 
L 238.902155 625.025703 
z
" clip-path="url(#pa9a8779954)" style="fill: #ff0000"/>
   </g>
   <g id="patch_79">
    <path d="M 404.880961 625.265548 
L 416.801257 625.265548 
L 416.801257 625.264367 
L 404.880961 625.264367 
z
" clip-path="url(#pa9a8779954)" style="fill: #ff0000"/>
   </g>
   <g id="patch_80">
    <path d="M 570.859768 625.46132 
L 582.780064 625.46132 
L 582.780064 625.460139 
L 570.859768 625.460139 
z
" clip-path="url(#pa9a8779954)" style="fill: #ff0000"/>
   </g>
   <g id="patch_81">
    <path d="M 736.838574 625.615183 
L 748.75887 625.615183 
L 748.75887 625.614002 
L 736.838574 625.614002 
z
" clip-path="url(#pa9a8779954)" style="fill: #ff0000"/>
   </g>
   <g id="patch_82">
    <path d="M 902.817381 625.774752 
L 914.737677 625.774752 
L 914.737677 625.774358 
L 902.817381 625.774358 
z
" clip-path="url(#pa9a8779954)" style="fill: #ff0000"/>
   </g>
   <g id="patch_83">
    <path d="M 238.902155 625.025703 
L 250.822451 625.025703 
L 250.822451 601.058498 
L 238.902155 601.058498 
z
" clip-path="url(#pa9a8779954)" style="fill: #0000ff"/>
   </g>
   <g id="patch_84">
    <path d="M 404.880961 625.264367 
L 416.801257 625.264367 
L 416.801257 573.573302 
L 404.880961 573.573302 
z
" clip-path="url(#pa9a8779954)" style="fill: #0000ff"/>
   </g>
   <g id="patch_85">
    <path d="M 570.859768 625.460139 
L 582.780064 625.460139 
L 582.780064 513.957114 
L 570.859768 513.957114 
z
" clip-path="url(#pa9a8779954)" style="fill: #0000ff"/>
   </g>
   <g id="patch_86">
    <path d="M 736.838574 625.614002 
L 748.75887 625.614002 
L 748.75887 385.784357 
L 736.838574 385.784357 
z
" clip-path="url(#pa9a8779954)" style="fill: #0000ff"/>
   </g>
   <g id="patch_87">
    <path d="M 902.817381 625.774358 
L 914.737677 625.774358 
L 914.737677 112.8 
L 902.817381 112.8 
z
" clip-path="url(#pa9a8779954)" style="fill: #0000ff"/>
   </g>
   <g id="patch_88">
    <path d="M 252.482239 640.8 
L 264.402535 640.8 
L 264.402535 589.218724 
L 252.482239 589.218724 
z
" clip-path="url(#pa9a8779954)"/>
   </g>
   <g id="patch_89">
    <path d="M 418.461045 640.8 
L 430.381342 640.8 
L 430.381342 589.218724 
L 418.461045 589.218724 
z
" clip-path="url(#pa9a8779954)"/>
   </g>
   <g id="patch_90">
    <path d="M 584.439852 640.8 
L 596.360148 640.8 
L 596.360148 589.218724 
L 584.439852 589.218724 
z
" clip-path="url(#pa9a8779954)"/>
   </g>
   <g id="patch_91">
    <path d="M 750.418658 640.8 
L 762.338955 640.8 
L 762.338955 589.218724 
L 750.418658 589.218724 
z
" clip-path="url(#pa9a8779954)"/>
   </g>
   <g id="patch_92">
    <path d="M 916.397465 640.8 
L 928.317761 640.8 
L 928.317761 589.218724 
L 916.397465 589.218724 
z
" clip-path="url(#pa9a8779954)"/>
   </g>
   <g id="patch_93">
    <path d="M 252.482239 640.8 
L 264.402535 640.8 
L 264.402535 579.436228 
L 252.482239 579.436228 
z
" clip-path="url(#pa9a8779954)" style="fill: #008000"/>
   </g>
   <g id="patch_94">
    <path d="M 418.461045 640.8 
L 430.381342 640.8 
L 430.381342 586.909993 
L 418.461045 586.909993 
z
" clip-path="url(#pa9a8779954)" style="fill: #008000"/>
   </g>
   <g id="patch_95">
    <path d="M 584.439852 640.8 
L 596.360148 640.8 
L 596.360148 589.205148 
L 584.439852 589.205148 
z
" clip-path="url(#pa9a8779954)" style="fill: #008000"/>
   </g>
   <g id="patch_96">
    <path d="M 750.418658 640.8 
L 762.338955 640.8 
L 762.338955 586.436205 
L 750.418658 586.436205 
z
" clip-path="url(#pa9a8779954)" style="fill: #008000"/>
   </g>
   <g id="patch_97">
    <path d="M 916.397465 640.8 
L 928.317761 640.8 
L 928.317761 584.132 
L 916.397465 584.132 
z
" clip-path="url(#pa9a8779954)" style="fill: #008000"/>
   </g>
   <g id="patch_98">
    <path d="M 252.482239 579.436228 
L 264.402535 579.436228 
L 264.402535 579.436228 
L 252.482239 579.436228 
z
" clip-path="url(#pa9a8779954)" style="fill: #ff0000"/>
   </g>
   <g id="patch_99">
    <path d="M 418.461045 586.909993 
L 430.381342 586.909993 
L 430.381342 586.909796 
L 418.461045 586.909796 
z
" clip-path="url(#pa9a8779954)" style="fill: #ff0000"/>
   </g>
   <g id="patch_100">
    <path d="M 584.439852 589.205148 
L 596.360148 589.205148 
L 596.360148 589.205148 
L 584.439852 589.205148 
z
" clip-path="url(#pa9a8779954)" style="fill: #ff0000"/>
   </g>
   <g id="patch_101">
    <path d="M 750.418658 586.436205 
L 762.338955 586.436205 
L 762.338955 586.436205 
L 750.418658 586.436205 
z
" clip-path="url(#pa9a8779954)" style="fill: #ff0000"/>
   </g>
   <g id="patch_102">
    <path d="M 916.397465 584.132 
L 928.317761 584.132 
L 928.317761 584.131803 
L 916.397465 584.131803 
z
" clip-path="url(#pa9a8779954)" style="fill: #ff0000"/>
   </g>
   <g id="patch_103">
    <path d="M 252.482239 579.436228 
L 264.402535 579.436228 
L 264.402535 567.431967 
L 252.482239 567.431967 
z
" clip-path="url(#pa9a8779954)" style="fill: #0000ff"/>
   </g>
   <g id="patch_104">
    <path d="M 418.461045 586.909796 
L 430.381342 586.909796 
L 430.381342 562.048731 
L 418.461045 562.048731 
z
" clip-path="url(#pa9a8779954)" style="fill: #0000ff"/>
   </g>
   <g id="patch_105">
    <path d="M 584.439852 589.205148 
L 596.360148 589.205148 
L 596.360148 537.827712 
L 584.439852 537.827712 
z
" clip-path="url(#pa9a8779954)" style="fill: #0000ff"/>
   </g>
   <g id="patch_106">
    <path d="M 750.418658 586.436205 
L 762.338955 586.436205 
L 762.338955 467.111748 
L 750.418658 467.111748 
z
" clip-path="url(#pa9a8779954)" style="fill: #0000ff"/>
   </g>
   <g id="patch_107">
    <path d="M 916.397465 584.131803 
L 928.317761 584.131803 
L 928.317761 326.091434 
L 916.397465 326.091434 
z
" clip-path="url(#pa9a8779954)" style="fill: #0000ff"/>
   </g>
   <g id="patch_108">
    <path d="M 266.062323 640.8 
L 277.982619 640.8 
L 277.982619 589.218724 
L 266.062323 589.218724 
z
" clip-path="url(#pa9a8779954)"/>
   </g>
   <g id="patch_109">
    <path d="M 432.04113 640.8 
L 443.961426 640.8 
L 443.961426 589.218724 
L 432.04113 589.218724 
z
" clip-path="url(#pa9a8779954)"/>
   </g>
   <g id="patch_110">
    <path d="M 598.019936 640.8 
L 609.940232 640.8 
L 609.940232 589.218724 
L 598.019936 589.218724 
z
" clip-path="url(#pa9a8779954)"/>
   </g>
   <g id="patch_111">
    <path d="M 763.998743 640.8 
L 775.919039 640.8 
L 775.919039 589.218724 
L 763.998743 589.218724 
z
" clip-path="url(#pa9a8779954)"/>
   </g>
   <g id="patch_112">
    <path d="M 929.977549 640.8 
L 941.897845 640.8 
L 941.897845 589.218724 
L 929.977549 589.218724 
z
" clip-path="url(#pa9a8779954)"/>
   </g>
   <g id="patch_113">
    <path d="M 266.062323 640.8 
L 277.982619 640.8 
L 277.982619 588.549952 
L 266.062323 588.549952 
z
" clip-path="url(#pa9a8779954)" style="fill: #008000"/>
   </g>
   <g id="patch_114">
    <path d="M 432.04113 640.8 
L 443.961426 640.8 
L 443.961426 591.82318 
L 432.04113 591.82318 
z
" clip-path="url(#pa9a8779954)" style="fill: #008000"/>
   </g>
   <g id="patch_115">
    <path d="M 598.019936 640.8 
L 609.940232 640.8 
L 609.940232 589.567179 
L 598.019936 589.567179 
z
" clip-path="url(#pa9a8779954)" style="fill: #008000"/>
   </g>
   <g id="patch_116">
    <path d="M 763.998743 640.8 
L 775.919039 640.8 
L 775.919039 587.551613 
L 763.998743 587.551613 
z
" clip-path="url(#pa9a8779954)" style="fill: #008000"/>
   </g>
   <g id="patch_117">
    <path d="M 929.977549 640.8 
L 941.897845 640.8 
L 941.897845 586.686872 
L 929.977549 586.686872 
z
" clip-path="url(#pa9a8779954)" style="fill: #008000"/>
   </g>
   <g id="patch_118">
    <path d="M 266.062323 588.549952 
L 277.982619 588.549952 
L 277.982619 588.549755 
L 266.062323 588.549755 
z
" clip-path="url(#pa9a8779954)" style="fill: #ff0000"/>
   </g>
   <g id="patch_119">
    <path d="M 432.04113 591.82318 
L 443.961426 591.82318 
L 443.961426 591.822983 
L 432.04113 591.822983 
z
" clip-path="url(#pa9a8779954)" style="fill: #ff0000"/>
   </g>
   <g id="patch_120">
    <path d="M 598.019936 589.567179 
L 609.940232 589.567179 
L 609.940232 589.566982 
L 598.019936 589.566982 
z
" clip-path="url(#pa9a8779954)" style="fill: #ff0000"/>
   </g>
   <g id="patch_121">
    <path d="M 763.998743 587.551613 
L 775.919039 587.551613 
L 775.919039 587.551417 
L 763.998743 587.551417 
z
" clip-path="url(#pa9a8779954)" style="fill: #ff0000"/>
   </g>
   <g id="patch_122">
    <path d="M 929.977549 586.686872 
L 941.897845 586.686872 
L 941.897845 586.686675 
L 929.977549 586.686675 
z
" clip-path="url(#pa9a8779954)" style="fill: #ff0000"/>
   </g>
   <g id="patch_123">
    <path d="M 266.062323 588.549755 
L 277.982619 588.549755 
L 277.982619 576.669843 
L 266.062323 576.669843 
z
" clip-path="url(#pa9a8779954)" style="fill: #0000ff"/>
   </g>
   <g id="patch_124">
    <path d="M 432.04113 591.822983 
L 443.961426 591.822983 
L 443.961426 567.037865 
L 432.04113 567.037865 
z
" clip-path="url(#pa9a8779954)" style="fill: #0000ff"/>
   </g>
   <g id="patch_125">
    <path d="M 598.019936 589.566982 
L 609.940232 589.566982 
L 609.940232 533.891811 
L 598.019936 533.891811 
z
" clip-path="url(#pa9a8779954)" style="fill: #0000ff"/>
   </g>
   <g id="patch_126">
    <path d="M 763.998743 587.551417 
L 775.919039 587.551417 
L 775.919039 464.115553 
L 763.998743 464.115553 
z
" clip-path="url(#pa9a8779954)" style="fill: #0000ff"/>
   </g>
   <g id="patch_127">
    <path d="M 929.977549 586.686675 
L 941.897845 586.686675 
L 941.897845 324.49909 
L 929.977549 324.49909 
z
" clip-path="url(#pa9a8779954)" style="fill: #0000ff"/>
   </g>
   <g id="patch_128">
    <path d="M 279.642407 640.8 
L 291.562703 640.8 
L 291.562703 589.218724 
L 279.642407 589.218724 
z
" clip-path="url(#pa9a8779954)"/>
   </g>
   <g id="patch_129">
    <path d="M 445.621214 640.8 
L 457.54151 640.8 
L 457.54151 589.218724 
L 445.621214 589.218724 
z
" clip-path="url(#pa9a8779954)"/>
   </g>
   <g id="patch_130">
    <path d="M 611.60002 640.8 
L 623.520316 640.8 
L 623.520316 589.218724 
L 611.60002 589.218724 
z
" clip-path="url(#pa9a8779954)"/>
   </g>
   <g id="patch_131">
    <path d="M 777.578827 640.8 
L 789.499123 640.8 
L 789.499123 589.218724 
L 777.578827 589.218724 
z
" clip-path="url(#pa9a8779954)"/>
   </g>
   <g id="patch_132">
    <path d="M 943.557633 640.8 
L 955.477929 640.8 
L 955.477929 589.218724 
L 943.557633 589.218724 
z
" clip-path="url(#pa9a8779954)"/>
   </g>
   <g id="patch_133">
    <path d="M 279.642407 640.8 
L 291.562703 640.8 
L 291.562703 568.903306 
L 279.642407 568.903306 
z
" clip-path="url(#pa9a8779954)" style="fill: #008000"/>
   </g>
   <g id="patch_134">
    <path d="M 445.621214 640.8 
L 457.54151 640.8 
L 457.54151 576.660399 
L 445.621214 576.660399 
z
" clip-path="url(#pa9a8779954)" style="fill: #008000"/>
   </g>
   <g id="patch_135">
    <path d="M 611.60002 640.8 
L 623.520316 640.8 
L 623.520316 589.12802 
L 611.60002 589.12802 
z
" clip-path="url(#pa9a8779954)" style="fill: #008000"/>
   </g>
   <g id="patch_136">
    <path d="M 777.578827 640.8 
L 789.499123 640.8 
L 789.499123 586.109984 
L 777.578827 586.109984 
z
" clip-path="url(#pa9a8779954)" style="fill: #008000"/>
   </g>
   <g id="patch_137">
    <path d="M 943.557633 640.8 
L 955.477929 640.8 
L 955.477929 583.136809 
L 943.557633 583.136809 
z
" clip-path="url(#pa9a8779954)" style="fill: #008000"/>
   </g>
   <g id="patch_138">
    <path d="M 279.642407 568.903306 
L 291.562703 568.903306 
L 291.562703 568.903306 
L 279.642407 568.903306 
z
" clip-path="url(#pa9a8779954)" style="fill: #ff0000"/>
   </g>
   <g id="patch_139">
    <path d="M 445.621214 576.660399 
L 457.54151 576.660399 
L 457.54151 576.660202 
L 445.621214 576.660202 
z
" clip-path="url(#pa9a8779954)" style="fill: #ff0000"/>
   </g>
   <g id="patch_140">
    <path d="M 611.60002 589.12802 
L 623.520316 589.12802 
L 623.520316 589.12802 
L 611.60002 589.12802 
z
" clip-path="url(#pa9a8779954)" style="fill: #ff0000"/>
   </g>
   <g id="patch_141">
    <path d="M 777.578827 586.109984 
L 789.499123 586.109984 
L 789.499123 586.109788 
L 777.578827 586.109788 
z
" clip-path="url(#pa9a8779954)" style="fill: #ff0000"/>
   </g>
   <g id="patch_142">
    <path d="M 943.557633 583.136809 
L 955.477929 583.136809 
L 955.477929 583.136809 
L 943.557633 583.136809 
z
" clip-path="url(#pa9a8779954)" style="fill: #ff0000"/>
   </g>
   <g id="patch_143">
    <path d="M 279.642407 568.903306 
L 291.562703 568.903306 
L 291.562703 556.899044 
L 279.642407 556.899044 
z
" clip-path="url(#pa9a8779954)" style="fill: #0000ff"/>
   </g>
   <g id="patch_144">
    <path d="M 445.621214 576.660202 
L 457.54151 576.660202 
L 457.54151 551.799137 
L 445.621214 551.799137 
z
" clip-path="url(#pa9a8779954)" style="fill: #0000ff"/>
   </g>
   <g id="patch_145">
    <path d="M 611.60002 589.12802 
L 623.520316 589.12802 
L 623.520316 537.750583 
L 611.60002 537.750583 
z
" clip-path="url(#pa9a8779954)" style="fill: #0000ff"/>
   </g>
   <g id="patch_146">
    <path d="M 777.578827 586.109788 
L 789.499123 586.109788 
L 789.499123 466.785331 
L 777.578827 466.785331 
z
" clip-path="url(#pa9a8779954)" style="fill: #0000ff"/>
   </g>
   <g id="patch_147">
    <path d="M 943.557633 583.136809 
L 955.477929 583.136809 
L 955.477929 325.096441 
L 943.557633 325.096441 
z
" clip-path="url(#pa9a8779954)" style="fill: #0000ff"/>
   </g>
   <g id="patch_148">
    <path d="M 293.222492 640.8 
L 305.142788 640.8 
L 305.142788 589.218724 
L 293.222492 589.218724 
z
" clip-path="url(#pa9a8779954)"/>
   </g>
   <g id="patch_149">
    <path d="M 459.201298 640.8 
L 471.121594 640.8 
L 471.121594 589.218724 
L 459.201298 589.218724 
z
" clip-path="url(#pa9a8779954)"/>
   </g>
   <g id="patch_150">
    <path d="M 625.180104 640.8 
L 637.100401 640.8 
L 637.100401 589.218724 
L 625.180104 589.218724 
z
" clip-path="url(#pa9a8779954)"/>
   </g>
   <g id="patch_151">
    <path d="M 791.158911 640.8 
L 803.079207 640.8 
L 803.079207 589.218724 
L 791.158911 589.218724 
z
" clip-path="url(#pa9a8779954)"/>
   </g>
   <g id="patch_152">
    <path d="M 957.137717 640.8 
L 969.058013 640.8 
L 969.058013 589.218724 
L 957.137717 589.218724 
z
" clip-path="url(#pa9a8779954)"/>
   </g>
   <g id="patch_153">
    <path d="M 293.222492 640.8 
L 305.142788 640.8 
L 305.142788 599.130096 
L 293.222492 599.130096 
z
" clip-path="url(#pa9a8779954)" style="fill: #008000"/>
   </g>
   <g id="patch_154">
    <path d="M 459.201298 640.8 
L 471.121594 640.8 
L 471.121594 599.956076 
L 459.201298 599.956076 
z
" clip-path="url(#pa9a8779954)" style="fill: #008000"/>
   </g>
   <g id="patch_155">
    <path d="M 625.180104 640.8 
L 637.100401 640.8 
L 637.100401 601.659784 
L 625.180104 601.659784 
z
" clip-path="url(#pa9a8779954)" style="fill: #008000"/>
   </g>
   <g id="patch_156">
    <path d="M 791.158911 640.8 
L 803.079207 640.8 
L 803.079207 602.708885 
L 791.158911 602.708885 
z
" clip-path="url(#pa9a8779954)" style="fill: #008000"/>
   </g>
   <g id="patch_157">
    <path d="M 957.137717 640.8 
L 969.058013 640.8 
L 969.058013 602.107993 
L 957.137717 602.107993 
z
" clip-path="url(#pa9a8779954)" style="fill: #008000"/>
   </g>
   <g id="patch_158">
    <path d="M 293.222492 599.130096 
L 305.142788 599.130096 
L 305.142788 599.129702 
L 293.222492 599.129702 
z
" clip-path="url(#pa9a8779954)" style="fill: #ff0000"/>
   </g>
   <g id="patch_159">
    <path d="M 459.201298 599.956076 
L 471.121594 599.956076 
L 471.121594 599.955683 
L 459.201298 599.955683 
z
" clip-path="url(#pa9a8779954)" style="fill: #ff0000"/>
   </g>
   <g id="patch_160">
    <path d="M 625.180104 601.659784 
L 637.100401 601.659784 
L 637.100401 601.65939 
L 625.180104 601.65939 
z
" clip-path="url(#pa9a8779954)" style="fill: #ff0000"/>
   </g>
   <g id="patch_161">
    <path d="M 791.158911 602.708885 
L 803.079207 602.708885 
L 803.079207 602.708491 
L 791.158911 602.708491 
z
" clip-path="url(#pa9a8779954)" style="fill: #ff0000"/>
   </g>
   <g id="patch_162">
    <path d="M 957.137717 602.107993 
L 969.058013 602.107993 
L 969.058013 602.107993 
L 957.137717 602.107993 
z
" clip-path="url(#pa9a8779954)" style="fill: #ff0000"/>
   </g>
   <g id="patch_163">
    <path d="M 293.222492 599.129702 
L 305.142788 599.129702 
L 305.142788 584.826154 
L 293.222492 584.826154 
z
" clip-path="url(#pa9a8779954)" style="fill: #0000ff"/>
   </g>
   <g id="patch_164">
    <path d="M 459.201298 599.955683 
L 471.121594 599.955683 
L 471.121594 569.545713 
L 459.201298 569.545713 
z
" clip-path="url(#pa9a8779954)" style="fill: #0000ff"/>
   </g>
   <g id="patch_165">
    <path d="M 625.180104 601.65939 
L 637.100401 601.65939 
L 637.100401 538.176363 
L 625.180104 538.176363 
z
" clip-path="url(#pa9a8779954)" style="fill: #0000ff"/>
   </g>
   <g id="patch_166">
    <path d="M 791.158911 602.708491 
L 803.079207 602.708491 
L 803.079207 471.539735 
L 791.158911 471.539735 
z
" clip-path="url(#pa9a8779954)" style="fill: #0000ff"/>
   </g>
   <g id="patch_167">
    <path d="M 957.137717 602.107993 
L 969.058013 602.107993 
L 969.058013 321.118631 
L 957.137717 321.118631 
z
" clip-path="url(#pa9a8779954)" style="fill: #0000ff"/>
   </g>
   <g id="patch_168">
    <path d="M 306.802576 640.8 
L 318.722872 640.8 
L 318.722872 589.218724 
L 306.802576 589.218724 
z
" clip-path="url(#pa9a8779954)"/>
   </g>
   <g id="patch_169">
    <path d="M 472.781382 640.8 
L 484.701678 640.8 
L 484.701678 589.218724 
L 472.781382 589.218724 
z
" clip-path="url(#pa9a8779954)"/>
   </g>
   <g id="patch_170">
    <path d="M 638.760189 640.8 
L 650.680485 640.8 
L 650.680485 589.218724 
L 638.760189 589.218724 
z
" clip-path="url(#pa9a8779954)"/>
   </g>
   <g id="patch_171">
    <path d="M 804.738995 640.8 
L 816.659291 640.8 
L 816.659291 589.218724 
L 804.738995 589.218724 
z
" clip-path="url(#pa9a8779954)"/>
   </g>
   <g id="patch_172">
    <path d="M 970.717802 640.8 
L 982.638098 640.8 
L 982.638098 589.218724 
L 970.717802 589.218724 
z
" clip-path="url(#pa9a8779954)"/>
   </g>
   <g id="patch_173">
    <path d="M 306.802576 640.8 
L 318.722872 640.8 
L 318.722872 586.119822 
L 306.802576 586.119822 
z
" clip-path="url(#pa9a8779954)" style="fill: #008000"/>
   </g>
   <g id="patch_174">
    <path d="M 472.781382 640.8 
L 484.701678 640.8 
L 484.701678 589.359602 
L 472.781382 589.359602 
z
" clip-path="url(#pa9a8779954)" style="fill: #008000"/>
   </g>
   <g id="patch_175">
    <path d="M 638.760189 640.8 
L 650.680485 640.8 
L 650.680485 589.20869 
L 638.760189 589.20869 
z
" clip-path="url(#pa9a8779954)" style="fill: #008000"/>
   </g>
   <g id="patch_176">
    <path d="M 804.738995 640.8 
L 816.659291 640.8 
L 816.659291 587.476846 
L 804.738995 587.476846 
z
" clip-path="url(#pa9a8779954)" style="fill: #008000"/>
   </g>
   <g id="patch_177">
    <path d="M 970.717802 640.8 
L 982.638098 640.8 
L 982.638098 586.558981 
L 970.717802 586.558981 
z
" clip-path="url(#pa9a8779954)" style="fill: #008000"/>
   </g>
   <g id="patch_178">
    <path d="M 306.802576 586.119822 
L 318.722872 586.119822 
L 318.722872 586.119626 
L 306.802576 586.119626 
z
" clip-path="url(#pa9a8779954)" style="fill: #ff0000"/>
   </g>
   <g id="patch_179">
    <path d="M 472.781382 589.359602 
L 484.701678 589.359602 
L 484.701678 589.359405 
L 472.781382 589.359405 
z
" clip-path="url(#pa9a8779954)" style="fill: #ff0000"/>
   </g>
   <g id="patch_180">
    <path d="M 638.760189 589.20869 
L 650.680485 589.20869 
L 650.680485 589.208493 
L 638.760189 589.208493 
z
" clip-path="url(#pa9a8779954)" style="fill: #ff0000"/>
   </g>
   <g id="patch_181">
    <path d="M 804.738995 587.476846 
L 816.659291 587.476846 
L 816.659291 587.47665 
L 804.738995 587.47665 
z
" clip-path="url(#pa9a8779954)" style="fill: #ff0000"/>
   </g>
   <g id="patch_182">
    <path d="M 970.717802 586.558981 
L 982.638098 586.558981 
L 982.638098 586.558784 
L 970.717802 586.558784 
z
" clip-path="url(#pa9a8779954)" style="fill: #ff0000"/>
   </g>
   <g id="patch_183">
    <path d="M 306.802576 586.119626 
L 318.722872 586.119626 
L 318.722872 574.115364 
L 306.802576 574.115364 
z
" clip-path="url(#pa9a8779954)" style="fill: #0000ff"/>
   </g>
   <g id="patch_184">
    <path d="M 472.781382 589.359405 
L 484.701678 589.359405 
L 484.701678 564.498339 
L 472.781382 564.498339 
z
" clip-path="url(#pa9a8779954)" style="fill: #0000ff"/>
   </g>
   <g id="patch_185">
    <path d="M 638.760189 589.208493 
L 650.680485 589.208493 
L 650.680485 537.831056 
L 638.760189 537.831056 
z
" clip-path="url(#pa9a8779954)" style="fill: #0000ff"/>
   </g>
   <g id="patch_186">
    <path d="M 804.738995 587.47665 
L 816.659291 587.47665 
L 816.659291 468.152192 
L 804.738995 468.152192 
z
" clip-path="url(#pa9a8779954)" style="fill: #0000ff"/>
   </g>
   <g id="patch_187">
    <path d="M 970.717802 586.558784 
L 982.638098 586.558784 
L 982.638098 328.518416 
L 970.717802 328.518416 
z
" clip-path="url(#pa9a8779954)" style="fill: #0000ff"/>
   </g>
   <g id="patch_188">
    <path d="M 320.38266 640.8 
L 332.302956 640.8 
L 332.302956 589.218724 
L 320.38266 589.218724 
z
" clip-path="url(#pa9a8779954)"/>
   </g>
   <g id="patch_189">
    <path d="M 486.361466 640.8 
L 498.281762 640.8 
L 498.281762 589.218724 
L 486.361466 589.218724 
z
" clip-path="url(#pa9a8779954)"/>
   </g>
   <g id="patch_190">
    <path d="M 652.340273 640.8 
L 664.260569 640.8 
L 664.260569 589.218724 
L 652.340273 589.218724 
z
" clip-path="url(#pa9a8779954)"/>
   </g>
   <g id="patch_191">
    <path d="M 818.319079 640.8 
L 830.239375 640.8 
L 830.239375 589.218724 
L 818.319079 589.218724 
z
" clip-path="url(#pa9a8779954)"/>
   </g>
   <g id="patch_192">
    <path d="M 984.297886 640.8 
L 996.218182 640.8 
L 996.218182 589.218724 
L 984.297886 589.218724 
z
" clip-path="url(#pa9a8779954)"/>
   </g>
   <g id="patch_193">
    <path d="M 320.38266 640.8 
L 332.302956 640.8 
L 332.302956 590.454153 
L 320.38266 590.454153 
z
" clip-path="url(#pa9a8779954)" style="fill: #008000"/>
   </g>
   <g id="patch_194">
    <path d="M 486.361466 640.8 
L 498.281762 640.8 
L 498.281762 591.419634 
L 486.361466 591.419634 
z
" clip-path="url(#pa9a8779954)" style="fill: #008000"/>
   </g>
   <g id="patch_195">
    <path d="M 652.340273 640.8 
L 664.260569 640.8 
L 664.260569 589.968167 
L 652.340273 589.968167 
z
" clip-path="url(#pa9a8779954)" style="fill: #008000"/>
   </g>
   <g id="patch_196">
    <path d="M 818.319079 640.8 
L 830.239375 640.8 
L 830.239375 589.247844 
L 818.319079 589.247844 
z
" clip-path="url(#pa9a8779954)" style="fill: #008000"/>
   </g>
   <g id="patch_197">
    <path d="M 984.297886 640.8 
L 996.218182 640.8 
L 996.218182 589.536091 
L 984.297886 589.536091 
z
" clip-path="url(#pa9a8779954)" style="fill: #008000"/>
   </g>
   <g id="patch_198">
    <path d="M 320.38266 590.454153 
L 332.302956 590.454153 
L 332.302956 590.454153 
L 320.38266 590.454153 
z
" clip-path="url(#pa9a8779954)" style="fill: #ff0000"/>
   </g>
   <g id="patch_199">
    <path d="M 486.361466 591.419634 
L 498.281762 591.419634 
L 498.281762 591.419437 
L 486.361466 591.419437 
z
" clip-path="url(#pa9a8779954)" style="fill: #ff0000"/>
   </g>
   <g id="patch_200">
    <path d="M 652.340273 589.968167 
L 664.260569 589.968167 
L 664.260569 589.96797 
L 652.340273 589.96797 
z
" clip-path="url(#pa9a8779954)" style="fill: #ff0000"/>
   </g>
   <g id="patch_201">
    <path d="M 818.319079 589.247844 
L 830.239375 589.247844 
L 830.239375 589.247844 
L 818.319079 589.247844 
z
" clip-path="url(#pa9a8779954)" style="fill: #ff0000"/>
   </g>
   <g id="patch_202">
    <path d="M 984.297886 589.536091 
L 996.218182 589.536091 
L 996.218182 589.536091 
L 984.297886 589.536091 
z
" clip-path="url(#pa9a8779954)" style="fill: #ff0000"/>
   </g>
   <g id="patch_203">
    <path d="M 320.38266 590.454153 
L 332.302956 590.454153 
L 332.302956 578.449892 
L 320.38266 578.449892 
z
" clip-path="url(#pa9a8779954)" style="fill: #0000ff"/>
   </g>
   <g id="patch_204">
    <path d="M 486.361466 591.419437 
L 498.281762 591.419437 
L 498.281762 566.558371 
L 486.361466 566.558371 
z
" clip-path="url(#pa9a8779954)" style="fill: #0000ff"/>
   </g>
   <g id="patch_205">
    <path d="M 652.340273 589.96797 
L 664.260569 589.96797 
L 664.260569 533.924472 
L 652.340273 533.924472 
z
" clip-path="url(#pa9a8779954)" style="fill: #0000ff"/>
   </g>
   <g id="patch_206">
    <path d="M 818.319079 589.247844 
L 830.239375 589.247844 
L 830.239375 465.909571 
L 818.319079 465.909571 
z
" clip-path="url(#pa9a8779954)" style="fill: #0000ff"/>
   </g>
   <g id="patch_207">
    <path d="M 984.297886 589.536091 
L 996.218182 589.536091 
L 996.218182 328.234497 
L 984.297886 328.234497 
z
" clip-path="url(#pa9a8779954)" style="fill: #0000ff"/>
   </g>
   <g id="matplotlib.axis_1">
    <g id="xtick_1">
     <g id="line2d_1">
      <defs>
       <path id="ma47814a765" d="M 0 0 
L 0 3.5 
" style="stroke: #000000; stroke-width: 0.8"/>
      </defs>
      <g>
       <use xlink:href="#ma47814a765" x="272.022471" y="640.8" style="stroke: #000000; stroke-width: 0.8"/>
      </g>
     </g>
     <g id="text_1">
      <!-- 14 -->
      <g transform="translate(265.659971 655.398438)scale(0.1 -0.1)">
       <defs>
        <path id="DejaVuSans-31" d="M 794 531 
L 1825 531 
L 1825 4091 
L 703 3866 
L 703 4441 
L 1819 4666 
L 2450 4666 
L 2450 531 
L 3481 531 
L 3481 0 
L 794 0 
L 794 531 
z
" transform="scale(0.015625)"/>
        <path id="DejaVuSans-34" d="M 2419 4116 
L 825 1625 
L 2419 1625 
L 2419 4116 
z
M 2253 4666 
L 3047 4666 
L 3047 1625 
L 3713 1625 
L 3713 1100 
L 3047 1100 
L 3047 0 
L 2419 0 
L 2419 1100 
L 313 1100 
L 313 1709 
L 2253 4666 
z
" transform="scale(0.015625)"/>
       </defs>
       <use xlink:href="#DejaVuSans-31"/>
       <use xlink:href="#DejaVuSans-34" x="63.623047"/>
      </g>
     </g>
    </g>
    <g id="xtick_2">
     <g id="line2d_2">
      <g>
       <use xlink:href="#ma47814a765" x="438.001278" y="640.8" style="stroke: #000000; stroke-width: 0.8"/>
      </g>
     </g>
     <g id="text_2">
      <!-- 15 -->
      <g transform="translate(431.638778 655.398438)scale(0.1 -0.1)">
       <defs>
        <path id="DejaVuSans-35" d="M 691 4666 
L 3169 4666 
L 3169 4134 
L 1269 4134 
L 1269 2991 
Q 1406 3038 1543 3061 
Q 1681 3084 1819 3084 
Q 2600 3084 3056 2656 
Q 3513 2228 3513 1497 
Q 3513 744 3044 326 
Q 2575 -91 1722 -91 
Q 1428 -91 1123 -41 
Q 819 9 494 109 
L 494 744 
Q 775 591 1075 516 
Q 1375 441 1709 441 
Q 2250 441 2565 725 
Q 2881 1009 2881 1497 
Q 2881 1984 2565 2268 
Q 2250 2553 1709 2553 
Q 1456 2553 1204 2497 
Q 953 2441 691 2322 
L 691 4666 
z
" transform="scale(0.015625)"/>
       </defs>
       <use xlink:href="#DejaVuSans-31"/>
       <use xlink:href="#DejaVuSans-35" x="63.623047"/>
      </g>
     </g>
    </g>
    <g id="xtick_3">
     <g id="line2d_3">
      <g>
       <use xlink:href="#ma47814a765" x="603.980084" y="640.8" style="stroke: #000000; stroke-width: 0.8"/>
      </g>
     </g>
     <g id="text_3">
      <!-- 16 -->
      <g transform="translate(597.617584 655.398438)scale(0.1 -0.1)">
       <defs>
        <path id="DejaVuSans-36" d="M 2113 2584 
Q 1688 2584 1439 2293 
Q 1191 2003 1191 1497 
Q 1191 994 1439 701 
Q 1688 409 2113 409 
Q 2538 409 2786 701 
Q 3034 994 3034 1497 
Q 3034 2003 2786 2293 
Q 2538 2584 2113 2584 
z
M 3366 4563 
L 3366 3988 
Q 3128 4100 2886 4159 
Q 2644 4219 2406 4219 
Q 1781 4219 1451 3797 
Q 1122 3375 1075 2522 
Q 1259 2794 1537 2939 
Q 1816 3084 2150 3084 
Q 2853 3084 3261 2657 
Q 3669 2231 3669 1497 
Q 3669 778 3244 343 
Q 2819 -91 2113 -91 
Q 1303 -91 875 529 
Q 447 1150 447 2328 
Q 447 3434 972 4092 
Q 1497 4750 2381 4750 
Q 2619 4750 2861 4703 
Q 3103 4656 3366 4563 
z
" transform="scale(0.015625)"/>
       </defs>
       <use xlink:href="#DejaVuSans-31"/>
       <use xlink:href="#DejaVuSans-36" x="63.623047"/>
      </g>
     </g>
    </g>
    <g id="xtick_4">
     <g id="line2d_4">
      <g>
       <use xlink:href="#ma47814a765" x="769.958891" y="640.8" style="stroke: #000000; stroke-width: 0.8"/>
      </g>
     </g>
     <g id="text_4">
      <!-- 17 -->
      <g transform="translate(763.596391 655.398438)scale(0.1 -0.1)">
       <defs>
        <path id="DejaVuSans-37" d="M 525 4666 
L 3525 4666 
L 3525 4397 
L 1831 0 
L 1172 0 
L 2766 4134 
L 525 4134 
L 525 4666 
z
" transform="scale(0.015625)"/>
       </defs>
       <use xlink:href="#DejaVuSans-31"/>
       <use xlink:href="#DejaVuSans-37" x="63.623047"/>
      </g>
     </g>
    </g>
    <g id="xtick_5">
     <g id="line2d_5">
      <g>
       <use xlink:href="#ma47814a765" x="935.937697" y="640.8" style="stroke: #000000; stroke-width: 0.8"/>
      </g>
     </g>
     <g id="text_5">
      <!-- 18 -->
      <g transform="translate(929.575197 655.398438)scale(0.1 -0.1)">
       <defs>
        <path id="DejaVuSans-38" d="M 2034 2216 
Q 1584 2216 1326 1975 
Q 1069 1734 1069 1313 
Q 1069 891 1326 650 
Q 1584 409 2034 409 
Q 2484 409 2743 651 
Q 3003 894 3003 1313 
Q 3003 1734 2745 1975 
Q 2488 2216 2034 2216 
z
M 1403 2484 
Q 997 2584 770 2862 
Q 544 3141 544 3541 
Q 544 4100 942 4425 
Q 1341 4750 2034 4750 
Q 2731 4750 3128 4425 
Q 3525 4100 3525 3541 
Q 3525 3141 3298 2862 
Q 3072 2584 2669 2484 
Q 3125 2378 3379 2068 
Q 3634 1759 3634 1313 
Q 3634 634 3220 271 
Q 2806 -91 2034 -91 
Q 1263 -91 848 271 
Q 434 634 434 1313 
Q 434 1759 690 2068 
Q 947 2378 1403 2484 
z
M 1172 3481 
Q 1172 3119 1398 2916 
Q 1625 2713 2034 2713 
Q 2441 2713 2670 2916 
Q 2900 3119 2900 3481 
Q 2900 3844 2670 4047 
Q 2441 4250 2034 4250 
Q 1625 4250 1398 4047 
Q 1172 3844 1172 3481 
z
" transform="scale(0.015625)"/>
       </defs>
       <use xlink:href="#DejaVuSans-31"/>
       <use xlink:href="#DejaVuSans-38" x="63.623047"/>
      </g>
     </g>
    </g>
    <g id="text_6">
     <!-- code length [bits] -->
     <g transform="translate(546.195312 669.076563)scale(0.1 -0.1)">
      <defs>
       <path id="DejaVuSans-63" d="M 3122 3366 
L 3122 2828 
Q 2878 2963 2633 3030 
Q 2388 3097 2138 3097 
Q 1578 3097 1268 2742 
Q 959 2388 959 1747 
Q 959 1106 1268 751 
Q 1578 397 2138 397 
Q 2388 397 2633 464 
Q 2878 531 3122 666 
L 3122 134 
Q 2881 22 2623 -34 
Q 2366 -91 2075 -91 
Q 1284 -91 818 406 
Q 353 903 353 1747 
Q 353 2603 823 3093 
Q 1294 3584 2113 3584 
Q 2378 3584 2631 3529 
Q 2884 3475 3122 3366 
z
" transform="scale(0.015625)"/>
       <path id="DejaVuSans-6f" d="M 1959 3097 
Q 1497 3097 1228 2736 
Q 959 2375 959 1747 
Q 959 1119 1226 758 
Q 1494 397 1959 397 
Q 2419 397 2687 759 
Q 2956 1122 2956 1747 
Q 2956 2369 2687 2733 
Q 2419 3097 1959 3097 
z
M 1959 3584 
Q 2709 3584 3137 3096 
Q 3566 2609 3566 1747 
Q 3566 888 3137 398 
Q 2709 -91 1959 -91 
Q 1206 -91 779 398 
Q 353 888 353 1747 
Q 353 2609 779 3096 
Q 1206 3584 1959 3584 
z
" transform="scale(0.015625)"/>
       <path id="DejaVuSans-64" d="M 2906 2969 
L 2906 4863 
L 3481 4863 
L 3481 0 
L 2906 0 
L 2906 525 
Q 2725 213 2448 61 
Q 2172 -91 1784 -91 
Q 1150 -91 751 415 
Q 353 922 353 1747 
Q 353 2572 751 3078 
Q 1150 3584 1784 3584 
Q 2172 3584 2448 3432 
Q 2725 3281 2906 2969 
z
M 947 1747 
Q 947 1113 1208 752 
Q 1469 391 1925 391 
Q 2381 391 2643 752 
Q 2906 1113 2906 1747 
Q 2906 2381 2643 2742 
Q 2381 3103 1925 3103 
Q 1469 3103 1208 2742 
Q 947 2381 947 1747 
z
" transform="scale(0.015625)"/>
       <path id="DejaVuSans-65" d="M 3597 1894 
L 3597 1613 
L 953 1613 
Q 991 1019 1311 708 
Q 1631 397 2203 397 
Q 2534 397 2845 478 
Q 3156 559 3463 722 
L 3463 178 
Q 3153 47 2828 -22 
Q 2503 -91 2169 -91 
Q 1331 -91 842 396 
Q 353 884 353 1716 
Q 353 2575 817 3079 
Q 1281 3584 2069 3584 
Q 2775 3584 3186 3129 
Q 3597 2675 3597 1894 
z
M 3022 2063 
Q 3016 2534 2758 2815 
Q 2500 3097 2075 3097 
Q 1594 3097 1305 2825 
Q 1016 2553 972 2059 
L 3022 2063 
z
" transform="scale(0.015625)"/>
       <path id="DejaVuSans-20" transform="scale(0.015625)"/>
       <path id="DejaVuSans-6c" d="M 603 4863 
L 1178 4863 
L 1178 0 
L 603 0 
L 603 4863 
z
" transform="scale(0.015625)"/>
       <path id="DejaVuSans-6e" d="M 3513 2113 
L 3513 0 
L 2938 0 
L 2938 2094 
Q 2938 2591 2744 2837 
Q 2550 3084 2163 3084 
Q 1697 3084 1428 2787 
Q 1159 2491 1159 1978 
L 1159 0 
L 581 0 
L 581 3500 
L 1159 3500 
L 1159 2956 
Q 1366 3272 1645 3428 
Q 1925 3584 2291 3584 
Q 2894 3584 3203 3211 
Q 3513 2838 3513 2113 
z
" transform="scale(0.015625)"/>
       <path id="DejaVuSans-67" d="M 2906 1791 
Q 2906 2416 2648 2759 
Q 2391 3103 1925 3103 
Q 1463 3103 1205 2759 
Q 947 2416 947 1791 
Q 947 1169 1205 825 
Q 1463 481 1925 481 
Q 2391 481 2648 825 
Q 2906 1169 2906 1791 
z
M 3481 434 
Q 3481 -459 3084 -895 
Q 2688 -1331 1869 -1331 
Q 1566 -1331 1297 -1286 
Q 1028 -1241 775 -1147 
L 775 -588 
Q 1028 -725 1275 -790 
Q 1522 -856 1778 -856 
Q 2344 -856 2625 -561 
Q 2906 -266 2906 331 
L 2906 616 
Q 2728 306 2450 153 
Q 2172 0 1784 0 
Q 1141 0 747 490 
Q 353 981 353 1791 
Q 353 2603 747 3093 
Q 1141 3584 1784 3584 
Q 2172 3584 2450 3431 
Q 2728 3278 2906 2969 
L 2906 3500 
L 3481 3500 
L 3481 434 
z
" transform="scale(0.015625)"/>
       <path id="DejaVuSans-74" d="M 1172 4494 
L 1172 3500 
L 2356 3500 
L 2356 3053 
L 1172 3053 
L 1172 1153 
Q 1172 725 1289 603 
Q 1406 481 1766 481 
L 2356 481 
L 2356 0 
L 1766 0 
Q 1100 0 847 248 
Q 594 497 594 1153 
L 594 3053 
L 172 3053 
L 172 3500 
L 594 3500 
L 594 4494 
L 1172 4494 
z
" transform="scale(0.015625)"/>
       <path id="DejaVuSans-68" d="M 3513 2113 
L 3513 0 
L 2938 0 
L 2938 2094 
Q 2938 2591 2744 2837 
Q 2550 3084 2163 3084 
Q 1697 3084 1428 2787 
Q 1159 2491 1159 1978 
L 1159 0 
L 581 0 
L 581 4863 
L 1159 4863 
L 1159 2956 
Q 1366 3272 1645 3428 
Q 1925 3584 2291 3584 
Q 2894 3584 3203 3211 
Q 3513 2838 3513 2113 
z
" transform="scale(0.015625)"/>
       <path id="DejaVuSans-5b" d="M 550 4863 
L 1875 4863 
L 1875 4416 
L 1125 4416 
L 1125 -397 
L 1875 -397 
L 1875 -844 
L 550 -844 
L 550 4863 
z
" transform="scale(0.015625)"/>
       <path id="DejaVuSans-62" d="M 3116 1747 
Q 3116 2381 2855 2742 
Q 2594 3103 2138 3103 
Q 1681 3103 1420 2742 
Q 1159 2381 1159 1747 
Q 1159 1113 1420 752 
Q 1681 391 2138 391 
Q 2594 391 2855 752 
Q 3116 1113 3116 1747 
z
M 1159 2969 
Q 1341 3281 1617 3432 
Q 1894 3584 2278 3584 
Q 2916 3584 3314 3078 
Q 3713 2572 3713 1747 
Q 3713 922 3314 415 
Q 2916 -91 2278 -91 
Q 1894 -91 1617 61 
Q 1341 213 1159 525 
L 1159 0 
L 581 0 
L 581 4863 
L 1159 4863 
L 1159 2969 
z
" transform="scale(0.015625)"/>
       <path id="DejaVuSans-69" d="M 603 3500 
L 1178 3500 
L 1178 0 
L 603 0 
L 603 3500 
z
M 603 4863 
L 1178 4863 
L 1178 4134 
L 603 4134 
L 603 4863 
z
" transform="scale(0.015625)"/>
       <path id="DejaVuSans-73" d="M 2834 3397 
L 2834 2853 
Q 2591 2978 2328 3040 
Q 2066 3103 1784 3103 
Q 1356 3103 1142 2972 
Q 928 2841 928 2578 
Q 928 2378 1081 2264 
Q 1234 2150 1697 2047 
L 1894 2003 
Q 2506 1872 2764 1633 
Q 3022 1394 3022 966 
Q 3022 478 2636 193 
Q 2250 -91 1575 -91 
Q 1294 -91 989 -36 
Q 684 19 347 128 
L 347 722 
Q 666 556 975 473 
Q 1284 391 1588 391 
Q 1994 391 2212 530 
Q 2431 669 2431 922 
Q 2431 1156 2273 1281 
Q 2116 1406 1581 1522 
L 1381 1569 
Q 847 1681 609 1914 
Q 372 2147 372 2553 
Q 372 3047 722 3315 
Q 1072 3584 1716 3584 
Q 2034 3584 2315 3537 
Q 2597 3491 2834 3397 
z
" transform="scale(0.015625)"/>
       <path id="DejaVuSans-5d" d="M 1947 4863 
L 1947 -844 
L 622 -844 
L 622 -397 
L 1369 -397 
L 1369 4416 
L 622 4416 
L 622 4863 
L 1947 4863 
z
" transform="scale(0.015625)"/>
      </defs>
      <use xlink:href="#DejaVuSans-63"/>
      <use xlink:href="#DejaVuSans-6f" x="54.980469"/>
      <use xlink:href="#DejaVuSans-64" x="116.162109"/>
      <use xlink:href="#DejaVuSans-65" x="179.638672"/>
      <use xlink:href="#DejaVuSans-20" x="241.162109"/>
      <use xlink:href="#DejaVuSans-6c" x="272.949219"/>
      <use xlink:href="#DejaVuSans-65" x="300.732422"/>
      <use xlink:href="#DejaVuSans-6e" x="362.255859"/>
      <use xlink:href="#DejaVuSans-67" x="425.634766"/>
      <use xlink:href="#DejaVuSans-74" x="489.111328"/>
      <use xlink:href="#DejaVuSans-68" x="528.320312"/>
      <use xlink:href="#DejaVuSans-20" x="591.699219"/>
      <use xlink:href="#DejaVuSans-5b" x="623.486328"/>
      <use xlink:href="#DejaVuSans-62" x="662.5"/>
      <use xlink:href="#DejaVuSans-69" x="725.976562"/>
      <use xlink:href="#DejaVuSans-74" x="753.759766"/>
      <use xlink:href="#DejaVuSans-73" x="792.96875"/>
      <use xlink:href="#DejaVuSans-5d" x="845.068359"/>
     </g>
    </g>
   </g>
   <g id="matplotlib.axis_2">
    <g id="ytick_1">
     <g id="line2d_6">
      <defs>
       <path id="mbe5390af74" d="M 0 0 
L -3.5 0 
" style="stroke: #000000; stroke-width: 0.8"/>
      </defs>
      <g>
       <use xlink:href="#mbe5390af74" x="144" y="640.8" style="stroke: #000000; stroke-width: 0.8"/>
      </g>
     </g>
     <g id="text_7">
      <!-- 0.0 -->
      <g transform="translate(121.096875 644.599219)scale(0.1 -0.1)">
       <defs>
        <path id="DejaVuSans-30" d="M 2034 4250 
Q 1547 4250 1301 3770 
Q 1056 3291 1056 2328 
Q 1056 1369 1301 889 
Q 1547 409 2034 409 
Q 2525 409 2770 889 
Q 3016 1369 3016 2328 
Q 3016 3291 2770 3770 
Q 2525 4250 2034 4250 
z
M 2034 4750 
Q 2819 4750 3233 4129 
Q 3647 3509 3647 2328 
Q 3647 1150 3233 529 
Q 2819 -91 2034 -91 
Q 1250 -91 836 529 
Q 422 1150 422 2328 
Q 422 3509 836 4129 
Q 1250 4750 2034 4750 
z
" transform="scale(0.015625)"/>
        <path id="DejaVuSans-2e" d="M 684 794 
L 1344 794 
L 1344 0 
L 684 0 
L 684 794 
z
" transform="scale(0.015625)"/>
       </defs>
       <use xlink:href="#DejaVuSans-30"/>
       <use xlink:href="#DejaVuSans-2e" x="63.623047"/>
       <use xlink:href="#DejaVuSans-30" x="95.410156"/>
      </g>
     </g>
    </g>
    <g id="ytick_2">
     <g id="line2d_7">
      <g>
       <use xlink:href="#mbe5390af74" x="144" y="542.422154" style="stroke: #000000; stroke-width: 0.8"/>
      </g>
     </g>
     <g id="text_8">
      <!-- 0.5 -->
      <g transform="translate(121.096875 546.221373)scale(0.1 -0.1)">
       <use xlink:href="#DejaVuSans-30"/>
       <use xlink:href="#DejaVuSans-2e" x="63.623047"/>
       <use xlink:href="#DejaVuSans-35" x="95.410156"/>
      </g>
     </g>
    </g>
    <g id="ytick_3">
     <g id="line2d_8">
      <g>
       <use xlink:href="#mbe5390af74" x="144" y="444.044308" style="stroke: #000000; stroke-width: 0.8"/>
      </g>
     </g>
     <g id="text_9">
      <!-- 1.0 -->
      <g transform="translate(121.096875 447.843526)scale(0.1 -0.1)">
       <use xlink:href="#DejaVuSans-31"/>
       <use xlink:href="#DejaVuSans-2e" x="63.623047"/>
       <use xlink:href="#DejaVuSans-30" x="95.410156"/>
      </g>
     </g>
    </g>
    <g id="ytick_4">
     <g id="line2d_9">
      <g>
       <use xlink:href="#mbe5390af74" x="144" y="345.666461" style="stroke: #000000; stroke-width: 0.8"/>
      </g>
     </g>
     <g id="text_10">
      <!-- 1.5 -->
      <g transform="translate(121.096875 349.46568)scale(0.1 -0.1)">
       <use xlink:href="#DejaVuSans-31"/>
       <use xlink:href="#DejaVuSans-2e" x="63.623047"/>
       <use xlink:href="#DejaVuSans-35" x="95.410156"/>
      </g>
     </g>
    </g>
    <g id="ytick_5">
     <g id="line2d_10">
      <g>
       <use xlink:href="#mbe5390af74" x="144" y="247.288615" style="stroke: #000000; stroke-width: 0.8"/>
      </g>
     </g>
     <g id="text_11">
      <!-- 2.0 -->
      <g transform="translate(121.096875 251.087834)scale(0.1 -0.1)">
       <defs>
        <path id="DejaVuSans-32" d="M 1228 531 
L 3431 531 
L 3431 0 
L 469 0 
L 469 531 
Q 828 903 1448 1529 
Q 2069 2156 2228 2338 
Q 2531 2678 2651 2914 
Q 2772 3150 2772 3378 
Q 2772 3750 2511 3984 
Q 2250 4219 1831 4219 
Q 1534 4219 1204 4116 
Q 875 4013 500 3803 
L 500 4441 
Q 881 4594 1212 4672 
Q 1544 4750 1819 4750 
Q 2544 4750 2975 4387 
Q 3406 4025 3406 3419 
Q 3406 3131 3298 2873 
Q 3191 2616 2906 2266 
Q 2828 2175 2409 1742 
Q 1991 1309 1228 531 
z
" transform="scale(0.015625)"/>
       </defs>
       <use xlink:href="#DejaVuSans-32"/>
       <use xlink:href="#DejaVuSans-2e" x="63.623047"/>
       <use xlink:href="#DejaVuSans-30" x="95.410156"/>
      </g>
     </g>
    </g>
    <g id="ytick_6">
     <g id="line2d_11">
      <g>
       <use xlink:href="#mbe5390af74" x="144" y="148.910769" style="stroke: #000000; stroke-width: 0.8"/>
      </g>
     </g>
     <g id="text_12">
      <!-- 2.5 -->
      <g transform="translate(121.096875 152.709988)scale(0.1 -0.1)">
       <use xlink:href="#DejaVuSans-32"/>
       <use xlink:href="#DejaVuSans-2e" x="63.623047"/>
       <use xlink:href="#DejaVuSans-35" x="95.410156"/>
      </g>
     </g>
    </g>
    <g id="text_13">
     <!-- compression size [bytes] -->
     <g transform="translate(115.017187 425.848437)rotate(-90)scale(0.1 -0.1)">
      <defs>
       <path id="DejaVuSans-6d" d="M 3328 2828 
Q 3544 3216 3844 3400 
Q 4144 3584 4550 3584 
Q 5097 3584 5394 3201 
Q 5691 2819 5691 2113 
L 5691 0 
L 5113 0 
L 5113 2094 
Q 5113 2597 4934 2840 
Q 4756 3084 4391 3084 
Q 3944 3084 3684 2787 
Q 3425 2491 3425 1978 
L 3425 0 
L 2847 0 
L 2847 2094 
Q 2847 2600 2669 2842 
Q 2491 3084 2119 3084 
Q 1678 3084 1418 2786 
Q 1159 2488 1159 1978 
L 1159 0 
L 581 0 
L 581 3500 
L 1159 3500 
L 1159 2956 
Q 1356 3278 1631 3431 
Q 1906 3584 2284 3584 
Q 2666 3584 2933 3390 
Q 3200 3197 3328 2828 
z
" transform="scale(0.015625)"/>
       <path id="DejaVuSans-70" d="M 1159 525 
L 1159 -1331 
L 581 -1331 
L 581 3500 
L 1159 3500 
L 1159 2969 
Q 1341 3281 1617 3432 
Q 1894 3584 2278 3584 
Q 2916 3584 3314 3078 
Q 3713 2572 3713 1747 
Q 3713 922 3314 415 
Q 2916 -91 2278 -91 
Q 1894 -91 1617 61 
Q 1341 213 1159 525 
z
M 3116 1747 
Q 3116 2381 2855 2742 
Q 2594 3103 2138 3103 
Q 1681 3103 1420 2742 
Q 1159 2381 1159 1747 
Q 1159 1113 1420 752 
Q 1681 391 2138 391 
Q 2594 391 2855 752 
Q 3116 1113 3116 1747 
z
" transform="scale(0.015625)"/>
       <path id="DejaVuSans-72" d="M 2631 2963 
Q 2534 3019 2420 3045 
Q 2306 3072 2169 3072 
Q 1681 3072 1420 2755 
Q 1159 2438 1159 1844 
L 1159 0 
L 581 0 
L 581 3500 
L 1159 3500 
L 1159 2956 
Q 1341 3275 1631 3429 
Q 1922 3584 2338 3584 
Q 2397 3584 2469 3576 
Q 2541 3569 2628 3553 
L 2631 2963 
z
" transform="scale(0.015625)"/>
       <path id="DejaVuSans-7a" d="M 353 3500 
L 3084 3500 
L 3084 2975 
L 922 459 
L 3084 459 
L 3084 0 
L 275 0 
L 275 525 
L 2438 3041 
L 353 3041 
L 353 3500 
z
" transform="scale(0.015625)"/>
       <path id="DejaVuSans-79" d="M 2059 -325 
Q 1816 -950 1584 -1140 
Q 1353 -1331 966 -1331 
L 506 -1331 
L 506 -850 
L 844 -850 
Q 1081 -850 1212 -737 
Q 1344 -625 1503 -206 
L 1606 56 
L 191 3500 
L 800 3500 
L 1894 763 
L 2988 3500 
L 3597 3500 
L 2059 -325 
z
" transform="scale(0.015625)"/>
      </defs>
      <use xlink:href="#DejaVuSans-63"/>
      <use xlink:href="#DejaVuSans-6f" x="54.980469"/>
      <use xlink:href="#DejaVuSans-6d" x="116.162109"/>
      <use xlink:href="#DejaVuSans-70" x="213.574219"/>
      <use xlink:href="#DejaVuSans-72" x="277.050781"/>
      <use xlink:href="#DejaVuSans-65" x="315.914062"/>
      <use xlink:href="#DejaVuSans-73" x="377.4375"/>
      <use xlink:href="#DejaVuSans-73" x="429.537109"/>
      <use xlink:href="#DejaVuSans-69" x="481.636719"/>
      <use xlink:href="#DejaVuSans-6f" x="509.419922"/>
      <use xlink:href="#DejaVuSans-6e" x="570.601562"/>
      <use xlink:href="#DejaVuSans-20" x="633.980469"/>
      <use xlink:href="#DejaVuSans-73" x="665.767578"/>
      <use xlink:href="#DejaVuSans-69" x="717.867188"/>
      <use xlink:href="#DejaVuSans-7a" x="745.650391"/>
      <use xlink:href="#DejaVuSans-65" x="798.140625"/>
      <use xlink:href="#DejaVuSans-20" x="859.664062"/>
      <use xlink:href="#DejaVuSans-5b" x="891.451172"/>
      <use xlink:href="#DejaVuSans-62" x="930.464844"/>
      <use xlink:href="#DejaVuSans-79" x="993.941406"/>
      <use xlink:href="#DejaVuSans-74" x="1053.121094"/>
      <use xlink:href="#DejaVuSans-65" x="1092.330078"/>
      <use xlink:href="#DejaVuSans-73" x="1153.853516"/>
      <use xlink:href="#DejaVuSans-5d" x="1205.953125"/>
     </g>
    </g>
    <g id="text_14">
     <!-- 1e6 -->
     <g transform="translate(144 83.4)scale(0.1 -0.1)">
      <use xlink:href="#DejaVuSans-31"/>
      <use xlink:href="#DejaVuSans-65" x="63.623047"/>
      <use xlink:href="#DejaVuSans-36" x="125.146484"/>
     </g>
    </g>
   </g>
   <g id="patch_208">
    <path d="M 144 640.8 
L 144 86.4 
" style="fill: none; stroke: #000000; stroke-width: 0.8; stroke-linejoin: miter; stroke-linecap: square"/>
   </g>
   <g id="patch_209">
    <path d="M 1036.8 640.8 
L 1036.8 86.4 
" style="fill: none; stroke: #000000; stroke-width: 0.8; stroke-linejoin: miter; stroke-linecap: square"/>
   </g>
   <g id="patch_210">
    <path d="M 144 640.8 
L 1036.8 640.8 
" style="fill: none; stroke: #000000; stroke-width: 0.8; stroke-linejoin: miter; stroke-linecap: square"/>
   </g>
   <g id="patch_211">
    <path d="M 144 86.4 
L 1036.8 86.4 
" style="fill: none; stroke: #000000; stroke-width: 0.8; stroke-linejoin: miter; stroke-linecap: square"/>
   </g>
   <g id="text_15">
    <!-- Original file size vs compressed file size part 3 -->
    <g transform="translate(450.925313 80.4)scale(0.12 -0.12)">
     <defs>
      <path id="DejaVuSans-4f" d="M 2522 4238 
Q 1834 4238 1429 3725 
Q 1025 3213 1025 2328 
Q 1025 1447 1429 934 
Q 1834 422 2522 422 
Q 3209 422 3611 934 
Q 4013 1447 4013 2328 
Q 4013 3213 3611 3725 
Q 3209 4238 2522 4238 
z
M 2522 4750 
Q 3503 4750 4090 4092 
Q 4678 3434 4678 2328 
Q 4678 1225 4090 567 
Q 3503 -91 2522 -91 
Q 1538 -91 948 565 
Q 359 1222 359 2328 
Q 359 3434 948 4092 
Q 1538 4750 2522 4750 
z
" transform="scale(0.015625)"/>
      <path id="DejaVuSans-61" d="M 2194 1759 
Q 1497 1759 1228 1600 
Q 959 1441 959 1056 
Q 959 750 1161 570 
Q 1363 391 1709 391 
Q 2188 391 2477 730 
Q 2766 1069 2766 1631 
L 2766 1759 
L 2194 1759 
z
M 3341 1997 
L 3341 0 
L 2766 0 
L 2766 531 
Q 2569 213 2275 61 
Q 1981 -91 1556 -91 
Q 1019 -91 701 211 
Q 384 513 384 1019 
Q 384 1609 779 1909 
Q 1175 2209 1959 2209 
L 2766 2209 
L 2766 2266 
Q 2766 2663 2505 2880 
Q 2244 3097 1772 3097 
Q 1472 3097 1187 3025 
Q 903 2953 641 2809 
L 641 3341 
Q 956 3463 1253 3523 
Q 1550 3584 1831 3584 
Q 2591 3584 2966 3190 
Q 3341 2797 3341 1997 
z
" transform="scale(0.015625)"/>
      <path id="DejaVuSans-66" d="M 2375 4863 
L 2375 4384 
L 1825 4384 
Q 1516 4384 1395 4259 
Q 1275 4134 1275 3809 
L 1275 3500 
L 2222 3500 
L 2222 3053 
L 1275 3053 
L 1275 0 
L 697 0 
L 697 3053 
L 147 3053 
L 147 3500 
L 697 3500 
L 697 3744 
Q 697 4328 969 4595 
Q 1241 4863 1831 4863 
L 2375 4863 
z
" transform="scale(0.015625)"/>
      <path id="DejaVuSans-76" d="M 191 3500 
L 800 3500 
L 1894 563 
L 2988 3500 
L 3597 3500 
L 2284 0 
L 1503 0 
L 191 3500 
z
" transform="scale(0.015625)"/>
      <path id="DejaVuSans-33" d="M 2597 2516 
Q 3050 2419 3304 2112 
Q 3559 1806 3559 1356 
Q 3559 666 3084 287 
Q 2609 -91 1734 -91 
Q 1441 -91 1130 -33 
Q 819 25 488 141 
L 488 750 
Q 750 597 1062 519 
Q 1375 441 1716 441 
Q 2309 441 2620 675 
Q 2931 909 2931 1356 
Q 2931 1769 2642 2001 
Q 2353 2234 1838 2234 
L 1294 2234 
L 1294 2753 
L 1863 2753 
Q 2328 2753 2575 2939 
Q 2822 3125 2822 3475 
Q 2822 3834 2567 4026 
Q 2313 4219 1838 4219 
Q 1578 4219 1281 4162 
Q 984 4106 628 3988 
L 628 4550 
Q 988 4650 1302 4700 
Q 1616 4750 1894 4750 
Q 2613 4750 3031 4423 
Q 3450 4097 3450 3541 
Q 3450 3153 3228 2886 
Q 3006 2619 2597 2516 
z
" transform="scale(0.015625)"/>
     </defs>
     <use xlink:href="#DejaVuSans-4f"/>
     <use xlink:href="#DejaVuSans-72" x="78.710938"/>
     <use xlink:href="#DejaVuSans-69" x="119.824219"/>
     <use xlink:href="#DejaVuSans-67" x="147.607422"/>
     <use xlink:href="#DejaVuSans-69" x="211.083984"/>
     <use xlink:href="#DejaVuSans-6e" x="238.867188"/>
     <use xlink:href="#DejaVuSans-61" x="302.246094"/>
     <use xlink:href="#DejaVuSans-6c" x="363.525391"/>
     <use xlink:href="#DejaVuSans-20" x="391.308594"/>
     <use xlink:href="#DejaVuSans-66" x="423.095703"/>
     <use xlink:href="#DejaVuSans-69" x="458.300781"/>
     <use xlink:href="#DejaVuSans-6c" x="486.083984"/>
     <use xlink:href="#DejaVuSans-65" x="513.867188"/>
     <use xlink:href="#DejaVuSans-20" x="575.390625"/>
     <use xlink:href="#DejaVuSans-73" x="607.177734"/>
     <use xlink:href="#DejaVuSans-69" x="659.277344"/>
     <use xlink:href="#DejaVuSans-7a" x="687.060547"/>
     <use xlink:href="#DejaVuSans-65" x="739.550781"/>
     <use xlink:href="#DejaVuSans-20" x="801.074219"/>
     <use xlink:href="#DejaVuSans-76" x="832.861328"/>
     <use xlink:href="#DejaVuSans-73" x="892.041016"/>
     <use xlink:href="#DejaVuSans-20" x="944.140625"/>
     <use xlink:href="#DejaVuSans-63" x="975.927734"/>
     <use xlink:href="#DejaVuSans-6f" x="1030.908203"/>
     <use xlink:href="#DejaVuSans-6d" x="1092.089844"/>
     <use xlink:href="#DejaVuSans-70" x="1189.501953"/>
     <use xlink:href="#DejaVuSans-72" x="1252.978516"/>
     <use xlink:href="#DejaVuSans-65" x="1291.841797"/>
     <use xlink:href="#DejaVuSans-73" x="1353.365234"/>
     <use xlink:href="#DejaVuSans-73" x="1405.464844"/>
     <use xlink:href="#DejaVuSans-65" x="1457.564453"/>
     <use xlink:href="#DejaVuSans-64" x="1519.087891"/>
     <use xlink:href="#DejaVuSans-20" x="1582.564453"/>
     <use xlink:href="#DejaVuSans-66" x="1614.351562"/>
     <use xlink:href="#DejaVuSans-69" x="1649.556641"/>
     <use xlink:href="#DejaVuSans-6c" x="1677.339844"/>
     <use xlink:href="#DejaVuSans-65" x="1705.123047"/>
     <use xlink:href="#DejaVuSans-20" x="1766.646484"/>
     <use xlink:href="#DejaVuSans-73" x="1798.433594"/>
     <use xlink:href="#DejaVuSans-69" x="1850.533203"/>
     <use xlink:href="#DejaVuSans-7a" x="1878.316406"/>
     <use xlink:href="#DejaVuSans-65" x="1930.806641"/>
     <use xlink:href="#DejaVuSans-20" x="1992.330078"/>
     <use xlink:href="#DejaVuSans-70" x="2024.117188"/>
     <use xlink:href="#DejaVuSans-61" x="2087.59375"/>
     <use xlink:href="#DejaVuSans-72" x="2148.873047"/>
     <use xlink:href="#DejaVuSans-74" x="2189.986328"/>
     <use xlink:href="#DejaVuSans-20" x="2229.195312"/>
     <use xlink:href="#DejaVuSans-33" x="2260.982422"/>
    </g>
   </g>
   <g id="legend_1">
    <g id="patch_212">
     <path d="M 941.185937 167.790625 
L 1029.8 167.790625 
Q 1031.8 167.790625 1031.8 165.790625 
L 1031.8 93.4 
Q 1031.8 91.4 1029.8 91.4 
L 941.185937 91.4 
Q 939.185937 91.4 939.185937 93.4 
L 939.185937 165.790625 
Q 939.185937 167.790625 941.185937 167.790625 
z
" style="fill: #ffffff; opacity: 0.8; stroke: #cccccc; stroke-linejoin: miter"/>
    </g>
    <g id="patch_213">
     <path d="M 943.185937 102.998437 
L 963.185937 102.998437 
L 963.185937 95.998437 
L 943.185937 95.998437 
z
" style="fill: #bfbf00"/>
    </g>
    <g id="text_16">
     <!-- Original -->
     <g transform="translate(971.185937 102.998437)scale(0.1 -0.1)">
      <use xlink:href="#DejaVuSans-4f"/>
      <use xlink:href="#DejaVuSans-72" x="78.710938"/>
      <use xlink:href="#DejaVuSans-69" x="119.824219"/>
      <use xlink:href="#DejaVuSans-67" x="147.607422"/>
      <use xlink:href="#DejaVuSans-69" x="211.083984"/>
      <use xlink:href="#DejaVuSans-6e" x="238.867188"/>
      <use xlink:href="#DejaVuSans-61" x="302.246094"/>
      <use xlink:href="#DejaVuSans-6c" x="363.525391"/>
     </g>
    </g>
    <g id="patch_214">
     <path d="M 943.185937 117.676562 
L 963.185937 117.676562 
L 963.185937 110.676562 
L 943.185937 110.676562 
z
"/>
    </g>
    <g id="text_17">
     <!-- Difference -->
     <g transform="translate(971.185937 117.676562)scale(0.1 -0.1)">
      <defs>
       <path id="DejaVuSans-44" d="M 1259 4147 
L 1259 519 
L 2022 519 
Q 2988 519 3436 956 
Q 3884 1394 3884 2338 
Q 3884 3275 3436 3711 
Q 2988 4147 2022 4147 
L 1259 4147 
z
M 628 4666 
L 1925 4666 
Q 3281 4666 3915 4102 
Q 4550 3538 4550 2338 
Q 4550 1131 3912 565 
Q 3275 0 1925 0 
L 628 0 
L 628 4666 
z
" transform="scale(0.015625)"/>
      </defs>
      <use xlink:href="#DejaVuSans-44"/>
      <use xlink:href="#DejaVuSans-69" x="77.001953"/>
      <use xlink:href="#DejaVuSans-66" x="104.785156"/>
      <use xlink:href="#DejaVuSans-66" x="139.990234"/>
      <use xlink:href="#DejaVuSans-65" x="175.195312"/>
      <use xlink:href="#DejaVuSans-72" x="236.71875"/>
      <use xlink:href="#DejaVuSans-65" x="275.582031"/>
      <use xlink:href="#DejaVuSans-6e" x="337.105469"/>
      <use xlink:href="#DejaVuSans-63" x="400.484375"/>
      <use xlink:href="#DejaVuSans-65" x="455.464844"/>
     </g>
    </g>
    <g id="patch_215">
     <path d="M 943.185937 132.354687 
L 963.185937 132.354687 
L 963.185937 125.354687 
L 943.185937 125.354687 
z
" style="fill: #008000"/>
    </g>
    <g id="text_18">
     <!-- Encoded -->
     <g transform="translate(971.185937 132.354687)scale(0.1 -0.1)">
      <defs>
       <path id="DejaVuSans-45" d="M 628 4666 
L 3578 4666 
L 3578 4134 
L 1259 4134 
L 1259 2753 
L 3481 2753 
L 3481 2222 
L 1259 2222 
L 1259 531 
L 3634 531 
L 3634 0 
L 628 0 
L 628 4666 
z
" transform="scale(0.015625)"/>
      </defs>
      <use xlink:href="#DejaVuSans-45"/>
      <use xlink:href="#DejaVuSans-6e" x="63.183594"/>
      <use xlink:href="#DejaVuSans-63" x="126.5625"/>
      <use xlink:href="#DejaVuSans-6f" x="181.542969"/>
      <use xlink:href="#DejaVuSans-64" x="242.724609"/>
      <use xlink:href="#DejaVuSans-65" x="306.201172"/>
      <use xlink:href="#DejaVuSans-64" x="367.724609"/>
     </g>
    </g>
    <g id="patch_216">
     <path d="M 943.185937 147.032812 
L 963.185937 147.032812 
L 963.185937 140.032812 
L 943.185937 140.032812 
z
" style="fill: #ff0000"/>
    </g>
    <g id="text_19">
     <!-- Unencoded -->
     <g transform="translate(971.185937 147.032812)scale(0.1 -0.1)">
      <defs>
       <path id="DejaVuSans-55" d="M 556 4666 
L 1191 4666 
L 1191 1831 
Q 1191 1081 1462 751 
Q 1734 422 2344 422 
Q 2950 422 3222 751 
Q 3494 1081 3494 1831 
L 3494 4666 
L 4128 4666 
L 4128 1753 
Q 4128 841 3676 375 
Q 3225 -91 2344 -91 
Q 1459 -91 1007 375 
Q 556 841 556 1753 
L 556 4666 
z
" transform="scale(0.015625)"/>
      </defs>
      <use xlink:href="#DejaVuSans-55"/>
      <use xlink:href="#DejaVuSans-6e" x="73.193359"/>
      <use xlink:href="#DejaVuSans-65" x="136.572266"/>
      <use xlink:href="#DejaVuSans-6e" x="198.095703"/>
      <use xlink:href="#DejaVuSans-63" x="261.474609"/>
      <use xlink:href="#DejaVuSans-6f" x="316.455078"/>
      <use xlink:href="#DejaVuSans-64" x="377.636719"/>
      <use xlink:href="#DejaVuSans-65" x="441.113281"/>
      <use xlink:href="#DejaVuSans-64" x="502.636719"/>
     </g>
    </g>
    <g id="patch_217">
     <path d="M 943.185937 161.710937 
L 963.185937 161.710937 
L 963.185937 154.710937 
L 943.185937 154.710937 
z
" style="fill: #0000ff"/>
    </g>
    <g id="text_20">
     <!-- Encoding -->
     <g transform="translate(971.185937 161.710937)scale(0.1 -0.1)">
      <use xlink:href="#DejaVuSans-45"/>
      <use xlink:href="#DejaVuSans-6e" x="63.183594"/>
      <use xlink:href="#DejaVuSans-63" x="126.5625"/>
      <use xlink:href="#DejaVuSans-6f" x="181.542969"/>
      <use xlink:href="#DejaVuSans-64" x="242.724609"/>
      <use xlink:href="#DejaVuSans-69" x="306.201172"/>
      <use xlink:href="#DejaVuSans-6e" x="333.984375"/>
      <use xlink:href="#DejaVuSans-67" x="397.363281"/>
     </g>
    </g>
   </g>
  </g>
  <g id="text_21">
   <!-- Each bar represents different image in order: -->
   <g transform="translate(57.6 674.672222)scale(0.0833 -0.0833)">
    <defs>
     <path id="DejaVuSans-3a" d="M 750 794 
L 1409 794 
L 1409 0 
L 750 0 
L 750 794 
z
M 750 3309 
L 1409 3309 
L 1409 2516 
L 750 2516 
L 750 3309 
z
" transform="scale(0.015625)"/>
    </defs>
    <use xlink:href="#DejaVuSans-45"/>
    <use xlink:href="#DejaVuSans-61" x="63.183594"/>
    <use xlink:href="#DejaVuSans-63" x="124.462891"/>
    <use xlink:href="#DejaVuSans-68" x="179.443359"/>
    <use xlink:href="#DejaVuSans-20" x="242.822266"/>
    <use xlink:href="#DejaVuSans-62" x="274.609375"/>
    <use xlink:href="#DejaVuSans-61" x="338.085938"/>
    <use xlink:href="#DejaVuSans-72" x="399.365234"/>
    <use xlink:href="#DejaVuSans-20" x="440.478516"/>
    <use xlink:href="#DejaVuSans-72" x="472.265625"/>
    <use xlink:href="#DejaVuSans-65" x="511.128906"/>
    <use xlink:href="#DejaVuSans-70" x="572.652344"/>
    <use xlink:href="#DejaVuSans-72" x="636.128906"/>
    <use xlink:href="#DejaVuSans-65" x="674.992188"/>
    <use xlink:href="#DejaVuSans-73" x="736.515625"/>
    <use xlink:href="#DejaVuSans-65" x="788.615234"/>
    <use xlink:href="#DejaVuSans-6e" x="850.138672"/>
    <use xlink:href="#DejaVuSans-74" x="913.517578"/>
    <use xlink:href="#DejaVuSans-73" x="952.726562"/>
    <use xlink:href="#DejaVuSans-20" x="1004.826172"/>
    <use xlink:href="#DejaVuSans-64" x="1036.613281"/>
    <use xlink:href="#DejaVuSans-69" x="1100.089844"/>
    <use xlink:href="#DejaVuSans-66" x="1127.873047"/>
    <use xlink:href="#DejaVuSans-66" x="1163.078125"/>
    <use xlink:href="#DejaVuSans-65" x="1198.283203"/>
    <use xlink:href="#DejaVuSans-72" x="1259.806641"/>
    <use xlink:href="#DejaVuSans-65" x="1298.669922"/>
    <use xlink:href="#DejaVuSans-6e" x="1360.193359"/>
    <use xlink:href="#DejaVuSans-74" x="1423.572266"/>
    <use xlink:href="#DejaVuSans-20" x="1462.78125"/>
    <use xlink:href="#DejaVuSans-69" x="1494.568359"/>
    <use xlink:href="#DejaVuSans-6d" x="1522.351562"/>
    <use xlink:href="#DejaVuSans-61" x="1619.763672"/>
    <use xlink:href="#DejaVuSans-67" x="1681.042969"/>
    <use xlink:href="#DejaVuSans-65" x="1744.519531"/>
    <use xlink:href="#DejaVuSans-20" x="1806.042969"/>
    <use xlink:href="#DejaVuSans-69" x="1837.830078"/>
    <use xlink:href="#DejaVuSans-6e" x="1865.613281"/>
    <use xlink:href="#DejaVuSans-20" x="1928.992188"/>
    <use xlink:href="#DejaVuSans-6f" x="1960.779297"/>
    <use xlink:href="#DejaVuSans-72" x="2021.960938"/>
    <use xlink:href="#DejaVuSans-64" x="2061.324219"/>
    <use xlink:href="#DejaVuSans-65" x="2124.800781"/>
    <use xlink:href="#DejaVuSans-72" x="2186.324219"/>
    <use xlink:href="#DejaVuSans-3a" x="2225.6875"/>
   </g>
   <!--   geometr_09.pgm, laplace_10.pgm, geometr_099.pgm, geometr_05.pgm, normal_50.pgm, normal_30.pgm, uniform.pgm, normal_10.pgm, laplace_30.pgm, laplace_20.pgm -->
   <g transform="translate(57.6 684)scale(0.0833 -0.0833)">
    <defs>
     <path id="DejaVuSans-5f" d="M 3263 -1063 
L 3263 -1509 
L -63 -1509 
L -63 -1063 
L 3263 -1063 
z
" transform="scale(0.015625)"/>
     <path id="DejaVuSans-39" d="M 703 97 
L 703 672 
Q 941 559 1184 500 
Q 1428 441 1663 441 
Q 2288 441 2617 861 
Q 2947 1281 2994 2138 
Q 2813 1869 2534 1725 
Q 2256 1581 1919 1581 
Q 1219 1581 811 2004 
Q 403 2428 403 3163 
Q 403 3881 828 4315 
Q 1253 4750 1959 4750 
Q 2769 4750 3195 4129 
Q 3622 3509 3622 2328 
Q 3622 1225 3098 567 
Q 2575 -91 1691 -91 
Q 1453 -91 1209 -44 
Q 966 3 703 97 
z
M 1959 2075 
Q 2384 2075 2632 2365 
Q 2881 2656 2881 3163 
Q 2881 3666 2632 3958 
Q 2384 4250 1959 4250 
Q 1534 4250 1286 3958 
Q 1038 3666 1038 3163 
Q 1038 2656 1286 2365 
Q 1534 2075 1959 2075 
z
" transform="scale(0.015625)"/>
     <path id="DejaVuSans-2c" d="M 750 794 
L 1409 794 
L 1409 256 
L 897 -744 
L 494 -744 
L 750 256 
L 750 794 
z
" transform="scale(0.015625)"/>
     <path id="DejaVuSans-75" d="M 544 1381 
L 544 3500 
L 1119 3500 
L 1119 1403 
Q 1119 906 1312 657 
Q 1506 409 1894 409 
Q 2359 409 2629 706 
Q 2900 1003 2900 1516 
L 2900 3500 
L 3475 3500 
L 3475 0 
L 2900 0 
L 2900 538 
Q 2691 219 2414 64 
Q 2138 -91 1772 -91 
Q 1169 -91 856 284 
Q 544 659 544 1381 
z
M 1991 3584 
L 1991 3584 
z
" transform="scale(0.015625)"/>
    </defs>
    <use xlink:href="#DejaVuSans-20"/>
    <use xlink:href="#DejaVuSans-20" x="31.787109"/>
    <use xlink:href="#DejaVuSans-67" x="63.574219"/>
    <use xlink:href="#DejaVuSans-65" x="127.050781"/>
    <use xlink:href="#DejaVuSans-6f" x="188.574219"/>
    <use xlink:href="#DejaVuSans-6d" x="249.755859"/>
    <use xlink:href="#DejaVuSans-65" x="347.167969"/>
    <use xlink:href="#DejaVuSans-74" x="408.691406"/>
    <use xlink:href="#DejaVuSans-72" x="447.900391"/>
    <use xlink:href="#DejaVuSans-5f" x="489.013672"/>
    <use xlink:href="#DejaVuSans-30" x="539.013672"/>
    <use xlink:href="#DejaVuSans-39" x="602.636719"/>
    <use xlink:href="#DejaVuSans-2e" x="666.259766"/>
    <use xlink:href="#DejaVuSans-70" x="698.046875"/>
    <use xlink:href="#DejaVuSans-67" x="761.523438"/>
    <use xlink:href="#DejaVuSans-6d" x="825"/>
    <use xlink:href="#DejaVuSans-2c" x="922.412109"/>
    <use xlink:href="#DejaVuSans-20" x="954.199219"/>
    <use xlink:href="#DejaVuSans-6c" x="985.986328"/>
    <use xlink:href="#DejaVuSans-61" x="1013.769531"/>
    <use xlink:href="#DejaVuSans-70" x="1075.048828"/>
    <use xlink:href="#DejaVuSans-6c" x="1138.525391"/>
    <use xlink:href="#DejaVuSans-61" x="1166.308594"/>
    <use xlink:href="#DejaVuSans-63" x="1227.587891"/>
    <use xlink:href="#DejaVuSans-65" x="1282.568359"/>
    <use xlink:href="#DejaVuSans-5f" x="1344.091797"/>
    <use xlink:href="#DejaVuSans-31" x="1394.091797"/>
    <use xlink:href="#DejaVuSans-30" x="1457.714844"/>
    <use xlink:href="#DejaVuSans-2e" x="1521.337891"/>
    <use xlink:href="#DejaVuSans-70" x="1553.125"/>
    <use xlink:href="#DejaVuSans-67" x="1616.601562"/>
    <use xlink:href="#DejaVuSans-6d" x="1680.078125"/>
    <use xlink:href="#DejaVuSans-2c" x="1777.490234"/>
    <use xlink:href="#DejaVuSans-20" x="1809.277344"/>
    <use xlink:href="#DejaVuSans-67" x="1841.064453"/>
    <use xlink:href="#DejaVuSans-65" x="1904.541016"/>
    <use xlink:href="#DejaVuSans-6f" x="1966.064453"/>
    <use xlink:href="#DejaVuSans-6d" x="2027.246094"/>
    <use xlink:href="#DejaVuSans-65" x="2124.658203"/>
    <use xlink:href="#DejaVuSans-74" x="2186.181641"/>
    <use xlink:href="#DejaVuSans-72" x="2225.390625"/>
    <use xlink:href="#DejaVuSans-5f" x="2266.503906"/>
    <use xlink:href="#DejaVuSans-30" x="2316.503906"/>
    <use xlink:href="#DejaVuSans-39" x="2380.126953"/>
    <use xlink:href="#DejaVuSans-39" x="2443.75"/>
    <use xlink:href="#DejaVuSans-2e" x="2507.373047"/>
    <use xlink:href="#DejaVuSans-70" x="2539.160156"/>
    <use xlink:href="#DejaVuSans-67" x="2602.636719"/>
    <use xlink:href="#DejaVuSans-6d" x="2666.113281"/>
    <use xlink:href="#DejaVuSans-2c" x="2763.525391"/>
    <use xlink:href="#DejaVuSans-20" x="2795.3125"/>
    <use xlink:href="#DejaVuSans-67" x="2827.099609"/>
    <use xlink:href="#DejaVuSans-65" x="2890.576172"/>
    <use xlink:href="#DejaVuSans-6f" x="2952.099609"/>
    <use xlink:href="#DejaVuSans-6d" x="3013.28125"/>
    <use xlink:href="#DejaVuSans-65" x="3110.693359"/>
    <use xlink:href="#DejaVuSans-74" x="3172.216797"/>
    <use xlink:href="#DejaVuSans-72" x="3211.425781"/>
    <use xlink:href="#DejaVuSans-5f" x="3252.539062"/>
    <use xlink:href="#DejaVuSans-30" x="3302.539062"/>
    <use xlink:href="#DejaVuSans-35" x="3366.162109"/>
    <use xlink:href="#DejaVuSans-2e" x="3429.785156"/>
    <use xlink:href="#DejaVuSans-70" x="3461.572266"/>
    <use xlink:href="#DejaVuSans-67" x="3525.048828"/>
    <use xlink:href="#DejaVuSans-6d" x="3588.525391"/>
    <use xlink:href="#DejaVuSans-2c" x="3685.9375"/>
    <use xlink:href="#DejaVuSans-20" x="3717.724609"/>
    <use xlink:href="#DejaVuSans-6e" x="3749.511719"/>
    <use xlink:href="#DejaVuSans-6f" x="3812.890625"/>
    <use xlink:href="#DejaVuSans-72" x="3874.072266"/>
    <use xlink:href="#DejaVuSans-6d" x="3913.435547"/>
    <use xlink:href="#DejaVuSans-61" x="4010.847656"/>
    <use xlink:href="#DejaVuSans-6c" x="4072.126953"/>
    <use xlink:href="#DejaVuSans-5f" x="4099.910156"/>
    <use xlink:href="#DejaVuSans-35" x="4149.910156"/>
    <use xlink:href="#DejaVuSans-30" x="4213.533203"/>
    <use xlink:href="#DejaVuSans-2e" x="4277.15625"/>
    <use xlink:href="#DejaVuSans-70" x="4308.943359"/>
    <use xlink:href="#DejaVuSans-67" x="4372.419922"/>
    <use xlink:href="#DejaVuSans-6d" x="4435.896484"/>
    <use xlink:href="#DejaVuSans-2c" x="4533.308594"/>
    <use xlink:href="#DejaVuSans-20" x="4565.095703"/>
    <use xlink:href="#DejaVuSans-6e" x="4596.882812"/>
    <use xlink:href="#DejaVuSans-6f" x="4660.261719"/>
    <use xlink:href="#DejaVuSans-72" x="4721.443359"/>
    <use xlink:href="#DejaVuSans-6d" x="4760.806641"/>
    <use xlink:href="#DejaVuSans-61" x="4858.21875"/>
    <use xlink:href="#DejaVuSans-6c" x="4919.498047"/>
    <use xlink:href="#DejaVuSans-5f" x="4947.28125"/>
    <use xlink:href="#DejaVuSans-33" x="4997.28125"/>
    <use xlink:href="#DejaVuSans-30" x="5060.904297"/>
    <use xlink:href="#DejaVuSans-2e" x="5124.527344"/>
    <use xlink:href="#DejaVuSans-70" x="5156.314453"/>
    <use xlink:href="#DejaVuSans-67" x="5219.791016"/>
    <use xlink:href="#DejaVuSans-6d" x="5283.267578"/>
    <use xlink:href="#DejaVuSans-2c" x="5380.679688"/>
    <use xlink:href="#DejaVuSans-20" x="5412.466797"/>
    <use xlink:href="#DejaVuSans-75" x="5444.253906"/>
    <use xlink:href="#DejaVuSans-6e" x="5507.632812"/>
    <use xlink:href="#DejaVuSans-69" x="5571.011719"/>
    <use xlink:href="#DejaVuSans-66" x="5598.794922"/>
    <use xlink:href="#DejaVuSans-6f" x="5634"/>
    <use xlink:href="#DejaVuSans-72" x="5695.181641"/>
    <use xlink:href="#DejaVuSans-6d" x="5734.544922"/>
    <use xlink:href="#DejaVuSans-2e" x="5831.957031"/>
    <use xlink:href="#DejaVuSans-70" x="5863.744141"/>
    <use xlink:href="#DejaVuSans-67" x="5927.220703"/>
    <use xlink:href="#DejaVuSans-6d" x="5990.697266"/>
    <use xlink:href="#DejaVuSans-2c" x="6088.109375"/>
    <use xlink:href="#DejaVuSans-20" x="6119.896484"/>
    <use xlink:href="#DejaVuSans-6e" x="6151.683594"/>
    <use xlink:href="#DejaVuSans-6f" x="6215.0625"/>
    <use xlink:href="#DejaVuSans-72" x="6276.244141"/>
    <use xlink:href="#DejaVuSans-6d" x="6315.607422"/>
    <use xlink:href="#DejaVuSans-61" x="6413.019531"/>
    <use xlink:href="#DejaVuSans-6c" x="6474.298828"/>
    <use xlink:href="#DejaVuSans-5f" x="6502.082031"/>
    <use xlink:href="#DejaVuSans-31" x="6552.082031"/>
    <use xlink:href="#DejaVuSans-30" x="6615.705078"/>
    <use xlink:href="#DejaVuSans-2e" x="6679.328125"/>
    <use xlink:href="#DejaVuSans-70" x="6711.115234"/>
    <use xlink:href="#DejaVuSans-67" x="6774.591797"/>
    <use xlink:href="#DejaVuSans-6d" x="6838.068359"/>
    <use xlink:href="#DejaVuSans-2c" x="6935.480469"/>
    <use xlink:href="#DejaVuSans-20" x="6967.267578"/>
    <use xlink:href="#DejaVuSans-6c" x="6999.054688"/>
    <use xlink:href="#DejaVuSans-61" x="7026.837891"/>
    <use xlink:href="#DejaVuSans-70" x="7088.117188"/>
    <use xlink:href="#DejaVuSans-6c" x="7151.59375"/>
    <use xlink:href="#DejaVuSans-61" x="7179.376953"/>
    <use xlink:href="#DejaVuSans-63" x="7240.65625"/>
    <use xlink:href="#DejaVuSans-65" x="7295.636719"/>
    <use xlink:href="#DejaVuSans-5f" x="7357.160156"/>
    <use xlink:href="#DejaVuSans-33" x="7407.160156"/>
    <use xlink:href="#DejaVuSans-30" x="7470.783203"/>
    <use xlink:href="#DejaVuSans-2e" x="7534.40625"/>
    <use xlink:href="#DejaVuSans-70" x="7566.193359"/>
    <use xlink:href="#DejaVuSans-67" x="7629.669922"/>
    <use xlink:href="#DejaVuSans-6d" x="7693.146484"/>
    <use xlink:href="#DejaVuSans-2c" x="7790.558594"/>
    <use xlink:href="#DejaVuSans-20" x="7822.345703"/>
    <use xlink:href="#DejaVuSans-6c" x="7854.132812"/>
    <use xlink:href="#DejaVuSans-61" x="7881.916016"/>
    <use xlink:href="#DejaVuSans-70" x="7943.195312"/>
    <use xlink:href="#DejaVuSans-6c" x="8006.671875"/>
    <use xlink:href="#DejaVuSans-61" x="8034.455078"/>
    <use xlink:href="#DejaVuSans-63" x="8095.734375"/>
    <use xlink:href="#DejaVuSans-65" x="8150.714844"/>
    <use xlink:href="#DejaVuSans-5f" x="8212.238281"/>
    <use xlink:href="#DejaVuSans-32" x="8262.238281"/>
    <use xlink:href="#DejaVuSans-30" x="8325.861328"/>
    <use xlink:href="#DejaVuSans-2e" x="8389.484375"/>
    <use xlink:href="#DejaVuSans-70" x="8421.271484"/>
    <use xlink:href="#DejaVuSans-67" x="8484.748047"/>
    <use xlink:href="#DejaVuSans-6d" x="8548.224609"/>
   </g>
  </g>
 </g>
 <defs>
  <clipPath id="pa9a8779954">
   <rect x="144" y="86.4" width="892.8" height="554.4"/>
  </clipPath>
 </defs>
</svg>
