<?xml version="1.0" encoding="utf-8" standalone="no"?>
<!DOCTYPE svg PUBLIC "-//W3C//DTD SVG 1.1//EN"
  "http://www.w3.org/Graphics/SVG/1.1/DTD/svg11.dtd">
<svg xmlns:xlink="http://www.w3.org/1999/xlink" width="1152pt" height="720pt" viewBox="0 0 1152 720" xmlns="http://www.w3.org/2000/svg" version="1.1">
 <metadata>
  <rdf:RDF xmlns:dc="http://purl.org/dc/elements/1.1/" xmlns:cc="http://creativecommons.org/ns#" xmlns:rdf="http://www.w3.org/1999/02/22-rdf-syntax-ns#">
   <cc:Work>
    <dc:type rdf:resource="http://purl.org/dc/dcmitype/StillImage"/>
    <dc:date>2022-06-09T23:20:20.391903</dc:date>
    <dc:format>image/svg+xml</dc:format>
    <dc:creator>
     <cc:Agent>
      <dc:title>Matplotlib v3.5.2, https://matplotlib.org/</dc:title>
     </cc:Agent>
    </dc:creator>
   </cc:Work>
  </rdf:RDF>
 </metadata>
 <defs>
  <style type="text/css">*{stroke-linejoin: round; stroke-linecap: butt}</style>
 </defs>
 <g id="figure_1">
  <g id="patch_1">
   <path d="M 0 720 
L 1152 720 
L 1152 0 
L 0 0 
z
" style="fill: #ffffff"/>
  </g>
  <g id="axes_1">
   <g id="patch_2">
    <path d="M 144 640.8 
L 1036.8 640.8 
L 1036.8 86.4 
L 144 86.4 
z
" style="fill: #ffffff"/>
   </g>
   <g id="patch_3">
    <path d="M 184.581818 640.8 
L 189.518247 640.8 
L 189.518247 274.443676 
L 184.581818 274.443676 
z
" clip-path="url(#p25972ef464)" style="fill: #008000"/>
   </g>
   <g id="patch_4">
    <path d="M 253.316902 640.8 
L 258.25333 640.8 
L 258.25333 235.376326 
L 253.316902 235.376326 
z
" clip-path="url(#p25972ef464)" style="fill: #008000"/>
   </g>
   <g id="patch_5">
    <path d="M 322.051985 640.8 
L 326.988414 640.8 
L 326.988414 204.076749 
L 322.051985 204.076749 
z
" clip-path="url(#p25972ef464)" style="fill: #008000"/>
   </g>
   <g id="patch_6">
    <path d="M 390.787069 640.8 
L 395.723498 640.8 
L 395.723498 187.007667 
L 390.787069 187.007667 
z
" clip-path="url(#p25972ef464)" style="fill: #008000"/>
   </g>
   <g id="patch_7">
    <path d="M 459.522152 640.8 
L 464.458581 640.8 
L 464.458581 190.528389 
L 459.522152 190.528389 
z
" clip-path="url(#p25972ef464)" style="fill: #008000"/>
   </g>
   <g id="patch_8">
    <path d="M 528.257236 640.8 
L 533.193665 640.8 
L 533.193665 216.20472 
L 528.257236 216.20472 
z
" clip-path="url(#p25972ef464)" style="fill: #008000"/>
   </g>
   <g id="patch_9">
    <path d="M 596.992319 640.8 
L 601.928748 640.8 
L 601.928748 252.432572 
L 596.992319 252.432572 
z
" clip-path="url(#p25972ef464)" style="fill: #008000"/>
   </g>
   <g id="patch_10">
    <path d="M 665.727403 640.8 
L 670.663832 640.8 
L 670.663832 275.443561 
L 665.727403 275.443561 
z
" clip-path="url(#p25972ef464)" style="fill: #008000"/>
   </g>
   <g id="patch_11">
    <path d="M 734.462486 640.8 
L 739.398915 640.8 
L 739.398915 274.371008 
L 734.462486 274.371008 
z
" clip-path="url(#p25972ef464)" style="fill: #008000"/>
   </g>
   <g id="patch_12">
    <path d="M 803.19757 640.8 
L 808.133999 640.8 
L 808.133999 262.070706 
L 803.19757 262.070706 
z
" clip-path="url(#p25972ef464)" style="fill: #008000"/>
   </g>
   <g id="patch_13">
    <path d="M 871.932654 640.8 
L 876.869082 640.8 
L 876.869082 255.551712 
L 871.932654 255.551712 
z
" clip-path="url(#p25972ef464)" style="fill: #008000"/>
   </g>
   <g id="patch_14">
    <path d="M 940.667737 640.8 
L 945.604166 640.8 
L 945.604166 256.406086 
L 940.667737 256.406086 
z
" clip-path="url(#p25972ef464)" style="fill: #008000"/>
   </g>
   <g id="patch_15">
    <path d="M 184.581818 640.8 
L 189.518247 640.8 
L 189.518247 307.08325 
L 184.581818 307.08325 
z
" clip-path="url(#p25972ef464)" style="fill: #bfbf00"/>
   </g>
   <g id="patch_16">
    <path d="M 253.316902 640.8 
L 258.25333 640.8 
L 258.25333 307.08325 
L 253.316902 307.08325 
z
" clip-path="url(#p25972ef464)" style="fill: #bfbf00"/>
   </g>
   <g id="patch_17">
    <path d="M 322.051985 640.8 
L 326.988414 640.8 
L 326.988414 307.08325 
L 322.051985 307.08325 
z
" clip-path="url(#p25972ef464)" style="fill: #bfbf00"/>
   </g>
   <g id="patch_18">
    <path d="M 390.787069 640.8 
L 395.723498 640.8 
L 395.723498 307.08325 
L 390.787069 307.08325 
z
" clip-path="url(#p25972ef464)" style="fill: #bfbf00"/>
   </g>
   <g id="patch_19">
    <path d="M 459.522152 640.8 
L 464.458581 640.8 
L 464.458581 307.08325 
L 459.522152 307.08325 
z
" clip-path="url(#p25972ef464)" style="fill: #bfbf00"/>
   </g>
   <g id="patch_20">
    <path d="M 528.257236 640.8 
L 533.193665 640.8 
L 533.193665 307.08325 
L 528.257236 307.08325 
z
" clip-path="url(#p25972ef464)" style="fill: #bfbf00"/>
   </g>
   <g id="patch_21">
    <path d="M 596.992319 640.8 
L 601.928748 640.8 
L 601.928748 307.08325 
L 596.992319 307.08325 
z
" clip-path="url(#p25972ef464)" style="fill: #bfbf00"/>
   </g>
   <g id="patch_22">
    <path d="M 665.727403 640.8 
L 670.663832 640.8 
L 670.663832 307.08325 
L 665.727403 307.08325 
z
" clip-path="url(#p25972ef464)" style="fill: #bfbf00"/>
   </g>
   <g id="patch_23">
    <path d="M 734.462486 640.8 
L 739.398915 640.8 
L 739.398915 307.08325 
L 734.462486 307.08325 
z
" clip-path="url(#p25972ef464)" style="fill: #bfbf00"/>
   </g>
   <g id="patch_24">
    <path d="M 803.19757 640.8 
L 808.133999 640.8 
L 808.133999 307.08325 
L 803.19757 307.08325 
z
" clip-path="url(#p25972ef464)" style="fill: #bfbf00"/>
   </g>
   <g id="patch_25">
    <path d="M 871.932654 640.8 
L 876.869082 640.8 
L 876.869082 307.08325 
L 871.932654 307.08325 
z
" clip-path="url(#p25972ef464)" style="fill: #bfbf00"/>
   </g>
   <g id="patch_26">
    <path d="M 940.667737 640.8 
L 945.604166 640.8 
L 945.604166 307.08325 
L 940.667737 307.08325 
z
" clip-path="url(#p25972ef464)" style="fill: #bfbf00"/>
   </g>
   <g id="patch_27">
    <path d="M 190.205598 640.8 
L 195.142026 640.8 
L 195.142026 274.443676 
L 190.205598 274.443676 
z
" clip-path="url(#p25972ef464)" style="fill: #008000"/>
   </g>
   <g id="patch_28">
    <path d="M 258.940681 640.8 
L 263.87711 640.8 
L 263.87711 233.07314 
L 258.940681 233.07314 
z
" clip-path="url(#p25972ef464)" style="fill: #008000"/>
   </g>
   <g id="patch_29">
    <path d="M 327.675765 640.8 
L 332.612194 640.8 
L 332.612194 197.028318 
L 327.675765 197.028318 
z
" clip-path="url(#p25972ef464)" style="fill: #008000"/>
   </g>
   <g id="patch_30">
    <path d="M 396.410848 640.8 
L 401.347277 640.8 
L 401.347277 171.406964 
L 396.410848 171.406964 
z
" clip-path="url(#p25972ef464)" style="fill: #008000"/>
   </g>
   <g id="patch_31">
    <path d="M 465.145932 640.8 
L 470.082361 640.8 
L 470.082361 163.623819 
L 465.145932 163.623819 
z
" clip-path="url(#p25972ef464)" style="fill: #008000"/>
   </g>
   <g id="patch_32">
    <path d="M 533.881015 640.8 
L 538.817444 640.8 
L 538.817444 179.572664 
L 533.881015 179.572664 
z
" clip-path="url(#p25972ef464)" style="fill: #008000"/>
   </g>
   <g id="patch_33">
    <path d="M 602.616099 640.8 
L 607.552528 640.8 
L 607.552528 216.208086 
L 602.616099 216.208086 
z
" clip-path="url(#p25972ef464)" style="fill: #008000"/>
   </g>
   <g id="patch_34">
    <path d="M 671.351182 640.8 
L 676.287611 640.8 
L 676.287611 255.318932 
L 671.351182 255.318932 
z
" clip-path="url(#p25972ef464)" style="fill: #008000"/>
   </g>
   <g id="patch_35">
    <path d="M 740.086266 640.8 
L 745.022695 640.8 
L 745.022695 274.29834 
L 740.086266 274.29834 
z
" clip-path="url(#p25972ef464)" style="fill: #008000"/>
   </g>
   <g id="patch_36">
    <path d="M 808.82135 640.8 
L 813.757778 640.8 
L 813.757778 256.570987 
L 808.82135 256.570987 
z
" clip-path="url(#p25972ef464)" style="fill: #008000"/>
   </g>
   <g id="patch_37">
    <path d="M 877.556433 640.8 
L 882.492862 640.8 
L 882.492862 242.513845 
L 877.556433 242.513845 
z
" clip-path="url(#p25972ef464)" style="fill: #008000"/>
   </g>
   <g id="patch_38">
    <path d="M 946.291517 640.8 
L 951.227945 640.8 
L 951.227945 234.98364 
L 946.291517 234.98364 
z
" clip-path="url(#p25972ef464)" style="fill: #008000"/>
   </g>
   <g id="patch_39">
    <path d="M 190.205598 640.8 
L 195.142026 640.8 
L 195.142026 290.271235 
L 190.205598 290.271235 
z
" clip-path="url(#p25972ef464)" style="fill: #bfbf00"/>
   </g>
   <g id="patch_40">
    <path d="M 258.940681 640.8 
L 263.87711 640.8 
L 263.87711 290.271235 
L 258.940681 290.271235 
z
" clip-path="url(#p25972ef464)" style="fill: #bfbf00"/>
   </g>
   <g id="patch_41">
    <path d="M 327.675765 640.8 
L 332.612194 640.8 
L 332.612194 290.271235 
L 327.675765 290.271235 
z
" clip-path="url(#p25972ef464)" style="fill: #bfbf00"/>
   </g>
   <g id="patch_42">
    <path d="M 396.410848 640.8 
L 401.347277 640.8 
L 401.347277 290.271235 
L 396.410848 290.271235 
z
" clip-path="url(#p25972ef464)" style="fill: #bfbf00"/>
   </g>
   <g id="patch_43">
    <path d="M 465.145932 640.8 
L 470.082361 640.8 
L 470.082361 290.271235 
L 465.145932 290.271235 
z
" clip-path="url(#p25972ef464)" style="fill: #bfbf00"/>
   </g>
   <g id="patch_44">
    <path d="M 533.881015 640.8 
L 538.817444 640.8 
L 538.817444 290.271235 
L 533.881015 290.271235 
z
" clip-path="url(#p25972ef464)" style="fill: #bfbf00"/>
   </g>
   <g id="patch_45">
    <path d="M 602.616099 640.8 
L 607.552528 640.8 
L 607.552528 290.271235 
L 602.616099 290.271235 
z
" clip-path="url(#p25972ef464)" style="fill: #bfbf00"/>
   </g>
   <g id="patch_46">
    <path d="M 671.351182 640.8 
L 676.287611 640.8 
L 676.287611 290.271235 
L 671.351182 290.271235 
z
" clip-path="url(#p25972ef464)" style="fill: #bfbf00"/>
   </g>
   <g id="patch_47">
    <path d="M 740.086266 640.8 
L 745.022695 640.8 
L 745.022695 290.271235 
L 740.086266 290.271235 
z
" clip-path="url(#p25972ef464)" style="fill: #bfbf00"/>
   </g>
   <g id="patch_48">
    <path d="M 808.82135 640.8 
L 813.757778 640.8 
L 813.757778 290.271235 
L 808.82135 290.271235 
z
" clip-path="url(#p25972ef464)" style="fill: #bfbf00"/>
   </g>
   <g id="patch_49">
    <path d="M 877.556433 640.8 
L 882.492862 640.8 
L 882.492862 290.271235 
L 877.556433 290.271235 
z
" clip-path="url(#p25972ef464)" style="fill: #bfbf00"/>
   </g>
   <g id="patch_50">
    <path d="M 946.291517 640.8 
L 951.227945 640.8 
L 951.227945 290.271235 
L 946.291517 290.271235 
z
" clip-path="url(#p25972ef464)" style="fill: #bfbf00"/>
   </g>
   <g id="patch_51">
    <path d="M 195.829377 640.8 
L 200.765806 640.8 
L 200.765806 274.443676 
L 195.829377 274.443676 
z
" clip-path="url(#p25972ef464)" style="fill: #008000"/>
   </g>
   <g id="patch_52">
    <path d="M 264.564461 640.8 
L 269.50089 640.8 
L 269.50089 238.567772 
L 264.564461 238.567772 
z
" clip-path="url(#p25972ef464)" style="fill: #008000"/>
   </g>
   <g id="patch_53">
    <path d="M 333.299544 640.8 
L 338.235973 640.8 
L 338.235973 213.560252 
L 333.299544 213.560252 
z
" clip-path="url(#p25972ef464)" style="fill: #008000"/>
   </g>
   <g id="patch_54">
    <path d="M 402.034628 640.8 
L 406.971057 640.8 
L 406.971057 206.268837 
L 402.034628 206.268837 
z
" clip-path="url(#p25972ef464)" style="fill: #008000"/>
   </g>
   <g id="patch_55">
    <path d="M 470.769711 640.8 
L 475.70614 640.8 
L 475.70614 221.422004 
L 470.769711 221.422004 
z
" clip-path="url(#p25972ef464)" style="fill: #008000"/>
   </g>
   <g id="patch_56">
    <path d="M 539.504795 640.8 
L 544.441224 640.8 
L 544.441224 253.680237 
L 539.504795 253.680237 
z
" clip-path="url(#p25972ef464)" style="fill: #008000"/>
   </g>
   <g id="patch_57">
    <path d="M 608.239878 640.8 
L 613.176307 640.8 
L 613.176307 283.218667 
L 608.239878 283.218667 
z
" clip-path="url(#p25972ef464)" style="fill: #008000"/>
   </g>
   <g id="patch_58">
    <path d="M 676.974962 640.8 
L 681.911391 640.8 
L 681.911391 290.075008 
L 676.974962 290.075008 
z
" clip-path="url(#p25972ef464)" style="fill: #008000"/>
   </g>
   <g id="patch_59">
    <path d="M 745.710046 640.8 
L 750.646474 640.8 
L 750.646474 279.765218 
L 745.710046 279.765218 
z
" clip-path="url(#p25972ef464)" style="fill: #008000"/>
   </g>
   <g id="patch_60">
    <path d="M 814.445129 640.8 
L 819.381558 640.8 
L 819.381558 274.651373 
L 814.445129 274.651373 
z
" clip-path="url(#p25972ef464)" style="fill: #008000"/>
   </g>
   <g id="patch_61">
    <path d="M 883.180213 640.8 
L 888.116641 640.8 
L 888.116641 276.698475 
L 883.180213 276.698475 
z
" clip-path="url(#p25972ef464)" style="fill: #008000"/>
   </g>
   <g id="patch_62">
    <path d="M 951.915296 640.8 
L 956.851725 640.8 
L 956.851725 284.545729 
L 951.915296 284.545729 
z
" clip-path="url(#p25972ef464)" style="fill: #008000"/>
   </g>
   <g id="patch_63">
    <path d="M 195.829377 640.8 
L 200.765806 640.8 
L 200.765806 331.379001 
L 195.829377 331.379001 
z
" clip-path="url(#p25972ef464)" style="fill: #bfbf00"/>
   </g>
   <g id="patch_64">
    <path d="M 264.564461 640.8 
L 269.50089 640.8 
L 269.50089 331.379001 
L 264.564461 331.379001 
z
" clip-path="url(#p25972ef464)" style="fill: #bfbf00"/>
   </g>
   <g id="patch_65">
    <path d="M 333.299544 640.8 
L 338.235973 640.8 
L 338.235973 331.379001 
L 333.299544 331.379001 
z
" clip-path="url(#p25972ef464)" style="fill: #bfbf00"/>
   </g>
   <g id="patch_66">
    <path d="M 402.034628 640.8 
L 406.971057 640.8 
L 406.971057 331.379001 
L 402.034628 331.379001 
z
" clip-path="url(#p25972ef464)" style="fill: #bfbf00"/>
   </g>
   <g id="patch_67">
    <path d="M 470.769711 640.8 
L 475.70614 640.8 
L 475.70614 331.379001 
L 470.769711 331.379001 
z
" clip-path="url(#p25972ef464)" style="fill: #bfbf00"/>
   </g>
   <g id="patch_68">
    <path d="M 539.504795 640.8 
L 544.441224 640.8 
L 544.441224 331.379001 
L 539.504795 331.379001 
z
" clip-path="url(#p25972ef464)" style="fill: #bfbf00"/>
   </g>
   <g id="patch_69">
    <path d="M 608.239878 640.8 
L 613.176307 640.8 
L 613.176307 331.379001 
L 608.239878 331.379001 
z
" clip-path="url(#p25972ef464)" style="fill: #bfbf00"/>
   </g>
   <g id="patch_70">
    <path d="M 676.974962 640.8 
L 681.911391 640.8 
L 681.911391 331.379001 
L 676.974962 331.379001 
z
" clip-path="url(#p25972ef464)" style="fill: #bfbf00"/>
   </g>
   <g id="patch_71">
    <path d="M 745.710046 640.8 
L 750.646474 640.8 
L 750.646474 331.379001 
L 745.710046 331.379001 
z
" clip-path="url(#p25972ef464)" style="fill: #bfbf00"/>
   </g>
   <g id="patch_72">
    <path d="M 814.445129 640.8 
L 819.381558 640.8 
L 819.381558 331.379001 
L 814.445129 331.379001 
z
" clip-path="url(#p25972ef464)" style="fill: #bfbf00"/>
   </g>
   <g id="patch_73">
    <path d="M 883.180213 640.8 
L 888.116641 640.8 
L 888.116641 331.379001 
L 883.180213 331.379001 
z
" clip-path="url(#p25972ef464)" style="fill: #bfbf00"/>
   </g>
   <g id="patch_74">
    <path d="M 951.915296 640.8 
L 956.851725 640.8 
L 956.851725 331.379001 
L 951.915296 331.379001 
z
" clip-path="url(#p25972ef464)" style="fill: #bfbf00"/>
   </g>
   <g id="patch_75">
    <path d="M 201.453157 640.8 
L 206.389586 640.8 
L 206.389586 504.471813 
L 201.453157 504.471813 
z
" clip-path="url(#p25972ef464)" style="fill: #008000"/>
   </g>
   <g id="patch_76">
    <path d="M 270.18824 640.8 
L 275.124669 640.8 
L 275.124669 512.594572 
L 270.18824 512.594572 
z
" clip-path="url(#p25972ef464)" style="fill: #008000"/>
   </g>
   <g id="patch_77">
    <path d="M 338.923324 640.8 
L 343.859753 640.8 
L 343.859753 517.649307 
L 338.923324 517.649307 
z
" clip-path="url(#p25972ef464)" style="fill: #008000"/>
   </g>
   <g id="patch_78">
    <path d="M 407.658407 640.8 
L 412.594836 640.8 
L 412.594836 521.543231 
L 407.658407 521.543231 
z
" clip-path="url(#p25972ef464)" style="fill: #008000"/>
   </g>
   <g id="patch_79">
    <path d="M 476.393491 640.8 
L 481.32992 640.8 
L 481.32992 524.550385 
L 476.393491 524.550385 
z
" clip-path="url(#p25972ef464)" style="fill: #008000"/>
   </g>
   <g id="patch_80">
    <path d="M 545.128575 640.8 
L 550.065003 640.8 
L 550.065003 526.852814 
L 545.128575 526.852814 
z
" clip-path="url(#p25972ef464)" style="fill: #008000"/>
   </g>
   <g id="patch_81">
    <path d="M 613.863658 640.8 
L 618.800087 640.8 
L 618.800087 528.763927 
L 613.863658 528.763927 
z
" clip-path="url(#p25972ef464)" style="fill: #008000"/>
   </g>
   <g id="patch_82">
    <path d="M 682.598742 640.8 
L 687.53517 640.8 
L 687.53517 530.464632 
L 682.598742 530.464632 
z
" clip-path="url(#p25972ef464)" style="fill: #008000"/>
   </g>
   <g id="patch_83">
    <path d="M 751.333825 640.8 
L 756.270254 640.8 
L 756.270254 531.854436 
L 751.333825 531.854436 
z
" clip-path="url(#p25972ef464)" style="fill: #008000"/>
   </g>
   <g id="patch_84">
    <path d="M 820.068909 640.8 
L 825.005337 640.8 
L 825.005337 532.947623 
L 820.068909 532.947623 
z
" clip-path="url(#p25972ef464)" style="fill: #008000"/>
   </g>
   <g id="patch_85">
    <path d="M 888.803992 640.8 
L 893.740421 640.8 
L 893.740421 534.082267 
L 888.803992 534.082267 
z
" clip-path="url(#p25972ef464)" style="fill: #008000"/>
   </g>
   <g id="patch_86">
    <path d="M 957.539076 640.8 
L 962.475504 640.8 
L 962.475504 534.974431 
L 957.539076 534.974431 
z
" clip-path="url(#p25972ef464)" style="fill: #008000"/>
   </g>
   <g id="patch_87">
    <path d="M 201.453157 640.8 
L 206.389586 640.8 
L 206.389586 549.127816 
L 201.453157 549.127816 
z
" clip-path="url(#p25972ef464)" style="fill: #bfbf00"/>
   </g>
   <g id="patch_88">
    <path d="M 270.18824 640.8 
L 275.124669 640.8 
L 275.124669 549.127816 
L 270.18824 549.127816 
z
" clip-path="url(#p25972ef464)" style="fill: #bfbf00"/>
   </g>
   <g id="patch_89">
    <path d="M 338.923324 640.8 
L 343.859753 640.8 
L 343.859753 549.127816 
L 338.923324 549.127816 
z
" clip-path="url(#p25972ef464)" style="fill: #bfbf00"/>
   </g>
   <g id="patch_90">
    <path d="M 407.658407 640.8 
L 412.594836 640.8 
L 412.594836 549.127816 
L 407.658407 549.127816 
z
" clip-path="url(#p25972ef464)" style="fill: #bfbf00"/>
   </g>
   <g id="patch_91">
    <path d="M 476.393491 640.8 
L 481.32992 640.8 
L 481.32992 549.127816 
L 476.393491 549.127816 
z
" clip-path="url(#p25972ef464)" style="fill: #bfbf00"/>
   </g>
   <g id="patch_92">
    <path d="M 545.128575 640.8 
L 550.065003 640.8 
L 550.065003 549.127816 
L 545.128575 549.127816 
z
" clip-path="url(#p25972ef464)" style="fill: #bfbf00"/>
   </g>
   <g id="patch_93">
    <path d="M 613.863658 640.8 
L 618.800087 640.8 
L 618.800087 549.127816 
L 613.863658 549.127816 
z
" clip-path="url(#p25972ef464)" style="fill: #bfbf00"/>
   </g>
   <g id="patch_94">
    <path d="M 682.598742 640.8 
L 687.53517 640.8 
L 687.53517 549.127816 
L 682.598742 549.127816 
z
" clip-path="url(#p25972ef464)" style="fill: #bfbf00"/>
   </g>
   <g id="patch_95">
    <path d="M 751.333825 640.8 
L 756.270254 640.8 
L 756.270254 549.127816 
L 751.333825 549.127816 
z
" clip-path="url(#p25972ef464)" style="fill: #bfbf00"/>
   </g>
   <g id="patch_96">
    <path d="M 820.068909 640.8 
L 825.005337 640.8 
L 825.005337 549.127816 
L 820.068909 549.127816 
z
" clip-path="url(#p25972ef464)" style="fill: #bfbf00"/>
   </g>
   <g id="patch_97">
    <path d="M 888.803992 640.8 
L 893.740421 640.8 
L 893.740421 549.127816 
L 888.803992 549.127816 
z
" clip-path="url(#p25972ef464)" style="fill: #bfbf00"/>
   </g>
   <g id="patch_98">
    <path d="M 957.539076 640.8 
L 962.475504 640.8 
L 962.475504 549.127816 
L 957.539076 549.127816 
z
" clip-path="url(#p25972ef464)" style="fill: #bfbf00"/>
   </g>
   <g id="patch_99">
    <path d="M 207.076936 640.8 
L 212.013365 640.8 
L 212.013365 274.443676 
L 207.076936 274.443676 
z
" clip-path="url(#p25972ef464)" style="fill: #008000"/>
   </g>
   <g id="patch_100">
    <path d="M 275.81202 640.8 
L 280.748449 640.8 
L 280.748449 234.046295 
L 275.81202 234.046295 
z
" clip-path="url(#p25972ef464)" style="fill: #008000"/>
   </g>
   <g id="patch_101">
    <path d="M 344.547103 640.8 
L 349.483532 640.8 
L 349.483532 200.389205 
L 344.547103 200.389205 
z
" clip-path="url(#p25972ef464)" style="fill: #008000"/>
   </g>
   <g id="patch_102">
    <path d="M 413.282187 640.8 
L 418.218616 640.8 
L 418.218616 179.590656 
L 413.282187 179.590656 
z
" clip-path="url(#p25972ef464)" style="fill: #008000"/>
   </g>
   <g id="patch_103">
    <path d="M 482.017271 640.8 
L 486.953699 640.8 
L 486.953699 181.277912 
L 482.017271 181.277912 
z
" clip-path="url(#p25972ef464)" style="fill: #008000"/>
   </g>
   <g id="patch_104">
    <path d="M 550.752354 640.8 
L 555.688783 640.8 
L 555.688783 217.310638 
L 550.752354 217.310638 
z
" clip-path="url(#p25972ef464)" style="fill: #008000"/>
   </g>
   <g id="patch_105">
    <path d="M 619.487438 640.8 
L 624.423866 640.8 
L 624.423866 269.693347 
L 619.487438 269.693347 
z
" clip-path="url(#p25972ef464)" style="fill: #008000"/>
   </g>
   <g id="patch_106">
    <path d="M 688.222521 640.8 
L 693.15895 640.8 
L 693.15895 292.941555 
L 688.222521 292.941555 
z
" clip-path="url(#p25972ef464)" style="fill: #008000"/>
   </g>
   <g id="patch_107">
    <path d="M 756.957605 640.8 
L 761.894033 640.8 
L 761.894033 276.917187 
L 756.957605 276.917187 
z
" clip-path="url(#p25972ef464)" style="fill: #008000"/>
   </g>
   <g id="patch_108">
    <path d="M 825.692688 640.8 
L 830.629117 640.8 
L 830.629117 262.602266 
L 825.692688 262.602266 
z
" clip-path="url(#p25972ef464)" style="fill: #008000"/>
   </g>
   <g id="patch_109">
    <path d="M 894.427772 640.8 
L 899.3642 640.8 
L 899.3642 256.460413 
L 894.427772 256.460413 
z
" clip-path="url(#p25972ef464)" style="fill: #008000"/>
   </g>
   <g id="patch_110">
    <path d="M 963.162855 640.8 
L 968.099284 640.8 
L 968.099284 261.45425 
L 963.162855 261.45425 
z
" clip-path="url(#p25972ef464)" style="fill: #008000"/>
   </g>
   <g id="patch_111">
    <path d="M 207.076936 640.8 
L 212.013365 640.8 
L 212.013365 322.316734 
L 207.076936 322.316734 
z
" clip-path="url(#p25972ef464)" style="fill: #bfbf00"/>
   </g>
   <g id="patch_112">
    <path d="M 275.81202 640.8 
L 280.748449 640.8 
L 280.748449 322.316734 
L 275.81202 322.316734 
z
" clip-path="url(#p25972ef464)" style="fill: #bfbf00"/>
   </g>
   <g id="patch_113">
    <path d="M 344.547103 640.8 
L 349.483532 640.8 
L 349.483532 322.316734 
L 344.547103 322.316734 
z
" clip-path="url(#p25972ef464)" style="fill: #bfbf00"/>
   </g>
   <g id="patch_114">
    <path d="M 413.282187 640.8 
L 418.218616 640.8 
L 418.218616 322.316734 
L 413.282187 322.316734 
z
" clip-path="url(#p25972ef464)" style="fill: #bfbf00"/>
   </g>
   <g id="patch_115">
    <path d="M 482.017271 640.8 
L 486.953699 640.8 
L 486.953699 322.316734 
L 482.017271 322.316734 
z
" clip-path="url(#p25972ef464)" style="fill: #bfbf00"/>
   </g>
   <g id="patch_116">
    <path d="M 550.752354 640.8 
L 555.688783 640.8 
L 555.688783 322.316734 
L 550.752354 322.316734 
z
" clip-path="url(#p25972ef464)" style="fill: #bfbf00"/>
   </g>
   <g id="patch_117">
    <path d="M 619.487438 640.8 
L 624.423866 640.8 
L 624.423866 322.316734 
L 619.487438 322.316734 
z
" clip-path="url(#p25972ef464)" style="fill: #bfbf00"/>
   </g>
   <g id="patch_118">
    <path d="M 688.222521 640.8 
L 693.15895 640.8 
L 693.15895 322.316734 
L 688.222521 322.316734 
z
" clip-path="url(#p25972ef464)" style="fill: #bfbf00"/>
   </g>
   <g id="patch_119">
    <path d="M 756.957605 640.8 
L 761.894033 640.8 
L 761.894033 322.316734 
L 756.957605 322.316734 
z
" clip-path="url(#p25972ef464)" style="fill: #bfbf00"/>
   </g>
   <g id="patch_120">
    <path d="M 825.692688 640.8 
L 830.629117 640.8 
L 830.629117 322.316734 
L 825.692688 322.316734 
z
" clip-path="url(#p25972ef464)" style="fill: #bfbf00"/>
   </g>
   <g id="patch_121">
    <path d="M 894.427772 640.8 
L 899.3642 640.8 
L 899.3642 322.316734 
L 894.427772 322.316734 
z
" clip-path="url(#p25972ef464)" style="fill: #bfbf00"/>
   </g>
   <g id="patch_122">
    <path d="M 963.162855 640.8 
L 968.099284 640.8 
L 968.099284 322.316734 
L 963.162855 322.316734 
z
" clip-path="url(#p25972ef464)" style="fill: #bfbf00"/>
   </g>
   <g id="patch_123">
    <path d="M 212.700716 640.8 
L 217.637145 640.8 
L 217.637145 307.802535 
L 212.700716 307.802535 
z
" clip-path="url(#p25972ef464)" style="fill: #008000"/>
   </g>
   <g id="patch_124">
    <path d="M 281.4358 640.8 
L 286.372228 640.8 
L 286.372228 316.846572 
L 281.4358 316.846572 
z
" clip-path="url(#p25972ef464)" style="fill: #008000"/>
   </g>
   <g id="patch_125">
    <path d="M 350.170883 640.8 
L 355.107312 640.8 
L 355.107312 348.913476 
L 350.170883 348.913476 
z
" clip-path="url(#p25972ef464)" style="fill: #008000"/>
   </g>
   <g id="patch_126">
    <path d="M 418.905967 640.8 
L 423.842395 640.8 
L 423.842395 368.014361 
L 418.905967 368.014361 
z
" clip-path="url(#p25972ef464)" style="fill: #008000"/>
   </g>
   <g id="patch_127">
    <path d="M 487.64105 640.8 
L 492.577479 640.8 
L 492.577479 370.051164 
L 487.64105 370.051164 
z
" clip-path="url(#p25972ef464)" style="fill: #008000"/>
   </g>
   <g id="patch_128">
    <path d="M 556.376134 640.8 
L 561.312562 640.8 
L 561.312562 374.303297 
L 556.376134 374.303297 
z
" clip-path="url(#p25972ef464)" style="fill: #008000"/>
   </g>
   <g id="patch_129">
    <path d="M 625.111217 640.8 
L 630.047646 640.8 
L 630.047646 380.850009 
L 625.111217 380.850009 
z
" clip-path="url(#p25972ef464)" style="fill: #008000"/>
   </g>
   <g id="patch_130">
    <path d="M 693.846301 640.8 
L 698.782729 640.8 
L 698.782729 385.784685 
L 693.846301 385.784685 
z
" clip-path="url(#p25972ef464)" style="fill: #008000"/>
   </g>
   <g id="patch_131">
    <path d="M 762.581384 640.8 
L 767.517813 640.8 
L 767.517813 387.543219 
L 762.581384 387.543219 
z
" clip-path="url(#p25972ef464)" style="fill: #008000"/>
   </g>
   <g id="patch_132">
    <path d="M 831.316468 640.8 
L 836.252897 640.8 
L 836.252897 389.829295 
L 831.316468 389.829295 
z
" clip-path="url(#p25972ef464)" style="fill: #008000"/>
   </g>
   <g id="patch_133">
    <path d="M 900.051551 640.8 
L 904.98798 640.8 
L 904.98798 392.39137 
L 900.051551 392.39137 
z
" clip-path="url(#p25972ef464)" style="fill: #008000"/>
   </g>
   <g id="patch_134">
    <path d="M 968.786635 640.8 
L 973.723064 640.8 
L 973.723064 394.926894 
L 968.786635 394.926894 
z
" clip-path="url(#p25972ef464)" style="fill: #008000"/>
   </g>
   <g id="patch_135">
    <path d="M 212.700716 640.8 
L 217.637145 640.8 
L 217.637145 425.842471 
L 212.700716 425.842471 
z
" clip-path="url(#p25972ef464)" style="fill: #bfbf00"/>
   </g>
   <g id="patch_136">
    <path d="M 281.4358 640.8 
L 286.372228 640.8 
L 286.372228 425.842471 
L 281.4358 425.842471 
z
" clip-path="url(#p25972ef464)" style="fill: #bfbf00"/>
   </g>
   <g id="patch_137">
    <path d="M 350.170883 640.8 
L 355.107312 640.8 
L 355.107312 425.842471 
L 350.170883 425.842471 
z
" clip-path="url(#p25972ef464)" style="fill: #bfbf00"/>
   </g>
   <g id="patch_138">
    <path d="M 418.905967 640.8 
L 423.842395 640.8 
L 423.842395 425.842471 
L 418.905967 425.842471 
z
" clip-path="url(#p25972ef464)" style="fill: #bfbf00"/>
   </g>
   <g id="patch_139">
    <path d="M 487.64105 640.8 
L 492.577479 640.8 
L 492.577479 425.842471 
L 487.64105 425.842471 
z
" clip-path="url(#p25972ef464)" style="fill: #bfbf00"/>
   </g>
   <g id="patch_140">
    <path d="M 556.376134 640.8 
L 561.312562 640.8 
L 561.312562 425.842471 
L 556.376134 425.842471 
z
" clip-path="url(#p25972ef464)" style="fill: #bfbf00"/>
   </g>
   <g id="patch_141">
    <path d="M 625.111217 640.8 
L 630.047646 640.8 
L 630.047646 425.842471 
L 625.111217 425.842471 
z
" clip-path="url(#p25972ef464)" style="fill: #bfbf00"/>
   </g>
   <g id="patch_142">
    <path d="M 693.846301 640.8 
L 698.782729 640.8 
L 698.782729 425.842471 
L 693.846301 425.842471 
z
" clip-path="url(#p25972ef464)" style="fill: #bfbf00"/>
   </g>
   <g id="patch_143">
    <path d="M 762.581384 640.8 
L 767.517813 640.8 
L 767.517813 425.842471 
L 762.581384 425.842471 
z
" clip-path="url(#p25972ef464)" style="fill: #bfbf00"/>
   </g>
   <g id="patch_144">
    <path d="M 831.316468 640.8 
L 836.252897 640.8 
L 836.252897 425.842471 
L 831.316468 425.842471 
z
" clip-path="url(#p25972ef464)" style="fill: #bfbf00"/>
   </g>
   <g id="patch_145">
    <path d="M 900.051551 640.8 
L 904.98798 640.8 
L 904.98798 425.842471 
L 900.051551 425.842471 
z
" clip-path="url(#p25972ef464)" style="fill: #bfbf00"/>
   </g>
   <g id="patch_146">
    <path d="M 968.786635 640.8 
L 973.723064 640.8 
L 973.723064 425.842471 
L 968.786635 425.842471 
z
" clip-path="url(#p25972ef464)" style="fill: #bfbf00"/>
   </g>
   <g id="patch_147">
    <path d="M 218.324496 640.8 
L 223.260924 640.8 
L 223.260924 274.443676 
L 218.324496 274.443676 
z
" clip-path="url(#p25972ef464)" style="fill: #008000"/>
   </g>
   <g id="patch_148">
    <path d="M 287.059579 640.8 
L 291.996008 640.8 
L 291.996008 247.879562 
L 287.059579 247.879562 
z
" clip-path="url(#p25972ef464)" style="fill: #008000"/>
   </g>
   <g id="patch_149">
    <path d="M 355.794663 640.8 
L 360.731091 640.8 
L 360.731091 239.126755 
L 355.794663 239.126755 
z
" clip-path="url(#p25972ef464)" style="fill: #008000"/>
   </g>
   <g id="patch_150">
    <path d="M 424.529746 640.8 
L 429.466175 640.8 
L 429.466175 261.466477 
L 424.529746 261.466477 
z
" clip-path="url(#p25972ef464)" style="fill: #008000"/>
   </g>
   <g id="patch_151">
    <path d="M 493.26483 640.8 
L 498.201258 640.8 
L 498.201258 295.3797 
L 493.26483 295.3797 
z
" clip-path="url(#p25972ef464)" style="fill: #008000"/>
   </g>
   <g id="patch_152">
    <path d="M 561.999913 640.8 
L 566.936342 640.8 
L 566.936342 319.082339 
L 561.999913 319.082339 
z
" clip-path="url(#p25972ef464)" style="fill: #008000"/>
   </g>
   <g id="patch_153">
    <path d="M 630.734997 640.8 
L 635.671425 640.8 
L 635.671425 318.426055 
L 630.734997 318.426055 
z
" clip-path="url(#p25972ef464)" style="fill: #008000"/>
   </g>
   <g id="patch_154">
    <path d="M 699.47008 640.8 
L 704.406509 640.8 
L 704.406509 315.648596 
L 699.47008 315.648596 
z
" clip-path="url(#p25972ef464)" style="fill: #008000"/>
   </g>
   <g id="patch_155">
    <path d="M 768.205164 640.8 
L 773.141593 640.8 
L 773.141593 319.265931 
L 768.205164 319.265931 
z
" clip-path="url(#p25972ef464)" style="fill: #008000"/>
   </g>
   <g id="patch_156">
    <path d="M 836.940247 640.8 
L 841.876676 640.8 
L 841.876676 326.744658 
L 836.940247 326.744658 
z
" clip-path="url(#p25972ef464)" style="fill: #008000"/>
   </g>
   <g id="patch_157">
    <path d="M 905.675331 640.8 
L 910.61176 640.8 
L 910.61176 334.057265 
L 905.675331 334.057265 
z
" clip-path="url(#p25972ef464)" style="fill: #008000"/>
   </g>
   <g id="patch_158">
    <path d="M 974.410414 640.8 
L 979.346843 640.8 
L 979.346843 336.873515 
L 974.410414 336.873515 
z
" clip-path="url(#p25972ef464)" style="fill: #008000"/>
   </g>
   <g id="patch_159">
    <path d="M 218.324496 640.8 
L 223.260924 640.8 
L 223.260924 376.670259 
L 218.324496 376.670259 
z
" clip-path="url(#p25972ef464)" style="fill: #bfbf00"/>
   </g>
   <g id="patch_160">
    <path d="M 287.059579 640.8 
L 291.996008 640.8 
L 291.996008 376.670259 
L 287.059579 376.670259 
z
" clip-path="url(#p25972ef464)" style="fill: #bfbf00"/>
   </g>
   <g id="patch_161">
    <path d="M 355.794663 640.8 
L 360.731091 640.8 
L 360.731091 376.670259 
L 355.794663 376.670259 
z
" clip-path="url(#p25972ef464)" style="fill: #bfbf00"/>
   </g>
   <g id="patch_162">
    <path d="M 424.529746 640.8 
L 429.466175 640.8 
L 429.466175 376.670259 
L 424.529746 376.670259 
z
" clip-path="url(#p25972ef464)" style="fill: #bfbf00"/>
   </g>
   <g id="patch_163">
    <path d="M 493.26483 640.8 
L 498.201258 640.8 
L 498.201258 376.670259 
L 493.26483 376.670259 
z
" clip-path="url(#p25972ef464)" style="fill: #bfbf00"/>
   </g>
   <g id="patch_164">
    <path d="M 561.999913 640.8 
L 566.936342 640.8 
L 566.936342 376.670259 
L 561.999913 376.670259 
z
" clip-path="url(#p25972ef464)" style="fill: #bfbf00"/>
   </g>
   <g id="patch_165">
    <path d="M 630.734997 640.8 
L 635.671425 640.8 
L 635.671425 376.670259 
L 630.734997 376.670259 
z
" clip-path="url(#p25972ef464)" style="fill: #bfbf00"/>
   </g>
   <g id="patch_166">
    <path d="M 699.47008 640.8 
L 704.406509 640.8 
L 704.406509 376.670259 
L 699.47008 376.670259 
z
" clip-path="url(#p25972ef464)" style="fill: #bfbf00"/>
   </g>
   <g id="patch_167">
    <path d="M 768.205164 640.8 
L 773.141593 640.8 
L 773.141593 376.670259 
L 768.205164 376.670259 
z
" clip-path="url(#p25972ef464)" style="fill: #bfbf00"/>
   </g>
   <g id="patch_168">
    <path d="M 836.940247 640.8 
L 841.876676 640.8 
L 841.876676 376.670259 
L 836.940247 376.670259 
z
" clip-path="url(#p25972ef464)" style="fill: #bfbf00"/>
   </g>
   <g id="patch_169">
    <path d="M 905.675331 640.8 
L 910.61176 640.8 
L 910.61176 376.670259 
L 905.675331 376.670259 
z
" clip-path="url(#p25972ef464)" style="fill: #bfbf00"/>
   </g>
   <g id="patch_170">
    <path d="M 974.410414 640.8 
L 979.346843 640.8 
L 979.346843 376.670259 
L 974.410414 376.670259 
z
" clip-path="url(#p25972ef464)" style="fill: #bfbf00"/>
   </g>
   <g id="patch_171">
    <path d="M 223.948275 640.8 
L 228.884704 640.8 
L 228.884704 274.443676 
L 223.948275 274.443676 
z
" clip-path="url(#p25972ef464)" style="fill: #008000"/>
   </g>
   <g id="patch_172">
    <path d="M 292.683359 640.8 
L 297.619787 640.8 
L 297.619787 230.383207 
L 292.683359 230.383207 
z
" clip-path="url(#p25972ef464)" style="fill: #008000"/>
   </g>
   <g id="patch_173">
    <path d="M 361.418442 640.8 
L 366.354871 640.8 
L 366.354871 188.568453 
L 361.418442 188.568453 
z
" clip-path="url(#p25972ef464)" style="fill: #008000"/>
   </g>
   <g id="patch_174">
    <path d="M 430.153526 640.8 
L 435.089954 640.8 
L 435.089954 151.442523 
L 430.153526 151.442523 
z
" clip-path="url(#p25972ef464)" style="fill: #008000"/>
   </g>
   <g id="patch_175">
    <path d="M 498.888609 640.8 
L 503.825038 640.8 
L 503.825038 123.540517 
L 498.888609 123.540517 
z
" clip-path="url(#p25972ef464)" style="fill: #008000"/>
   </g>
   <g id="patch_176">
    <path d="M 567.623693 640.8 
L 572.560122 640.8 
L 572.560122 112.8 
L 567.623693 112.8 
z
" clip-path="url(#p25972ef464)" style="fill: #008000"/>
   </g>
   <g id="patch_177">
    <path d="M 636.358776 640.8 
L 641.295205 640.8 
L 641.295205 130.153989 
L 636.358776 130.153989 
z
" clip-path="url(#p25972ef464)" style="fill: #008000"/>
   </g>
   <g id="patch_178">
    <path d="M 705.09386 640.8 
L 710.030289 640.8 
L 710.030289 185.246878 
L 705.09386 185.246878 
z
" clip-path="url(#p25972ef464)" style="fill: #008000"/>
   </g>
   <g id="patch_179">
    <path d="M 773.828943 640.8 
L 778.765372 640.8 
L 778.765372 273.799448 
L 773.828943 273.799448 
z
" clip-path="url(#p25972ef464)" style="fill: #008000"/>
   </g>
   <g id="patch_180">
    <path d="M 842.564027 640.8 
L 847.500456 640.8 
L 847.500456 252.363049 
L 842.564027 252.363049 
z
" clip-path="url(#p25972ef464)" style="fill: #008000"/>
   </g>
   <g id="patch_181">
    <path d="M 911.29911 640.8 
L 916.235539 640.8 
L 916.235539 231.247884 
L 911.29911 231.247884 
z
" clip-path="url(#p25972ef464)" style="fill: #008000"/>
   </g>
   <g id="patch_182">
    <path d="M 980.034194 640.8 
L 984.970623 640.8 
L 984.970623 212.326758 
L 980.034194 212.326758 
z
" clip-path="url(#p25972ef464)" style="fill: #008000"/>
   </g>
   <g id="patch_183">
    <path d="M 223.948275 640.8 
L 228.884704 640.8 
L 228.884704 274.474842 
L 223.948275 274.474842 
z
" clip-path="url(#p25972ef464)" style="fill: #bfbf00"/>
   </g>
   <g id="patch_184">
    <path d="M 292.683359 640.8 
L 297.619787 640.8 
L 297.619787 274.474842 
L 292.683359 274.474842 
z
" clip-path="url(#p25972ef464)" style="fill: #bfbf00"/>
   </g>
   <g id="patch_185">
    <path d="M 361.418442 640.8 
L 366.354871 640.8 
L 366.354871 274.474842 
L 361.418442 274.474842 
z
" clip-path="url(#p25972ef464)" style="fill: #bfbf00"/>
   </g>
   <g id="patch_186">
    <path d="M 430.153526 640.8 
L 435.089954 640.8 
L 435.089954 274.474842 
L 430.153526 274.474842 
z
" clip-path="url(#p25972ef464)" style="fill: #bfbf00"/>
   </g>
   <g id="patch_187">
    <path d="M 498.888609 640.8 
L 503.825038 640.8 
L 503.825038 274.474842 
L 498.888609 274.474842 
z
" clip-path="url(#p25972ef464)" style="fill: #bfbf00"/>
   </g>
   <g id="patch_188">
    <path d="M 567.623693 640.8 
L 572.560122 640.8 
L 572.560122 274.474842 
L 567.623693 274.474842 
z
" clip-path="url(#p25972ef464)" style="fill: #bfbf00"/>
   </g>
   <g id="patch_189">
    <path d="M 636.358776 640.8 
L 641.295205 640.8 
L 641.295205 274.474842 
L 636.358776 274.474842 
z
" clip-path="url(#p25972ef464)" style="fill: #bfbf00"/>
   </g>
   <g id="patch_190">
    <path d="M 705.09386 640.8 
L 710.030289 640.8 
L 710.030289 274.474842 
L 705.09386 274.474842 
z
" clip-path="url(#p25972ef464)" style="fill: #bfbf00"/>
   </g>
   <g id="patch_191">
    <path d="M 773.828943 640.8 
L 778.765372 640.8 
L 778.765372 274.474842 
L 773.828943 274.474842 
z
" clip-path="url(#p25972ef464)" style="fill: #bfbf00"/>
   </g>
   <g id="patch_192">
    <path d="M 842.564027 640.8 
L 847.500456 640.8 
L 847.500456 274.474842 
L 842.564027 274.474842 
z
" clip-path="url(#p25972ef464)" style="fill: #bfbf00"/>
   </g>
   <g id="patch_193">
    <path d="M 911.29911 640.8 
L 916.235539 640.8 
L 916.235539 274.474842 
L 911.29911 274.474842 
z
" clip-path="url(#p25972ef464)" style="fill: #bfbf00"/>
   </g>
   <g id="patch_194">
    <path d="M 980.034194 640.8 
L 984.970623 640.8 
L 984.970623 274.474842 
L 980.034194 274.474842 
z
" clip-path="url(#p25972ef464)" style="fill: #bfbf00"/>
   </g>
   <g id="patch_195">
    <path d="M 229.572055 640.8 
L 234.508483 640.8 
L 234.508483 274.443676 
L 229.572055 274.443676 
z
" clip-path="url(#p25972ef464)" style="fill: #008000"/>
   </g>
   <g id="patch_196">
    <path d="M 298.307138 640.8 
L 303.243567 640.8 
L 303.243567 232.005656 
L 298.307138 232.005656 
z
" clip-path="url(#p25972ef464)" style="fill: #008000"/>
   </g>
   <g id="patch_197">
    <path d="M 367.042222 640.8 
L 371.97865 640.8 
L 371.97865 193.822897 
L 367.042222 193.822897 
z
" clip-path="url(#p25972ef464)" style="fill: #008000"/>
   </g>
   <g id="patch_198">
    <path d="M 435.777305 640.8 
L 440.713734 640.8 
L 440.713734 164.201319 
L 435.777305 164.201319 
z
" clip-path="url(#p25972ef464)" style="fill: #008000"/>
   </g>
   <g id="patch_199">
    <path d="M 504.512389 640.8 
L 509.448818 640.8 
L 509.448818 150.455568 
L 504.512389 150.455568 
z
" clip-path="url(#p25972ef464)" style="fill: #008000"/>
   </g>
   <g id="patch_200">
    <path d="M 573.247472 640.8 
L 578.183901 640.8 
L 578.183901 162.218674 
L 573.247472 162.218674 
z
" clip-path="url(#p25972ef464)" style="fill: #008000"/>
   </g>
   <g id="patch_201">
    <path d="M 641.982556 640.8 
L 646.918985 640.8 
L 646.918985 204.963436 
L 641.982556 204.963436 
z
" clip-path="url(#p25972ef464)" style="fill: #008000"/>
   </g>
   <g id="patch_202">
    <path d="M 710.717639 640.8 
L 715.654068 640.8 
L 715.654068 258.045136 
L 710.717639 258.045136 
z
" clip-path="url(#p25972ef464)" style="fill: #008000"/>
   </g>
   <g id="patch_203">
    <path d="M 779.452723 640.8 
L 784.389152 640.8 
L 784.389152 274.347251 
L 779.452723 274.347251 
z
" clip-path="url(#p25972ef464)" style="fill: #008000"/>
   </g>
   <g id="patch_204">
    <path d="M 848.187806 640.8 
L 853.124235 640.8 
L 853.124235 254.680818 
L 848.187806 254.680818 
z
" clip-path="url(#p25972ef464)" style="fill: #008000"/>
   </g>
   <g id="patch_205">
    <path d="M 916.92289 640.8 
L 921.859319 640.8 
L 921.859319 238.314694 
L 916.92289 238.314694 
z
" clip-path="url(#p25972ef464)" style="fill: #008000"/>
   </g>
   <g id="patch_206">
    <path d="M 985.657974 640.8 
L 990.594402 640.8 
L 990.594402 228.188147 
L 985.657974 228.188147 
z
" clip-path="url(#p25972ef464)" style="fill: #008000"/>
   </g>
   <g id="patch_207">
    <path d="M 229.572055 640.8 
L 234.508483 640.8 
L 234.508483 290.488046 
L 229.572055 290.488046 
z
" clip-path="url(#p25972ef464)" style="fill: #bfbf00"/>
   </g>
   <g id="patch_208">
    <path d="M 298.307138 640.8 
L 303.243567 640.8 
L 303.243567 290.488046 
L 298.307138 290.488046 
z
" clip-path="url(#p25972ef464)" style="fill: #bfbf00"/>
   </g>
   <g id="patch_209">
    <path d="M 367.042222 640.8 
L 371.97865 640.8 
L 371.97865 290.488046 
L 367.042222 290.488046 
z
" clip-path="url(#p25972ef464)" style="fill: #bfbf00"/>
   </g>
   <g id="patch_210">
    <path d="M 435.777305 640.8 
L 440.713734 640.8 
L 440.713734 290.488046 
L 435.777305 290.488046 
z
" clip-path="url(#p25972ef464)" style="fill: #bfbf00"/>
   </g>
   <g id="patch_211">
    <path d="M 504.512389 640.8 
L 509.448818 640.8 
L 509.448818 290.488046 
L 504.512389 290.488046 
z
" clip-path="url(#p25972ef464)" style="fill: #bfbf00"/>
   </g>
   <g id="patch_212">
    <path d="M 573.247472 640.8 
L 578.183901 640.8 
L 578.183901 290.488046 
L 573.247472 290.488046 
z
" clip-path="url(#p25972ef464)" style="fill: #bfbf00"/>
   </g>
   <g id="patch_213">
    <path d="M 641.982556 640.8 
L 646.918985 640.8 
L 646.918985 290.488046 
L 641.982556 290.488046 
z
" clip-path="url(#p25972ef464)" style="fill: #bfbf00"/>
   </g>
   <g id="patch_214">
    <path d="M 710.717639 640.8 
L 715.654068 640.8 
L 715.654068 290.488046 
L 710.717639 290.488046 
z
" clip-path="url(#p25972ef464)" style="fill: #bfbf00"/>
   </g>
   <g id="patch_215">
    <path d="M 779.452723 640.8 
L 784.389152 640.8 
L 784.389152 290.488046 
L 779.452723 290.488046 
z
" clip-path="url(#p25972ef464)" style="fill: #bfbf00"/>
   </g>
   <g id="patch_216">
    <path d="M 848.187806 640.8 
L 853.124235 640.8 
L 853.124235 290.488046 
L 848.187806 290.488046 
z
" clip-path="url(#p25972ef464)" style="fill: #bfbf00"/>
   </g>
   <g id="patch_217">
    <path d="M 916.92289 640.8 
L 921.859319 640.8 
L 921.859319 290.488046 
L 916.92289 290.488046 
z
" clip-path="url(#p25972ef464)" style="fill: #bfbf00"/>
   </g>
   <g id="patch_218">
    <path d="M 985.657974 640.8 
L 990.594402 640.8 
L 990.594402 290.488046 
L 985.657974 290.488046 
z
" clip-path="url(#p25972ef464)" style="fill: #bfbf00"/>
   </g>
   <g id="patch_219">
    <path d="M 235.195834 640.8 
L 240.132263 640.8 
L 240.132263 288.474213 
L 235.195834 288.474213 
z
" clip-path="url(#p25972ef464)" style="fill: #008000"/>
   </g>
   <g id="patch_220">
    <path d="M 303.930918 640.8 
L 308.867346 640.8 
L 308.867346 284.936708 
L 303.930918 284.936708 
z
" clip-path="url(#p25972ef464)" style="fill: #008000"/>
   </g>
   <g id="patch_221">
    <path d="M 372.666001 640.8 
L 377.60243 640.8 
L 377.60243 300.8787 
L 372.666001 300.8787 
z
" clip-path="url(#p25972ef464)" style="fill: #008000"/>
   </g>
   <g id="patch_222">
    <path d="M 441.401085 640.8 
L 446.337514 640.8 
L 446.337514 341.444824 
L 441.401085 341.444824 
z
" clip-path="url(#p25972ef464)" style="fill: #008000"/>
   </g>
   <g id="patch_223">
    <path d="M 510.136168 640.8 
L 515.072597 640.8 
L 515.072597 360.997695 
L 510.136168 360.997695 
z
" clip-path="url(#p25972ef464)" style="fill: #008000"/>
   </g>
   <g id="patch_224">
    <path d="M 578.871252 640.8 
L 583.807681 640.8 
L 583.807681 349.445099 
L 578.871252 349.445099 
z
" clip-path="url(#p25972ef464)" style="fill: #008000"/>
   </g>
   <g id="patch_225">
    <path d="M 647.606335 640.8 
L 652.542764 640.8 
L 652.542764 344.836993 
L 647.606335 344.836993 
z
" clip-path="url(#p25972ef464)" style="fill: #008000"/>
   </g>
   <g id="patch_226">
    <path d="M 716.341419 640.8 
L 721.277848 640.8 
L 721.277848 350.703743 
L 716.341419 350.703743 
z
" clip-path="url(#p25972ef464)" style="fill: #008000"/>
   </g>
   <g id="patch_227">
    <path d="M 785.076502 640.8 
L 790.012931 640.8 
L 790.012931 362.804254 
L 785.076502 362.804254 
z
" clip-path="url(#p25972ef464)" style="fill: #008000"/>
   </g>
   <g id="patch_228">
    <path d="M 853.811586 640.8 
L 858.748015 640.8 
L 858.748015 370.255559 
L 853.811586 370.255559 
z
" clip-path="url(#p25972ef464)" style="fill: #008000"/>
   </g>
   <g id="patch_229">
    <path d="M 922.54667 640.8 
L 927.483098 640.8 
L 927.483098 365.989785 
L 922.54667 365.989785 
z
" clip-path="url(#p25972ef464)" style="fill: #008000"/>
   </g>
   <g id="patch_230">
    <path d="M 991.281753 640.8 
L 996.218182 640.8 
L 996.218182 363.299307 
L 991.281753 363.299307 
z
" clip-path="url(#p25972ef464)" style="fill: #008000"/>
   </g>
   <g id="patch_231">
    <path d="M 235.195834 640.8 
L 240.132263 640.8 
L 240.132263 394.9107 
L 235.195834 394.9107 
z
" clip-path="url(#p25972ef464)" style="fill: #bfbf00"/>
   </g>
   <g id="patch_232">
    <path d="M 303.930918 640.8 
L 308.867346 640.8 
L 308.867346 394.9107 
L 303.930918 394.9107 
z
" clip-path="url(#p25972ef464)" style="fill: #bfbf00"/>
   </g>
   <g id="patch_233">
    <path d="M 372.666001 640.8 
L 377.60243 640.8 
L 377.60243 394.9107 
L 372.666001 394.9107 
z
" clip-path="url(#p25972ef464)" style="fill: #bfbf00"/>
   </g>
   <g id="patch_234">
    <path d="M 441.401085 640.8 
L 446.337514 640.8 
L 446.337514 394.9107 
L 441.401085 394.9107 
z
" clip-path="url(#p25972ef464)" style="fill: #bfbf00"/>
   </g>
   <g id="patch_235">
    <path d="M 510.136168 640.8 
L 515.072597 640.8 
L 515.072597 394.9107 
L 510.136168 394.9107 
z
" clip-path="url(#p25972ef464)" style="fill: #bfbf00"/>
   </g>
   <g id="patch_236">
    <path d="M 578.871252 640.8 
L 583.807681 640.8 
L 583.807681 394.9107 
L 578.871252 394.9107 
z
" clip-path="url(#p25972ef464)" style="fill: #bfbf00"/>
   </g>
   <g id="patch_237">
    <path d="M 647.606335 640.8 
L 652.542764 640.8 
L 652.542764 394.9107 
L 647.606335 394.9107 
z
" clip-path="url(#p25972ef464)" style="fill: #bfbf00"/>
   </g>
   <g id="patch_238">
    <path d="M 716.341419 640.8 
L 721.277848 640.8 
L 721.277848 394.9107 
L 716.341419 394.9107 
z
" clip-path="url(#p25972ef464)" style="fill: #bfbf00"/>
   </g>
   <g id="patch_239">
    <path d="M 785.076502 640.8 
L 790.012931 640.8 
L 790.012931 394.9107 
L 785.076502 394.9107 
z
" clip-path="url(#p25972ef464)" style="fill: #bfbf00"/>
   </g>
   <g id="patch_240">
    <path d="M 853.811586 640.8 
L 858.748015 640.8 
L 858.748015 394.9107 
L 853.811586 394.9107 
z
" clip-path="url(#p25972ef464)" style="fill: #bfbf00"/>
   </g>
   <g id="patch_241">
    <path d="M 922.54667 640.8 
L 927.483098 640.8 
L 927.483098 394.9107 
L 922.54667 394.9107 
z
" clip-path="url(#p25972ef464)" style="fill: #bfbf00"/>
   </g>
   <g id="patch_242">
    <path d="M 991.281753 640.8 
L 996.218182 640.8 
L 996.218182 394.9107 
L 991.281753 394.9107 
z
" clip-path="url(#p25972ef464)" style="fill: #bfbf00"/>
   </g>
   <g id="matplotlib.axis_1">
    <g id="xtick_1">
     <g id="line2d_1">
      <defs>
       <path id="m9f8b1d0c13" d="M 0 0 
L 0 3.5 
" style="stroke: #000000; stroke-width: 0.8"/>
      </defs>
      <g>
       <use xlink:href="#m9f8b1d0c13" x="215.16893" y="640.8" style="stroke: #000000; stroke-width: 0.8"/>
      </g>
     </g>
     <g id="text_1">
      <!-- 8 -->
      <g transform="translate(211.98768 655.398438)scale(0.1 -0.1)">
       <defs>
        <path id="DejaVuSans-38" d="M 2034 2216 
Q 1584 2216 1326 1975 
Q 1069 1734 1069 1313 
Q 1069 891 1326 650 
Q 1584 409 2034 409 
Q 2484 409 2743 651 
Q 3003 894 3003 1313 
Q 3003 1734 2745 1975 
Q 2488 2216 2034 2216 
z
M 1403 2484 
Q 997 2584 770 2862 
Q 544 3141 544 3541 
Q 544 4100 942 4425 
Q 1341 4750 2034 4750 
Q 2731 4750 3128 4425 
Q 3525 4100 3525 3541 
Q 3525 3141 3298 2862 
Q 3072 2584 2669 2484 
Q 3125 2378 3379 2068 
Q 3634 1759 3634 1313 
Q 3634 634 3220 271 
Q 2806 -91 2034 -91 
Q 1263 -91 848 271 
Q 434 634 434 1313 
Q 434 1759 690 2068 
Q 947 2378 1403 2484 
z
M 1172 3481 
Q 1172 3119 1398 2916 
Q 1625 2713 2034 2713 
Q 2441 2713 2670 2916 
Q 2900 3119 2900 3481 
Q 2900 3844 2670 4047 
Q 2441 4250 2034 4250 
Q 1625 4250 1398 4047 
Q 1172 3844 1172 3481 
z
" transform="scale(0.015625)"/>
       </defs>
       <use xlink:href="#DejaVuSans-38"/>
      </g>
     </g>
    </g>
    <g id="xtick_2">
     <g id="line2d_2">
      <g>
       <use xlink:href="#m9f8b1d0c13" x="283.904014" y="640.8" style="stroke: #000000; stroke-width: 0.8"/>
      </g>
     </g>
     <g id="text_2">
      <!-- 9 -->
      <g transform="translate(280.722764 655.398438)scale(0.1 -0.1)">
       <defs>
        <path id="DejaVuSans-39" d="M 703 97 
L 703 672 
Q 941 559 1184 500 
Q 1428 441 1663 441 
Q 2288 441 2617 861 
Q 2947 1281 2994 2138 
Q 2813 1869 2534 1725 
Q 2256 1581 1919 1581 
Q 1219 1581 811 2004 
Q 403 2428 403 3163 
Q 403 3881 828 4315 
Q 1253 4750 1959 4750 
Q 2769 4750 3195 4129 
Q 3622 3509 3622 2328 
Q 3622 1225 3098 567 
Q 2575 -91 1691 -91 
Q 1453 -91 1209 -44 
Q 966 3 703 97 
z
M 1959 2075 
Q 2384 2075 2632 2365 
Q 2881 2656 2881 3163 
Q 2881 3666 2632 3958 
Q 2384 4250 1959 4250 
Q 1534 4250 1286 3958 
Q 1038 3666 1038 3163 
Q 1038 2656 1286 2365 
Q 1534 2075 1959 2075 
z
" transform="scale(0.015625)"/>
       </defs>
       <use xlink:href="#DejaVuSans-39"/>
      </g>
     </g>
    </g>
    <g id="xtick_3">
     <g id="line2d_3">
      <g>
       <use xlink:href="#m9f8b1d0c13" x="352.639097" y="640.8" style="stroke: #000000; stroke-width: 0.8"/>
      </g>
     </g>
     <g id="text_3">
      <!-- 10 -->
      <g transform="translate(346.276597 655.398438)scale(0.1 -0.1)">
       <defs>
        <path id="DejaVuSans-31" d="M 794 531 
L 1825 531 
L 1825 4091 
L 703 3866 
L 703 4441 
L 1819 4666 
L 2450 4666 
L 2450 531 
L 3481 531 
L 3481 0 
L 794 0 
L 794 531 
z
" transform="scale(0.015625)"/>
        <path id="DejaVuSans-30" d="M 2034 4250 
Q 1547 4250 1301 3770 
Q 1056 3291 1056 2328 
Q 1056 1369 1301 889 
Q 1547 409 2034 409 
Q 2525 409 2770 889 
Q 3016 1369 3016 2328 
Q 3016 3291 2770 3770 
Q 2525 4250 2034 4250 
z
M 2034 4750 
Q 2819 4750 3233 4129 
Q 3647 3509 3647 2328 
Q 3647 1150 3233 529 
Q 2819 -91 2034 -91 
Q 1250 -91 836 529 
Q 422 1150 422 2328 
Q 422 3509 836 4129 
Q 1250 4750 2034 4750 
z
" transform="scale(0.015625)"/>
       </defs>
       <use xlink:href="#DejaVuSans-31"/>
       <use xlink:href="#DejaVuSans-30" x="63.623047"/>
      </g>
     </g>
    </g>
    <g id="xtick_4">
     <g id="line2d_4">
      <g>
       <use xlink:href="#m9f8b1d0c13" x="421.374181" y="640.8" style="stroke: #000000; stroke-width: 0.8"/>
      </g>
     </g>
     <g id="text_4">
      <!-- 11 -->
      <g transform="translate(415.011681 655.398438)scale(0.1 -0.1)">
       <use xlink:href="#DejaVuSans-31"/>
       <use xlink:href="#DejaVuSans-31" x="63.623047"/>
      </g>
     </g>
    </g>
    <g id="xtick_5">
     <g id="line2d_5">
      <g>
       <use xlink:href="#m9f8b1d0c13" x="490.109264" y="640.8" style="stroke: #000000; stroke-width: 0.8"/>
      </g>
     </g>
     <g id="text_5">
      <!-- 12 -->
      <g transform="translate(483.746764 655.398438)scale(0.1 -0.1)">
       <defs>
        <path id="DejaVuSans-32" d="M 1228 531 
L 3431 531 
L 3431 0 
L 469 0 
L 469 531 
Q 828 903 1448 1529 
Q 2069 2156 2228 2338 
Q 2531 2678 2651 2914 
Q 2772 3150 2772 3378 
Q 2772 3750 2511 3984 
Q 2250 4219 1831 4219 
Q 1534 4219 1204 4116 
Q 875 4013 500 3803 
L 500 4441 
Q 881 4594 1212 4672 
Q 1544 4750 1819 4750 
Q 2544 4750 2975 4387 
Q 3406 4025 3406 3419 
Q 3406 3131 3298 2873 
Q 3191 2616 2906 2266 
Q 2828 2175 2409 1742 
Q 1991 1309 1228 531 
z
" transform="scale(0.015625)"/>
       </defs>
       <use xlink:href="#DejaVuSans-31"/>
       <use xlink:href="#DejaVuSans-32" x="63.623047"/>
      </g>
     </g>
    </g>
    <g id="xtick_6">
     <g id="line2d_6">
      <g>
       <use xlink:href="#m9f8b1d0c13" x="558.844348" y="640.8" style="stroke: #000000; stroke-width: 0.8"/>
      </g>
     </g>
     <g id="text_6">
      <!-- 13 -->
      <g transform="translate(552.481848 655.398438)scale(0.1 -0.1)">
       <defs>
        <path id="DejaVuSans-33" d="M 2597 2516 
Q 3050 2419 3304 2112 
Q 3559 1806 3559 1356 
Q 3559 666 3084 287 
Q 2609 -91 1734 -91 
Q 1441 -91 1130 -33 
Q 819 25 488 141 
L 488 750 
Q 750 597 1062 519 
Q 1375 441 1716 441 
Q 2309 441 2620 675 
Q 2931 909 2931 1356 
Q 2931 1769 2642 2001 
Q 2353 2234 1838 2234 
L 1294 2234 
L 1294 2753 
L 1863 2753 
Q 2328 2753 2575 2939 
Q 2822 3125 2822 3475 
Q 2822 3834 2567 4026 
Q 2313 4219 1838 4219 
Q 1578 4219 1281 4162 
Q 984 4106 628 3988 
L 628 4550 
Q 988 4650 1302 4700 
Q 1616 4750 1894 4750 
Q 2613 4750 3031 4423 
Q 3450 4097 3450 3541 
Q 3450 3153 3228 2886 
Q 3006 2619 2597 2516 
z
" transform="scale(0.015625)"/>
       </defs>
       <use xlink:href="#DejaVuSans-31"/>
       <use xlink:href="#DejaVuSans-33" x="63.623047"/>
      </g>
     </g>
    </g>
    <g id="xtick_7">
     <g id="line2d_7">
      <g>
       <use xlink:href="#m9f8b1d0c13" x="627.579432" y="640.8" style="stroke: #000000; stroke-width: 0.8"/>
      </g>
     </g>
     <g id="text_7">
      <!-- 14 -->
      <g transform="translate(621.216932 655.398438)scale(0.1 -0.1)">
       <defs>
        <path id="DejaVuSans-34" d="M 2419 4116 
L 825 1625 
L 2419 1625 
L 2419 4116 
z
M 2253 4666 
L 3047 4666 
L 3047 1625 
L 3713 1625 
L 3713 1100 
L 3047 1100 
L 3047 0 
L 2419 0 
L 2419 1100 
L 313 1100 
L 313 1709 
L 2253 4666 
z
" transform="scale(0.015625)"/>
       </defs>
       <use xlink:href="#DejaVuSans-31"/>
       <use xlink:href="#DejaVuSans-34" x="63.623047"/>
      </g>
     </g>
    </g>
    <g id="xtick_8">
     <g id="line2d_8">
      <g>
       <use xlink:href="#m9f8b1d0c13" x="696.314515" y="640.8" style="stroke: #000000; stroke-width: 0.8"/>
      </g>
     </g>
     <g id="text_8">
      <!-- 15 -->
      <g transform="translate(689.952015 655.398438)scale(0.1 -0.1)">
       <defs>
        <path id="DejaVuSans-35" d="M 691 4666 
L 3169 4666 
L 3169 4134 
L 1269 4134 
L 1269 2991 
Q 1406 3038 1543 3061 
Q 1681 3084 1819 3084 
Q 2600 3084 3056 2656 
Q 3513 2228 3513 1497 
Q 3513 744 3044 326 
Q 2575 -91 1722 -91 
Q 1428 -91 1123 -41 
Q 819 9 494 109 
L 494 744 
Q 775 591 1075 516 
Q 1375 441 1709 441 
Q 2250 441 2565 725 
Q 2881 1009 2881 1497 
Q 2881 1984 2565 2268 
Q 2250 2553 1709 2553 
Q 1456 2553 1204 2497 
Q 953 2441 691 2322 
L 691 4666 
z
" transform="scale(0.015625)"/>
       </defs>
       <use xlink:href="#DejaVuSans-31"/>
       <use xlink:href="#DejaVuSans-35" x="63.623047"/>
      </g>
     </g>
    </g>
    <g id="xtick_9">
     <g id="line2d_9">
      <g>
       <use xlink:href="#m9f8b1d0c13" x="765.049599" y="640.8" style="stroke: #000000; stroke-width: 0.8"/>
      </g>
     </g>
     <g id="text_9">
      <!-- 16 -->
      <g transform="translate(758.687099 655.398438)scale(0.1 -0.1)">
       <defs>
        <path id="DejaVuSans-36" d="M 2113 2584 
Q 1688 2584 1439 2293 
Q 1191 2003 1191 1497 
Q 1191 994 1439 701 
Q 1688 409 2113 409 
Q 2538 409 2786 701 
Q 3034 994 3034 1497 
Q 3034 2003 2786 2293 
Q 2538 2584 2113 2584 
z
M 3366 4563 
L 3366 3988 
Q 3128 4100 2886 4159 
Q 2644 4219 2406 4219 
Q 1781 4219 1451 3797 
Q 1122 3375 1075 2522 
Q 1259 2794 1537 2939 
Q 1816 3084 2150 3084 
Q 2853 3084 3261 2657 
Q 3669 2231 3669 1497 
Q 3669 778 3244 343 
Q 2819 -91 2113 -91 
Q 1303 -91 875 529 
Q 447 1150 447 2328 
Q 447 3434 972 4092 
Q 1497 4750 2381 4750 
Q 2619 4750 2861 4703 
Q 3103 4656 3366 4563 
z
" transform="scale(0.015625)"/>
       </defs>
       <use xlink:href="#DejaVuSans-31"/>
       <use xlink:href="#DejaVuSans-36" x="63.623047"/>
      </g>
     </g>
    </g>
    <g id="xtick_10">
     <g id="line2d_10">
      <g>
       <use xlink:href="#m9f8b1d0c13" x="833.784682" y="640.8" style="stroke: #000000; stroke-width: 0.8"/>
      </g>
     </g>
     <g id="text_10">
      <!-- 17 -->
      <g transform="translate(827.422182 655.398438)scale(0.1 -0.1)">
       <defs>
        <path id="DejaVuSans-37" d="M 525 4666 
L 3525 4666 
L 3525 4397 
L 1831 0 
L 1172 0 
L 2766 4134 
L 525 4134 
L 525 4666 
z
" transform="scale(0.015625)"/>
       </defs>
       <use xlink:href="#DejaVuSans-31"/>
       <use xlink:href="#DejaVuSans-37" x="63.623047"/>
      </g>
     </g>
    </g>
    <g id="xtick_11">
     <g id="line2d_11">
      <g>
       <use xlink:href="#m9f8b1d0c13" x="902.519766" y="640.8" style="stroke: #000000; stroke-width: 0.8"/>
      </g>
     </g>
     <g id="text_11">
      <!-- 18 -->
      <g transform="translate(896.157266 655.398438)scale(0.1 -0.1)">
       <use xlink:href="#DejaVuSans-31"/>
       <use xlink:href="#DejaVuSans-38" x="63.623047"/>
      </g>
     </g>
    </g>
    <g id="xtick_12">
     <g id="line2d_12">
      <g>
       <use xlink:href="#m9f8b1d0c13" x="971.254849" y="640.8" style="stroke: #000000; stroke-width: 0.8"/>
      </g>
     </g>
     <g id="text_12">
      <!-- 19 -->
      <g transform="translate(964.892349 655.398438)scale(0.1 -0.1)">
       <use xlink:href="#DejaVuSans-31"/>
       <use xlink:href="#DejaVuSans-39" x="63.623047"/>
      </g>
     </g>
    </g>
    <g id="text_13">
     <!-- code length [bits] -->
     <g transform="translate(546.195312 669.076563)scale(0.1 -0.1)">
      <defs>
       <path id="DejaVuSans-63" d="M 3122 3366 
L 3122 2828 
Q 2878 2963 2633 3030 
Q 2388 3097 2138 3097 
Q 1578 3097 1268 2742 
Q 959 2388 959 1747 
Q 959 1106 1268 751 
Q 1578 397 2138 397 
Q 2388 397 2633 464 
Q 2878 531 3122 666 
L 3122 134 
Q 2881 22 2623 -34 
Q 2366 -91 2075 -91 
Q 1284 -91 818 406 
Q 353 903 353 1747 
Q 353 2603 823 3093 
Q 1294 3584 2113 3584 
Q 2378 3584 2631 3529 
Q 2884 3475 3122 3366 
z
" transform="scale(0.015625)"/>
       <path id="DejaVuSans-6f" d="M 1959 3097 
Q 1497 3097 1228 2736 
Q 959 2375 959 1747 
Q 959 1119 1226 758 
Q 1494 397 1959 397 
Q 2419 397 2687 759 
Q 2956 1122 2956 1747 
Q 2956 2369 2687 2733 
Q 2419 3097 1959 3097 
z
M 1959 3584 
Q 2709 3584 3137 3096 
Q 3566 2609 3566 1747 
Q 3566 888 3137 398 
Q 2709 -91 1959 -91 
Q 1206 -91 779 398 
Q 353 888 353 1747 
Q 353 2609 779 3096 
Q 1206 3584 1959 3584 
z
" transform="scale(0.015625)"/>
       <path id="DejaVuSans-64" d="M 2906 2969 
L 2906 4863 
L 3481 4863 
L 3481 0 
L 2906 0 
L 2906 525 
Q 2725 213 2448 61 
Q 2172 -91 1784 -91 
Q 1150 -91 751 415 
Q 353 922 353 1747 
Q 353 2572 751 3078 
Q 1150 3584 1784 3584 
Q 2172 3584 2448 3432 
Q 2725 3281 2906 2969 
z
M 947 1747 
Q 947 1113 1208 752 
Q 1469 391 1925 391 
Q 2381 391 2643 752 
Q 2906 1113 2906 1747 
Q 2906 2381 2643 2742 
Q 2381 3103 1925 3103 
Q 1469 3103 1208 2742 
Q 947 2381 947 1747 
z
" transform="scale(0.015625)"/>
       <path id="DejaVuSans-65" d="M 3597 1894 
L 3597 1613 
L 953 1613 
Q 991 1019 1311 708 
Q 1631 397 2203 397 
Q 2534 397 2845 478 
Q 3156 559 3463 722 
L 3463 178 
Q 3153 47 2828 -22 
Q 2503 -91 2169 -91 
Q 1331 -91 842 396 
Q 353 884 353 1716 
Q 353 2575 817 3079 
Q 1281 3584 2069 3584 
Q 2775 3584 3186 3129 
Q 3597 2675 3597 1894 
z
M 3022 2063 
Q 3016 2534 2758 2815 
Q 2500 3097 2075 3097 
Q 1594 3097 1305 2825 
Q 1016 2553 972 2059 
L 3022 2063 
z
" transform="scale(0.015625)"/>
       <path id="DejaVuSans-20" transform="scale(0.015625)"/>
       <path id="DejaVuSans-6c" d="M 603 4863 
L 1178 4863 
L 1178 0 
L 603 0 
L 603 4863 
z
" transform="scale(0.015625)"/>
       <path id="DejaVuSans-6e" d="M 3513 2113 
L 3513 0 
L 2938 0 
L 2938 2094 
Q 2938 2591 2744 2837 
Q 2550 3084 2163 3084 
Q 1697 3084 1428 2787 
Q 1159 2491 1159 1978 
L 1159 0 
L 581 0 
L 581 3500 
L 1159 3500 
L 1159 2956 
Q 1366 3272 1645 3428 
Q 1925 3584 2291 3584 
Q 2894 3584 3203 3211 
Q 3513 2838 3513 2113 
z
" transform="scale(0.015625)"/>
       <path id="DejaVuSans-67" d="M 2906 1791 
Q 2906 2416 2648 2759 
Q 2391 3103 1925 3103 
Q 1463 3103 1205 2759 
Q 947 2416 947 1791 
Q 947 1169 1205 825 
Q 1463 481 1925 481 
Q 2391 481 2648 825 
Q 2906 1169 2906 1791 
z
M 3481 434 
Q 3481 -459 3084 -895 
Q 2688 -1331 1869 -1331 
Q 1566 -1331 1297 -1286 
Q 1028 -1241 775 -1147 
L 775 -588 
Q 1028 -725 1275 -790 
Q 1522 -856 1778 -856 
Q 2344 -856 2625 -561 
Q 2906 -266 2906 331 
L 2906 616 
Q 2728 306 2450 153 
Q 2172 0 1784 0 
Q 1141 0 747 490 
Q 353 981 353 1791 
Q 353 2603 747 3093 
Q 1141 3584 1784 3584 
Q 2172 3584 2450 3431 
Q 2728 3278 2906 2969 
L 2906 3500 
L 3481 3500 
L 3481 434 
z
" transform="scale(0.015625)"/>
       <path id="DejaVuSans-74" d="M 1172 4494 
L 1172 3500 
L 2356 3500 
L 2356 3053 
L 1172 3053 
L 1172 1153 
Q 1172 725 1289 603 
Q 1406 481 1766 481 
L 2356 481 
L 2356 0 
L 1766 0 
Q 1100 0 847 248 
Q 594 497 594 1153 
L 594 3053 
L 172 3053 
L 172 3500 
L 594 3500 
L 594 4494 
L 1172 4494 
z
" transform="scale(0.015625)"/>
       <path id="DejaVuSans-68" d="M 3513 2113 
L 3513 0 
L 2938 0 
L 2938 2094 
Q 2938 2591 2744 2837 
Q 2550 3084 2163 3084 
Q 1697 3084 1428 2787 
Q 1159 2491 1159 1978 
L 1159 0 
L 581 0 
L 581 4863 
L 1159 4863 
L 1159 2956 
Q 1366 3272 1645 3428 
Q 1925 3584 2291 3584 
Q 2894 3584 3203 3211 
Q 3513 2838 3513 2113 
z
" transform="scale(0.015625)"/>
       <path id="DejaVuSans-5b" d="M 550 4863 
L 1875 4863 
L 1875 4416 
L 1125 4416 
L 1125 -397 
L 1875 -397 
L 1875 -844 
L 550 -844 
L 550 4863 
z
" transform="scale(0.015625)"/>
       <path id="DejaVuSans-62" d="M 3116 1747 
Q 3116 2381 2855 2742 
Q 2594 3103 2138 3103 
Q 1681 3103 1420 2742 
Q 1159 2381 1159 1747 
Q 1159 1113 1420 752 
Q 1681 391 2138 391 
Q 2594 391 2855 752 
Q 3116 1113 3116 1747 
z
M 1159 2969 
Q 1341 3281 1617 3432 
Q 1894 3584 2278 3584 
Q 2916 3584 3314 3078 
Q 3713 2572 3713 1747 
Q 3713 922 3314 415 
Q 2916 -91 2278 -91 
Q 1894 -91 1617 61 
Q 1341 213 1159 525 
L 1159 0 
L 581 0 
L 581 4863 
L 1159 4863 
L 1159 2969 
z
" transform="scale(0.015625)"/>
       <path id="DejaVuSans-69" d="M 603 3500 
L 1178 3500 
L 1178 0 
L 603 0 
L 603 3500 
z
M 603 4863 
L 1178 4863 
L 1178 4134 
L 603 4134 
L 603 4863 
z
" transform="scale(0.015625)"/>
       <path id="DejaVuSans-73" d="M 2834 3397 
L 2834 2853 
Q 2591 2978 2328 3040 
Q 2066 3103 1784 3103 
Q 1356 3103 1142 2972 
Q 928 2841 928 2578 
Q 928 2378 1081 2264 
Q 1234 2150 1697 2047 
L 1894 2003 
Q 2506 1872 2764 1633 
Q 3022 1394 3022 966 
Q 3022 478 2636 193 
Q 2250 -91 1575 -91 
Q 1294 -91 989 -36 
Q 684 19 347 128 
L 347 722 
Q 666 556 975 473 
Q 1284 391 1588 391 
Q 1994 391 2212 530 
Q 2431 669 2431 922 
Q 2431 1156 2273 1281 
Q 2116 1406 1581 1522 
L 1381 1569 
Q 847 1681 609 1914 
Q 372 2147 372 2553 
Q 372 3047 722 3315 
Q 1072 3584 1716 3584 
Q 2034 3584 2315 3537 
Q 2597 3491 2834 3397 
z
" transform="scale(0.015625)"/>
       <path id="DejaVuSans-5d" d="M 1947 4863 
L 1947 -844 
L 622 -844 
L 622 -397 
L 1369 -397 
L 1369 4416 
L 622 4416 
L 622 4863 
L 1947 4863 
z
" transform="scale(0.015625)"/>
      </defs>
      <use xlink:href="#DejaVuSans-63"/>
      <use xlink:href="#DejaVuSans-6f" x="54.980469"/>
      <use xlink:href="#DejaVuSans-64" x="116.162109"/>
      <use xlink:href="#DejaVuSans-65" x="179.638672"/>
      <use xlink:href="#DejaVuSans-20" x="241.162109"/>
      <use xlink:href="#DejaVuSans-6c" x="272.949219"/>
      <use xlink:href="#DejaVuSans-65" x="300.732422"/>
      <use xlink:href="#DejaVuSans-6e" x="362.255859"/>
      <use xlink:href="#DejaVuSans-67" x="425.634766"/>
      <use xlink:href="#DejaVuSans-74" x="489.111328"/>
      <use xlink:href="#DejaVuSans-68" x="528.320312"/>
      <use xlink:href="#DejaVuSans-20" x="591.699219"/>
      <use xlink:href="#DejaVuSans-5b" x="623.486328"/>
      <use xlink:href="#DejaVuSans-62" x="662.5"/>
      <use xlink:href="#DejaVuSans-69" x="725.976562"/>
      <use xlink:href="#DejaVuSans-74" x="753.759766"/>
      <use xlink:href="#DejaVuSans-73" x="792.96875"/>
      <use xlink:href="#DejaVuSans-5d" x="845.068359"/>
     </g>
    </g>
   </g>
   <g id="matplotlib.axis_2">
    <g id="ytick_1">
     <g id="line2d_13">
      <defs>
       <path id="m42e9c36e95" d="M 0 0 
L -3.5 0 
" style="stroke: #000000; stroke-width: 0.8"/>
      </defs>
      <g>
       <use xlink:href="#m42e9c36e95" x="144" y="640.8" style="stroke: #000000; stroke-width: 0.8"/>
      </g>
     </g>
     <g id="text_14">
      <!-- 0 -->
      <g transform="translate(130.6375 644.599219)scale(0.1 -0.1)">
       <use xlink:href="#DejaVuSans-30"/>
      </g>
     </g>
    </g>
    <g id="ytick_2">
     <g id="line2d_14">
      <g>
       <use xlink:href="#m42e9c36e95" x="144" y="549.210919" style="stroke: #000000; stroke-width: 0.8"/>
      </g>
     </g>
     <g id="text_15">
      <!-- 2 -->
      <g transform="translate(130.6375 553.010138)scale(0.1 -0.1)">
       <use xlink:href="#DejaVuSans-32"/>
      </g>
     </g>
    </g>
    <g id="ytick_3">
     <g id="line2d_15">
      <g>
       <use xlink:href="#m42e9c36e95" x="144" y="457.621838" style="stroke: #000000; stroke-width: 0.8"/>
      </g>
     </g>
     <g id="text_16">
      <!-- 4 -->
      <g transform="translate(130.6375 461.421057)scale(0.1 -0.1)">
       <use xlink:href="#DejaVuSans-34"/>
      </g>
     </g>
    </g>
    <g id="ytick_4">
     <g id="line2d_16">
      <g>
       <use xlink:href="#m42e9c36e95" x="144" y="366.032757" style="stroke: #000000; stroke-width: 0.8"/>
      </g>
     </g>
     <g id="text_17">
      <!-- 6 -->
      <g transform="translate(130.6375 369.831976)scale(0.1 -0.1)">
       <use xlink:href="#DejaVuSans-36"/>
      </g>
     </g>
    </g>
    <g id="ytick_5">
     <g id="line2d_17">
      <g>
       <use xlink:href="#m42e9c36e95" x="144" y="274.443676" style="stroke: #000000; stroke-width: 0.8"/>
      </g>
     </g>
     <g id="text_18">
      <!-- 8 -->
      <g transform="translate(130.6375 278.242895)scale(0.1 -0.1)">
       <use xlink:href="#DejaVuSans-38"/>
      </g>
     </g>
    </g>
    <g id="ytick_6">
     <g id="line2d_18">
      <g>
       <use xlink:href="#m42e9c36e95" x="144" y="182.854595" style="stroke: #000000; stroke-width: 0.8"/>
      </g>
     </g>
     <g id="text_19">
      <!-- 10 -->
      <g transform="translate(124.275 186.653814)scale(0.1 -0.1)">
       <use xlink:href="#DejaVuSans-31"/>
       <use xlink:href="#DejaVuSans-30" x="63.623047"/>
      </g>
     </g>
    </g>
    <g id="ytick_7">
     <g id="line2d_19">
      <g>
       <use xlink:href="#m42e9c36e95" x="144" y="91.265514" style="stroke: #000000; stroke-width: 0.8"/>
      </g>
     </g>
     <g id="text_20">
      <!-- 12 -->
      <g transform="translate(124.275 95.064733)scale(0.1 -0.1)">
       <use xlink:href="#DejaVuSans-31"/>
       <use xlink:href="#DejaVuSans-32" x="63.623047"/>
      </g>
     </g>
    </g>
   </g>
   <g id="patch_243">
    <path d="M 144 640.8 
L 144 86.4 
" style="fill: none; stroke: #000000; stroke-width: 0.8; stroke-linejoin: miter; stroke-linecap: square"/>
   </g>
   <g id="patch_244">
    <path d="M 1036.8 640.8 
L 1036.8 86.4 
" style="fill: none; stroke: #000000; stroke-width: 0.8; stroke-linejoin: miter; stroke-linecap: square"/>
   </g>
   <g id="patch_245">
    <path d="M 144 640.8 
L 1036.8 640.8 
" style="fill: none; stroke: #000000; stroke-width: 0.8; stroke-linejoin: miter; stroke-linecap: square"/>
   </g>
   <g id="patch_246">
    <path d="M 144 86.4 
L 1036.8 86.4 
" style="fill: none; stroke: #000000; stroke-width: 0.8; stroke-linejoin: miter; stroke-linecap: square"/>
   </g>
   <g id="text_21">
    <!-- Entropy vs Bitrate -->
    <g transform="translate(536.277187 80.4)scale(0.12 -0.12)">
     <defs>
      <path id="DejaVuSans-45" d="M 628 4666 
L 3578 4666 
L 3578 4134 
L 1259 4134 
L 1259 2753 
L 3481 2753 
L 3481 2222 
L 1259 2222 
L 1259 531 
L 3634 531 
L 3634 0 
L 628 0 
L 628 4666 
z
" transform="scale(0.015625)"/>
      <path id="DejaVuSans-72" d="M 2631 2963 
Q 2534 3019 2420 3045 
Q 2306 3072 2169 3072 
Q 1681 3072 1420 2755 
Q 1159 2438 1159 1844 
L 1159 0 
L 581 0 
L 581 3500 
L 1159 3500 
L 1159 2956 
Q 1341 3275 1631 3429 
Q 1922 3584 2338 3584 
Q 2397 3584 2469 3576 
Q 2541 3569 2628 3553 
L 2631 2963 
z
" transform="scale(0.015625)"/>
      <path id="DejaVuSans-70" d="M 1159 525 
L 1159 -1331 
L 581 -1331 
L 581 3500 
L 1159 3500 
L 1159 2969 
Q 1341 3281 1617 3432 
Q 1894 3584 2278 3584 
Q 2916 3584 3314 3078 
Q 3713 2572 3713 1747 
Q 3713 922 3314 415 
Q 2916 -91 2278 -91 
Q 1894 -91 1617 61 
Q 1341 213 1159 525 
z
M 3116 1747 
Q 3116 2381 2855 2742 
Q 2594 3103 2138 3103 
Q 1681 3103 1420 2742 
Q 1159 2381 1159 1747 
Q 1159 1113 1420 752 
Q 1681 391 2138 391 
Q 2594 391 2855 752 
Q 3116 1113 3116 1747 
z
" transform="scale(0.015625)"/>
      <path id="DejaVuSans-79" d="M 2059 -325 
Q 1816 -950 1584 -1140 
Q 1353 -1331 966 -1331 
L 506 -1331 
L 506 -850 
L 844 -850 
Q 1081 -850 1212 -737 
Q 1344 -625 1503 -206 
L 1606 56 
L 191 3500 
L 800 3500 
L 1894 763 
L 2988 3500 
L 3597 3500 
L 2059 -325 
z
" transform="scale(0.015625)"/>
      <path id="DejaVuSans-76" d="M 191 3500 
L 800 3500 
L 1894 563 
L 2988 3500 
L 3597 3500 
L 2284 0 
L 1503 0 
L 191 3500 
z
" transform="scale(0.015625)"/>
      <path id="DejaVuSans-42" d="M 1259 2228 
L 1259 519 
L 2272 519 
Q 2781 519 3026 730 
Q 3272 941 3272 1375 
Q 3272 1813 3026 2020 
Q 2781 2228 2272 2228 
L 1259 2228 
z
M 1259 4147 
L 1259 2741 
L 2194 2741 
Q 2656 2741 2882 2914 
Q 3109 3088 3109 3444 
Q 3109 3797 2882 3972 
Q 2656 4147 2194 4147 
L 1259 4147 
z
M 628 4666 
L 2241 4666 
Q 2963 4666 3353 4366 
Q 3744 4066 3744 3513 
Q 3744 3084 3544 2831 
Q 3344 2578 2956 2516 
Q 3422 2416 3680 2098 
Q 3938 1781 3938 1306 
Q 3938 681 3513 340 
Q 3088 0 2303 0 
L 628 0 
L 628 4666 
z
" transform="scale(0.015625)"/>
      <path id="DejaVuSans-61" d="M 2194 1759 
Q 1497 1759 1228 1600 
Q 959 1441 959 1056 
Q 959 750 1161 570 
Q 1363 391 1709 391 
Q 2188 391 2477 730 
Q 2766 1069 2766 1631 
L 2766 1759 
L 2194 1759 
z
M 3341 1997 
L 3341 0 
L 2766 0 
L 2766 531 
Q 2569 213 2275 61 
Q 1981 -91 1556 -91 
Q 1019 -91 701 211 
Q 384 513 384 1019 
Q 384 1609 779 1909 
Q 1175 2209 1959 2209 
L 2766 2209 
L 2766 2266 
Q 2766 2663 2505 2880 
Q 2244 3097 1772 3097 
Q 1472 3097 1187 3025 
Q 903 2953 641 2809 
L 641 3341 
Q 956 3463 1253 3523 
Q 1550 3584 1831 3584 
Q 2591 3584 2966 3190 
Q 3341 2797 3341 1997 
z
" transform="scale(0.015625)"/>
     </defs>
     <use xlink:href="#DejaVuSans-45"/>
     <use xlink:href="#DejaVuSans-6e" x="63.183594"/>
     <use xlink:href="#DejaVuSans-74" x="126.5625"/>
     <use xlink:href="#DejaVuSans-72" x="165.771484"/>
     <use xlink:href="#DejaVuSans-6f" x="204.634766"/>
     <use xlink:href="#DejaVuSans-70" x="265.816406"/>
     <use xlink:href="#DejaVuSans-79" x="329.292969"/>
     <use xlink:href="#DejaVuSans-20" x="388.472656"/>
     <use xlink:href="#DejaVuSans-76" x="420.259766"/>
     <use xlink:href="#DejaVuSans-73" x="479.439453"/>
     <use xlink:href="#DejaVuSans-20" x="531.539062"/>
     <use xlink:href="#DejaVuSans-42" x="563.326172"/>
     <use xlink:href="#DejaVuSans-69" x="631.929688"/>
     <use xlink:href="#DejaVuSans-74" x="659.712891"/>
     <use xlink:href="#DejaVuSans-72" x="698.921875"/>
     <use xlink:href="#DejaVuSans-61" x="740.035156"/>
     <use xlink:href="#DejaVuSans-74" x="801.314453"/>
     <use xlink:href="#DejaVuSans-65" x="840.523438"/>
    </g>
   </g>
   <g id="legend_1">
    <g id="patch_247">
     <path d="M 958.951562 123.75625 
L 1029.8 123.75625 
Q 1031.8 123.75625 1031.8 121.75625 
L 1031.8 93.4 
Q 1031.8 91.4 1029.8 91.4 
L 958.951562 91.4 
Q 956.951562 91.4 956.951562 93.4 
L 956.951562 121.75625 
Q 956.951562 123.75625 958.951562 123.75625 
z
" style="fill: #ffffff; opacity: 0.8; stroke: #cccccc; stroke-linejoin: miter"/>
    </g>
    <g id="patch_248">
     <path d="M 960.951562 102.998437 
L 980.951562 102.998437 
L 980.951562 95.998437 
L 960.951562 95.998437 
z
" style="fill: #008000"/>
    </g>
    <g id="text_22">
     <!-- Bitrate -->
     <g transform="translate(988.951562 102.998437)scale(0.1 -0.1)">
      <use xlink:href="#DejaVuSans-42"/>
      <use xlink:href="#DejaVuSans-69" x="68.603516"/>
      <use xlink:href="#DejaVuSans-74" x="96.386719"/>
      <use xlink:href="#DejaVuSans-72" x="135.595703"/>
      <use xlink:href="#DejaVuSans-61" x="176.708984"/>
      <use xlink:href="#DejaVuSans-74" x="237.988281"/>
      <use xlink:href="#DejaVuSans-65" x="277.197266"/>
     </g>
    </g>
    <g id="patch_249">
     <path d="M 960.951562 117.676562 
L 980.951562 117.676562 
L 980.951562 110.676562 
L 960.951562 110.676562 
z
" style="fill: #bfbf00"/>
    </g>
    <g id="text_23">
     <!-- Entropy -->
     <g transform="translate(988.951562 117.676562)scale(0.1 -0.1)">
      <use xlink:href="#DejaVuSans-45"/>
      <use xlink:href="#DejaVuSans-6e" x="63.183594"/>
      <use xlink:href="#DejaVuSans-74" x="126.5625"/>
      <use xlink:href="#DejaVuSans-72" x="165.771484"/>
      <use xlink:href="#DejaVuSans-6f" x="204.634766"/>
      <use xlink:href="#DejaVuSans-70" x="265.816406"/>
      <use xlink:href="#DejaVuSans-79" x="329.292969"/>
     </g>
    </g>
   </g>
  </g>
  <g id="text_24">
   <!-- Each bar represents different image in order: -->
   <g transform="translate(57.6 674.672222)scale(0.0833 -0.0833)">
    <defs>
     <path id="DejaVuSans-66" d="M 2375 4863 
L 2375 4384 
L 1825 4384 
Q 1516 4384 1395 4259 
Q 1275 4134 1275 3809 
L 1275 3500 
L 2222 3500 
L 2222 3053 
L 1275 3053 
L 1275 0 
L 697 0 
L 697 3053 
L 147 3053 
L 147 3500 
L 697 3500 
L 697 3744 
Q 697 4328 969 4595 
Q 1241 4863 1831 4863 
L 2375 4863 
z
" transform="scale(0.015625)"/>
     <path id="DejaVuSans-6d" d="M 3328 2828 
Q 3544 3216 3844 3400 
Q 4144 3584 4550 3584 
Q 5097 3584 5394 3201 
Q 5691 2819 5691 2113 
L 5691 0 
L 5113 0 
L 5113 2094 
Q 5113 2597 4934 2840 
Q 4756 3084 4391 3084 
Q 3944 3084 3684 2787 
Q 3425 2491 3425 1978 
L 3425 0 
L 2847 0 
L 2847 2094 
Q 2847 2600 2669 2842 
Q 2491 3084 2119 3084 
Q 1678 3084 1418 2786 
Q 1159 2488 1159 1978 
L 1159 0 
L 581 0 
L 581 3500 
L 1159 3500 
L 1159 2956 
Q 1356 3278 1631 3431 
Q 1906 3584 2284 3584 
Q 2666 3584 2933 3390 
Q 3200 3197 3328 2828 
z
" transform="scale(0.015625)"/>
     <path id="DejaVuSans-3a" d="M 750 794 
L 1409 794 
L 1409 0 
L 750 0 
L 750 794 
z
M 750 3309 
L 1409 3309 
L 1409 2516 
L 750 2516 
L 750 3309 
z
" transform="scale(0.015625)"/>
    </defs>
    <use xlink:href="#DejaVuSans-45"/>
    <use xlink:href="#DejaVuSans-61" x="63.183594"/>
    <use xlink:href="#DejaVuSans-63" x="124.462891"/>
    <use xlink:href="#DejaVuSans-68" x="179.443359"/>
    <use xlink:href="#DejaVuSans-20" x="242.822266"/>
    <use xlink:href="#DejaVuSans-62" x="274.609375"/>
    <use xlink:href="#DejaVuSans-61" x="338.085938"/>
    <use xlink:href="#DejaVuSans-72" x="399.365234"/>
    <use xlink:href="#DejaVuSans-20" x="440.478516"/>
    <use xlink:href="#DejaVuSans-72" x="472.265625"/>
    <use xlink:href="#DejaVuSans-65" x="511.128906"/>
    <use xlink:href="#DejaVuSans-70" x="572.652344"/>
    <use xlink:href="#DejaVuSans-72" x="636.128906"/>
    <use xlink:href="#DejaVuSans-65" x="674.992188"/>
    <use xlink:href="#DejaVuSans-73" x="736.515625"/>
    <use xlink:href="#DejaVuSans-65" x="788.615234"/>
    <use xlink:href="#DejaVuSans-6e" x="850.138672"/>
    <use xlink:href="#DejaVuSans-74" x="913.517578"/>
    <use xlink:href="#DejaVuSans-73" x="952.726562"/>
    <use xlink:href="#DejaVuSans-20" x="1004.826172"/>
    <use xlink:href="#DejaVuSans-64" x="1036.613281"/>
    <use xlink:href="#DejaVuSans-69" x="1100.089844"/>
    <use xlink:href="#DejaVuSans-66" x="1127.873047"/>
    <use xlink:href="#DejaVuSans-66" x="1163.078125"/>
    <use xlink:href="#DejaVuSans-65" x="1198.283203"/>
    <use xlink:href="#DejaVuSans-72" x="1259.806641"/>
    <use xlink:href="#DejaVuSans-65" x="1298.669922"/>
    <use xlink:href="#DejaVuSans-6e" x="1360.193359"/>
    <use xlink:href="#DejaVuSans-74" x="1423.572266"/>
    <use xlink:href="#DejaVuSans-20" x="1462.78125"/>
    <use xlink:href="#DejaVuSans-69" x="1494.568359"/>
    <use xlink:href="#DejaVuSans-6d" x="1522.351562"/>
    <use xlink:href="#DejaVuSans-61" x="1619.763672"/>
    <use xlink:href="#DejaVuSans-67" x="1681.042969"/>
    <use xlink:href="#DejaVuSans-65" x="1744.519531"/>
    <use xlink:href="#DejaVuSans-20" x="1806.042969"/>
    <use xlink:href="#DejaVuSans-69" x="1837.830078"/>
    <use xlink:href="#DejaVuSans-6e" x="1865.613281"/>
    <use xlink:href="#DejaVuSans-20" x="1928.992188"/>
    <use xlink:href="#DejaVuSans-6f" x="1960.779297"/>
    <use xlink:href="#DejaVuSans-72" x="2021.960938"/>
    <use xlink:href="#DejaVuSans-64" x="2061.324219"/>
    <use xlink:href="#DejaVuSans-65" x="2124.800781"/>
    <use xlink:href="#DejaVuSans-72" x="2186.324219"/>
    <use xlink:href="#DejaVuSans-3a" x="2225.6875"/>
   </g>
   <!--   laplace_30.pgm, geometr_099.pgm, laplace_20.pgm, geometr_05.pgm, normal_30.pgm, geometr_09.pgm, laplace_10.pgm, uniform.pgm, normal_50.pgm, normal_10.pgm -->
   <g transform="translate(57.6 684)scale(0.0833 -0.0833)">
    <defs>
     <path id="DejaVuSans-5f" d="M 3263 -1063 
L 3263 -1509 
L -63 -1509 
L -63 -1063 
L 3263 -1063 
z
" transform="scale(0.015625)"/>
     <path id="DejaVuSans-2e" d="M 684 794 
L 1344 794 
L 1344 0 
L 684 0 
L 684 794 
z
" transform="scale(0.015625)"/>
     <path id="DejaVuSans-2c" d="M 750 794 
L 1409 794 
L 1409 256 
L 897 -744 
L 494 -744 
L 750 256 
L 750 794 
z
" transform="scale(0.015625)"/>
     <path id="DejaVuSans-75" d="M 544 1381 
L 544 3500 
L 1119 3500 
L 1119 1403 
Q 1119 906 1312 657 
Q 1506 409 1894 409 
Q 2359 409 2629 706 
Q 2900 1003 2900 1516 
L 2900 3500 
L 3475 3500 
L 3475 0 
L 2900 0 
L 2900 538 
Q 2691 219 2414 64 
Q 2138 -91 1772 -91 
Q 1169 -91 856 284 
Q 544 659 544 1381 
z
M 1991 3584 
L 1991 3584 
z
" transform="scale(0.015625)"/>
    </defs>
    <use xlink:href="#DejaVuSans-20"/>
    <use xlink:href="#DejaVuSans-20" x="31.787109"/>
    <use xlink:href="#DejaVuSans-6c" x="63.574219"/>
    <use xlink:href="#DejaVuSans-61" x="91.357422"/>
    <use xlink:href="#DejaVuSans-70" x="152.636719"/>
    <use xlink:href="#DejaVuSans-6c" x="216.113281"/>
    <use xlink:href="#DejaVuSans-61" x="243.896484"/>
    <use xlink:href="#DejaVuSans-63" x="305.175781"/>
    <use xlink:href="#DejaVuSans-65" x="360.15625"/>
    <use xlink:href="#DejaVuSans-5f" x="421.679688"/>
    <use xlink:href="#DejaVuSans-33" x="471.679688"/>
    <use xlink:href="#DejaVuSans-30" x="535.302734"/>
    <use xlink:href="#DejaVuSans-2e" x="598.925781"/>
    <use xlink:href="#DejaVuSans-70" x="630.712891"/>
    <use xlink:href="#DejaVuSans-67" x="694.189453"/>
    <use xlink:href="#DejaVuSans-6d" x="757.666016"/>
    <use xlink:href="#DejaVuSans-2c" x="855.078125"/>
    <use xlink:href="#DejaVuSans-20" x="886.865234"/>
    <use xlink:href="#DejaVuSans-67" x="918.652344"/>
    <use xlink:href="#DejaVuSans-65" x="982.128906"/>
    <use xlink:href="#DejaVuSans-6f" x="1043.652344"/>
    <use xlink:href="#DejaVuSans-6d" x="1104.833984"/>
    <use xlink:href="#DejaVuSans-65" x="1202.246094"/>
    <use xlink:href="#DejaVuSans-74" x="1263.769531"/>
    <use xlink:href="#DejaVuSans-72" x="1302.978516"/>
    <use xlink:href="#DejaVuSans-5f" x="1344.091797"/>
    <use xlink:href="#DejaVuSans-30" x="1394.091797"/>
    <use xlink:href="#DejaVuSans-39" x="1457.714844"/>
    <use xlink:href="#DejaVuSans-39" x="1521.337891"/>
    <use xlink:href="#DejaVuSans-2e" x="1584.960938"/>
    <use xlink:href="#DejaVuSans-70" x="1616.748047"/>
    <use xlink:href="#DejaVuSans-67" x="1680.224609"/>
    <use xlink:href="#DejaVuSans-6d" x="1743.701172"/>
    <use xlink:href="#DejaVuSans-2c" x="1841.113281"/>
    <use xlink:href="#DejaVuSans-20" x="1872.900391"/>
    <use xlink:href="#DejaVuSans-6c" x="1904.6875"/>
    <use xlink:href="#DejaVuSans-61" x="1932.470703"/>
    <use xlink:href="#DejaVuSans-70" x="1993.75"/>
    <use xlink:href="#DejaVuSans-6c" x="2057.226562"/>
    <use xlink:href="#DejaVuSans-61" x="2085.009766"/>
    <use xlink:href="#DejaVuSans-63" x="2146.289062"/>
    <use xlink:href="#DejaVuSans-65" x="2201.269531"/>
    <use xlink:href="#DejaVuSans-5f" x="2262.792969"/>
    <use xlink:href="#DejaVuSans-32" x="2312.792969"/>
    <use xlink:href="#DejaVuSans-30" x="2376.416016"/>
    <use xlink:href="#DejaVuSans-2e" x="2440.039062"/>
    <use xlink:href="#DejaVuSans-70" x="2471.826172"/>
    <use xlink:href="#DejaVuSans-67" x="2535.302734"/>
    <use xlink:href="#DejaVuSans-6d" x="2598.779297"/>
    <use xlink:href="#DejaVuSans-2c" x="2696.191406"/>
    <use xlink:href="#DejaVuSans-20" x="2727.978516"/>
    <use xlink:href="#DejaVuSans-67" x="2759.765625"/>
    <use xlink:href="#DejaVuSans-65" x="2823.242188"/>
    <use xlink:href="#DejaVuSans-6f" x="2884.765625"/>
    <use xlink:href="#DejaVuSans-6d" x="2945.947266"/>
    <use xlink:href="#DejaVuSans-65" x="3043.359375"/>
    <use xlink:href="#DejaVuSans-74" x="3104.882812"/>
    <use xlink:href="#DejaVuSans-72" x="3144.091797"/>
    <use xlink:href="#DejaVuSans-5f" x="3185.205078"/>
    <use xlink:href="#DejaVuSans-30" x="3235.205078"/>
    <use xlink:href="#DejaVuSans-35" x="3298.828125"/>
    <use xlink:href="#DejaVuSans-2e" x="3362.451172"/>
    <use xlink:href="#DejaVuSans-70" x="3394.238281"/>
    <use xlink:href="#DejaVuSans-67" x="3457.714844"/>
    <use xlink:href="#DejaVuSans-6d" x="3521.191406"/>
    <use xlink:href="#DejaVuSans-2c" x="3618.603516"/>
    <use xlink:href="#DejaVuSans-20" x="3650.390625"/>
    <use xlink:href="#DejaVuSans-6e" x="3682.177734"/>
    <use xlink:href="#DejaVuSans-6f" x="3745.556641"/>
    <use xlink:href="#DejaVuSans-72" x="3806.738281"/>
    <use xlink:href="#DejaVuSans-6d" x="3846.101562"/>
    <use xlink:href="#DejaVuSans-61" x="3943.513672"/>
    <use xlink:href="#DejaVuSans-6c" x="4004.792969"/>
    <use xlink:href="#DejaVuSans-5f" x="4032.576172"/>
    <use xlink:href="#DejaVuSans-33" x="4082.576172"/>
    <use xlink:href="#DejaVuSans-30" x="4146.199219"/>
    <use xlink:href="#DejaVuSans-2e" x="4209.822266"/>
    <use xlink:href="#DejaVuSans-70" x="4241.609375"/>
    <use xlink:href="#DejaVuSans-67" x="4305.085938"/>
    <use xlink:href="#DejaVuSans-6d" x="4368.5625"/>
    <use xlink:href="#DejaVuSans-2c" x="4465.974609"/>
    <use xlink:href="#DejaVuSans-20" x="4497.761719"/>
    <use xlink:href="#DejaVuSans-67" x="4529.548828"/>
    <use xlink:href="#DejaVuSans-65" x="4593.025391"/>
    <use xlink:href="#DejaVuSans-6f" x="4654.548828"/>
    <use xlink:href="#DejaVuSans-6d" x="4715.730469"/>
    <use xlink:href="#DejaVuSans-65" x="4813.142578"/>
    <use xlink:href="#DejaVuSans-74" x="4874.666016"/>
    <use xlink:href="#DejaVuSans-72" x="4913.875"/>
    <use xlink:href="#DejaVuSans-5f" x="4954.988281"/>
    <use xlink:href="#DejaVuSans-30" x="5004.988281"/>
    <use xlink:href="#DejaVuSans-39" x="5068.611328"/>
    <use xlink:href="#DejaVuSans-2e" x="5132.234375"/>
    <use xlink:href="#DejaVuSans-70" x="5164.021484"/>
    <use xlink:href="#DejaVuSans-67" x="5227.498047"/>
    <use xlink:href="#DejaVuSans-6d" x="5290.974609"/>
    <use xlink:href="#DejaVuSans-2c" x="5388.386719"/>
    <use xlink:href="#DejaVuSans-20" x="5420.173828"/>
    <use xlink:href="#DejaVuSans-6c" x="5451.960938"/>
    <use xlink:href="#DejaVuSans-61" x="5479.744141"/>
    <use xlink:href="#DejaVuSans-70" x="5541.023438"/>
    <use xlink:href="#DejaVuSans-6c" x="5604.5"/>
    <use xlink:href="#DejaVuSans-61" x="5632.283203"/>
    <use xlink:href="#DejaVuSans-63" x="5693.5625"/>
    <use xlink:href="#DejaVuSans-65" x="5748.542969"/>
    <use xlink:href="#DejaVuSans-5f" x="5810.066406"/>
    <use xlink:href="#DejaVuSans-31" x="5860.066406"/>
    <use xlink:href="#DejaVuSans-30" x="5923.689453"/>
    <use xlink:href="#DejaVuSans-2e" x="5987.3125"/>
    <use xlink:href="#DejaVuSans-70" x="6019.099609"/>
    <use xlink:href="#DejaVuSans-67" x="6082.576172"/>
    <use xlink:href="#DejaVuSans-6d" x="6146.052734"/>
    <use xlink:href="#DejaVuSans-2c" x="6243.464844"/>
    <use xlink:href="#DejaVuSans-20" x="6275.251953"/>
    <use xlink:href="#DejaVuSans-75" x="6307.039062"/>
    <use xlink:href="#DejaVuSans-6e" x="6370.417969"/>
    <use xlink:href="#DejaVuSans-69" x="6433.796875"/>
    <use xlink:href="#DejaVuSans-66" x="6461.580078"/>
    <use xlink:href="#DejaVuSans-6f" x="6496.785156"/>
    <use xlink:href="#DejaVuSans-72" x="6557.966797"/>
    <use xlink:href="#DejaVuSans-6d" x="6597.330078"/>
    <use xlink:href="#DejaVuSans-2e" x="6694.742188"/>
    <use xlink:href="#DejaVuSans-70" x="6726.529297"/>
    <use xlink:href="#DejaVuSans-67" x="6790.005859"/>
    <use xlink:href="#DejaVuSans-6d" x="6853.482422"/>
    <use xlink:href="#DejaVuSans-2c" x="6950.894531"/>
    <use xlink:href="#DejaVuSans-20" x="6982.681641"/>
    <use xlink:href="#DejaVuSans-6e" x="7014.46875"/>
    <use xlink:href="#DejaVuSans-6f" x="7077.847656"/>
    <use xlink:href="#DejaVuSans-72" x="7139.029297"/>
    <use xlink:href="#DejaVuSans-6d" x="7178.392578"/>
    <use xlink:href="#DejaVuSans-61" x="7275.804688"/>
    <use xlink:href="#DejaVuSans-6c" x="7337.083984"/>
    <use xlink:href="#DejaVuSans-5f" x="7364.867188"/>
    <use xlink:href="#DejaVuSans-35" x="7414.867188"/>
    <use xlink:href="#DejaVuSans-30" x="7478.490234"/>
    <use xlink:href="#DejaVuSans-2e" x="7542.113281"/>
    <use xlink:href="#DejaVuSans-70" x="7573.900391"/>
    <use xlink:href="#DejaVuSans-67" x="7637.376953"/>
    <use xlink:href="#DejaVuSans-6d" x="7700.853516"/>
    <use xlink:href="#DejaVuSans-2c" x="7798.265625"/>
    <use xlink:href="#DejaVuSans-20" x="7830.052734"/>
    <use xlink:href="#DejaVuSans-6e" x="7861.839844"/>
    <use xlink:href="#DejaVuSans-6f" x="7925.21875"/>
    <use xlink:href="#DejaVuSans-72" x="7986.400391"/>
    <use xlink:href="#DejaVuSans-6d" x="8025.763672"/>
    <use xlink:href="#DejaVuSans-61" x="8123.175781"/>
    <use xlink:href="#DejaVuSans-6c" x="8184.455078"/>
    <use xlink:href="#DejaVuSans-5f" x="8212.238281"/>
    <use xlink:href="#DejaVuSans-31" x="8262.238281"/>
    <use xlink:href="#DejaVuSans-30" x="8325.861328"/>
    <use xlink:href="#DejaVuSans-2e" x="8389.484375"/>
    <use xlink:href="#DejaVuSans-70" x="8421.271484"/>
    <use xlink:href="#DejaVuSans-67" x="8484.748047"/>
    <use xlink:href="#DejaVuSans-6d" x="8548.224609"/>
   </g>
  </g>
 </g>
 <defs>
  <clipPath id="p25972ef464">
   <rect x="144" y="86.4" width="892.8" height="554.4"/>
  </clipPath>
 </defs>
</svg>
