<?xml version="1.0" encoding="utf-8" standalone="no"?>
<!DOCTYPE svg PUBLIC "-//W3C//DTD SVG 1.1//EN"
  "http://www.w3.org/Graphics/SVG/1.1/DTD/svg11.dtd">
<svg xmlns:xlink="http://www.w3.org/1999/xlink" width="1152pt" height="720pt" viewBox="0 0 1152 720" xmlns="http://www.w3.org/2000/svg" version="1.1">
 <metadata>
  <rdf:RDF xmlns:dc="http://purl.org/dc/elements/1.1/" xmlns:cc="http://creativecommons.org/ns#" xmlns:rdf="http://www.w3.org/1999/02/22-rdf-syntax-ns#">
   <cc:Work>
    <dc:type rdf:resource="http://purl.org/dc/dcmitype/StillImage"/>
    <dc:date>2022-05-16T00:28:25.184581</dc:date>
    <dc:format>image/svg+xml</dc:format>
    <dc:creator>
     <cc:Agent>
      <dc:title>Matplotlib v3.5.2, https://matplotlib.org/</dc:title>
     </cc:Agent>
    </dc:creator>
   </cc:Work>
  </rdf:RDF>
 </metadata>
 <defs>
  <style type="text/css">*{stroke-linejoin: round; stroke-linecap: butt}</style>
 </defs>
 <g id="figure_1">
  <g id="patch_1">
   <path d="M 0 720 
L 1152 720 
L 1152 0 
L 0 0 
z
" style="fill: #ffffff"/>
  </g>
  <g id="axes_1">
   <g id="patch_2">
    <path d="M 144 640.8 
L 1036.8 640.8 
L 1036.8 86.4 
L 144 86.4 
z
" style="fill: #ffffff"/>
   </g>
   <g id="patch_3">
    <path d="M 184.581818 640.8 
L 190.323386 640.8 
L 190.323386 460.022715 
L 184.581818 460.022715 
z
" clip-path="url(#p6596fadab7)" style="fill: #008000"/>
   </g>
   <g id="patch_4">
    <path d="M 233.004681 640.8 
L 238.74625 640.8 
L 238.74625 460.022715 
L 233.004681 460.022715 
z
" clip-path="url(#p6596fadab7)" style="fill: #008000"/>
   </g>
   <g id="patch_5">
    <path d="M 281.427545 640.8 
L 287.169113 640.8 
L 287.169113 460.022715 
L 281.427545 460.022715 
z
" clip-path="url(#p6596fadab7)" style="fill: #008000"/>
   </g>
   <g id="patch_6">
    <path d="M 329.850408 640.8 
L 335.591976 640.8 
L 335.591976 460.022715 
L 329.850408 460.022715 
z
" clip-path="url(#p6596fadab7)" style="fill: #008000"/>
   </g>
   <g id="patch_7">
    <path d="M 378.273271 640.8 
L 384.014839 640.8 
L 384.014839 460.022715 
L 378.273271 460.022715 
z
" clip-path="url(#p6596fadab7)" style="fill: #008000"/>
   </g>
   <g id="patch_8">
    <path d="M 426.696134 640.8 
L 432.437703 640.8 
L 432.437703 460.022715 
L 426.696134 460.022715 
z
" clip-path="url(#p6596fadab7)" style="fill: #008000"/>
   </g>
   <g id="patch_9">
    <path d="M 475.118998 640.8 
L 480.860566 640.8 
L 480.860566 460.022715 
L 475.118998 460.022715 
z
" clip-path="url(#p6596fadab7)" style="fill: #008000"/>
   </g>
   <g id="patch_10">
    <path d="M 523.541861 640.8 
L 529.283429 640.8 
L 529.283429 369.456492 
L 523.541861 369.456492 
z
" clip-path="url(#p6596fadab7)" style="fill: #008000"/>
   </g>
   <g id="patch_11">
    <path d="M 571.964724 640.8 
L 577.706292 640.8 
L 577.706292 324.039802 
L 571.964724 324.039802 
z
" clip-path="url(#p6596fadab7)" style="fill: #008000"/>
   </g>
   <g id="patch_12">
    <path d="M 620.387587 640.8 
L 626.129156 640.8 
L 626.129156 301.297947 
L 620.387587 301.297947 
z
" clip-path="url(#p6596fadab7)" style="fill: #008000"/>
   </g>
   <g id="patch_13">
    <path d="M 668.810451 640.8 
L 674.552019 640.8 
L 674.552019 289.918628 
L 668.810451 289.918628 
z
" clip-path="url(#p6596fadab7)" style="fill: #008000"/>
   </g>
   <g id="patch_14">
    <path d="M 717.233314 640.8 
L 722.974882 640.8 
L 722.974882 284.226869 
L 717.233314 284.226869 
z
" clip-path="url(#p6596fadab7)" style="fill: #008000"/>
   </g>
   <g id="patch_15">
    <path d="M 765.656177 640.8 
L 771.397745 640.8 
L 771.397745 281.380464 
L 765.656177 281.380464 
z
" clip-path="url(#p6596fadab7)" style="fill: #008000"/>
   </g>
   <g id="patch_16">
    <path d="M 814.07904 640.8 
L 819.820609 640.8 
L 819.820609 279.946096 
L 814.07904 279.946096 
z
" clip-path="url(#p6596fadab7)" style="fill: #008000"/>
   </g>
   <g id="patch_17">
    <path d="M 862.501904 640.8 
L 868.243472 640.8 
L 868.243472 254.716237 
L 862.501904 254.716237 
z
" clip-path="url(#p6596fadab7)" style="fill: #008000"/>
   </g>
   <g id="patch_18">
    <path d="M 910.924767 640.8 
L 916.666335 640.8 
L 916.666335 176.937611 
L 910.924767 176.937611 
z
" clip-path="url(#p6596fadab7)" style="fill: #008000"/>
   </g>
   <g id="patch_19">
    <path d="M 959.34763 640.8 
L 965.089198 640.8 
L 965.089198 137.872682 
L 959.34763 137.872682 
z
" clip-path="url(#p6596fadab7)" style="fill: #008000"/>
   </g>
   <g id="patch_20">
    <path d="M 184.581818 640.8 
L 190.323386 640.8 
L 190.323386 478.289943 
L 184.581818 478.289943 
z
" clip-path="url(#p6596fadab7)" style="fill: #bfbf00"/>
   </g>
   <g id="patch_21">
    <path d="M 233.004681 640.8 
L 238.74625 640.8 
L 238.74625 478.289943 
L 233.004681 478.289943 
z
" clip-path="url(#p6596fadab7)" style="fill: #bfbf00"/>
   </g>
   <g id="patch_22">
    <path d="M 281.427545 640.8 
L 287.169113 640.8 
L 287.169113 478.289943 
L 281.427545 478.289943 
z
" clip-path="url(#p6596fadab7)" style="fill: #bfbf00"/>
   </g>
   <g id="patch_23">
    <path d="M 329.850408 640.8 
L 335.591976 640.8 
L 335.591976 478.289943 
L 329.850408 478.289943 
z
" clip-path="url(#p6596fadab7)" style="fill: #bfbf00"/>
   </g>
   <g id="patch_24">
    <path d="M 378.273271 640.8 
L 384.014839 640.8 
L 384.014839 478.289943 
L 378.273271 478.289943 
z
" clip-path="url(#p6596fadab7)" style="fill: #bfbf00"/>
   </g>
   <g id="patch_25">
    <path d="M 426.696134 640.8 
L 432.437703 640.8 
L 432.437703 478.289943 
L 426.696134 478.289943 
z
" clip-path="url(#p6596fadab7)" style="fill: #bfbf00"/>
   </g>
   <g id="patch_26">
    <path d="M 475.118998 640.8 
L 480.860566 640.8 
L 480.860566 478.289943 
L 475.118998 478.289943 
z
" clip-path="url(#p6596fadab7)" style="fill: #bfbf00"/>
   </g>
   <g id="patch_27">
    <path d="M 523.541861 640.8 
L 529.283429 640.8 
L 529.283429 478.289943 
L 523.541861 478.289943 
z
" clip-path="url(#p6596fadab7)" style="fill: #bfbf00"/>
   </g>
   <g id="patch_28">
    <path d="M 571.964724 640.8 
L 577.706292 640.8 
L 577.706292 478.289943 
L 571.964724 478.289943 
z
" clip-path="url(#p6596fadab7)" style="fill: #bfbf00"/>
   </g>
   <g id="patch_29">
    <path d="M 620.387587 640.8 
L 626.129156 640.8 
L 626.129156 478.289943 
L 620.387587 478.289943 
z
" clip-path="url(#p6596fadab7)" style="fill: #bfbf00"/>
   </g>
   <g id="patch_30">
    <path d="M 668.810451 640.8 
L 674.552019 640.8 
L 674.552019 478.289943 
L 668.810451 478.289943 
z
" clip-path="url(#p6596fadab7)" style="fill: #bfbf00"/>
   </g>
   <g id="patch_31">
    <path d="M 717.233314 640.8 
L 722.974882 640.8 
L 722.974882 478.289943 
L 717.233314 478.289943 
z
" clip-path="url(#p6596fadab7)" style="fill: #bfbf00"/>
   </g>
   <g id="patch_32">
    <path d="M 765.656177 640.8 
L 771.397745 640.8 
L 771.397745 478.289943 
L 765.656177 478.289943 
z
" clip-path="url(#p6596fadab7)" style="fill: #bfbf00"/>
   </g>
   <g id="patch_33">
    <path d="M 814.07904 640.8 
L 819.820609 640.8 
L 819.820609 478.289943 
L 814.07904 478.289943 
z
" clip-path="url(#p6596fadab7)" style="fill: #bfbf00"/>
   </g>
   <g id="patch_34">
    <path d="M 862.501904 640.8 
L 868.243472 640.8 
L 868.243472 478.289943 
L 862.501904 478.289943 
z
" clip-path="url(#p6596fadab7)" style="fill: #bfbf00"/>
   </g>
   <g id="patch_35">
    <path d="M 910.924767 640.8 
L 916.666335 640.8 
L 916.666335 478.289943 
L 910.924767 478.289943 
z
" clip-path="url(#p6596fadab7)" style="fill: #bfbf00"/>
   </g>
   <g id="patch_36">
    <path d="M 959.34763 640.8 
L 965.089198 640.8 
L 965.089198 478.289943 
L 959.34763 478.289943 
z
" clip-path="url(#p6596fadab7)" style="fill: #bfbf00"/>
   </g>
   <g id="patch_37">
    <path d="M 190.807615 640.8 
L 196.549183 640.8 
L 196.549183 460.022715 
L 190.807615 460.022715 
z
" clip-path="url(#p6596fadab7)" style="fill: #008000"/>
   </g>
   <g id="patch_38">
    <path d="M 239.230478 640.8 
L 244.972046 640.8 
L 244.972046 460.022715 
L 239.230478 460.022715 
z
" clip-path="url(#p6596fadab7)" style="fill: #008000"/>
   </g>
   <g id="patch_39">
    <path d="M 287.653341 640.8 
L 293.394909 640.8 
L 293.394909 460.022715 
L 287.653341 460.022715 
z
" clip-path="url(#p6596fadab7)" style="fill: #008000"/>
   </g>
   <g id="patch_40">
    <path d="M 336.076205 640.8 
L 341.817773 640.8 
L 341.817773 460.022715 
L 336.076205 460.022715 
z
" clip-path="url(#p6596fadab7)" style="fill: #008000"/>
   </g>
   <g id="patch_41">
    <path d="M 384.499068 640.8 
L 390.240636 640.8 
L 390.240636 460.022715 
L 384.499068 460.022715 
z
" clip-path="url(#p6596fadab7)" style="fill: #008000"/>
   </g>
   <g id="patch_42">
    <path d="M 432.921931 640.8 
L 438.663499 640.8 
L 438.663499 460.022715 
L 432.921931 460.022715 
z
" clip-path="url(#p6596fadab7)" style="fill: #008000"/>
   </g>
   <g id="patch_43">
    <path d="M 481.344794 640.8 
L 487.086362 640.8 
L 487.086362 460.022715 
L 481.344794 460.022715 
z
" clip-path="url(#p6596fadab7)" style="fill: #008000"/>
   </g>
   <g id="patch_44">
    <path d="M 529.767658 640.8 
L 535.509226 640.8 
L 535.509226 369.431861 
L 529.767658 369.431861 
z
" clip-path="url(#p6596fadab7)" style="fill: #008000"/>
   </g>
   <g id="patch_45">
    <path d="M 578.190521 640.8 
L 583.932089 640.8 
L 583.932089 323.984266 
L 578.190521 323.984266 
z
" clip-path="url(#p6596fadab7)" style="fill: #008000"/>
   </g>
   <g id="patch_46">
    <path d="M 626.613384 640.8 
L 632.354952 640.8 
L 632.354952 298.691593 
L 626.613384 298.691593 
z
" clip-path="url(#p6596fadab7)" style="fill: #008000"/>
   </g>
   <g id="patch_47">
    <path d="M 675.036247 640.8 
L 680.777815 640.8 
L 680.777815 288.565704 
L 675.036247 288.565704 
z
" clip-path="url(#p6596fadab7)" style="fill: #008000"/>
   </g>
   <g id="patch_48">
    <path d="M 723.459111 640.8 
L 729.200679 640.8 
L 729.200679 283.500868 
L 723.459111 283.500868 
z
" clip-path="url(#p6596fadab7)" style="fill: #008000"/>
   </g>
   <g id="patch_49">
    <path d="M 771.881974 640.8 
L 777.623542 640.8 
L 777.623542 280.933277 
L 771.881974 280.933277 
z
" clip-path="url(#p6596fadab7)" style="fill: #008000"/>
   </g>
   <g id="patch_50">
    <path d="M 820.304837 640.8 
L 826.046405 640.8 
L 826.046405 279.684062 
L 820.304837 279.684062 
z
" clip-path="url(#p6596fadab7)" style="fill: #008000"/>
   </g>
   <g id="patch_51">
    <path d="M 868.7277 640.8 
L 874.469268 640.8 
L 874.469268 220.444395 
L 868.7277 220.444395 
z
" clip-path="url(#p6596fadab7)" style="fill: #008000"/>
   </g>
   <g id="patch_52">
    <path d="M 917.150564 640.8 
L 922.892132 640.8 
L 922.892132 159.562753 
L 917.150564 159.562753 
z
" clip-path="url(#p6596fadab7)" style="fill: #008000"/>
   </g>
   <g id="patch_53">
    <path d="M 965.573427 640.8 
L 971.314995 640.8 
L 971.314995 128.737747 
L 965.573427 128.737747 
z
" clip-path="url(#p6596fadab7)" style="fill: #008000"/>
   </g>
   <g id="patch_54">
    <path d="M 190.807615 640.8 
L 196.549183 640.8 
L 196.549183 476.004233 
L 190.807615 476.004233 
z
" clip-path="url(#p6596fadab7)" style="fill: #bfbf00"/>
   </g>
   <g id="patch_55">
    <path d="M 239.230478 640.8 
L 244.972046 640.8 
L 244.972046 476.004233 
L 239.230478 476.004233 
z
" clip-path="url(#p6596fadab7)" style="fill: #bfbf00"/>
   </g>
   <g id="patch_56">
    <path d="M 287.653341 640.8 
L 293.394909 640.8 
L 293.394909 476.004233 
L 287.653341 476.004233 
z
" clip-path="url(#p6596fadab7)" style="fill: #bfbf00"/>
   </g>
   <g id="patch_57">
    <path d="M 336.076205 640.8 
L 341.817773 640.8 
L 341.817773 476.004233 
L 336.076205 476.004233 
z
" clip-path="url(#p6596fadab7)" style="fill: #bfbf00"/>
   </g>
   <g id="patch_58">
    <path d="M 384.499068 640.8 
L 390.240636 640.8 
L 390.240636 476.004233 
L 384.499068 476.004233 
z
" clip-path="url(#p6596fadab7)" style="fill: #bfbf00"/>
   </g>
   <g id="patch_59">
    <path d="M 432.921931 640.8 
L 438.663499 640.8 
L 438.663499 476.004233 
L 432.921931 476.004233 
z
" clip-path="url(#p6596fadab7)" style="fill: #bfbf00"/>
   </g>
   <g id="patch_60">
    <path d="M 481.344794 640.8 
L 487.086362 640.8 
L 487.086362 476.004233 
L 481.344794 476.004233 
z
" clip-path="url(#p6596fadab7)" style="fill: #bfbf00"/>
   </g>
   <g id="patch_61">
    <path d="M 529.767658 640.8 
L 535.509226 640.8 
L 535.509226 476.004233 
L 529.767658 476.004233 
z
" clip-path="url(#p6596fadab7)" style="fill: #bfbf00"/>
   </g>
   <g id="patch_62">
    <path d="M 578.190521 640.8 
L 583.932089 640.8 
L 583.932089 476.004233 
L 578.190521 476.004233 
z
" clip-path="url(#p6596fadab7)" style="fill: #bfbf00"/>
   </g>
   <g id="patch_63">
    <path d="M 626.613384 640.8 
L 632.354952 640.8 
L 632.354952 476.004233 
L 626.613384 476.004233 
z
" clip-path="url(#p6596fadab7)" style="fill: #bfbf00"/>
   </g>
   <g id="patch_64">
    <path d="M 675.036247 640.8 
L 680.777815 640.8 
L 680.777815 476.004233 
L 675.036247 476.004233 
z
" clip-path="url(#p6596fadab7)" style="fill: #bfbf00"/>
   </g>
   <g id="patch_65">
    <path d="M 723.459111 640.8 
L 729.200679 640.8 
L 729.200679 476.004233 
L 723.459111 476.004233 
z
" clip-path="url(#p6596fadab7)" style="fill: #bfbf00"/>
   </g>
   <g id="patch_66">
    <path d="M 771.881974 640.8 
L 777.623542 640.8 
L 777.623542 476.004233 
L 771.881974 476.004233 
z
" clip-path="url(#p6596fadab7)" style="fill: #bfbf00"/>
   </g>
   <g id="patch_67">
    <path d="M 820.304837 640.8 
L 826.046405 640.8 
L 826.046405 476.004233 
L 820.304837 476.004233 
z
" clip-path="url(#p6596fadab7)" style="fill: #bfbf00"/>
   </g>
   <g id="patch_68">
    <path d="M 868.7277 640.8 
L 874.469268 640.8 
L 874.469268 476.004233 
L 868.7277 476.004233 
z
" clip-path="url(#p6596fadab7)" style="fill: #bfbf00"/>
   </g>
   <g id="patch_69">
    <path d="M 917.150564 640.8 
L 922.892132 640.8 
L 922.892132 476.004233 
L 917.150564 476.004233 
z
" clip-path="url(#p6596fadab7)" style="fill: #bfbf00"/>
   </g>
   <g id="patch_70">
    <path d="M 965.573427 640.8 
L 971.314995 640.8 
L 971.314995 476.004233 
L 965.573427 476.004233 
z
" clip-path="url(#p6596fadab7)" style="fill: #bfbf00"/>
   </g>
   <g id="patch_71">
    <path d="M 197.033412 640.8 
L 202.77498 640.8 
L 202.77498 460.022715 
L 197.033412 460.022715 
z
" clip-path="url(#p6596fadab7)" style="fill: #008000"/>
   </g>
   <g id="patch_72">
    <path d="M 245.456275 640.8 
L 251.197843 640.8 
L 251.197843 460.022715 
L 245.456275 460.022715 
z
" clip-path="url(#p6596fadab7)" style="fill: #008000"/>
   </g>
   <g id="patch_73">
    <path d="M 293.879138 640.8 
L 299.620706 640.8 
L 299.620706 460.022715 
L 293.879138 460.022715 
z
" clip-path="url(#p6596fadab7)" style="fill: #008000"/>
   </g>
   <g id="patch_74">
    <path d="M 342.302001 640.8 
L 348.043569 640.8 
L 348.043569 460.022715 
L 342.302001 460.022715 
z
" clip-path="url(#p6596fadab7)" style="fill: #008000"/>
   </g>
   <g id="patch_75">
    <path d="M 390.724865 640.8 
L 396.466433 640.8 
L 396.466433 460.022715 
L 390.724865 460.022715 
z
" clip-path="url(#p6596fadab7)" style="fill: #008000"/>
   </g>
   <g id="patch_76">
    <path d="M 439.147728 640.8 
L 444.889296 640.8 
L 444.889296 460.022715 
L 439.147728 460.022715 
z
" clip-path="url(#p6596fadab7)" style="fill: #008000"/>
   </g>
   <g id="patch_77">
    <path d="M 487.570591 640.8 
L 493.312159 640.8 
L 493.312159 460.022715 
L 487.570591 460.022715 
z
" clip-path="url(#p6596fadab7)" style="fill: #008000"/>
   </g>
   <g id="patch_78">
    <path d="M 535.993454 640.8 
L 541.735022 640.8 
L 541.735022 369.457187 
L 535.993454 369.457187 
z
" clip-path="url(#p6596fadab7)" style="fill: #008000"/>
   </g>
   <g id="patch_79">
    <path d="M 584.416318 640.8 
L 590.157886 640.8 
L 590.157886 324.041369 
L 584.416318 324.041369 
z
" clip-path="url(#p6596fadab7)" style="fill: #008000"/>
   </g>
   <g id="patch_80">
    <path d="M 632.839181 640.8 
L 638.580749 640.8 
L 638.580749 301.300082 
L 632.839181 301.300082 
z
" clip-path="url(#p6596fadab7)" style="fill: #008000"/>
   </g>
   <g id="patch_81">
    <path d="M 681.262044 640.8 
L 687.003612 640.8 
L 687.003612 289.92108 
L 681.262044 289.92108 
z
" clip-path="url(#p6596fadab7)" style="fill: #008000"/>
   </g>
   <g id="patch_82">
    <path d="M 729.684907 640.8 
L 735.426475 640.8 
L 735.426475 267.283694 
L 729.684907 267.283694 
z
" clip-path="url(#p6596fadab7)" style="fill: #008000"/>
   </g>
   <g id="patch_83">
    <path d="M 778.107771 640.8 
L 783.849339 640.8 
L 783.849339 227.7182 
L 778.107771 227.7182 
z
" clip-path="url(#p6596fadab7)" style="fill: #008000"/>
   </g>
   <g id="patch_84">
    <path d="M 826.530634 640.8 
L 832.272202 640.8 
L 832.272202 223.468707 
L 826.530634 223.468707 
z
" clip-path="url(#p6596fadab7)" style="fill: #008000"/>
   </g>
   <g id="patch_85">
    <path d="M 874.953497 640.8 
L 880.695065 640.8 
L 880.695065 192.391694 
L 874.953497 192.391694 
z
" clip-path="url(#p6596fadab7)" style="fill: #008000"/>
   </g>
   <g id="patch_86">
    <path d="M 923.37636 640.8 
L 929.117928 640.8 
L 929.117928 153.68431 
L 923.37636 153.68431 
z
" clip-path="url(#p6596fadab7)" style="fill: #008000"/>
   </g>
   <g id="patch_87">
    <path d="M 971.799224 640.8 
L 977.540792 640.8 
L 977.540792 123.787489 
L 971.799224 123.787489 
z
" clip-path="url(#p6596fadab7)" style="fill: #008000"/>
   </g>
   <g id="patch_88">
    <path d="M 197.033412 640.8 
L 202.77498 640.8 
L 202.77498 502.639542 
L 197.033412 502.639542 
z
" clip-path="url(#p6596fadab7)" style="fill: #bfbf00"/>
   </g>
   <g id="patch_89">
    <path d="M 245.456275 640.8 
L 251.197843 640.8 
L 251.197843 502.639542 
L 245.456275 502.639542 
z
" clip-path="url(#p6596fadab7)" style="fill: #bfbf00"/>
   </g>
   <g id="patch_90">
    <path d="M 293.879138 640.8 
L 299.620706 640.8 
L 299.620706 502.639542 
L 293.879138 502.639542 
z
" clip-path="url(#p6596fadab7)" style="fill: #bfbf00"/>
   </g>
   <g id="patch_91">
    <path d="M 342.302001 640.8 
L 348.043569 640.8 
L 348.043569 502.639542 
L 342.302001 502.639542 
z
" clip-path="url(#p6596fadab7)" style="fill: #bfbf00"/>
   </g>
   <g id="patch_92">
    <path d="M 390.724865 640.8 
L 396.466433 640.8 
L 396.466433 502.639542 
L 390.724865 502.639542 
z
" clip-path="url(#p6596fadab7)" style="fill: #bfbf00"/>
   </g>
   <g id="patch_93">
    <path d="M 439.147728 640.8 
L 444.889296 640.8 
L 444.889296 502.639542 
L 439.147728 502.639542 
z
" clip-path="url(#p6596fadab7)" style="fill: #bfbf00"/>
   </g>
   <g id="patch_94">
    <path d="M 487.570591 640.8 
L 493.312159 640.8 
L 493.312159 502.639542 
L 487.570591 502.639542 
z
" clip-path="url(#p6596fadab7)" style="fill: #bfbf00"/>
   </g>
   <g id="patch_95">
    <path d="M 535.993454 640.8 
L 541.735022 640.8 
L 541.735022 502.639542 
L 535.993454 502.639542 
z
" clip-path="url(#p6596fadab7)" style="fill: #bfbf00"/>
   </g>
   <g id="patch_96">
    <path d="M 584.416318 640.8 
L 590.157886 640.8 
L 590.157886 502.639542 
L 584.416318 502.639542 
z
" clip-path="url(#p6596fadab7)" style="fill: #bfbf00"/>
   </g>
   <g id="patch_97">
    <path d="M 632.839181 640.8 
L 638.580749 640.8 
L 638.580749 502.639542 
L 632.839181 502.639542 
z
" clip-path="url(#p6596fadab7)" style="fill: #bfbf00"/>
   </g>
   <g id="patch_98">
    <path d="M 681.262044 640.8 
L 687.003612 640.8 
L 687.003612 502.639542 
L 681.262044 502.639542 
z
" clip-path="url(#p6596fadab7)" style="fill: #bfbf00"/>
   </g>
   <g id="patch_99">
    <path d="M 729.684907 640.8 
L 735.426475 640.8 
L 735.426475 502.639542 
L 729.684907 502.639542 
z
" clip-path="url(#p6596fadab7)" style="fill: #bfbf00"/>
   </g>
   <g id="patch_100">
    <path d="M 778.107771 640.8 
L 783.849339 640.8 
L 783.849339 502.639542 
L 778.107771 502.639542 
z
" clip-path="url(#p6596fadab7)" style="fill: #bfbf00"/>
   </g>
   <g id="patch_101">
    <path d="M 826.530634 640.8 
L 832.272202 640.8 
L 832.272202 502.639542 
L 826.530634 502.639542 
z
" clip-path="url(#p6596fadab7)" style="fill: #bfbf00"/>
   </g>
   <g id="patch_102">
    <path d="M 874.953497 640.8 
L 880.695065 640.8 
L 880.695065 502.639542 
L 874.953497 502.639542 
z
" clip-path="url(#p6596fadab7)" style="fill: #bfbf00"/>
   </g>
   <g id="patch_103">
    <path d="M 923.37636 640.8 
L 929.117928 640.8 
L 929.117928 502.639542 
L 923.37636 502.639542 
z
" clip-path="url(#p6596fadab7)" style="fill: #bfbf00"/>
   </g>
   <g id="patch_104">
    <path d="M 971.799224 640.8 
L 977.540792 640.8 
L 977.540792 502.639542 
L 971.799224 502.639542 
z
" clip-path="url(#p6596fadab7)" style="fill: #bfbf00"/>
   </g>
   <g id="patch_105">
    <path d="M 203.259208 640.8 
L 209.000776 640.8 
L 209.000776 460.022715 
L 203.259208 460.022715 
z
" clip-path="url(#p6596fadab7)" style="fill: #008000"/>
   </g>
   <g id="patch_106">
    <path d="M 251.682072 640.8 
L 257.42364 640.8 
L 257.42364 460.022715 
L 251.682072 460.022715 
z
" clip-path="url(#p6596fadab7)" style="fill: #008000"/>
   </g>
   <g id="patch_107">
    <path d="M 300.104935 640.8 
L 305.846503 640.8 
L 305.846503 460.022715 
L 300.104935 460.022715 
z
" clip-path="url(#p6596fadab7)" style="fill: #008000"/>
   </g>
   <g id="patch_108">
    <path d="M 348.527798 640.8 
L 354.269366 640.8 
L 354.269366 460.022715 
L 348.527798 460.022715 
z
" clip-path="url(#p6596fadab7)" style="fill: #008000"/>
   </g>
   <g id="patch_109">
    <path d="M 396.950661 640.8 
L 402.692229 640.8 
L 402.692229 460.022715 
L 396.950661 460.022715 
z
" clip-path="url(#p6596fadab7)" style="fill: #008000"/>
   </g>
   <g id="patch_110">
    <path d="M 445.373525 640.8 
L 451.115093 640.8 
L 451.115093 460.022715 
L 445.373525 460.022715 
z
" clip-path="url(#p6596fadab7)" style="fill: #008000"/>
   </g>
   <g id="patch_111">
    <path d="M 493.796388 640.8 
L 499.537956 640.8 
L 499.537956 460.022715 
L 493.796388 460.022715 
z
" clip-path="url(#p6596fadab7)" style="fill: #008000"/>
   </g>
   <g id="patch_112">
    <path d="M 542.219251 640.8 
L 547.960819 640.8 
L 547.960819 369.441347 
L 542.219251 369.441347 
z
" clip-path="url(#p6596fadab7)" style="fill: #008000"/>
   </g>
   <g id="patch_113">
    <path d="M 590.642114 640.8 
L 596.383682 640.8 
L 596.383682 324.005655 
L 590.642114 324.005655 
z
" clip-path="url(#p6596fadab7)" style="fill: #008000"/>
   </g>
   <g id="patch_114">
    <path d="M 639.064978 640.8 
L 644.806546 640.8 
L 644.806546 301.251421 
L 639.064978 301.251421 
z
" clip-path="url(#p6596fadab7)" style="fill: #008000"/>
   </g>
   <g id="patch_115">
    <path d="M 687.487841 640.8 
L 693.229409 640.8 
L 693.229409 289.195223 
L 687.487841 289.195223 
z
" clip-path="url(#p6596fadab7)" style="fill: #008000"/>
   </g>
   <g id="patch_116">
    <path d="M 735.910704 640.8 
L 741.652272 640.8 
L 741.652272 283.681547 
L 735.910704 283.681547 
z
" clip-path="url(#p6596fadab7)" style="fill: #008000"/>
   </g>
   <g id="patch_117">
    <path d="M 784.333567 640.8 
L 790.075135 640.8 
L 790.075135 281.077372 
L 784.333567 281.077372 
z
" clip-path="url(#p6596fadab7)" style="fill: #008000"/>
   </g>
   <g id="patch_118">
    <path d="M 832.756431 640.8 
L 838.497999 640.8 
L 838.497999 279.775165 
L 832.756431 279.775165 
z
" clip-path="url(#p6596fadab7)" style="fill: #008000"/>
   </g>
   <g id="patch_119">
    <path d="M 881.179294 640.8 
L 886.920862 640.8 
L 886.920862 243.614749 
L 881.179294 243.614749 
z
" clip-path="url(#p6596fadab7)" style="fill: #008000"/>
   </g>
   <g id="patch_120">
    <path d="M 929.602157 640.8 
L 935.343725 640.8 
L 935.343725 170.655728 
L 929.602157 170.655728 
z
" clip-path="url(#p6596fadab7)" style="fill: #008000"/>
   </g>
   <g id="patch_121">
    <path d="M 978.02502 640.8 
L 983.766588 640.8 
L 983.766588 134.1758 
L 978.02502 134.1758 
z
" clip-path="url(#p6596fadab7)" style="fill: #008000"/>
   </g>
   <g id="patch_122">
    <path d="M 203.259208 640.8 
L 209.000776 640.8 
L 209.000776 468.333086 
L 203.259208 468.333086 
z
" clip-path="url(#p6596fadab7)" style="fill: #bfbf00"/>
   </g>
   <g id="patch_123">
    <path d="M 251.682072 640.8 
L 257.42364 640.8 
L 257.42364 468.333086 
L 251.682072 468.333086 
z
" clip-path="url(#p6596fadab7)" style="fill: #bfbf00"/>
   </g>
   <g id="patch_124">
    <path d="M 300.104935 640.8 
L 305.846503 640.8 
L 305.846503 468.333086 
L 300.104935 468.333086 
z
" clip-path="url(#p6596fadab7)" style="fill: #bfbf00"/>
   </g>
   <g id="patch_125">
    <path d="M 348.527798 640.8 
L 354.269366 640.8 
L 354.269366 468.333086 
L 348.527798 468.333086 
z
" clip-path="url(#p6596fadab7)" style="fill: #bfbf00"/>
   </g>
   <g id="patch_126">
    <path d="M 396.950661 640.8 
L 402.692229 640.8 
L 402.692229 468.333086 
L 396.950661 468.333086 
z
" clip-path="url(#p6596fadab7)" style="fill: #bfbf00"/>
   </g>
   <g id="patch_127">
    <path d="M 445.373525 640.8 
L 451.115093 640.8 
L 451.115093 468.333086 
L 445.373525 468.333086 
z
" clip-path="url(#p6596fadab7)" style="fill: #bfbf00"/>
   </g>
   <g id="patch_128">
    <path d="M 493.796388 640.8 
L 499.537956 640.8 
L 499.537956 468.333086 
L 493.796388 468.333086 
z
" clip-path="url(#p6596fadab7)" style="fill: #bfbf00"/>
   </g>
   <g id="patch_129">
    <path d="M 542.219251 640.8 
L 547.960819 640.8 
L 547.960819 468.333086 
L 542.219251 468.333086 
z
" clip-path="url(#p6596fadab7)" style="fill: #bfbf00"/>
   </g>
   <g id="patch_130">
    <path d="M 590.642114 640.8 
L 596.383682 640.8 
L 596.383682 468.333086 
L 590.642114 468.333086 
z
" clip-path="url(#p6596fadab7)" style="fill: #bfbf00"/>
   </g>
   <g id="patch_131">
    <path d="M 639.064978 640.8 
L 644.806546 640.8 
L 644.806546 468.333086 
L 639.064978 468.333086 
z
" clip-path="url(#p6596fadab7)" style="fill: #bfbf00"/>
   </g>
   <g id="patch_132">
    <path d="M 687.487841 640.8 
L 693.229409 640.8 
L 693.229409 468.333086 
L 687.487841 468.333086 
z
" clip-path="url(#p6596fadab7)" style="fill: #bfbf00"/>
   </g>
   <g id="patch_133">
    <path d="M 735.910704 640.8 
L 741.652272 640.8 
L 741.652272 468.333086 
L 735.910704 468.333086 
z
" clip-path="url(#p6596fadab7)" style="fill: #bfbf00"/>
   </g>
   <g id="patch_134">
    <path d="M 784.333567 640.8 
L 790.075135 640.8 
L 790.075135 468.333086 
L 784.333567 468.333086 
z
" clip-path="url(#p6596fadab7)" style="fill: #bfbf00"/>
   </g>
   <g id="patch_135">
    <path d="M 832.756431 640.8 
L 838.497999 640.8 
L 838.497999 468.333086 
L 832.756431 468.333086 
z
" clip-path="url(#p6596fadab7)" style="fill: #bfbf00"/>
   </g>
   <g id="patch_136">
    <path d="M 881.179294 640.8 
L 886.920862 640.8 
L 886.920862 468.333086 
L 881.179294 468.333086 
z
" clip-path="url(#p6596fadab7)" style="fill: #bfbf00"/>
   </g>
   <g id="patch_137">
    <path d="M 929.602157 640.8 
L 935.343725 640.8 
L 935.343725 468.333086 
L 929.602157 468.333086 
z
" clip-path="url(#p6596fadab7)" style="fill: #bfbf00"/>
   </g>
   <g id="patch_138">
    <path d="M 978.02502 640.8 
L 983.766588 640.8 
L 983.766588 468.333086 
L 978.02502 468.333086 
z
" clip-path="url(#p6596fadab7)" style="fill: #bfbf00"/>
   </g>
   <g id="patch_139">
    <path d="M 209.485005 640.8 
L 215.226573 640.8 
L 215.226573 460.022715 
L 209.485005 460.022715 
z
" clip-path="url(#p6596fadab7)" style="fill: #008000"/>
   </g>
   <g id="patch_140">
    <path d="M 257.907868 640.8 
L 263.649436 640.8 
L 263.649436 460.022715 
L 257.907868 460.022715 
z
" clip-path="url(#p6596fadab7)" style="fill: #008000"/>
   </g>
   <g id="patch_141">
    <path d="M 306.330732 640.8 
L 312.0723 640.8 
L 312.0723 460.022715 
L 306.330732 460.022715 
z
" clip-path="url(#p6596fadab7)" style="fill: #008000"/>
   </g>
   <g id="patch_142">
    <path d="M 354.753595 640.8 
L 360.495163 640.8 
L 360.495163 460.022715 
L 354.753595 460.022715 
z
" clip-path="url(#p6596fadab7)" style="fill: #008000"/>
   </g>
   <g id="patch_143">
    <path d="M 403.176458 640.8 
L 408.918026 640.8 
L 408.918026 460.022715 
L 403.176458 460.022715 
z
" clip-path="url(#p6596fadab7)" style="fill: #008000"/>
   </g>
   <g id="patch_144">
    <path d="M 451.599321 640.8 
L 457.340889 640.8 
L 457.340889 460.022715 
L 451.599321 460.022715 
z
" clip-path="url(#p6596fadab7)" style="fill: #008000"/>
   </g>
   <g id="patch_145">
    <path d="M 500.022185 640.8 
L 505.763753 640.8 
L 505.763753 460.022715 
L 500.022185 460.022715 
z
" clip-path="url(#p6596fadab7)" style="fill: #008000"/>
   </g>
   <g id="patch_146">
    <path d="M 548.445048 640.8 
L 554.186616 640.8 
L 554.186616 369.424354 
L 548.445048 369.424354 
z
" clip-path="url(#p6596fadab7)" style="fill: #008000"/>
   </g>
   <g id="patch_147">
    <path d="M 596.867911 640.8 
L 602.609479 640.8 
L 602.609479 323.967337 
L 596.867911 323.967337 
z
" clip-path="url(#p6596fadab7)" style="fill: #008000"/>
   </g>
   <g id="patch_148">
    <path d="M 645.290774 640.8 
L 651.032342 640.8 
L 651.032342 298.667783 
L 645.290774 298.667783 
z
" clip-path="url(#p6596fadab7)" style="fill: #008000"/>
   </g>
   <g id="patch_149">
    <path d="M 693.713638 640.8 
L 699.455206 640.8 
L 699.455206 288.005563 
L 693.713638 288.005563 
z
" clip-path="url(#p6596fadab7)" style="fill: #008000"/>
   </g>
   <g id="patch_150">
    <path d="M 742.136501 640.8 
L 747.878069 640.8 
L 747.878069 283.205672 
L 742.136501 283.205672 
z
" clip-path="url(#p6596fadab7)" style="fill: #008000"/>
   </g>
   <g id="patch_151">
    <path d="M 790.559364 640.8 
L 796.300932 640.8 
L 796.300932 280.805286 
L 790.559364 280.805286 
z
" clip-path="url(#p6596fadab7)" style="fill: #008000"/>
   </g>
   <g id="patch_152">
    <path d="M 838.982227 640.8 
L 844.723795 640.8 
L 844.723795 279.604983 
L 838.982227 279.604983 
z
" clip-path="url(#p6596fadab7)" style="fill: #008000"/>
   </g>
   <g id="patch_153">
    <path d="M 887.405091 640.8 
L 893.146659 640.8 
L 893.146659 218.350195 
L 887.405091 218.350195 
z
" clip-path="url(#p6596fadab7)" style="fill: #008000"/>
   </g>
   <g id="patch_154">
    <path d="M 935.827954 640.8 
L 941.569522 640.8 
L 941.569522 158.186945 
L 935.827954 158.186945 
z
" clip-path="url(#p6596fadab7)" style="fill: #008000"/>
   </g>
   <g id="patch_155">
    <path d="M 984.250817 640.8 
L 989.992385 640.8 
L 989.992385 128.030708 
L 984.250817 128.030708 
z
" clip-path="url(#p6596fadab7)" style="fill: #008000"/>
   </g>
   <g id="patch_156">
    <path d="M 209.485005 640.8 
L 215.226573 640.8 
L 215.226573 472.558374 
L 209.485005 472.558374 
z
" clip-path="url(#p6596fadab7)" style="fill: #bfbf00"/>
   </g>
   <g id="patch_157">
    <path d="M 257.907868 640.8 
L 263.649436 640.8 
L 263.649436 472.558374 
L 257.907868 472.558374 
z
" clip-path="url(#p6596fadab7)" style="fill: #bfbf00"/>
   </g>
   <g id="patch_158">
    <path d="M 306.330732 640.8 
L 312.0723 640.8 
L 312.0723 472.558374 
L 306.330732 472.558374 
z
" clip-path="url(#p6596fadab7)" style="fill: #bfbf00"/>
   </g>
   <g id="patch_159">
    <path d="M 354.753595 640.8 
L 360.495163 640.8 
L 360.495163 472.558374 
L 354.753595 472.558374 
z
" clip-path="url(#p6596fadab7)" style="fill: #bfbf00"/>
   </g>
   <g id="patch_160">
    <path d="M 403.176458 640.8 
L 408.918026 640.8 
L 408.918026 472.558374 
L 403.176458 472.558374 
z
" clip-path="url(#p6596fadab7)" style="fill: #bfbf00"/>
   </g>
   <g id="patch_161">
    <path d="M 451.599321 640.8 
L 457.340889 640.8 
L 457.340889 472.558374 
L 451.599321 472.558374 
z
" clip-path="url(#p6596fadab7)" style="fill: #bfbf00"/>
   </g>
   <g id="patch_162">
    <path d="M 500.022185 640.8 
L 505.763753 640.8 
L 505.763753 472.558374 
L 500.022185 472.558374 
z
" clip-path="url(#p6596fadab7)" style="fill: #bfbf00"/>
   </g>
   <g id="patch_163">
    <path d="M 548.445048 640.8 
L 554.186616 640.8 
L 554.186616 472.558374 
L 548.445048 472.558374 
z
" clip-path="url(#p6596fadab7)" style="fill: #bfbf00"/>
   </g>
   <g id="patch_164">
    <path d="M 596.867911 640.8 
L 602.609479 640.8 
L 602.609479 472.558374 
L 596.867911 472.558374 
z
" clip-path="url(#p6596fadab7)" style="fill: #bfbf00"/>
   </g>
   <g id="patch_165">
    <path d="M 645.290774 640.8 
L 651.032342 640.8 
L 651.032342 472.558374 
L 645.290774 472.558374 
z
" clip-path="url(#p6596fadab7)" style="fill: #bfbf00"/>
   </g>
   <g id="patch_166">
    <path d="M 693.713638 640.8 
L 699.455206 640.8 
L 699.455206 472.558374 
L 693.713638 472.558374 
z
" clip-path="url(#p6596fadab7)" style="fill: #bfbf00"/>
   </g>
   <g id="patch_167">
    <path d="M 742.136501 640.8 
L 747.878069 640.8 
L 747.878069 472.558374 
L 742.136501 472.558374 
z
" clip-path="url(#p6596fadab7)" style="fill: #bfbf00"/>
   </g>
   <g id="patch_168">
    <path d="M 790.559364 640.8 
L 796.300932 640.8 
L 796.300932 472.558374 
L 790.559364 472.558374 
z
" clip-path="url(#p6596fadab7)" style="fill: #bfbf00"/>
   </g>
   <g id="patch_169">
    <path d="M 838.982227 640.8 
L 844.723795 640.8 
L 844.723795 472.558374 
L 838.982227 472.558374 
z
" clip-path="url(#p6596fadab7)" style="fill: #bfbf00"/>
   </g>
   <g id="patch_170">
    <path d="M 887.405091 640.8 
L 893.146659 640.8 
L 893.146659 472.558374 
L 887.405091 472.558374 
z
" clip-path="url(#p6596fadab7)" style="fill: #bfbf00"/>
   </g>
   <g id="patch_171">
    <path d="M 935.827954 640.8 
L 941.569522 640.8 
L 941.569522 472.558374 
L 935.827954 472.558374 
z
" clip-path="url(#p6596fadab7)" style="fill: #bfbf00"/>
   </g>
   <g id="patch_172">
    <path d="M 984.250817 640.8 
L 989.992385 640.8 
L 989.992385 472.558374 
L 984.250817 472.558374 
z
" clip-path="url(#p6596fadab7)" style="fill: #bfbf00"/>
   </g>
   <g id="patch_173">
    <path d="M 215.710802 640.8 
L 221.45237 640.8 
L 221.45237 460.022715 
L 215.710802 460.022715 
z
" clip-path="url(#p6596fadab7)" style="fill: #008000"/>
   </g>
   <g id="patch_174">
    <path d="M 264.133665 640.8 
L 269.875233 640.8 
L 269.875233 460.022715 
L 264.133665 460.022715 
z
" clip-path="url(#p6596fadab7)" style="fill: #008000"/>
   </g>
   <g id="patch_175">
    <path d="M 312.556528 640.8 
L 318.298096 640.8 
L 318.298096 460.022715 
L 312.556528 460.022715 
z
" clip-path="url(#p6596fadab7)" style="fill: #008000"/>
   </g>
   <g id="patch_176">
    <path d="M 360.979391 640.8 
L 366.72096 640.8 
L 366.72096 460.022715 
L 360.979391 460.022715 
z
" clip-path="url(#p6596fadab7)" style="fill: #008000"/>
   </g>
   <g id="patch_177">
    <path d="M 409.402255 640.8 
L 415.143823 640.8 
L 415.143823 460.022715 
L 409.402255 460.022715 
z
" clip-path="url(#p6596fadab7)" style="fill: #008000"/>
   </g>
   <g id="patch_178">
    <path d="M 457.825118 640.8 
L 463.566686 640.8 
L 463.566686 460.022715 
L 457.825118 460.022715 
z
" clip-path="url(#p6596fadab7)" style="fill: #008000"/>
   </g>
   <g id="patch_179">
    <path d="M 506.247981 640.8 
L 511.989549 640.8 
L 511.989549 460.022715 
L 506.247981 460.022715 
z
" clip-path="url(#p6596fadab7)" style="fill: #008000"/>
   </g>
   <g id="patch_180">
    <path d="M 554.670844 640.8 
L 560.412413 640.8 
L 560.412413 338.977093 
L 554.670844 338.977093 
z
" clip-path="url(#p6596fadab7)" style="fill: #008000"/>
   </g>
   <g id="patch_181">
    <path d="M 603.093708 640.8 
L 608.835276 640.8 
L 608.835276 308.549963 
L 603.093708 308.549963 
z
" clip-path="url(#p6596fadab7)" style="fill: #008000"/>
   </g>
   <g id="patch_182">
    <path d="M 651.516571 640.8 
L 657.258139 640.8 
L 657.258139 292.138499 
L 651.516571 292.138499 
z
" clip-path="url(#p6596fadab7)" style="fill: #008000"/>
   </g>
   <g id="patch_183">
    <path d="M 699.939434 640.8 
L 705.681002 640.8 
L 705.681002 285.099084 
L 699.939434 285.099084 
z
" clip-path="url(#p6596fadab7)" style="fill: #008000"/>
   </g>
   <g id="patch_184">
    <path d="M 748.362297 640.8 
L 754.103866 640.8 
L 754.103866 281.511597 
L 748.362297 281.511597 
z
" clip-path="url(#p6596fadab7)" style="fill: #008000"/>
   </g>
   <g id="patch_185">
    <path d="M 796.785161 640.8 
L 802.526729 640.8 
L 802.526729 279.767812 
L 796.785161 279.767812 
z
" clip-path="url(#p6596fadab7)" style="fill: #008000"/>
   </g>
   <g id="patch_186">
    <path d="M 845.208024 640.8 
L 850.949592 640.8 
L 850.949592 220.052085 
L 845.208024 220.052085 
z
" clip-path="url(#p6596fadab7)" style="fill: #008000"/>
   </g>
   <g id="patch_187">
    <path d="M 893.630887 640.8 
L 899.372455 640.8 
L 899.372455 159.362825 
L 893.630887 159.362825 
z
" clip-path="url(#p6596fadab7)" style="fill: #008000"/>
   </g>
   <g id="patch_188">
    <path d="M 942.05375 640.8 
L 947.795319 640.8 
L 947.795319 128.32106 
L 942.05375 128.32106 
z
" clip-path="url(#p6596fadab7)" style="fill: #008000"/>
   </g>
   <g id="patch_189">
    <path d="M 990.476614 640.8 
L 996.218182 640.8 
L 996.218182 112.8 
L 990.476614 112.8 
z
" clip-path="url(#p6596fadab7)" style="fill: #008000"/>
   </g>
   <g id="patch_190">
    <path d="M 215.710802 640.8 
L 221.45237 640.8 
L 221.45237 487.977277 
L 215.710802 487.977277 
z
" clip-path="url(#p6596fadab7)" style="fill: #bfbf00"/>
   </g>
   <g id="patch_191">
    <path d="M 264.133665 640.8 
L 269.875233 640.8 
L 269.875233 487.977277 
L 264.133665 487.977277 
z
" clip-path="url(#p6596fadab7)" style="fill: #bfbf00"/>
   </g>
   <g id="patch_192">
    <path d="M 312.556528 640.8 
L 318.298096 640.8 
L 318.298096 487.977277 
L 312.556528 487.977277 
z
" clip-path="url(#p6596fadab7)" style="fill: #bfbf00"/>
   </g>
   <g id="patch_193">
    <path d="M 360.979391 640.8 
L 366.72096 640.8 
L 366.72096 487.977277 
L 360.979391 487.977277 
z
" clip-path="url(#p6596fadab7)" style="fill: #bfbf00"/>
   </g>
   <g id="patch_194">
    <path d="M 409.402255 640.8 
L 415.143823 640.8 
L 415.143823 487.977277 
L 409.402255 487.977277 
z
" clip-path="url(#p6596fadab7)" style="fill: #bfbf00"/>
   </g>
   <g id="patch_195">
    <path d="M 457.825118 640.8 
L 463.566686 640.8 
L 463.566686 487.977277 
L 457.825118 487.977277 
z
" clip-path="url(#p6596fadab7)" style="fill: #bfbf00"/>
   </g>
   <g id="patch_196">
    <path d="M 506.247981 640.8 
L 511.989549 640.8 
L 511.989549 487.977277 
L 506.247981 487.977277 
z
" clip-path="url(#p6596fadab7)" style="fill: #bfbf00"/>
   </g>
   <g id="patch_197">
    <path d="M 554.670844 640.8 
L 560.412413 640.8 
L 560.412413 487.977277 
L 554.670844 487.977277 
z
" clip-path="url(#p6596fadab7)" style="fill: #bfbf00"/>
   </g>
   <g id="patch_198">
    <path d="M 603.093708 640.8 
L 608.835276 640.8 
L 608.835276 487.977277 
L 603.093708 487.977277 
z
" clip-path="url(#p6596fadab7)" style="fill: #bfbf00"/>
   </g>
   <g id="patch_199">
    <path d="M 651.516571 640.8 
L 657.258139 640.8 
L 657.258139 487.977277 
L 651.516571 487.977277 
z
" clip-path="url(#p6596fadab7)" style="fill: #bfbf00"/>
   </g>
   <g id="patch_200">
    <path d="M 699.939434 640.8 
L 705.681002 640.8 
L 705.681002 487.977277 
L 699.939434 487.977277 
z
" clip-path="url(#p6596fadab7)" style="fill: #bfbf00"/>
   </g>
   <g id="patch_201">
    <path d="M 748.362297 640.8 
L 754.103866 640.8 
L 754.103866 487.977277 
L 748.362297 487.977277 
z
" clip-path="url(#p6596fadab7)" style="fill: #bfbf00"/>
   </g>
   <g id="patch_202">
    <path d="M 796.785161 640.8 
L 802.526729 640.8 
L 802.526729 487.977277 
L 796.785161 487.977277 
z
" clip-path="url(#p6596fadab7)" style="fill: #bfbf00"/>
   </g>
   <g id="patch_203">
    <path d="M 845.208024 640.8 
L 850.949592 640.8 
L 850.949592 487.977277 
L 845.208024 487.977277 
z
" clip-path="url(#p6596fadab7)" style="fill: #bfbf00"/>
   </g>
   <g id="patch_204">
    <path d="M 893.630887 640.8 
L 899.372455 640.8 
L 899.372455 487.977277 
L 893.630887 487.977277 
z
" clip-path="url(#p6596fadab7)" style="fill: #bfbf00"/>
   </g>
   <g id="patch_205">
    <path d="M 942.05375 640.8 
L 947.795319 640.8 
L 947.795319 487.977277 
L 942.05375 487.977277 
z
" clip-path="url(#p6596fadab7)" style="fill: #bfbf00"/>
   </g>
   <g id="patch_206">
    <path d="M 990.476614 640.8 
L 996.218182 640.8 
L 996.218182 487.977277 
L 990.476614 487.977277 
z
" clip-path="url(#p6596fadab7)" style="fill: #bfbf00"/>
   </g>
   <g id="matplotlib.axis_1">
    <g id="xtick_1">
     <g id="line2d_1">
      <defs>
       <path id="md5afbe6e6b" d="M 0 0 
L 0 3.5 
" style="stroke: #000000; stroke-width: 0.8"/>
      </defs>
      <g>
       <use xlink:href="#md5afbe6e6b" x="206.129992" y="640.8" style="stroke: #000000; stroke-width: 0.8"/>
      </g>
     </g>
     <g id="text_1">
      <!-- 2 -->
      <g transform="translate(202.948742 655.398438)scale(0.1 -0.1)">
       <defs>
        <path id="DejaVuSans-32" d="M 1228 531 
L 3431 531 
L 3431 0 
L 469 0 
L 469 531 
Q 828 903 1448 1529 
Q 2069 2156 2228 2338 
Q 2531 2678 2651 2914 
Q 2772 3150 2772 3378 
Q 2772 3750 2511 3984 
Q 2250 4219 1831 4219 
Q 1534 4219 1204 4116 
Q 875 4013 500 3803 
L 500 4441 
Q 881 4594 1212 4672 
Q 1544 4750 1819 4750 
Q 2544 4750 2975 4387 
Q 3406 4025 3406 3419 
Q 3406 3131 3298 2873 
Q 3191 2616 2906 2266 
Q 2828 2175 2409 1742 
Q 1991 1309 1228 531 
z
" transform="scale(0.015625)"/>
       </defs>
       <use xlink:href="#DejaVuSans-32"/>
      </g>
     </g>
    </g>
    <g id="xtick_2">
     <g id="line2d_2">
      <g>
       <use xlink:href="#md5afbe6e6b" x="254.552856" y="640.8" style="stroke: #000000; stroke-width: 0.8"/>
      </g>
     </g>
     <g id="text_2">
      <!-- 3 -->
      <g transform="translate(251.371606 655.398438)scale(0.1 -0.1)">
       <defs>
        <path id="DejaVuSans-33" d="M 2597 2516 
Q 3050 2419 3304 2112 
Q 3559 1806 3559 1356 
Q 3559 666 3084 287 
Q 2609 -91 1734 -91 
Q 1441 -91 1130 -33 
Q 819 25 488 141 
L 488 750 
Q 750 597 1062 519 
Q 1375 441 1716 441 
Q 2309 441 2620 675 
Q 2931 909 2931 1356 
Q 2931 1769 2642 2001 
Q 2353 2234 1838 2234 
L 1294 2234 
L 1294 2753 
L 1863 2753 
Q 2328 2753 2575 2939 
Q 2822 3125 2822 3475 
Q 2822 3834 2567 4026 
Q 2313 4219 1838 4219 
Q 1578 4219 1281 4162 
Q 984 4106 628 3988 
L 628 4550 
Q 988 4650 1302 4700 
Q 1616 4750 1894 4750 
Q 2613 4750 3031 4423 
Q 3450 4097 3450 3541 
Q 3450 3153 3228 2886 
Q 3006 2619 2597 2516 
z
" transform="scale(0.015625)"/>
       </defs>
       <use xlink:href="#DejaVuSans-33"/>
      </g>
     </g>
    </g>
    <g id="xtick_3">
     <g id="line2d_3">
      <g>
       <use xlink:href="#md5afbe6e6b" x="302.975719" y="640.8" style="stroke: #000000; stroke-width: 0.8"/>
      </g>
     </g>
     <g id="text_3">
      <!-- 4 -->
      <g transform="translate(299.794469 655.398438)scale(0.1 -0.1)">
       <defs>
        <path id="DejaVuSans-34" d="M 2419 4116 
L 825 1625 
L 2419 1625 
L 2419 4116 
z
M 2253 4666 
L 3047 4666 
L 3047 1625 
L 3713 1625 
L 3713 1100 
L 3047 1100 
L 3047 0 
L 2419 0 
L 2419 1100 
L 313 1100 
L 313 1709 
L 2253 4666 
z
" transform="scale(0.015625)"/>
       </defs>
       <use xlink:href="#DejaVuSans-34"/>
      </g>
     </g>
    </g>
    <g id="xtick_4">
     <g id="line2d_4">
      <g>
       <use xlink:href="#md5afbe6e6b" x="351.398582" y="640.8" style="stroke: #000000; stroke-width: 0.8"/>
      </g>
     </g>
     <g id="text_4">
      <!-- 5 -->
      <g transform="translate(348.217332 655.398438)scale(0.1 -0.1)">
       <defs>
        <path id="DejaVuSans-35" d="M 691 4666 
L 3169 4666 
L 3169 4134 
L 1269 4134 
L 1269 2991 
Q 1406 3038 1543 3061 
Q 1681 3084 1819 3084 
Q 2600 3084 3056 2656 
Q 3513 2228 3513 1497 
Q 3513 744 3044 326 
Q 2575 -91 1722 -91 
Q 1428 -91 1123 -41 
Q 819 9 494 109 
L 494 744 
Q 775 591 1075 516 
Q 1375 441 1709 441 
Q 2250 441 2565 725 
Q 2881 1009 2881 1497 
Q 2881 1984 2565 2268 
Q 2250 2553 1709 2553 
Q 1456 2553 1204 2497 
Q 953 2441 691 2322 
L 691 4666 
z
" transform="scale(0.015625)"/>
       </defs>
       <use xlink:href="#DejaVuSans-35"/>
      </g>
     </g>
    </g>
    <g id="xtick_5">
     <g id="line2d_5">
      <g>
       <use xlink:href="#md5afbe6e6b" x="399.821445" y="640.8" style="stroke: #000000; stroke-width: 0.8"/>
      </g>
     </g>
     <g id="text_5">
      <!-- 6 -->
      <g transform="translate(396.640195 655.398438)scale(0.1 -0.1)">
       <defs>
        <path id="DejaVuSans-36" d="M 2113 2584 
Q 1688 2584 1439 2293 
Q 1191 2003 1191 1497 
Q 1191 994 1439 701 
Q 1688 409 2113 409 
Q 2538 409 2786 701 
Q 3034 994 3034 1497 
Q 3034 2003 2786 2293 
Q 2538 2584 2113 2584 
z
M 3366 4563 
L 3366 3988 
Q 3128 4100 2886 4159 
Q 2644 4219 2406 4219 
Q 1781 4219 1451 3797 
Q 1122 3375 1075 2522 
Q 1259 2794 1537 2939 
Q 1816 3084 2150 3084 
Q 2853 3084 3261 2657 
Q 3669 2231 3669 1497 
Q 3669 778 3244 343 
Q 2819 -91 2113 -91 
Q 1303 -91 875 529 
Q 447 1150 447 2328 
Q 447 3434 972 4092 
Q 1497 4750 2381 4750 
Q 2619 4750 2861 4703 
Q 3103 4656 3366 4563 
z
" transform="scale(0.015625)"/>
       </defs>
       <use xlink:href="#DejaVuSans-36"/>
      </g>
     </g>
    </g>
    <g id="xtick_6">
     <g id="line2d_6">
      <g>
       <use xlink:href="#md5afbe6e6b" x="448.244309" y="640.8" style="stroke: #000000; stroke-width: 0.8"/>
      </g>
     </g>
     <g id="text_6">
      <!-- 7 -->
      <g transform="translate(445.063059 655.398438)scale(0.1 -0.1)">
       <defs>
        <path id="DejaVuSans-37" d="M 525 4666 
L 3525 4666 
L 3525 4397 
L 1831 0 
L 1172 0 
L 2766 4134 
L 525 4134 
L 525 4666 
z
" transform="scale(0.015625)"/>
       </defs>
       <use xlink:href="#DejaVuSans-37"/>
      </g>
     </g>
    </g>
    <g id="xtick_7">
     <g id="line2d_7">
      <g>
       <use xlink:href="#md5afbe6e6b" x="496.667172" y="640.8" style="stroke: #000000; stroke-width: 0.8"/>
      </g>
     </g>
     <g id="text_7">
      <!-- 8 -->
      <g transform="translate(493.485922 655.398438)scale(0.1 -0.1)">
       <defs>
        <path id="DejaVuSans-38" d="M 2034 2216 
Q 1584 2216 1326 1975 
Q 1069 1734 1069 1313 
Q 1069 891 1326 650 
Q 1584 409 2034 409 
Q 2484 409 2743 651 
Q 3003 894 3003 1313 
Q 3003 1734 2745 1975 
Q 2488 2216 2034 2216 
z
M 1403 2484 
Q 997 2584 770 2862 
Q 544 3141 544 3541 
Q 544 4100 942 4425 
Q 1341 4750 2034 4750 
Q 2731 4750 3128 4425 
Q 3525 4100 3525 3541 
Q 3525 3141 3298 2862 
Q 3072 2584 2669 2484 
Q 3125 2378 3379 2068 
Q 3634 1759 3634 1313 
Q 3634 634 3220 271 
Q 2806 -91 2034 -91 
Q 1263 -91 848 271 
Q 434 634 434 1313 
Q 434 1759 690 2068 
Q 947 2378 1403 2484 
z
M 1172 3481 
Q 1172 3119 1398 2916 
Q 1625 2713 2034 2713 
Q 2441 2713 2670 2916 
Q 2900 3119 2900 3481 
Q 2900 3844 2670 4047 
Q 2441 4250 2034 4250 
Q 1625 4250 1398 4047 
Q 1172 3844 1172 3481 
z
" transform="scale(0.015625)"/>
       </defs>
       <use xlink:href="#DejaVuSans-38"/>
      </g>
     </g>
    </g>
    <g id="xtick_8">
     <g id="line2d_8">
      <g>
       <use xlink:href="#md5afbe6e6b" x="545.090035" y="640.8" style="stroke: #000000; stroke-width: 0.8"/>
      </g>
     </g>
     <g id="text_8">
      <!-- 9 -->
      <g transform="translate(541.908785 655.398438)scale(0.1 -0.1)">
       <defs>
        <path id="DejaVuSans-39" d="M 703 97 
L 703 672 
Q 941 559 1184 500 
Q 1428 441 1663 441 
Q 2288 441 2617 861 
Q 2947 1281 2994 2138 
Q 2813 1869 2534 1725 
Q 2256 1581 1919 1581 
Q 1219 1581 811 2004 
Q 403 2428 403 3163 
Q 403 3881 828 4315 
Q 1253 4750 1959 4750 
Q 2769 4750 3195 4129 
Q 3622 3509 3622 2328 
Q 3622 1225 3098 567 
Q 2575 -91 1691 -91 
Q 1453 -91 1209 -44 
Q 966 3 703 97 
z
M 1959 2075 
Q 2384 2075 2632 2365 
Q 2881 2656 2881 3163 
Q 2881 3666 2632 3958 
Q 2384 4250 1959 4250 
Q 1534 4250 1286 3958 
Q 1038 3666 1038 3163 
Q 1038 2656 1286 2365 
Q 1534 2075 1959 2075 
z
" transform="scale(0.015625)"/>
       </defs>
       <use xlink:href="#DejaVuSans-39"/>
      </g>
     </g>
    </g>
    <g id="xtick_9">
     <g id="line2d_9">
      <g>
       <use xlink:href="#md5afbe6e6b" x="593.512898" y="640.8" style="stroke: #000000; stroke-width: 0.8"/>
      </g>
     </g>
     <g id="text_9">
      <!-- 10 -->
      <g transform="translate(587.150398 655.398438)scale(0.1 -0.1)">
       <defs>
        <path id="DejaVuSans-31" d="M 794 531 
L 1825 531 
L 1825 4091 
L 703 3866 
L 703 4441 
L 1819 4666 
L 2450 4666 
L 2450 531 
L 3481 531 
L 3481 0 
L 794 0 
L 794 531 
z
" transform="scale(0.015625)"/>
        <path id="DejaVuSans-30" d="M 2034 4250 
Q 1547 4250 1301 3770 
Q 1056 3291 1056 2328 
Q 1056 1369 1301 889 
Q 1547 409 2034 409 
Q 2525 409 2770 889 
Q 3016 1369 3016 2328 
Q 3016 3291 2770 3770 
Q 2525 4250 2034 4250 
z
M 2034 4750 
Q 2819 4750 3233 4129 
Q 3647 3509 3647 2328 
Q 3647 1150 3233 529 
Q 2819 -91 2034 -91 
Q 1250 -91 836 529 
Q 422 1150 422 2328 
Q 422 3509 836 4129 
Q 1250 4750 2034 4750 
z
" transform="scale(0.015625)"/>
       </defs>
       <use xlink:href="#DejaVuSans-31"/>
       <use xlink:href="#DejaVuSans-30" x="63.623047"/>
      </g>
     </g>
    </g>
    <g id="xtick_10">
     <g id="line2d_10">
      <g>
       <use xlink:href="#md5afbe6e6b" x="641.935762" y="640.8" style="stroke: #000000; stroke-width: 0.8"/>
      </g>
     </g>
     <g id="text_10">
      <!-- 11 -->
      <g transform="translate(635.573262 655.398438)scale(0.1 -0.1)">
       <use xlink:href="#DejaVuSans-31"/>
       <use xlink:href="#DejaVuSans-31" x="63.623047"/>
      </g>
     </g>
    </g>
    <g id="xtick_11">
     <g id="line2d_11">
      <g>
       <use xlink:href="#md5afbe6e6b" x="690.358625" y="640.8" style="stroke: #000000; stroke-width: 0.8"/>
      </g>
     </g>
     <g id="text_11">
      <!-- 12 -->
      <g transform="translate(683.996125 655.398438)scale(0.1 -0.1)">
       <use xlink:href="#DejaVuSans-31"/>
       <use xlink:href="#DejaVuSans-32" x="63.623047"/>
      </g>
     </g>
    </g>
    <g id="xtick_12">
     <g id="line2d_12">
      <g>
       <use xlink:href="#md5afbe6e6b" x="738.781488" y="640.8" style="stroke: #000000; stroke-width: 0.8"/>
      </g>
     </g>
     <g id="text_12">
      <!-- 13 -->
      <g transform="translate(732.418988 655.398438)scale(0.1 -0.1)">
       <use xlink:href="#DejaVuSans-31"/>
       <use xlink:href="#DejaVuSans-33" x="63.623047"/>
      </g>
     </g>
    </g>
    <g id="xtick_13">
     <g id="line2d_13">
      <g>
       <use xlink:href="#md5afbe6e6b" x="787.204351" y="640.8" style="stroke: #000000; stroke-width: 0.8"/>
      </g>
     </g>
     <g id="text_13">
      <!-- 14 -->
      <g transform="translate(780.841851 655.398438)scale(0.1 -0.1)">
       <use xlink:href="#DejaVuSans-31"/>
       <use xlink:href="#DejaVuSans-34" x="63.623047"/>
      </g>
     </g>
    </g>
    <g id="xtick_14">
     <g id="line2d_14">
      <g>
       <use xlink:href="#md5afbe6e6b" x="835.627215" y="640.8" style="stroke: #000000; stroke-width: 0.8"/>
      </g>
     </g>
     <g id="text_14">
      <!-- 15 -->
      <g transform="translate(829.264715 655.398438)scale(0.1 -0.1)">
       <use xlink:href="#DejaVuSans-31"/>
       <use xlink:href="#DejaVuSans-35" x="63.623047"/>
      </g>
     </g>
    </g>
    <g id="xtick_15">
     <g id="line2d_15">
      <g>
       <use xlink:href="#md5afbe6e6b" x="884.050078" y="640.8" style="stroke: #000000; stroke-width: 0.8"/>
      </g>
     </g>
     <g id="text_15">
      <!-- 16 -->
      <g transform="translate(877.687578 655.398438)scale(0.1 -0.1)">
       <use xlink:href="#DejaVuSans-31"/>
       <use xlink:href="#DejaVuSans-36" x="63.623047"/>
      </g>
     </g>
    </g>
    <g id="xtick_16">
     <g id="line2d_16">
      <g>
       <use xlink:href="#md5afbe6e6b" x="932.472941" y="640.8" style="stroke: #000000; stroke-width: 0.8"/>
      </g>
     </g>
     <g id="text_16">
      <!-- 17 -->
      <g transform="translate(926.110441 655.398438)scale(0.1 -0.1)">
       <use xlink:href="#DejaVuSans-31"/>
       <use xlink:href="#DejaVuSans-37" x="63.623047"/>
      </g>
     </g>
    </g>
    <g id="xtick_17">
     <g id="line2d_17">
      <g>
       <use xlink:href="#md5afbe6e6b" x="980.895804" y="640.8" style="stroke: #000000; stroke-width: 0.8"/>
      </g>
     </g>
     <g id="text_17">
      <!-- 18 -->
      <g transform="translate(974.533304 655.398438)scale(0.1 -0.1)">
       <use xlink:href="#DejaVuSans-31"/>
       <use xlink:href="#DejaVuSans-38" x="63.623047"/>
      </g>
     </g>
    </g>
    <g id="text_18">
     <!-- code length [bits] -->
     <g transform="translate(546.195312 669.076563)scale(0.1 -0.1)">
      <defs>
       <path id="DejaVuSans-63" d="M 3122 3366 
L 3122 2828 
Q 2878 2963 2633 3030 
Q 2388 3097 2138 3097 
Q 1578 3097 1268 2742 
Q 959 2388 959 1747 
Q 959 1106 1268 751 
Q 1578 397 2138 397 
Q 2388 397 2633 464 
Q 2878 531 3122 666 
L 3122 134 
Q 2881 22 2623 -34 
Q 2366 -91 2075 -91 
Q 1284 -91 818 406 
Q 353 903 353 1747 
Q 353 2603 823 3093 
Q 1294 3584 2113 3584 
Q 2378 3584 2631 3529 
Q 2884 3475 3122 3366 
z
" transform="scale(0.015625)"/>
       <path id="DejaVuSans-6f" d="M 1959 3097 
Q 1497 3097 1228 2736 
Q 959 2375 959 1747 
Q 959 1119 1226 758 
Q 1494 397 1959 397 
Q 2419 397 2687 759 
Q 2956 1122 2956 1747 
Q 2956 2369 2687 2733 
Q 2419 3097 1959 3097 
z
M 1959 3584 
Q 2709 3584 3137 3096 
Q 3566 2609 3566 1747 
Q 3566 888 3137 398 
Q 2709 -91 1959 -91 
Q 1206 -91 779 398 
Q 353 888 353 1747 
Q 353 2609 779 3096 
Q 1206 3584 1959 3584 
z
" transform="scale(0.015625)"/>
       <path id="DejaVuSans-64" d="M 2906 2969 
L 2906 4863 
L 3481 4863 
L 3481 0 
L 2906 0 
L 2906 525 
Q 2725 213 2448 61 
Q 2172 -91 1784 -91 
Q 1150 -91 751 415 
Q 353 922 353 1747 
Q 353 2572 751 3078 
Q 1150 3584 1784 3584 
Q 2172 3584 2448 3432 
Q 2725 3281 2906 2969 
z
M 947 1747 
Q 947 1113 1208 752 
Q 1469 391 1925 391 
Q 2381 391 2643 752 
Q 2906 1113 2906 1747 
Q 2906 2381 2643 2742 
Q 2381 3103 1925 3103 
Q 1469 3103 1208 2742 
Q 947 2381 947 1747 
z
" transform="scale(0.015625)"/>
       <path id="DejaVuSans-65" d="M 3597 1894 
L 3597 1613 
L 953 1613 
Q 991 1019 1311 708 
Q 1631 397 2203 397 
Q 2534 397 2845 478 
Q 3156 559 3463 722 
L 3463 178 
Q 3153 47 2828 -22 
Q 2503 -91 2169 -91 
Q 1331 -91 842 396 
Q 353 884 353 1716 
Q 353 2575 817 3079 
Q 1281 3584 2069 3584 
Q 2775 3584 3186 3129 
Q 3597 2675 3597 1894 
z
M 3022 2063 
Q 3016 2534 2758 2815 
Q 2500 3097 2075 3097 
Q 1594 3097 1305 2825 
Q 1016 2553 972 2059 
L 3022 2063 
z
" transform="scale(0.015625)"/>
       <path id="DejaVuSans-20" transform="scale(0.015625)"/>
       <path id="DejaVuSans-6c" d="M 603 4863 
L 1178 4863 
L 1178 0 
L 603 0 
L 603 4863 
z
" transform="scale(0.015625)"/>
       <path id="DejaVuSans-6e" d="M 3513 2113 
L 3513 0 
L 2938 0 
L 2938 2094 
Q 2938 2591 2744 2837 
Q 2550 3084 2163 3084 
Q 1697 3084 1428 2787 
Q 1159 2491 1159 1978 
L 1159 0 
L 581 0 
L 581 3500 
L 1159 3500 
L 1159 2956 
Q 1366 3272 1645 3428 
Q 1925 3584 2291 3584 
Q 2894 3584 3203 3211 
Q 3513 2838 3513 2113 
z
" transform="scale(0.015625)"/>
       <path id="DejaVuSans-67" d="M 2906 1791 
Q 2906 2416 2648 2759 
Q 2391 3103 1925 3103 
Q 1463 3103 1205 2759 
Q 947 2416 947 1791 
Q 947 1169 1205 825 
Q 1463 481 1925 481 
Q 2391 481 2648 825 
Q 2906 1169 2906 1791 
z
M 3481 434 
Q 3481 -459 3084 -895 
Q 2688 -1331 1869 -1331 
Q 1566 -1331 1297 -1286 
Q 1028 -1241 775 -1147 
L 775 -588 
Q 1028 -725 1275 -790 
Q 1522 -856 1778 -856 
Q 2344 -856 2625 -561 
Q 2906 -266 2906 331 
L 2906 616 
Q 2728 306 2450 153 
Q 2172 0 1784 0 
Q 1141 0 747 490 
Q 353 981 353 1791 
Q 353 2603 747 3093 
Q 1141 3584 1784 3584 
Q 2172 3584 2450 3431 
Q 2728 3278 2906 2969 
L 2906 3500 
L 3481 3500 
L 3481 434 
z
" transform="scale(0.015625)"/>
       <path id="DejaVuSans-74" d="M 1172 4494 
L 1172 3500 
L 2356 3500 
L 2356 3053 
L 1172 3053 
L 1172 1153 
Q 1172 725 1289 603 
Q 1406 481 1766 481 
L 2356 481 
L 2356 0 
L 1766 0 
Q 1100 0 847 248 
Q 594 497 594 1153 
L 594 3053 
L 172 3053 
L 172 3500 
L 594 3500 
L 594 4494 
L 1172 4494 
z
" transform="scale(0.015625)"/>
       <path id="DejaVuSans-68" d="M 3513 2113 
L 3513 0 
L 2938 0 
L 2938 2094 
Q 2938 2591 2744 2837 
Q 2550 3084 2163 3084 
Q 1697 3084 1428 2787 
Q 1159 2491 1159 1978 
L 1159 0 
L 581 0 
L 581 4863 
L 1159 4863 
L 1159 2956 
Q 1366 3272 1645 3428 
Q 1925 3584 2291 3584 
Q 2894 3584 3203 3211 
Q 3513 2838 3513 2113 
z
" transform="scale(0.015625)"/>
       <path id="DejaVuSans-5b" d="M 550 4863 
L 1875 4863 
L 1875 4416 
L 1125 4416 
L 1125 -397 
L 1875 -397 
L 1875 -844 
L 550 -844 
L 550 4863 
z
" transform="scale(0.015625)"/>
       <path id="DejaVuSans-62" d="M 3116 1747 
Q 3116 2381 2855 2742 
Q 2594 3103 2138 3103 
Q 1681 3103 1420 2742 
Q 1159 2381 1159 1747 
Q 1159 1113 1420 752 
Q 1681 391 2138 391 
Q 2594 391 2855 752 
Q 3116 1113 3116 1747 
z
M 1159 2969 
Q 1341 3281 1617 3432 
Q 1894 3584 2278 3584 
Q 2916 3584 3314 3078 
Q 3713 2572 3713 1747 
Q 3713 922 3314 415 
Q 2916 -91 2278 -91 
Q 1894 -91 1617 61 
Q 1341 213 1159 525 
L 1159 0 
L 581 0 
L 581 4863 
L 1159 4863 
L 1159 2969 
z
" transform="scale(0.015625)"/>
       <path id="DejaVuSans-69" d="M 603 3500 
L 1178 3500 
L 1178 0 
L 603 0 
L 603 3500 
z
M 603 4863 
L 1178 4863 
L 1178 4134 
L 603 4134 
L 603 4863 
z
" transform="scale(0.015625)"/>
       <path id="DejaVuSans-73" d="M 2834 3397 
L 2834 2853 
Q 2591 2978 2328 3040 
Q 2066 3103 1784 3103 
Q 1356 3103 1142 2972 
Q 928 2841 928 2578 
Q 928 2378 1081 2264 
Q 1234 2150 1697 2047 
L 1894 2003 
Q 2506 1872 2764 1633 
Q 3022 1394 3022 966 
Q 3022 478 2636 193 
Q 2250 -91 1575 -91 
Q 1294 -91 989 -36 
Q 684 19 347 128 
L 347 722 
Q 666 556 975 473 
Q 1284 391 1588 391 
Q 1994 391 2212 530 
Q 2431 669 2431 922 
Q 2431 1156 2273 1281 
Q 2116 1406 1581 1522 
L 1381 1569 
Q 847 1681 609 1914 
Q 372 2147 372 2553 
Q 372 3047 722 3315 
Q 1072 3584 1716 3584 
Q 2034 3584 2315 3537 
Q 2597 3491 2834 3397 
z
" transform="scale(0.015625)"/>
       <path id="DejaVuSans-5d" d="M 1947 4863 
L 1947 -844 
L 622 -844 
L 622 -397 
L 1369 -397 
L 1369 4416 
L 622 4416 
L 622 4863 
L 1947 4863 
z
" transform="scale(0.015625)"/>
      </defs>
      <use xlink:href="#DejaVuSans-63"/>
      <use xlink:href="#DejaVuSans-6f" x="54.980469"/>
      <use xlink:href="#DejaVuSans-64" x="116.162109"/>
      <use xlink:href="#DejaVuSans-65" x="179.638672"/>
      <use xlink:href="#DejaVuSans-20" x="241.162109"/>
      <use xlink:href="#DejaVuSans-6c" x="272.949219"/>
      <use xlink:href="#DejaVuSans-65" x="300.732422"/>
      <use xlink:href="#DejaVuSans-6e" x="362.255859"/>
      <use xlink:href="#DejaVuSans-67" x="425.634766"/>
      <use xlink:href="#DejaVuSans-74" x="489.111328"/>
      <use xlink:href="#DejaVuSans-68" x="528.320312"/>
      <use xlink:href="#DejaVuSans-20" x="591.699219"/>
      <use xlink:href="#DejaVuSans-5b" x="623.486328"/>
      <use xlink:href="#DejaVuSans-62" x="662.5"/>
      <use xlink:href="#DejaVuSans-69" x="725.976562"/>
      <use xlink:href="#DejaVuSans-74" x="753.759766"/>
      <use xlink:href="#DejaVuSans-73" x="792.96875"/>
      <use xlink:href="#DejaVuSans-5d" x="845.068359"/>
     </g>
    </g>
   </g>
   <g id="matplotlib.axis_2">
    <g id="ytick_1">
     <g id="line2d_18">
      <defs>
       <path id="m8829ca4659" d="M 0 0 
L -3.5 0 
" style="stroke: #000000; stroke-width: 0.8"/>
      </defs>
      <g>
       <use xlink:href="#m8829ca4659" x="144" y="640.8" style="stroke: #000000; stroke-width: 0.8"/>
      </g>
     </g>
     <g id="text_19">
      <!-- 0 -->
      <g transform="translate(130.6375 644.599219)scale(0.1 -0.1)">
       <use xlink:href="#DejaVuSans-30"/>
      </g>
     </g>
    </g>
    <g id="ytick_2">
     <g id="line2d_19">
      <g>
       <use xlink:href="#m8829ca4659" x="144" y="527.814197" style="stroke: #000000; stroke-width: 0.8"/>
      </g>
     </g>
     <g id="text_20">
      <!-- 5 -->
      <g transform="translate(130.6375 531.613416)scale(0.1 -0.1)">
       <use xlink:href="#DejaVuSans-35"/>
      </g>
     </g>
    </g>
    <g id="ytick_3">
     <g id="line2d_20">
      <g>
       <use xlink:href="#m8829ca4659" x="144" y="414.828394" style="stroke: #000000; stroke-width: 0.8"/>
      </g>
     </g>
     <g id="text_21">
      <!-- 10 -->
      <g transform="translate(124.275 418.627613)scale(0.1 -0.1)">
       <use xlink:href="#DejaVuSans-31"/>
       <use xlink:href="#DejaVuSans-30" x="63.623047"/>
      </g>
     </g>
    </g>
    <g id="ytick_4">
     <g id="line2d_21">
      <g>
       <use xlink:href="#m8829ca4659" x="144" y="301.842591" style="stroke: #000000; stroke-width: 0.8"/>
      </g>
     </g>
     <g id="text_22">
      <!-- 15 -->
      <g transform="translate(124.275 305.64181)scale(0.1 -0.1)">
       <use xlink:href="#DejaVuSans-31"/>
       <use xlink:href="#DejaVuSans-35" x="63.623047"/>
      </g>
     </g>
    </g>
    <g id="ytick_5">
     <g id="line2d_22">
      <g>
       <use xlink:href="#m8829ca4659" x="144" y="188.856788" style="stroke: #000000; stroke-width: 0.8"/>
      </g>
     </g>
     <g id="text_23">
      <!-- 20 -->
      <g transform="translate(124.275 192.656007)scale(0.1 -0.1)">
       <use xlink:href="#DejaVuSans-32"/>
       <use xlink:href="#DejaVuSans-30" x="63.623047"/>
      </g>
     </g>
    </g>
    <g id="text_24">
     <!-- value [bits] -->
     <g transform="translate(118.195312 391.876562)rotate(-90)scale(0.1 -0.1)">
      <defs>
       <path id="DejaVuSans-76" d="M 191 3500 
L 800 3500 
L 1894 563 
L 2988 3500 
L 3597 3500 
L 2284 0 
L 1503 0 
L 191 3500 
z
" transform="scale(0.015625)"/>
       <path id="DejaVuSans-61" d="M 2194 1759 
Q 1497 1759 1228 1600 
Q 959 1441 959 1056 
Q 959 750 1161 570 
Q 1363 391 1709 391 
Q 2188 391 2477 730 
Q 2766 1069 2766 1631 
L 2766 1759 
L 2194 1759 
z
M 3341 1997 
L 3341 0 
L 2766 0 
L 2766 531 
Q 2569 213 2275 61 
Q 1981 -91 1556 -91 
Q 1019 -91 701 211 
Q 384 513 384 1019 
Q 384 1609 779 1909 
Q 1175 2209 1959 2209 
L 2766 2209 
L 2766 2266 
Q 2766 2663 2505 2880 
Q 2244 3097 1772 3097 
Q 1472 3097 1187 3025 
Q 903 2953 641 2809 
L 641 3341 
Q 956 3463 1253 3523 
Q 1550 3584 1831 3584 
Q 2591 3584 2966 3190 
Q 3341 2797 3341 1997 
z
" transform="scale(0.015625)"/>
       <path id="DejaVuSans-75" d="M 544 1381 
L 544 3500 
L 1119 3500 
L 1119 1403 
Q 1119 906 1312 657 
Q 1506 409 1894 409 
Q 2359 409 2629 706 
Q 2900 1003 2900 1516 
L 2900 3500 
L 3475 3500 
L 3475 0 
L 2900 0 
L 2900 538 
Q 2691 219 2414 64 
Q 2138 -91 1772 -91 
Q 1169 -91 856 284 
Q 544 659 544 1381 
z
M 1991 3584 
L 1991 3584 
z
" transform="scale(0.015625)"/>
      </defs>
      <use xlink:href="#DejaVuSans-76"/>
      <use xlink:href="#DejaVuSans-61" x="59.179688"/>
      <use xlink:href="#DejaVuSans-6c" x="120.458984"/>
      <use xlink:href="#DejaVuSans-75" x="148.242188"/>
      <use xlink:href="#DejaVuSans-65" x="211.621094"/>
      <use xlink:href="#DejaVuSans-20" x="273.144531"/>
      <use xlink:href="#DejaVuSans-5b" x="304.931641"/>
      <use xlink:href="#DejaVuSans-62" x="343.945312"/>
      <use xlink:href="#DejaVuSans-69" x="407.421875"/>
      <use xlink:href="#DejaVuSans-74" x="435.205078"/>
      <use xlink:href="#DejaVuSans-73" x="474.414062"/>
      <use xlink:href="#DejaVuSans-5d" x="526.513672"/>
     </g>
    </g>
   </g>
   <g id="patch_207">
    <path d="M 144 640.8 
L 144 86.4 
" style="fill: none; stroke: #000000; stroke-width: 0.8; stroke-linejoin: miter; stroke-linecap: square"/>
   </g>
   <g id="patch_208">
    <path d="M 1036.8 640.8 
L 1036.8 86.4 
" style="fill: none; stroke: #000000; stroke-width: 0.8; stroke-linejoin: miter; stroke-linecap: square"/>
   </g>
   <g id="patch_209">
    <path d="M 144 640.8 
L 1036.8 640.8 
" style="fill: none; stroke: #000000; stroke-width: 0.8; stroke-linejoin: miter; stroke-linecap: square"/>
   </g>
   <g id="patch_210">
    <path d="M 144 86.4 
L 1036.8 86.4 
" style="fill: none; stroke: #000000; stroke-width: 0.8; stroke-linejoin: miter; stroke-linecap: square"/>
   </g>
   <g id="text_25">
    <!-- Entropy vs Avg. bit length -->
    <g transform="translate(512.814375 80.4)scale(0.12 -0.12)">
     <defs>
      <path id="DejaVuSans-45" d="M 628 4666 
L 3578 4666 
L 3578 4134 
L 1259 4134 
L 1259 2753 
L 3481 2753 
L 3481 2222 
L 1259 2222 
L 1259 531 
L 3634 531 
L 3634 0 
L 628 0 
L 628 4666 
z
" transform="scale(0.015625)"/>
      <path id="DejaVuSans-72" d="M 2631 2963 
Q 2534 3019 2420 3045 
Q 2306 3072 2169 3072 
Q 1681 3072 1420 2755 
Q 1159 2438 1159 1844 
L 1159 0 
L 581 0 
L 581 3500 
L 1159 3500 
L 1159 2956 
Q 1341 3275 1631 3429 
Q 1922 3584 2338 3584 
Q 2397 3584 2469 3576 
Q 2541 3569 2628 3553 
L 2631 2963 
z
" transform="scale(0.015625)"/>
      <path id="DejaVuSans-70" d="M 1159 525 
L 1159 -1331 
L 581 -1331 
L 581 3500 
L 1159 3500 
L 1159 2969 
Q 1341 3281 1617 3432 
Q 1894 3584 2278 3584 
Q 2916 3584 3314 3078 
Q 3713 2572 3713 1747 
Q 3713 922 3314 415 
Q 2916 -91 2278 -91 
Q 1894 -91 1617 61 
Q 1341 213 1159 525 
z
M 3116 1747 
Q 3116 2381 2855 2742 
Q 2594 3103 2138 3103 
Q 1681 3103 1420 2742 
Q 1159 2381 1159 1747 
Q 1159 1113 1420 752 
Q 1681 391 2138 391 
Q 2594 391 2855 752 
Q 3116 1113 3116 1747 
z
" transform="scale(0.015625)"/>
      <path id="DejaVuSans-79" d="M 2059 -325 
Q 1816 -950 1584 -1140 
Q 1353 -1331 966 -1331 
L 506 -1331 
L 506 -850 
L 844 -850 
Q 1081 -850 1212 -737 
Q 1344 -625 1503 -206 
L 1606 56 
L 191 3500 
L 800 3500 
L 1894 763 
L 2988 3500 
L 3597 3500 
L 2059 -325 
z
" transform="scale(0.015625)"/>
      <path id="DejaVuSans-41" d="M 2188 4044 
L 1331 1722 
L 3047 1722 
L 2188 4044 
z
M 1831 4666 
L 2547 4666 
L 4325 0 
L 3669 0 
L 3244 1197 
L 1141 1197 
L 716 0 
L 50 0 
L 1831 4666 
z
" transform="scale(0.015625)"/>
      <path id="DejaVuSans-2e" d="M 684 794 
L 1344 794 
L 1344 0 
L 684 0 
L 684 794 
z
" transform="scale(0.015625)"/>
     </defs>
     <use xlink:href="#DejaVuSans-45"/>
     <use xlink:href="#DejaVuSans-6e" x="63.183594"/>
     <use xlink:href="#DejaVuSans-74" x="126.5625"/>
     <use xlink:href="#DejaVuSans-72" x="165.771484"/>
     <use xlink:href="#DejaVuSans-6f" x="204.634766"/>
     <use xlink:href="#DejaVuSans-70" x="265.816406"/>
     <use xlink:href="#DejaVuSans-79" x="329.292969"/>
     <use xlink:href="#DejaVuSans-20" x="388.472656"/>
     <use xlink:href="#DejaVuSans-76" x="420.259766"/>
     <use xlink:href="#DejaVuSans-73" x="479.439453"/>
     <use xlink:href="#DejaVuSans-20" x="531.539062"/>
     <use xlink:href="#DejaVuSans-41" x="563.326172"/>
     <use xlink:href="#DejaVuSans-76" x="625.859375"/>
     <use xlink:href="#DejaVuSans-67" x="685.039062"/>
     <use xlink:href="#DejaVuSans-2e" x="748.515625"/>
     <use xlink:href="#DejaVuSans-20" x="780.302734"/>
     <use xlink:href="#DejaVuSans-62" x="812.089844"/>
     <use xlink:href="#DejaVuSans-69" x="875.566406"/>
     <use xlink:href="#DejaVuSans-74" x="903.349609"/>
     <use xlink:href="#DejaVuSans-20" x="942.558594"/>
     <use xlink:href="#DejaVuSans-6c" x="974.345703"/>
     <use xlink:href="#DejaVuSans-65" x="1002.128906"/>
     <use xlink:href="#DejaVuSans-6e" x="1063.652344"/>
     <use xlink:href="#DejaVuSans-67" x="1127.03125"/>
     <use xlink:href="#DejaVuSans-74" x="1190.507812"/>
     <use xlink:href="#DejaVuSans-68" x="1229.716797"/>
    </g>
   </g>
   <g id="legend_1">
    <g id="patch_211">
     <path d="M 151 123.75625 
L 255.976562 123.75625 
Q 257.976562 123.75625 257.976562 121.75625 
L 257.976562 93.4 
Q 257.976562 91.4 255.976562 91.4 
L 151 91.4 
Q 149 91.4 149 93.4 
L 149 121.75625 
Q 149 123.75625 151 123.75625 
z
" style="fill: #ffffff; opacity: 0.8; stroke: #cccccc; stroke-linejoin: miter"/>
    </g>
    <g id="patch_212">
     <path d="M 153 102.998437 
L 173 102.998437 
L 173 95.998437 
L 153 95.998437 
z
" style="fill: #008000"/>
    </g>
    <g id="text_26">
     <!-- Avg. bit length -->
     <g transform="translate(181 102.998437)scale(0.1 -0.1)">
      <use xlink:href="#DejaVuSans-41"/>
      <use xlink:href="#DejaVuSans-76" x="62.533203"/>
      <use xlink:href="#DejaVuSans-67" x="121.712891"/>
      <use xlink:href="#DejaVuSans-2e" x="185.189453"/>
      <use xlink:href="#DejaVuSans-20" x="216.976562"/>
      <use xlink:href="#DejaVuSans-62" x="248.763672"/>
      <use xlink:href="#DejaVuSans-69" x="312.240234"/>
      <use xlink:href="#DejaVuSans-74" x="340.023438"/>
      <use xlink:href="#DejaVuSans-20" x="379.232422"/>
      <use xlink:href="#DejaVuSans-6c" x="411.019531"/>
      <use xlink:href="#DejaVuSans-65" x="438.802734"/>
      <use xlink:href="#DejaVuSans-6e" x="500.326172"/>
      <use xlink:href="#DejaVuSans-67" x="563.705078"/>
      <use xlink:href="#DejaVuSans-74" x="627.181641"/>
      <use xlink:href="#DejaVuSans-68" x="666.390625"/>
     </g>
    </g>
    <g id="patch_213">
     <path d="M 153 117.676562 
L 173 117.676562 
L 173 110.676562 
L 153 110.676562 
z
" style="fill: #bfbf00"/>
    </g>
    <g id="text_27">
     <!-- Entropy -->
     <g transform="translate(181 117.676562)scale(0.1 -0.1)">
      <use xlink:href="#DejaVuSans-45"/>
      <use xlink:href="#DejaVuSans-6e" x="63.183594"/>
      <use xlink:href="#DejaVuSans-74" x="126.5625"/>
      <use xlink:href="#DejaVuSans-72" x="165.771484"/>
      <use xlink:href="#DejaVuSans-6f" x="204.634766"/>
      <use xlink:href="#DejaVuSans-70" x="265.816406"/>
      <use xlink:href="#DejaVuSans-79" x="329.292969"/>
     </g>
    </g>
   </g>
  </g>
  <g id="text_28">
   <!-- Each bar represents different image in order: -->
   <g transform="translate(57.6 674.672222)scale(0.0833 -0.0833)">
    <defs>
     <path id="DejaVuSans-66" d="M 2375 4863 
L 2375 4384 
L 1825 4384 
Q 1516 4384 1395 4259 
Q 1275 4134 1275 3809 
L 1275 3500 
L 2222 3500 
L 2222 3053 
L 1275 3053 
L 1275 0 
L 697 0 
L 697 3053 
L 147 3053 
L 147 3500 
L 697 3500 
L 697 3744 
Q 697 4328 969 4595 
Q 1241 4863 1831 4863 
L 2375 4863 
z
" transform="scale(0.015625)"/>
     <path id="DejaVuSans-6d" d="M 3328 2828 
Q 3544 3216 3844 3400 
Q 4144 3584 4550 3584 
Q 5097 3584 5394 3201 
Q 5691 2819 5691 2113 
L 5691 0 
L 5113 0 
L 5113 2094 
Q 5113 2597 4934 2840 
Q 4756 3084 4391 3084 
Q 3944 3084 3684 2787 
Q 3425 2491 3425 1978 
L 3425 0 
L 2847 0 
L 2847 2094 
Q 2847 2600 2669 2842 
Q 2491 3084 2119 3084 
Q 1678 3084 1418 2786 
Q 1159 2488 1159 1978 
L 1159 0 
L 581 0 
L 581 3500 
L 1159 3500 
L 1159 2956 
Q 1356 3278 1631 3431 
Q 1906 3584 2284 3584 
Q 2666 3584 2933 3390 
Q 3200 3197 3328 2828 
z
" transform="scale(0.015625)"/>
     <path id="DejaVuSans-3a" d="M 750 794 
L 1409 794 
L 1409 0 
L 750 0 
L 750 794 
z
M 750 3309 
L 1409 3309 
L 1409 2516 
L 750 2516 
L 750 3309 
z
" transform="scale(0.015625)"/>
    </defs>
    <use xlink:href="#DejaVuSans-45"/>
    <use xlink:href="#DejaVuSans-61" x="63.183594"/>
    <use xlink:href="#DejaVuSans-63" x="124.462891"/>
    <use xlink:href="#DejaVuSans-68" x="179.443359"/>
    <use xlink:href="#DejaVuSans-20" x="242.822266"/>
    <use xlink:href="#DejaVuSans-62" x="274.609375"/>
    <use xlink:href="#DejaVuSans-61" x="338.085938"/>
    <use xlink:href="#DejaVuSans-72" x="399.365234"/>
    <use xlink:href="#DejaVuSans-20" x="440.478516"/>
    <use xlink:href="#DejaVuSans-72" x="472.265625"/>
    <use xlink:href="#DejaVuSans-65" x="511.128906"/>
    <use xlink:href="#DejaVuSans-70" x="572.652344"/>
    <use xlink:href="#DejaVuSans-72" x="636.128906"/>
    <use xlink:href="#DejaVuSans-65" x="674.992188"/>
    <use xlink:href="#DejaVuSans-73" x="736.515625"/>
    <use xlink:href="#DejaVuSans-65" x="788.615234"/>
    <use xlink:href="#DejaVuSans-6e" x="850.138672"/>
    <use xlink:href="#DejaVuSans-74" x="913.517578"/>
    <use xlink:href="#DejaVuSans-73" x="952.726562"/>
    <use xlink:href="#DejaVuSans-20" x="1004.826172"/>
    <use xlink:href="#DejaVuSans-64" x="1036.613281"/>
    <use xlink:href="#DejaVuSans-69" x="1100.089844"/>
    <use xlink:href="#DejaVuSans-66" x="1127.873047"/>
    <use xlink:href="#DejaVuSans-66" x="1163.078125"/>
    <use xlink:href="#DejaVuSans-65" x="1198.283203"/>
    <use xlink:href="#DejaVuSans-72" x="1259.806641"/>
    <use xlink:href="#DejaVuSans-65" x="1298.669922"/>
    <use xlink:href="#DejaVuSans-6e" x="1360.193359"/>
    <use xlink:href="#DejaVuSans-74" x="1423.572266"/>
    <use xlink:href="#DejaVuSans-20" x="1462.78125"/>
    <use xlink:href="#DejaVuSans-69" x="1494.568359"/>
    <use xlink:href="#DejaVuSans-6d" x="1522.351562"/>
    <use xlink:href="#DejaVuSans-61" x="1619.763672"/>
    <use xlink:href="#DejaVuSans-67" x="1681.042969"/>
    <use xlink:href="#DejaVuSans-65" x="1744.519531"/>
    <use xlink:href="#DejaVuSans-20" x="1806.042969"/>
    <use xlink:href="#DejaVuSans-69" x="1837.830078"/>
    <use xlink:href="#DejaVuSans-6e" x="1865.613281"/>
    <use xlink:href="#DejaVuSans-20" x="1928.992188"/>
    <use xlink:href="#DejaVuSans-6f" x="1960.779297"/>
    <use xlink:href="#DejaVuSans-72" x="2021.960938"/>
    <use xlink:href="#DejaVuSans-64" x="2061.324219"/>
    <use xlink:href="#DejaVuSans-65" x="2124.800781"/>
    <use xlink:href="#DejaVuSans-72" x="2186.324219"/>
    <use xlink:href="#DejaVuSans-3a" x="2225.6875"/>
   </g>
   <!--   boat.pgm, mandril.pgm, chronometer.pgm, barbara.pgm, lena.pgm, peppers.pgm -->
   <g transform="translate(57.6 684)scale(0.0833 -0.0833)">
    <defs>
     <path id="DejaVuSans-2c" d="M 750 794 
L 1409 794 
L 1409 256 
L 897 -744 
L 494 -744 
L 750 256 
L 750 794 
z
" transform="scale(0.015625)"/>
    </defs>
    <use xlink:href="#DejaVuSans-20"/>
    <use xlink:href="#DejaVuSans-20" x="31.787109"/>
    <use xlink:href="#DejaVuSans-62" x="63.574219"/>
    <use xlink:href="#DejaVuSans-6f" x="127.050781"/>
    <use xlink:href="#DejaVuSans-61" x="188.232422"/>
    <use xlink:href="#DejaVuSans-74" x="249.511719"/>
    <use xlink:href="#DejaVuSans-2e" x="288.720703"/>
    <use xlink:href="#DejaVuSans-70" x="320.507812"/>
    <use xlink:href="#DejaVuSans-67" x="383.984375"/>
    <use xlink:href="#DejaVuSans-6d" x="447.460938"/>
    <use xlink:href="#DejaVuSans-2c" x="544.873047"/>
    <use xlink:href="#DejaVuSans-20" x="576.660156"/>
    <use xlink:href="#DejaVuSans-6d" x="608.447266"/>
    <use xlink:href="#DejaVuSans-61" x="705.859375"/>
    <use xlink:href="#DejaVuSans-6e" x="767.138672"/>
    <use xlink:href="#DejaVuSans-64" x="830.517578"/>
    <use xlink:href="#DejaVuSans-72" x="893.994141"/>
    <use xlink:href="#DejaVuSans-69" x="935.107422"/>
    <use xlink:href="#DejaVuSans-6c" x="962.890625"/>
    <use xlink:href="#DejaVuSans-2e" x="990.673828"/>
    <use xlink:href="#DejaVuSans-70" x="1022.460938"/>
    <use xlink:href="#DejaVuSans-67" x="1085.9375"/>
    <use xlink:href="#DejaVuSans-6d" x="1149.414062"/>
    <use xlink:href="#DejaVuSans-2c" x="1246.826172"/>
    <use xlink:href="#DejaVuSans-20" x="1278.613281"/>
    <use xlink:href="#DejaVuSans-63" x="1310.400391"/>
    <use xlink:href="#DejaVuSans-68" x="1365.380859"/>
    <use xlink:href="#DejaVuSans-72" x="1428.759766"/>
    <use xlink:href="#DejaVuSans-6f" x="1467.623047"/>
    <use xlink:href="#DejaVuSans-6e" x="1528.804688"/>
    <use xlink:href="#DejaVuSans-6f" x="1592.183594"/>
    <use xlink:href="#DejaVuSans-6d" x="1653.365234"/>
    <use xlink:href="#DejaVuSans-65" x="1750.777344"/>
    <use xlink:href="#DejaVuSans-74" x="1812.300781"/>
    <use xlink:href="#DejaVuSans-65" x="1851.509766"/>
    <use xlink:href="#DejaVuSans-72" x="1913.033203"/>
    <use xlink:href="#DejaVuSans-2e" x="1945.021484"/>
    <use xlink:href="#DejaVuSans-70" x="1976.808594"/>
    <use xlink:href="#DejaVuSans-67" x="2040.285156"/>
    <use xlink:href="#DejaVuSans-6d" x="2103.761719"/>
    <use xlink:href="#DejaVuSans-2c" x="2201.173828"/>
    <use xlink:href="#DejaVuSans-20" x="2232.960938"/>
    <use xlink:href="#DejaVuSans-62" x="2264.748047"/>
    <use xlink:href="#DejaVuSans-61" x="2328.224609"/>
    <use xlink:href="#DejaVuSans-72" x="2389.503906"/>
    <use xlink:href="#DejaVuSans-62" x="2430.617188"/>
    <use xlink:href="#DejaVuSans-61" x="2494.09375"/>
    <use xlink:href="#DejaVuSans-72" x="2555.373047"/>
    <use xlink:href="#DejaVuSans-61" x="2596.486328"/>
    <use xlink:href="#DejaVuSans-2e" x="2657.765625"/>
    <use xlink:href="#DejaVuSans-70" x="2689.552734"/>
    <use xlink:href="#DejaVuSans-67" x="2753.029297"/>
    <use xlink:href="#DejaVuSans-6d" x="2816.505859"/>
    <use xlink:href="#DejaVuSans-2c" x="2913.917969"/>
    <use xlink:href="#DejaVuSans-20" x="2945.705078"/>
    <use xlink:href="#DejaVuSans-6c" x="2977.492188"/>
    <use xlink:href="#DejaVuSans-65" x="3005.275391"/>
    <use xlink:href="#DejaVuSans-6e" x="3066.798828"/>
    <use xlink:href="#DejaVuSans-61" x="3130.177734"/>
    <use xlink:href="#DejaVuSans-2e" x="3191.457031"/>
    <use xlink:href="#DejaVuSans-70" x="3223.244141"/>
    <use xlink:href="#DejaVuSans-67" x="3286.720703"/>
    <use xlink:href="#DejaVuSans-6d" x="3350.197266"/>
    <use xlink:href="#DejaVuSans-2c" x="3447.609375"/>
    <use xlink:href="#DejaVuSans-20" x="3479.396484"/>
    <use xlink:href="#DejaVuSans-70" x="3511.183594"/>
    <use xlink:href="#DejaVuSans-65" x="3574.660156"/>
    <use xlink:href="#DejaVuSans-70" x="3636.183594"/>
    <use xlink:href="#DejaVuSans-70" x="3699.660156"/>
    <use xlink:href="#DejaVuSans-65" x="3763.136719"/>
    <use xlink:href="#DejaVuSans-72" x="3824.660156"/>
    <use xlink:href="#DejaVuSans-73" x="3865.773438"/>
    <use xlink:href="#DejaVuSans-2e" x="3917.873047"/>
    <use xlink:href="#DejaVuSans-70" x="3949.660156"/>
    <use xlink:href="#DejaVuSans-67" x="4013.136719"/>
    <use xlink:href="#DejaVuSans-6d" x="4076.613281"/>
   </g>
  </g>
 </g>
 <defs>
  <clipPath id="p6596fadab7">
   <rect x="144" y="86.4" width="892.8" height="554.4"/>
  </clipPath>
 </defs>
</svg>
