<?xml version="1.0" encoding="utf-8" standalone="no"?>
<!DOCTYPE svg PUBLIC "-//W3C//DTD SVG 1.1//EN"
  "http://www.w3.org/Graphics/SVG/1.1/DTD/svg11.dtd">
<svg xmlns:xlink="http://www.w3.org/1999/xlink" width="1152pt" height="720pt" viewBox="0 0 1152 720" xmlns="http://www.w3.org/2000/svg" version="1.1">
 <metadata>
  <rdf:RDF xmlns:dc="http://purl.org/dc/elements/1.1/" xmlns:cc="http://creativecommons.org/ns#" xmlns:rdf="http://www.w3.org/1999/02/22-rdf-syntax-ns#">
   <cc:Work>
    <dc:type rdf:resource="http://purl.org/dc/dcmitype/StillImage"/>
    <dc:date>2022-06-09T23:18:57.557839</dc:date>
    <dc:format>image/svg+xml</dc:format>
    <dc:creator>
     <cc:Agent>
      <dc:title>Matplotlib v3.5.2, https://matplotlib.org/</dc:title>
     </cc:Agent>
    </dc:creator>
   </cc:Work>
  </rdf:RDF>
 </metadata>
 <defs>
  <style type="text/css">*{stroke-linejoin: round; stroke-linecap: butt}</style>
 </defs>
 <g id="figure_1">
  <g id="patch_1">
   <path d="M 0 720 
L 1152 720 
L 1152 0 
L 0 0 
z
" style="fill: #ffffff"/>
  </g>
  <g id="axes_1">
   <g id="patch_2">
    <path d="M 144 640.8 
L 1036.8 640.8 
L 1036.8 86.4 
L 144 86.4 
z
" style="fill: #ffffff"/>
   </g>
   <g id="patch_3">
    <path d="M 184.581818 640.8 
L 192.764233 640.8 
L 192.764233 253.989051 
L 184.581818 253.989051 
z
" clip-path="url(#p298225bf16)" style="fill: #008000"/>
   </g>
   <g id="patch_4">
    <path d="M 253.590133 640.8 
L 261.772547 640.8 
L 261.772547 209.773833 
L 253.590133 209.773833 
z
" clip-path="url(#p298225bf16)" style="fill: #008000"/>
   </g>
   <g id="patch_5">
    <path d="M 322.598447 640.8 
L 330.780862 640.8 
L 330.780862 168.904717 
L 322.598447 168.904717 
z
" clip-path="url(#p298225bf16)" style="fill: #008000"/>
   </g>
   <g id="patch_6">
    <path d="M 391.606762 640.8 
L 399.789177 640.8 
L 399.789177 140.149168 
L 391.606762 140.149168 
z
" clip-path="url(#p298225bf16)" style="fill: #008000"/>
   </g>
   <g id="patch_7">
    <path d="M 460.615077 640.8 
L 468.797491 640.8 
L 468.797491 124.263491 
L 460.615077 124.263491 
z
" clip-path="url(#p298225bf16)" style="fill: #008000"/>
   </g>
   <g id="patch_8">
    <path d="M 529.623391 640.8 
L 537.805806 640.8 
L 537.805806 134.082517 
L 529.623391 134.082517 
z
" clip-path="url(#p298225bf16)" style="fill: #008000"/>
   </g>
   <g id="patch_9">
    <path d="M 598.631706 640.8 
L 606.814121 640.8 
L 606.814121 179.446112 
L 598.631706 179.446112 
z
" clip-path="url(#p298225bf16)" style="fill: #008000"/>
   </g>
   <g id="patch_10">
    <path d="M 667.640021 640.8 
L 675.822435 640.8 
L 675.822435 252.916838 
L 667.640021 252.916838 
z
" clip-path="url(#p298225bf16)" style="fill: #008000"/>
   </g>
   <g id="patch_11">
    <path d="M 736.648335 640.8 
L 744.83075 640.8 
L 744.83075 259.8403 
L 736.648335 259.8403 
z
" clip-path="url(#p298225bf16)" style="fill: #008000"/>
   </g>
   <g id="patch_12">
    <path d="M 805.65665 640.8 
L 813.839065 640.8 
L 813.839065 245.987475 
L 805.65665 245.987475 
z
" clip-path="url(#p298225bf16)" style="fill: #008000"/>
   </g>
   <g id="patch_13">
    <path d="M 874.664965 640.8 
L 882.847379 640.8 
L 882.847379 236.720349 
L 874.664965 236.720349 
z
" clip-path="url(#p298225bf16)" style="fill: #008000"/>
   </g>
   <g id="patch_14">
    <path d="M 943.673279 640.8 
L 951.855694 640.8 
L 951.855694 226.344258 
L 943.673279 226.344258 
z
" clip-path="url(#p298225bf16)" style="fill: #008000"/>
   </g>
   <g id="patch_15">
    <path d="M 184.581818 640.8 
L 192.764233 640.8 
L 192.764233 280.811724 
L 184.581818 280.811724 
z
" clip-path="url(#p298225bf16)" style="fill: #bfbf00"/>
   </g>
   <g id="patch_16">
    <path d="M 253.590133 640.8 
L 261.772547 640.8 
L 261.772547 280.811724 
L 253.590133 280.811724 
z
" clip-path="url(#p298225bf16)" style="fill: #bfbf00"/>
   </g>
   <g id="patch_17">
    <path d="M 322.598447 640.8 
L 330.780862 640.8 
L 330.780862 280.811724 
L 322.598447 280.811724 
z
" clip-path="url(#p298225bf16)" style="fill: #bfbf00"/>
   </g>
   <g id="patch_18">
    <path d="M 391.606762 640.8 
L 399.789177 640.8 
L 399.789177 280.811724 
L 391.606762 280.811724 
z
" clip-path="url(#p298225bf16)" style="fill: #bfbf00"/>
   </g>
   <g id="patch_19">
    <path d="M 460.615077 640.8 
L 468.797491 640.8 
L 468.797491 280.811724 
L 460.615077 280.811724 
z
" clip-path="url(#p298225bf16)" style="fill: #bfbf00"/>
   </g>
   <g id="patch_20">
    <path d="M 529.623391 640.8 
L 537.805806 640.8 
L 537.805806 280.811724 
L 529.623391 280.811724 
z
" clip-path="url(#p298225bf16)" style="fill: #bfbf00"/>
   </g>
   <g id="patch_21">
    <path d="M 598.631706 640.8 
L 606.814121 640.8 
L 606.814121 280.811724 
L 598.631706 280.811724 
z
" clip-path="url(#p298225bf16)" style="fill: #bfbf00"/>
   </g>
   <g id="patch_22">
    <path d="M 667.640021 640.8 
L 675.822435 640.8 
L 675.822435 280.811724 
L 667.640021 280.811724 
z
" clip-path="url(#p298225bf16)" style="fill: #bfbf00"/>
   </g>
   <g id="patch_23">
    <path d="M 736.648335 640.8 
L 744.83075 640.8 
L 744.83075 280.811724 
L 736.648335 280.811724 
z
" clip-path="url(#p298225bf16)" style="fill: #bfbf00"/>
   </g>
   <g id="patch_24">
    <path d="M 805.65665 640.8 
L 813.839065 640.8 
L 813.839065 280.811724 
L 805.65665 280.811724 
z
" clip-path="url(#p298225bf16)" style="fill: #bfbf00"/>
   </g>
   <g id="patch_25">
    <path d="M 874.664965 640.8 
L 882.847379 640.8 
L 882.847379 280.811724 
L 874.664965 280.811724 
z
" clip-path="url(#p298225bf16)" style="fill: #bfbf00"/>
   </g>
   <g id="patch_26">
    <path d="M 943.673279 640.8 
L 951.855694 640.8 
L 951.855694 280.811724 
L 943.673279 280.811724 
z
" clip-path="url(#p298225bf16)" style="fill: #bfbf00"/>
   </g>
   <g id="patch_27">
    <path d="M 193.454316 640.8 
L 201.63673 640.8 
L 201.63673 253.989051 
L 193.454316 253.989051 
z
" clip-path="url(#p298225bf16)" style="fill: #008000"/>
   </g>
   <g id="patch_28">
    <path d="M 262.46263 640.8 
L 270.645045 640.8 
L 270.645045 210.23691 
L 262.46263 210.23691 
z
" clip-path="url(#p298225bf16)" style="fill: #008000"/>
   </g>
   <g id="patch_29">
    <path d="M 331.470945 640.8 
L 339.65336 640.8 
L 339.65336 171.11959 
L 331.470945 171.11959 
z
" clip-path="url(#p298225bf16)" style="fill: #008000"/>
   </g>
   <g id="patch_30">
    <path d="M 400.47926 640.8 
L 408.661674 640.8 
L 408.661674 143.53289 
L 400.47926 143.53289 
z
" clip-path="url(#p298225bf16)" style="fill: #008000"/>
   </g>
   <g id="patch_31">
    <path d="M 469.487574 640.8 
L 477.669989 640.8 
L 477.669989 128.623159 
L 469.487574 128.623159 
z
" clip-path="url(#p298225bf16)" style="fill: #008000"/>
   </g>
   <g id="patch_32">
    <path d="M 538.495889 640.8 
L 546.678304 640.8 
L 546.678304 140.838527 
L 538.495889 140.838527 
z
" clip-path="url(#p298225bf16)" style="fill: #008000"/>
   </g>
   <g id="patch_33">
    <path d="M 607.504204 640.8 
L 615.686618 640.8 
L 615.686618 188.079877 
L 607.504204 188.079877 
z
" clip-path="url(#p298225bf16)" style="fill: #008000"/>
   </g>
   <g id="patch_34">
    <path d="M 676.512518 640.8 
L 684.694933 640.8 
L 684.694933 263.037239 
L 676.512518 263.037239 
z
" clip-path="url(#p298225bf16)" style="fill: #008000"/>
   </g>
   <g id="patch_35">
    <path d="M 745.520833 640.8 
L 753.703247 640.8 
L 753.703247 260.809633 
L 745.520833 260.809633 
z
" clip-path="url(#p298225bf16)" style="fill: #008000"/>
   </g>
   <g id="patch_36">
    <path d="M 814.529148 640.8 
L 822.711562 640.8 
L 822.711562 247.536226 
L 814.529148 247.536226 
z
" clip-path="url(#p298225bf16)" style="fill: #008000"/>
   </g>
   <g id="patch_37">
    <path d="M 883.537462 640.8 
L 891.719877 640.8 
L 891.719877 234.297073 
L 883.537462 234.297073 
z
" clip-path="url(#p298225bf16)" style="fill: #008000"/>
   </g>
   <g id="patch_38">
    <path d="M 952.545777 640.8 
L 960.728191 640.8 
L 960.728191 222.807166 
L 952.545777 222.807166 
z
" clip-path="url(#p298225bf16)" style="fill: #008000"/>
   </g>
   <g id="patch_39">
    <path d="M 193.454316 640.8 
L 201.63673 640.8 
L 201.63673 288.184862 
L 193.454316 288.184862 
z
" clip-path="url(#p298225bf16)" style="fill: #bfbf00"/>
   </g>
   <g id="patch_40">
    <path d="M 262.46263 640.8 
L 270.645045 640.8 
L 270.645045 288.184862 
L 262.46263 288.184862 
z
" clip-path="url(#p298225bf16)" style="fill: #bfbf00"/>
   </g>
   <g id="patch_41">
    <path d="M 331.470945 640.8 
L 339.65336 640.8 
L 339.65336 288.184862 
L 331.470945 288.184862 
z
" clip-path="url(#p298225bf16)" style="fill: #bfbf00"/>
   </g>
   <g id="patch_42">
    <path d="M 400.47926 640.8 
L 408.661674 640.8 
L 408.661674 288.184862 
L 400.47926 288.184862 
z
" clip-path="url(#p298225bf16)" style="fill: #bfbf00"/>
   </g>
   <g id="patch_43">
    <path d="M 469.487574 640.8 
L 477.669989 640.8 
L 477.669989 288.184862 
L 469.487574 288.184862 
z
" clip-path="url(#p298225bf16)" style="fill: #bfbf00"/>
   </g>
   <g id="patch_44">
    <path d="M 538.495889 640.8 
L 546.678304 640.8 
L 546.678304 288.184862 
L 538.495889 288.184862 
z
" clip-path="url(#p298225bf16)" style="fill: #bfbf00"/>
   </g>
   <g id="patch_45">
    <path d="M 607.504204 640.8 
L 615.686618 640.8 
L 615.686618 288.184862 
L 607.504204 288.184862 
z
" clip-path="url(#p298225bf16)" style="fill: #bfbf00"/>
   </g>
   <g id="patch_46">
    <path d="M 676.512518 640.8 
L 684.694933 640.8 
L 684.694933 288.184862 
L 676.512518 288.184862 
z
" clip-path="url(#p298225bf16)" style="fill: #bfbf00"/>
   </g>
   <g id="patch_47">
    <path d="M 745.520833 640.8 
L 753.703247 640.8 
L 753.703247 288.184862 
L 745.520833 288.184862 
z
" clip-path="url(#p298225bf16)" style="fill: #bfbf00"/>
   </g>
   <g id="patch_48">
    <path d="M 814.529148 640.8 
L 822.711562 640.8 
L 822.711562 288.184862 
L 814.529148 288.184862 
z
" clip-path="url(#p298225bf16)" style="fill: #bfbf00"/>
   </g>
   <g id="patch_49">
    <path d="M 883.537462 640.8 
L 891.719877 640.8 
L 891.719877 288.184862 
L 883.537462 288.184862 
z
" clip-path="url(#p298225bf16)" style="fill: #bfbf00"/>
   </g>
   <g id="patch_50">
    <path d="M 952.545777 640.8 
L 960.728191 640.8 
L 960.728191 288.184862 
L 952.545777 288.184862 
z
" clip-path="url(#p298225bf16)" style="fill: #bfbf00"/>
   </g>
   <g id="patch_51">
    <path d="M 202.326813 640.8 
L 210.509228 640.8 
L 210.509228 253.989051 
L 202.326813 253.989051 
z
" clip-path="url(#p298225bf16)" style="fill: #008000"/>
   </g>
   <g id="patch_52">
    <path d="M 271.335128 640.8 
L 279.517542 640.8 
L 279.517542 214.613728 
L 271.335128 214.613728 
z
" clip-path="url(#p298225bf16)" style="fill: #008000"/>
   </g>
   <g id="patch_53">
    <path d="M 340.343443 640.8 
L 348.525857 640.8 
L 348.525857 184.106383 
L 340.343443 184.106383 
z
" clip-path="url(#p298225bf16)" style="fill: #008000"/>
   </g>
   <g id="patch_54">
    <path d="M 409.351757 640.8 
L 417.534172 640.8 
L 417.534172 164.577691 
L 409.351757 164.577691 
z
" clip-path="url(#p298225bf16)" style="fill: #008000"/>
   </g>
   <g id="patch_55">
    <path d="M 478.360072 640.8 
L 486.542486 640.8 
L 486.542486 162.347511 
L 478.360072 162.347511 
z
" clip-path="url(#p298225bf16)" style="fill: #008000"/>
   </g>
   <g id="patch_56">
    <path d="M 547.368387 640.8 
L 555.550801 640.8 
L 555.550801 177.188638 
L 547.368387 177.188638 
z
" clip-path="url(#p298225bf16)" style="fill: #008000"/>
   </g>
   <g id="patch_57">
    <path d="M 616.376701 640.8 
L 624.559116 640.8 
L 624.559116 204.319823 
L 616.376701 204.319823 
z
" clip-path="url(#p298225bf16)" style="fill: #008000"/>
   </g>
   <g id="patch_58">
    <path d="M 685.385016 640.8 
L 693.56743 640.8 
L 693.56743 236.89174 
L 685.385016 236.89174 
z
" clip-path="url(#p298225bf16)" style="fill: #008000"/>
   </g>
   <g id="patch_59">
    <path d="M 754.393331 640.8 
L 762.575745 640.8 
L 762.575745 260.728462 
L 754.393331 260.728462 
z
" clip-path="url(#p298225bf16)" style="fill: #008000"/>
   </g>
   <g id="patch_60">
    <path d="M 823.401645 640.8 
L 831.58406 640.8 
L 831.58406 261.27603 
L 823.401645 261.27603 
z
" clip-path="url(#p298225bf16)" style="fill: #008000"/>
   </g>
   <g id="patch_61">
    <path d="M 892.40996 640.8 
L 900.592374 640.8 
L 900.592374 259.311386 
L 892.40996 259.311386 
z
" clip-path="url(#p298225bf16)" style="fill: #008000"/>
   </g>
   <g id="patch_62">
    <path d="M 961.418275 640.8 
L 969.600689 640.8 
L 969.600689 256.956918 
L 961.418275 256.956918 
z
" clip-path="url(#p298225bf16)" style="fill: #008000"/>
   </g>
   <g id="patch_63">
    <path d="M 202.326813 640.8 
L 210.509228 640.8 
L 210.509228 293.075618 
L 202.326813 293.075618 
z
" clip-path="url(#p298225bf16)" style="fill: #bfbf00"/>
   </g>
   <g id="patch_64">
    <path d="M 271.335128 640.8 
L 279.517542 640.8 
L 279.517542 293.075618 
L 271.335128 293.075618 
z
" clip-path="url(#p298225bf16)" style="fill: #bfbf00"/>
   </g>
   <g id="patch_65">
    <path d="M 340.343443 640.8 
L 348.525857 640.8 
L 348.525857 293.075618 
L 340.343443 293.075618 
z
" clip-path="url(#p298225bf16)" style="fill: #bfbf00"/>
   </g>
   <g id="patch_66">
    <path d="M 409.351757 640.8 
L 417.534172 640.8 
L 417.534172 293.075618 
L 409.351757 293.075618 
z
" clip-path="url(#p298225bf16)" style="fill: #bfbf00"/>
   </g>
   <g id="patch_67">
    <path d="M 478.360072 640.8 
L 486.542486 640.8 
L 486.542486 293.075618 
L 478.360072 293.075618 
z
" clip-path="url(#p298225bf16)" style="fill: #bfbf00"/>
   </g>
   <g id="patch_68">
    <path d="M 547.368387 640.8 
L 555.550801 640.8 
L 555.550801 293.075618 
L 547.368387 293.075618 
z
" clip-path="url(#p298225bf16)" style="fill: #bfbf00"/>
   </g>
   <g id="patch_69">
    <path d="M 616.376701 640.8 
L 624.559116 640.8 
L 624.559116 293.075618 
L 616.376701 293.075618 
z
" clip-path="url(#p298225bf16)" style="fill: #bfbf00"/>
   </g>
   <g id="patch_70">
    <path d="M 685.385016 640.8 
L 693.56743 640.8 
L 693.56743 293.075618 
L 685.385016 293.075618 
z
" clip-path="url(#p298225bf16)" style="fill: #bfbf00"/>
   </g>
   <g id="patch_71">
    <path d="M 754.393331 640.8 
L 762.575745 640.8 
L 762.575745 293.075618 
L 754.393331 293.075618 
z
" clip-path="url(#p298225bf16)" style="fill: #bfbf00"/>
   </g>
   <g id="patch_72">
    <path d="M 823.401645 640.8 
L 831.58406 640.8 
L 831.58406 293.075618 
L 823.401645 293.075618 
z
" clip-path="url(#p298225bf16)" style="fill: #bfbf00"/>
   </g>
   <g id="patch_73">
    <path d="M 892.40996 640.8 
L 900.592374 640.8 
L 900.592374 293.075618 
L 892.40996 293.075618 
z
" clip-path="url(#p298225bf16)" style="fill: #bfbf00"/>
   </g>
   <g id="patch_74">
    <path d="M 961.418275 640.8 
L 969.600689 640.8 
L 969.600689 293.075618 
L 961.418275 293.075618 
z
" clip-path="url(#p298225bf16)" style="fill: #bfbf00"/>
   </g>
   <g id="patch_75">
    <path d="M 211.199311 640.8 
L 219.381725 640.8 
L 219.381725 253.989051 
L 211.199311 253.989051 
z
" clip-path="url(#p298225bf16)" style="fill: #008000"/>
   </g>
   <g id="patch_76">
    <path d="M 280.207626 640.8 
L 288.39004 640.8 
L 288.39004 233.779115 
L 280.207626 233.779115 
z
" clip-path="url(#p298225bf16)" style="fill: #008000"/>
   </g>
   <g id="patch_77">
    <path d="M 349.21594 640.8 
L 357.398355 640.8 
L 357.398355 216.104941 
L 349.21594 216.104941 
z
" clip-path="url(#p298225bf16)" style="fill: #008000"/>
   </g>
   <g id="patch_78">
    <path d="M 418.224255 640.8 
L 426.406669 640.8 
L 426.406669 212.252057 
L 418.224255 212.252057 
z
" clip-path="url(#p298225bf16)" style="fill: #008000"/>
   </g>
   <g id="patch_79">
    <path d="M 487.23257 640.8 
L 495.414984 640.8 
L 495.414984 232.562502 
L 487.23257 232.562502 
z
" clip-path="url(#p298225bf16)" style="fill: #008000"/>
   </g>
   <g id="patch_80">
    <path d="M 556.240884 640.8 
L 564.423299 640.8 
L 564.423299 256.112636 
L 556.240884 256.112636 
z
" clip-path="url(#p298225bf16)" style="fill: #008000"/>
   </g>
   <g id="patch_81">
    <path d="M 625.249199 640.8 
L 633.431613 640.8 
L 633.431613 249.8304 
L 625.249199 249.8304 
z
" clip-path="url(#p298225bf16)" style="fill: #008000"/>
   </g>
   <g id="patch_82">
    <path d="M 694.257514 640.8 
L 702.439928 640.8 
L 702.439928 264.612594 
L 694.257514 264.612594 
z
" clip-path="url(#p298225bf16)" style="fill: #008000"/>
   </g>
   <g id="patch_83">
    <path d="M 763.265828 640.8 
L 771.448243 640.8 
L 771.448243 290.576464 
L 763.265828 290.576464 
z
" clip-path="url(#p298225bf16)" style="fill: #008000"/>
   </g>
   <g id="patch_84">
    <path d="M 832.274143 640.8 
L 840.456557 640.8 
L 840.456557 304.611742 
L 832.274143 304.611742 
z
" clip-path="url(#p298225bf16)" style="fill: #008000"/>
   </g>
   <g id="patch_85">
    <path d="M 901.282458 640.8 
L 909.464872 640.8 
L 909.464872 307.580872 
L 901.282458 307.580872 
z
" clip-path="url(#p298225bf16)" style="fill: #008000"/>
   </g>
   <g id="patch_86">
    <path d="M 970.290772 640.8 
L 978.473187 640.8 
L 978.473187 303.299221 
L 970.290772 303.299221 
z
" clip-path="url(#p298225bf16)" style="fill: #008000"/>
   </g>
   <g id="patch_87">
    <path d="M 211.199311 640.8 
L 219.381725 640.8 
L 219.381725 345.176697 
L 211.199311 345.176697 
z
" clip-path="url(#p298225bf16)" style="fill: #bfbf00"/>
   </g>
   <g id="patch_88">
    <path d="M 280.207626 640.8 
L 288.39004 640.8 
L 288.39004 345.176697 
L 280.207626 345.176697 
z
" clip-path="url(#p298225bf16)" style="fill: #bfbf00"/>
   </g>
   <g id="patch_89">
    <path d="M 349.21594 640.8 
L 357.398355 640.8 
L 357.398355 345.176697 
L 349.21594 345.176697 
z
" clip-path="url(#p298225bf16)" style="fill: #bfbf00"/>
   </g>
   <g id="patch_90">
    <path d="M 418.224255 640.8 
L 426.406669 640.8 
L 426.406669 345.176697 
L 418.224255 345.176697 
z
" clip-path="url(#p298225bf16)" style="fill: #bfbf00"/>
   </g>
   <g id="patch_91">
    <path d="M 487.23257 640.8 
L 495.414984 640.8 
L 495.414984 345.176697 
L 487.23257 345.176697 
z
" clip-path="url(#p298225bf16)" style="fill: #bfbf00"/>
   </g>
   <g id="patch_92">
    <path d="M 556.240884 640.8 
L 564.423299 640.8 
L 564.423299 345.176697 
L 556.240884 345.176697 
z
" clip-path="url(#p298225bf16)" style="fill: #bfbf00"/>
   </g>
   <g id="patch_93">
    <path d="M 625.249199 640.8 
L 633.431613 640.8 
L 633.431613 345.176697 
L 625.249199 345.176697 
z
" clip-path="url(#p298225bf16)" style="fill: #bfbf00"/>
   </g>
   <g id="patch_94">
    <path d="M 694.257514 640.8 
L 702.439928 640.8 
L 702.439928 345.176697 
L 694.257514 345.176697 
z
" clip-path="url(#p298225bf16)" style="fill: #bfbf00"/>
   </g>
   <g id="patch_95">
    <path d="M 763.265828 640.8 
L 771.448243 640.8 
L 771.448243 345.176697 
L 763.265828 345.176697 
z
" clip-path="url(#p298225bf16)" style="fill: #bfbf00"/>
   </g>
   <g id="patch_96">
    <path d="M 832.274143 640.8 
L 840.456557 640.8 
L 840.456557 345.176697 
L 832.274143 345.176697 
z
" clip-path="url(#p298225bf16)" style="fill: #bfbf00"/>
   </g>
   <g id="patch_97">
    <path d="M 901.282458 640.8 
L 909.464872 640.8 
L 909.464872 345.176697 
L 901.282458 345.176697 
z
" clip-path="url(#p298225bf16)" style="fill: #bfbf00"/>
   </g>
   <g id="patch_98">
    <path d="M 970.290772 640.8 
L 978.473187 640.8 
L 978.473187 345.176697 
L 970.290772 345.176697 
z
" clip-path="url(#p298225bf16)" style="fill: #bfbf00"/>
   </g>
   <g id="patch_99">
    <path d="M 220.071809 640.8 
L 228.254223 640.8 
L 228.254223 253.989051 
L 220.071809 253.989051 
z
" clip-path="url(#p298225bf16)" style="fill: #008000"/>
   </g>
   <g id="patch_100">
    <path d="M 289.080123 640.8 
L 297.262538 640.8 
L 297.262538 208.973823 
L 289.080123 208.973823 
z
" clip-path="url(#p298225bf16)" style="fill: #008000"/>
   </g>
   <g id="patch_101">
    <path d="M 358.088438 640.8 
L 366.270852 640.8 
L 366.270852 167.678329 
L 358.088438 167.678329 
z
" clip-path="url(#p298225bf16)" style="fill: #008000"/>
   </g>
   <g id="patch_102">
    <path d="M 427.096753 640.8 
L 435.279167 640.8 
L 435.279167 131.069109 
L 427.096753 131.069109 
z
" clip-path="url(#p298225bf16)" style="fill: #008000"/>
   </g>
   <g id="patch_103">
    <path d="M 496.105067 640.8 
L 504.287482 640.8 
L 504.287482 112.8 
L 496.105067 112.8 
z
" clip-path="url(#p298225bf16)" style="fill: #008000"/>
   </g>
   <g id="patch_104">
    <path d="M 565.113382 640.8 
L 573.295796 640.8 
L 573.295796 116.267079 
L 565.113382 116.267079 
z
" clip-path="url(#p298225bf16)" style="fill: #008000"/>
   </g>
   <g id="patch_105">
    <path d="M 634.121696 640.8 
L 642.304111 640.8 
L 642.304111 149.319009 
L 634.121696 149.319009 
z
" clip-path="url(#p298225bf16)" style="fill: #008000"/>
   </g>
   <g id="patch_106">
    <path d="M 703.130011 640.8 
L 711.312426 640.8 
L 711.312426 220.509791 
L 703.130011 220.509791 
z
" clip-path="url(#p298225bf16)" style="fill: #008000"/>
   </g>
   <g id="patch_107">
    <path d="M 772.138326 640.8 
L 780.32074 640.8 
L 780.32074 256.191761 
L 772.138326 256.191761 
z
" clip-path="url(#p298225bf16)" style="fill: #008000"/>
   </g>
   <g id="patch_108">
    <path d="M 841.14664 640.8 
L 849.329055 640.8 
L 849.329055 238.348776 
L 841.14664 238.348776 
z
" clip-path="url(#p298225bf16)" style="fill: #008000"/>
   </g>
   <g id="patch_109">
    <path d="M 910.154955 640.8 
L 918.33737 640.8 
L 918.33737 222.280278 
L 910.154955 222.280278 
z
" clip-path="url(#p298225bf16)" style="fill: #008000"/>
   </g>
   <g id="patch_110">
    <path d="M 979.16327 640.8 
L 987.345684 640.8 
L 987.345684 208.143025 
L 979.16327 208.143025 
z
" clip-path="url(#p298225bf16)" style="fill: #008000"/>
   </g>
   <g id="patch_111">
    <path d="M 220.071809 640.8 
L 228.254223 640.8 
L 228.254223 271.770834 
L 220.071809 271.770834 
z
" clip-path="url(#p298225bf16)" style="fill: #bfbf00"/>
   </g>
   <g id="patch_112">
    <path d="M 289.080123 640.8 
L 297.262538 640.8 
L 297.262538 271.770834 
L 289.080123 271.770834 
z
" clip-path="url(#p298225bf16)" style="fill: #bfbf00"/>
   </g>
   <g id="patch_113">
    <path d="M 358.088438 640.8 
L 366.270852 640.8 
L 366.270852 271.770834 
L 358.088438 271.770834 
z
" clip-path="url(#p298225bf16)" style="fill: #bfbf00"/>
   </g>
   <g id="patch_114">
    <path d="M 427.096753 640.8 
L 435.279167 640.8 
L 435.279167 271.770834 
L 427.096753 271.770834 
z
" clip-path="url(#p298225bf16)" style="fill: #bfbf00"/>
   </g>
   <g id="patch_115">
    <path d="M 496.105067 640.8 
L 504.287482 640.8 
L 504.287482 271.770834 
L 496.105067 271.770834 
z
" clip-path="url(#p298225bf16)" style="fill: #bfbf00"/>
   </g>
   <g id="patch_116">
    <path d="M 565.113382 640.8 
L 573.295796 640.8 
L 573.295796 271.770834 
L 565.113382 271.770834 
z
" clip-path="url(#p298225bf16)" style="fill: #bfbf00"/>
   </g>
   <g id="patch_117">
    <path d="M 634.121696 640.8 
L 642.304111 640.8 
L 642.304111 271.770834 
L 634.121696 271.770834 
z
" clip-path="url(#p298225bf16)" style="fill: #bfbf00"/>
   </g>
   <g id="patch_118">
    <path d="M 703.130011 640.8 
L 711.312426 640.8 
L 711.312426 271.770834 
L 703.130011 271.770834 
z
" clip-path="url(#p298225bf16)" style="fill: #bfbf00"/>
   </g>
   <g id="patch_119">
    <path d="M 772.138326 640.8 
L 780.32074 640.8 
L 780.32074 271.770834 
L 772.138326 271.770834 
z
" clip-path="url(#p298225bf16)" style="fill: #bfbf00"/>
   </g>
   <g id="patch_120">
    <path d="M 841.14664 640.8 
L 849.329055 640.8 
L 849.329055 271.770834 
L 841.14664 271.770834 
z
" clip-path="url(#p298225bf16)" style="fill: #bfbf00"/>
   </g>
   <g id="patch_121">
    <path d="M 910.154955 640.8 
L 918.33737 640.8 
L 918.33737 271.770834 
L 910.154955 271.770834 
z
" clip-path="url(#p298225bf16)" style="fill: #bfbf00"/>
   </g>
   <g id="patch_122">
    <path d="M 979.16327 640.8 
L 987.345684 640.8 
L 987.345684 271.770834 
L 979.16327 271.770834 
z
" clip-path="url(#p298225bf16)" style="fill: #bfbf00"/>
   </g>
   <g id="patch_123">
    <path d="M 228.944306 640.8 
L 237.126721 640.8 
L 237.126721 253.989051 
L 228.944306 253.989051 
z
" clip-path="url(#p298225bf16)" style="fill: #008000"/>
   </g>
   <g id="patch_124">
    <path d="M 297.952621 640.8 
L 306.135035 640.8 
L 306.135035 225.320917 
L 297.952621 225.320917 
z
" clip-path="url(#p298225bf16)" style="fill: #008000"/>
   </g>
   <g id="patch_125">
    <path d="M 366.960935 640.8 
L 375.14335 640.8 
L 375.14335 198.810118 
L 366.960935 198.810118 
z
" clip-path="url(#p298225bf16)" style="fill: #008000"/>
   </g>
   <g id="patch_126">
    <path d="M 435.96925 640.8 
L 444.151665 640.8 
L 444.151665 195.341563 
L 435.96925 195.341563 
z
" clip-path="url(#p298225bf16)" style="fill: #008000"/>
   </g>
   <g id="patch_127">
    <path d="M 504.977565 640.8 
L 513.159979 640.8 
L 513.159979 212.851051 
L 504.977565 212.851051 
z
" clip-path="url(#p298225bf16)" style="fill: #008000"/>
   </g>
   <g id="patch_128">
    <path d="M 573.985879 640.8 
L 582.168294 640.8 
L 582.168294 248.741385 
L 573.985879 248.741385 
z
" clip-path="url(#p298225bf16)" style="fill: #008000"/>
   </g>
   <g id="patch_129">
    <path d="M 642.994194 640.8 
L 651.176609 640.8 
L 651.176609 287.658574 
L 642.994194 287.658574 
z
" clip-path="url(#p298225bf16)" style="fill: #008000"/>
   </g>
   <g id="patch_130">
    <path d="M 712.002509 640.8 
L 720.184923 640.8 
L 720.184923 286.56183 
L 712.002509 286.56183 
z
" clip-path="url(#p298225bf16)" style="fill: #008000"/>
   </g>
   <g id="patch_131">
    <path d="M 781.010823 640.8 
L 789.193238 640.8 
L 789.193238 279.096605 
L 781.010823 279.096605 
z
" clip-path="url(#p298225bf16)" style="fill: #008000"/>
   </g>
   <g id="patch_132">
    <path d="M 850.019138 640.8 
L 858.201553 640.8 
L 858.201553 266.898756 
L 850.019138 266.898756 
z
" clip-path="url(#p298225bf16)" style="fill: #008000"/>
   </g>
   <g id="patch_133">
    <path d="M 919.027453 640.8 
L 927.209867 640.8 
L 927.209867 264.350453 
L 919.027453 264.350453 
z
" clip-path="url(#p298225bf16)" style="fill: #008000"/>
   </g>
   <g id="patch_134">
    <path d="M 988.035767 640.8 
L 996.218182 640.8 
L 996.218182 271.096873 
L 988.035767 271.096873 
z
" clip-path="url(#p298225bf16)" style="fill: #008000"/>
   </g>
   <g id="patch_135">
    <path d="M 228.944306 640.8 
L 237.126721 640.8 
L 237.126721 313.803703 
L 228.944306 313.803703 
z
" clip-path="url(#p298225bf16)" style="fill: #bfbf00"/>
   </g>
   <g id="patch_136">
    <path d="M 297.952621 640.8 
L 306.135035 640.8 
L 306.135035 313.803703 
L 297.952621 313.803703 
z
" clip-path="url(#p298225bf16)" style="fill: #bfbf00"/>
   </g>
   <g id="patch_137">
    <path d="M 366.960935 640.8 
L 375.14335 640.8 
L 375.14335 313.803703 
L 366.960935 313.803703 
z
" clip-path="url(#p298225bf16)" style="fill: #bfbf00"/>
   </g>
   <g id="patch_138">
    <path d="M 435.96925 640.8 
L 444.151665 640.8 
L 444.151665 313.803703 
L 435.96925 313.803703 
z
" clip-path="url(#p298225bf16)" style="fill: #bfbf00"/>
   </g>
   <g id="patch_139">
    <path d="M 504.977565 640.8 
L 513.159979 640.8 
L 513.159979 313.803703 
L 504.977565 313.803703 
z
" clip-path="url(#p298225bf16)" style="fill: #bfbf00"/>
   </g>
   <g id="patch_140">
    <path d="M 573.985879 640.8 
L 582.168294 640.8 
L 582.168294 313.803703 
L 573.985879 313.803703 
z
" clip-path="url(#p298225bf16)" style="fill: #bfbf00"/>
   </g>
   <g id="patch_141">
    <path d="M 642.994194 640.8 
L 651.176609 640.8 
L 651.176609 313.803703 
L 642.994194 313.803703 
z
" clip-path="url(#p298225bf16)" style="fill: #bfbf00"/>
   </g>
   <g id="patch_142">
    <path d="M 712.002509 640.8 
L 720.184923 640.8 
L 720.184923 313.803703 
L 712.002509 313.803703 
z
" clip-path="url(#p298225bf16)" style="fill: #bfbf00"/>
   </g>
   <g id="patch_143">
    <path d="M 781.010823 640.8 
L 789.193238 640.8 
L 789.193238 313.803703 
L 781.010823 313.803703 
z
" clip-path="url(#p298225bf16)" style="fill: #bfbf00"/>
   </g>
   <g id="patch_144">
    <path d="M 850.019138 640.8 
L 858.201553 640.8 
L 858.201553 313.803703 
L 850.019138 313.803703 
z
" clip-path="url(#p298225bf16)" style="fill: #bfbf00"/>
   </g>
   <g id="patch_145">
    <path d="M 919.027453 640.8 
L 927.209867 640.8 
L 927.209867 313.803703 
L 919.027453 313.803703 
z
" clip-path="url(#p298225bf16)" style="fill: #bfbf00"/>
   </g>
   <g id="patch_146">
    <path d="M 988.035767 640.8 
L 996.218182 640.8 
L 996.218182 313.803703 
L 988.035767 313.803703 
z
" clip-path="url(#p298225bf16)" style="fill: #bfbf00"/>
   </g>
   <g id="matplotlib.axis_1">
    <g id="xtick_1">
     <g id="line2d_1">
      <defs>
       <path id="m1ed0bdf34e" d="M 0 0 
L 0 3.5 
" style="stroke: #000000; stroke-width: 0.8"/>
      </defs>
      <g>
       <use xlink:href="#m1ed0bdf34e" x="215.290518" y="640.8" style="stroke: #000000; stroke-width: 0.8"/>
      </g>
     </g>
     <g id="text_1">
      <!-- 8 -->
      <g transform="translate(212.109268 655.398438)scale(0.1 -0.1)">
       <defs>
        <path id="DejaVuSans-38" d="M 2034 2216 
Q 1584 2216 1326 1975 
Q 1069 1734 1069 1313 
Q 1069 891 1326 650 
Q 1584 409 2034 409 
Q 2484 409 2743 651 
Q 3003 894 3003 1313 
Q 3003 1734 2745 1975 
Q 2488 2216 2034 2216 
z
M 1403 2484 
Q 997 2584 770 2862 
Q 544 3141 544 3541 
Q 544 4100 942 4425 
Q 1341 4750 2034 4750 
Q 2731 4750 3128 4425 
Q 3525 4100 3525 3541 
Q 3525 3141 3298 2862 
Q 3072 2584 2669 2484 
Q 3125 2378 3379 2068 
Q 3634 1759 3634 1313 
Q 3634 634 3220 271 
Q 2806 -91 2034 -91 
Q 1263 -91 848 271 
Q 434 634 434 1313 
Q 434 1759 690 2068 
Q 947 2378 1403 2484 
z
M 1172 3481 
Q 1172 3119 1398 2916 
Q 1625 2713 2034 2713 
Q 2441 2713 2670 2916 
Q 2900 3119 2900 3481 
Q 2900 3844 2670 4047 
Q 2441 4250 2034 4250 
Q 1625 4250 1398 4047 
Q 1172 3844 1172 3481 
z
" transform="scale(0.015625)"/>
       </defs>
       <use xlink:href="#DejaVuSans-38"/>
      </g>
     </g>
    </g>
    <g id="xtick_2">
     <g id="line2d_2">
      <g>
       <use xlink:href="#m1ed0bdf34e" x="284.298833" y="640.8" style="stroke: #000000; stroke-width: 0.8"/>
      </g>
     </g>
     <g id="text_2">
      <!-- 9 -->
      <g transform="translate(281.117583 655.398438)scale(0.1 -0.1)">
       <defs>
        <path id="DejaVuSans-39" d="M 703 97 
L 703 672 
Q 941 559 1184 500 
Q 1428 441 1663 441 
Q 2288 441 2617 861 
Q 2947 1281 2994 2138 
Q 2813 1869 2534 1725 
Q 2256 1581 1919 1581 
Q 1219 1581 811 2004 
Q 403 2428 403 3163 
Q 403 3881 828 4315 
Q 1253 4750 1959 4750 
Q 2769 4750 3195 4129 
Q 3622 3509 3622 2328 
Q 3622 1225 3098 567 
Q 2575 -91 1691 -91 
Q 1453 -91 1209 -44 
Q 966 3 703 97 
z
M 1959 2075 
Q 2384 2075 2632 2365 
Q 2881 2656 2881 3163 
Q 2881 3666 2632 3958 
Q 2384 4250 1959 4250 
Q 1534 4250 1286 3958 
Q 1038 3666 1038 3163 
Q 1038 2656 1286 2365 
Q 1534 2075 1959 2075 
z
" transform="scale(0.015625)"/>
       </defs>
       <use xlink:href="#DejaVuSans-39"/>
      </g>
     </g>
    </g>
    <g id="xtick_3">
     <g id="line2d_3">
      <g>
       <use xlink:href="#m1ed0bdf34e" x="353.307148" y="640.8" style="stroke: #000000; stroke-width: 0.8"/>
      </g>
     </g>
     <g id="text_3">
      <!-- 10 -->
      <g transform="translate(346.944648 655.398438)scale(0.1 -0.1)">
       <defs>
        <path id="DejaVuSans-31" d="M 794 531 
L 1825 531 
L 1825 4091 
L 703 3866 
L 703 4441 
L 1819 4666 
L 2450 4666 
L 2450 531 
L 3481 531 
L 3481 0 
L 794 0 
L 794 531 
z
" transform="scale(0.015625)"/>
        <path id="DejaVuSans-30" d="M 2034 4250 
Q 1547 4250 1301 3770 
Q 1056 3291 1056 2328 
Q 1056 1369 1301 889 
Q 1547 409 2034 409 
Q 2525 409 2770 889 
Q 3016 1369 3016 2328 
Q 3016 3291 2770 3770 
Q 2525 4250 2034 4250 
z
M 2034 4750 
Q 2819 4750 3233 4129 
Q 3647 3509 3647 2328 
Q 3647 1150 3233 529 
Q 2819 -91 2034 -91 
Q 1250 -91 836 529 
Q 422 1150 422 2328 
Q 422 3509 836 4129 
Q 1250 4750 2034 4750 
z
" transform="scale(0.015625)"/>
       </defs>
       <use xlink:href="#DejaVuSans-31"/>
       <use xlink:href="#DejaVuSans-30" x="63.623047"/>
      </g>
     </g>
    </g>
    <g id="xtick_4">
     <g id="line2d_4">
      <g>
       <use xlink:href="#m1ed0bdf34e" x="422.315462" y="640.8" style="stroke: #000000; stroke-width: 0.8"/>
      </g>
     </g>
     <g id="text_4">
      <!-- 11 -->
      <g transform="translate(415.952962 655.398438)scale(0.1 -0.1)">
       <use xlink:href="#DejaVuSans-31"/>
       <use xlink:href="#DejaVuSans-31" x="63.623047"/>
      </g>
     </g>
    </g>
    <g id="xtick_5">
     <g id="line2d_5">
      <g>
       <use xlink:href="#m1ed0bdf34e" x="491.323777" y="640.8" style="stroke: #000000; stroke-width: 0.8"/>
      </g>
     </g>
     <g id="text_5">
      <!-- 12 -->
      <g transform="translate(484.961277 655.398438)scale(0.1 -0.1)">
       <defs>
        <path id="DejaVuSans-32" d="M 1228 531 
L 3431 531 
L 3431 0 
L 469 0 
L 469 531 
Q 828 903 1448 1529 
Q 2069 2156 2228 2338 
Q 2531 2678 2651 2914 
Q 2772 3150 2772 3378 
Q 2772 3750 2511 3984 
Q 2250 4219 1831 4219 
Q 1534 4219 1204 4116 
Q 875 4013 500 3803 
L 500 4441 
Q 881 4594 1212 4672 
Q 1544 4750 1819 4750 
Q 2544 4750 2975 4387 
Q 3406 4025 3406 3419 
Q 3406 3131 3298 2873 
Q 3191 2616 2906 2266 
Q 2828 2175 2409 1742 
Q 1991 1309 1228 531 
z
" transform="scale(0.015625)"/>
       </defs>
       <use xlink:href="#DejaVuSans-31"/>
       <use xlink:href="#DejaVuSans-32" x="63.623047"/>
      </g>
     </g>
    </g>
    <g id="xtick_6">
     <g id="line2d_6">
      <g>
       <use xlink:href="#m1ed0bdf34e" x="560.332091" y="640.8" style="stroke: #000000; stroke-width: 0.8"/>
      </g>
     </g>
     <g id="text_6">
      <!-- 13 -->
      <g transform="translate(553.969591 655.398438)scale(0.1 -0.1)">
       <defs>
        <path id="DejaVuSans-33" d="M 2597 2516 
Q 3050 2419 3304 2112 
Q 3559 1806 3559 1356 
Q 3559 666 3084 287 
Q 2609 -91 1734 -91 
Q 1441 -91 1130 -33 
Q 819 25 488 141 
L 488 750 
Q 750 597 1062 519 
Q 1375 441 1716 441 
Q 2309 441 2620 675 
Q 2931 909 2931 1356 
Q 2931 1769 2642 2001 
Q 2353 2234 1838 2234 
L 1294 2234 
L 1294 2753 
L 1863 2753 
Q 2328 2753 2575 2939 
Q 2822 3125 2822 3475 
Q 2822 3834 2567 4026 
Q 2313 4219 1838 4219 
Q 1578 4219 1281 4162 
Q 984 4106 628 3988 
L 628 4550 
Q 988 4650 1302 4700 
Q 1616 4750 1894 4750 
Q 2613 4750 3031 4423 
Q 3450 4097 3450 3541 
Q 3450 3153 3228 2886 
Q 3006 2619 2597 2516 
z
" transform="scale(0.015625)"/>
       </defs>
       <use xlink:href="#DejaVuSans-31"/>
       <use xlink:href="#DejaVuSans-33" x="63.623047"/>
      </g>
     </g>
    </g>
    <g id="xtick_7">
     <g id="line2d_7">
      <g>
       <use xlink:href="#m1ed0bdf34e" x="629.340406" y="640.8" style="stroke: #000000; stroke-width: 0.8"/>
      </g>
     </g>
     <g id="text_7">
      <!-- 14 -->
      <g transform="translate(622.977906 655.398438)scale(0.1 -0.1)">
       <defs>
        <path id="DejaVuSans-34" d="M 2419 4116 
L 825 1625 
L 2419 1625 
L 2419 4116 
z
M 2253 4666 
L 3047 4666 
L 3047 1625 
L 3713 1625 
L 3713 1100 
L 3047 1100 
L 3047 0 
L 2419 0 
L 2419 1100 
L 313 1100 
L 313 1709 
L 2253 4666 
z
" transform="scale(0.015625)"/>
       </defs>
       <use xlink:href="#DejaVuSans-31"/>
       <use xlink:href="#DejaVuSans-34" x="63.623047"/>
      </g>
     </g>
    </g>
    <g id="xtick_8">
     <g id="line2d_8">
      <g>
       <use xlink:href="#m1ed0bdf34e" x="698.348721" y="640.8" style="stroke: #000000; stroke-width: 0.8"/>
      </g>
     </g>
     <g id="text_8">
      <!-- 15 -->
      <g transform="translate(691.986221 655.398438)scale(0.1 -0.1)">
       <defs>
        <path id="DejaVuSans-35" d="M 691 4666 
L 3169 4666 
L 3169 4134 
L 1269 4134 
L 1269 2991 
Q 1406 3038 1543 3061 
Q 1681 3084 1819 3084 
Q 2600 3084 3056 2656 
Q 3513 2228 3513 1497 
Q 3513 744 3044 326 
Q 2575 -91 1722 -91 
Q 1428 -91 1123 -41 
Q 819 9 494 109 
L 494 744 
Q 775 591 1075 516 
Q 1375 441 1709 441 
Q 2250 441 2565 725 
Q 2881 1009 2881 1497 
Q 2881 1984 2565 2268 
Q 2250 2553 1709 2553 
Q 1456 2553 1204 2497 
Q 953 2441 691 2322 
L 691 4666 
z
" transform="scale(0.015625)"/>
       </defs>
       <use xlink:href="#DejaVuSans-31"/>
       <use xlink:href="#DejaVuSans-35" x="63.623047"/>
      </g>
     </g>
    </g>
    <g id="xtick_9">
     <g id="line2d_9">
      <g>
       <use xlink:href="#m1ed0bdf34e" x="767.357035" y="640.8" style="stroke: #000000; stroke-width: 0.8"/>
      </g>
     </g>
     <g id="text_9">
      <!-- 16 -->
      <g transform="translate(760.994535 655.398438)scale(0.1 -0.1)">
       <defs>
        <path id="DejaVuSans-36" d="M 2113 2584 
Q 1688 2584 1439 2293 
Q 1191 2003 1191 1497 
Q 1191 994 1439 701 
Q 1688 409 2113 409 
Q 2538 409 2786 701 
Q 3034 994 3034 1497 
Q 3034 2003 2786 2293 
Q 2538 2584 2113 2584 
z
M 3366 4563 
L 3366 3988 
Q 3128 4100 2886 4159 
Q 2644 4219 2406 4219 
Q 1781 4219 1451 3797 
Q 1122 3375 1075 2522 
Q 1259 2794 1537 2939 
Q 1816 3084 2150 3084 
Q 2853 3084 3261 2657 
Q 3669 2231 3669 1497 
Q 3669 778 3244 343 
Q 2819 -91 2113 -91 
Q 1303 -91 875 529 
Q 447 1150 447 2328 
Q 447 3434 972 4092 
Q 1497 4750 2381 4750 
Q 2619 4750 2861 4703 
Q 3103 4656 3366 4563 
z
" transform="scale(0.015625)"/>
       </defs>
       <use xlink:href="#DejaVuSans-31"/>
       <use xlink:href="#DejaVuSans-36" x="63.623047"/>
      </g>
     </g>
    </g>
    <g id="xtick_10">
     <g id="line2d_10">
      <g>
       <use xlink:href="#m1ed0bdf34e" x="836.36535" y="640.8" style="stroke: #000000; stroke-width: 0.8"/>
      </g>
     </g>
     <g id="text_10">
      <!-- 17 -->
      <g transform="translate(830.00285 655.398438)scale(0.1 -0.1)">
       <defs>
        <path id="DejaVuSans-37" d="M 525 4666 
L 3525 4666 
L 3525 4397 
L 1831 0 
L 1172 0 
L 2766 4134 
L 525 4134 
L 525 4666 
z
" transform="scale(0.015625)"/>
       </defs>
       <use xlink:href="#DejaVuSans-31"/>
       <use xlink:href="#DejaVuSans-37" x="63.623047"/>
      </g>
     </g>
    </g>
    <g id="xtick_11">
     <g id="line2d_11">
      <g>
       <use xlink:href="#m1ed0bdf34e" x="905.373665" y="640.8" style="stroke: #000000; stroke-width: 0.8"/>
      </g>
     </g>
     <g id="text_11">
      <!-- 18 -->
      <g transform="translate(899.011165 655.398438)scale(0.1 -0.1)">
       <use xlink:href="#DejaVuSans-31"/>
       <use xlink:href="#DejaVuSans-38" x="63.623047"/>
      </g>
     </g>
    </g>
    <g id="xtick_12">
     <g id="line2d_12">
      <g>
       <use xlink:href="#m1ed0bdf34e" x="974.381979" y="640.8" style="stroke: #000000; stroke-width: 0.8"/>
      </g>
     </g>
     <g id="text_12">
      <!-- 19 -->
      <g transform="translate(968.019479 655.398438)scale(0.1 -0.1)">
       <use xlink:href="#DejaVuSans-31"/>
       <use xlink:href="#DejaVuSans-39" x="63.623047"/>
      </g>
     </g>
    </g>
    <g id="text_13">
     <!-- code length [bits] -->
     <g transform="translate(546.195312 669.076563)scale(0.1 -0.1)">
      <defs>
       <path id="DejaVuSans-63" d="M 3122 3366 
L 3122 2828 
Q 2878 2963 2633 3030 
Q 2388 3097 2138 3097 
Q 1578 3097 1268 2742 
Q 959 2388 959 1747 
Q 959 1106 1268 751 
Q 1578 397 2138 397 
Q 2388 397 2633 464 
Q 2878 531 3122 666 
L 3122 134 
Q 2881 22 2623 -34 
Q 2366 -91 2075 -91 
Q 1284 -91 818 406 
Q 353 903 353 1747 
Q 353 2603 823 3093 
Q 1294 3584 2113 3584 
Q 2378 3584 2631 3529 
Q 2884 3475 3122 3366 
z
" transform="scale(0.015625)"/>
       <path id="DejaVuSans-6f" d="M 1959 3097 
Q 1497 3097 1228 2736 
Q 959 2375 959 1747 
Q 959 1119 1226 758 
Q 1494 397 1959 397 
Q 2419 397 2687 759 
Q 2956 1122 2956 1747 
Q 2956 2369 2687 2733 
Q 2419 3097 1959 3097 
z
M 1959 3584 
Q 2709 3584 3137 3096 
Q 3566 2609 3566 1747 
Q 3566 888 3137 398 
Q 2709 -91 1959 -91 
Q 1206 -91 779 398 
Q 353 888 353 1747 
Q 353 2609 779 3096 
Q 1206 3584 1959 3584 
z
" transform="scale(0.015625)"/>
       <path id="DejaVuSans-64" d="M 2906 2969 
L 2906 4863 
L 3481 4863 
L 3481 0 
L 2906 0 
L 2906 525 
Q 2725 213 2448 61 
Q 2172 -91 1784 -91 
Q 1150 -91 751 415 
Q 353 922 353 1747 
Q 353 2572 751 3078 
Q 1150 3584 1784 3584 
Q 2172 3584 2448 3432 
Q 2725 3281 2906 2969 
z
M 947 1747 
Q 947 1113 1208 752 
Q 1469 391 1925 391 
Q 2381 391 2643 752 
Q 2906 1113 2906 1747 
Q 2906 2381 2643 2742 
Q 2381 3103 1925 3103 
Q 1469 3103 1208 2742 
Q 947 2381 947 1747 
z
" transform="scale(0.015625)"/>
       <path id="DejaVuSans-65" d="M 3597 1894 
L 3597 1613 
L 953 1613 
Q 991 1019 1311 708 
Q 1631 397 2203 397 
Q 2534 397 2845 478 
Q 3156 559 3463 722 
L 3463 178 
Q 3153 47 2828 -22 
Q 2503 -91 2169 -91 
Q 1331 -91 842 396 
Q 353 884 353 1716 
Q 353 2575 817 3079 
Q 1281 3584 2069 3584 
Q 2775 3584 3186 3129 
Q 3597 2675 3597 1894 
z
M 3022 2063 
Q 3016 2534 2758 2815 
Q 2500 3097 2075 3097 
Q 1594 3097 1305 2825 
Q 1016 2553 972 2059 
L 3022 2063 
z
" transform="scale(0.015625)"/>
       <path id="DejaVuSans-20" transform="scale(0.015625)"/>
       <path id="DejaVuSans-6c" d="M 603 4863 
L 1178 4863 
L 1178 0 
L 603 0 
L 603 4863 
z
" transform="scale(0.015625)"/>
       <path id="DejaVuSans-6e" d="M 3513 2113 
L 3513 0 
L 2938 0 
L 2938 2094 
Q 2938 2591 2744 2837 
Q 2550 3084 2163 3084 
Q 1697 3084 1428 2787 
Q 1159 2491 1159 1978 
L 1159 0 
L 581 0 
L 581 3500 
L 1159 3500 
L 1159 2956 
Q 1366 3272 1645 3428 
Q 1925 3584 2291 3584 
Q 2894 3584 3203 3211 
Q 3513 2838 3513 2113 
z
" transform="scale(0.015625)"/>
       <path id="DejaVuSans-67" d="M 2906 1791 
Q 2906 2416 2648 2759 
Q 2391 3103 1925 3103 
Q 1463 3103 1205 2759 
Q 947 2416 947 1791 
Q 947 1169 1205 825 
Q 1463 481 1925 481 
Q 2391 481 2648 825 
Q 2906 1169 2906 1791 
z
M 3481 434 
Q 3481 -459 3084 -895 
Q 2688 -1331 1869 -1331 
Q 1566 -1331 1297 -1286 
Q 1028 -1241 775 -1147 
L 775 -588 
Q 1028 -725 1275 -790 
Q 1522 -856 1778 -856 
Q 2344 -856 2625 -561 
Q 2906 -266 2906 331 
L 2906 616 
Q 2728 306 2450 153 
Q 2172 0 1784 0 
Q 1141 0 747 490 
Q 353 981 353 1791 
Q 353 2603 747 3093 
Q 1141 3584 1784 3584 
Q 2172 3584 2450 3431 
Q 2728 3278 2906 2969 
L 2906 3500 
L 3481 3500 
L 3481 434 
z
" transform="scale(0.015625)"/>
       <path id="DejaVuSans-74" d="M 1172 4494 
L 1172 3500 
L 2356 3500 
L 2356 3053 
L 1172 3053 
L 1172 1153 
Q 1172 725 1289 603 
Q 1406 481 1766 481 
L 2356 481 
L 2356 0 
L 1766 0 
Q 1100 0 847 248 
Q 594 497 594 1153 
L 594 3053 
L 172 3053 
L 172 3500 
L 594 3500 
L 594 4494 
L 1172 4494 
z
" transform="scale(0.015625)"/>
       <path id="DejaVuSans-68" d="M 3513 2113 
L 3513 0 
L 2938 0 
L 2938 2094 
Q 2938 2591 2744 2837 
Q 2550 3084 2163 3084 
Q 1697 3084 1428 2787 
Q 1159 2491 1159 1978 
L 1159 0 
L 581 0 
L 581 4863 
L 1159 4863 
L 1159 2956 
Q 1366 3272 1645 3428 
Q 1925 3584 2291 3584 
Q 2894 3584 3203 3211 
Q 3513 2838 3513 2113 
z
" transform="scale(0.015625)"/>
       <path id="DejaVuSans-5b" d="M 550 4863 
L 1875 4863 
L 1875 4416 
L 1125 4416 
L 1125 -397 
L 1875 -397 
L 1875 -844 
L 550 -844 
L 550 4863 
z
" transform="scale(0.015625)"/>
       <path id="DejaVuSans-62" d="M 3116 1747 
Q 3116 2381 2855 2742 
Q 2594 3103 2138 3103 
Q 1681 3103 1420 2742 
Q 1159 2381 1159 1747 
Q 1159 1113 1420 752 
Q 1681 391 2138 391 
Q 2594 391 2855 752 
Q 3116 1113 3116 1747 
z
M 1159 2969 
Q 1341 3281 1617 3432 
Q 1894 3584 2278 3584 
Q 2916 3584 3314 3078 
Q 3713 2572 3713 1747 
Q 3713 922 3314 415 
Q 2916 -91 2278 -91 
Q 1894 -91 1617 61 
Q 1341 213 1159 525 
L 1159 0 
L 581 0 
L 581 4863 
L 1159 4863 
L 1159 2969 
z
" transform="scale(0.015625)"/>
       <path id="DejaVuSans-69" d="M 603 3500 
L 1178 3500 
L 1178 0 
L 603 0 
L 603 3500 
z
M 603 4863 
L 1178 4863 
L 1178 4134 
L 603 4134 
L 603 4863 
z
" transform="scale(0.015625)"/>
       <path id="DejaVuSans-73" d="M 2834 3397 
L 2834 2853 
Q 2591 2978 2328 3040 
Q 2066 3103 1784 3103 
Q 1356 3103 1142 2972 
Q 928 2841 928 2578 
Q 928 2378 1081 2264 
Q 1234 2150 1697 2047 
L 1894 2003 
Q 2506 1872 2764 1633 
Q 3022 1394 3022 966 
Q 3022 478 2636 193 
Q 2250 -91 1575 -91 
Q 1294 -91 989 -36 
Q 684 19 347 128 
L 347 722 
Q 666 556 975 473 
Q 1284 391 1588 391 
Q 1994 391 2212 530 
Q 2431 669 2431 922 
Q 2431 1156 2273 1281 
Q 2116 1406 1581 1522 
L 1381 1569 
Q 847 1681 609 1914 
Q 372 2147 372 2553 
Q 372 3047 722 3315 
Q 1072 3584 1716 3584 
Q 2034 3584 2315 3537 
Q 2597 3491 2834 3397 
z
" transform="scale(0.015625)"/>
       <path id="DejaVuSans-5d" d="M 1947 4863 
L 1947 -844 
L 622 -844 
L 622 -397 
L 1369 -397 
L 1369 4416 
L 622 4416 
L 622 4863 
L 1947 4863 
z
" transform="scale(0.015625)"/>
      </defs>
      <use xlink:href="#DejaVuSans-63"/>
      <use xlink:href="#DejaVuSans-6f" x="54.980469"/>
      <use xlink:href="#DejaVuSans-64" x="116.162109"/>
      <use xlink:href="#DejaVuSans-65" x="179.638672"/>
      <use xlink:href="#DejaVuSans-20" x="241.162109"/>
      <use xlink:href="#DejaVuSans-6c" x="272.949219"/>
      <use xlink:href="#DejaVuSans-65" x="300.732422"/>
      <use xlink:href="#DejaVuSans-6e" x="362.255859"/>
      <use xlink:href="#DejaVuSans-67" x="425.634766"/>
      <use xlink:href="#DejaVuSans-74" x="489.111328"/>
      <use xlink:href="#DejaVuSans-68" x="528.320312"/>
      <use xlink:href="#DejaVuSans-20" x="591.699219"/>
      <use xlink:href="#DejaVuSans-5b" x="623.486328"/>
      <use xlink:href="#DejaVuSans-62" x="662.5"/>
      <use xlink:href="#DejaVuSans-69" x="725.976562"/>
      <use xlink:href="#DejaVuSans-74" x="753.759766"/>
      <use xlink:href="#DejaVuSans-73" x="792.96875"/>
      <use xlink:href="#DejaVuSans-5d" x="845.068359"/>
     </g>
    </g>
   </g>
   <g id="matplotlib.axis_2">
    <g id="ytick_1">
     <g id="line2d_13">
      <defs>
       <path id="me50668e97e" d="M 0 0 
L -3.5 0 
" style="stroke: #000000; stroke-width: 0.8"/>
      </defs>
      <g>
       <use xlink:href="#me50668e97e" x="144" y="640.8" style="stroke: #000000; stroke-width: 0.8"/>
      </g>
     </g>
     <g id="text_14">
      <!-- 0 -->
      <g transform="translate(130.6375 644.599219)scale(0.1 -0.1)">
       <use xlink:href="#DejaVuSans-30"/>
      </g>
     </g>
    </g>
    <g id="ytick_2">
     <g id="line2d_14">
      <g>
       <use xlink:href="#me50668e97e" x="144" y="544.097263" style="stroke: #000000; stroke-width: 0.8"/>
      </g>
     </g>
     <g id="text_15">
      <!-- 2 -->
      <g transform="translate(130.6375 547.896481)scale(0.1 -0.1)">
       <use xlink:href="#DejaVuSans-32"/>
      </g>
     </g>
    </g>
    <g id="ytick_3">
     <g id="line2d_15">
      <g>
       <use xlink:href="#me50668e97e" x="144" y="447.394525" style="stroke: #000000; stroke-width: 0.8"/>
      </g>
     </g>
     <g id="text_16">
      <!-- 4 -->
      <g transform="translate(130.6375 451.193744)scale(0.1 -0.1)">
       <use xlink:href="#DejaVuSans-34"/>
      </g>
     </g>
    </g>
    <g id="ytick_4">
     <g id="line2d_16">
      <g>
       <use xlink:href="#me50668e97e" x="144" y="350.691788" style="stroke: #000000; stroke-width: 0.8"/>
      </g>
     </g>
     <g id="text_17">
      <!-- 6 -->
      <g transform="translate(130.6375 354.491007)scale(0.1 -0.1)">
       <use xlink:href="#DejaVuSans-36"/>
      </g>
     </g>
    </g>
    <g id="ytick_5">
     <g id="line2d_17">
      <g>
       <use xlink:href="#me50668e97e" x="144" y="253.989051" style="stroke: #000000; stroke-width: 0.8"/>
      </g>
     </g>
     <g id="text_18">
      <!-- 8 -->
      <g transform="translate(130.6375 257.788269)scale(0.1 -0.1)">
       <use xlink:href="#DejaVuSans-38"/>
      </g>
     </g>
    </g>
    <g id="ytick_6">
     <g id="line2d_18">
      <g>
       <use xlink:href="#me50668e97e" x="144" y="157.286313" style="stroke: #000000; stroke-width: 0.8"/>
      </g>
     </g>
     <g id="text_19">
      <!-- 10 -->
      <g transform="translate(124.275 161.085532)scale(0.1 -0.1)">
       <use xlink:href="#DejaVuSans-31"/>
       <use xlink:href="#DejaVuSans-30" x="63.623047"/>
      </g>
     </g>
    </g>
   </g>
   <g id="patch_147">
    <path d="M 144 640.8 
L 144 86.4 
" style="fill: none; stroke: #000000; stroke-width: 0.8; stroke-linejoin: miter; stroke-linecap: square"/>
   </g>
   <g id="patch_148">
    <path d="M 1036.8 640.8 
L 1036.8 86.4 
" style="fill: none; stroke: #000000; stroke-width: 0.8; stroke-linejoin: miter; stroke-linecap: square"/>
   </g>
   <g id="patch_149">
    <path d="M 144 640.8 
L 1036.8 640.8 
" style="fill: none; stroke: #000000; stroke-width: 0.8; stroke-linejoin: miter; stroke-linecap: square"/>
   </g>
   <g id="patch_150">
    <path d="M 144 86.4 
L 1036.8 86.4 
" style="fill: none; stroke: #000000; stroke-width: 0.8; stroke-linejoin: miter; stroke-linecap: square"/>
   </g>
   <g id="text_20">
    <!-- Entropy vs Bitrate -->
    <g transform="translate(536.277187 80.4)scale(0.12 -0.12)">
     <defs>
      <path id="DejaVuSans-45" d="M 628 4666 
L 3578 4666 
L 3578 4134 
L 1259 4134 
L 1259 2753 
L 3481 2753 
L 3481 2222 
L 1259 2222 
L 1259 531 
L 3634 531 
L 3634 0 
L 628 0 
L 628 4666 
z
" transform="scale(0.015625)"/>
      <path id="DejaVuSans-72" d="M 2631 2963 
Q 2534 3019 2420 3045 
Q 2306 3072 2169 3072 
Q 1681 3072 1420 2755 
Q 1159 2438 1159 1844 
L 1159 0 
L 581 0 
L 581 3500 
L 1159 3500 
L 1159 2956 
Q 1341 3275 1631 3429 
Q 1922 3584 2338 3584 
Q 2397 3584 2469 3576 
Q 2541 3569 2628 3553 
L 2631 2963 
z
" transform="scale(0.015625)"/>
      <path id="DejaVuSans-70" d="M 1159 525 
L 1159 -1331 
L 581 -1331 
L 581 3500 
L 1159 3500 
L 1159 2969 
Q 1341 3281 1617 3432 
Q 1894 3584 2278 3584 
Q 2916 3584 3314 3078 
Q 3713 2572 3713 1747 
Q 3713 922 3314 415 
Q 2916 -91 2278 -91 
Q 1894 -91 1617 61 
Q 1341 213 1159 525 
z
M 3116 1747 
Q 3116 2381 2855 2742 
Q 2594 3103 2138 3103 
Q 1681 3103 1420 2742 
Q 1159 2381 1159 1747 
Q 1159 1113 1420 752 
Q 1681 391 2138 391 
Q 2594 391 2855 752 
Q 3116 1113 3116 1747 
z
" transform="scale(0.015625)"/>
      <path id="DejaVuSans-79" d="M 2059 -325 
Q 1816 -950 1584 -1140 
Q 1353 -1331 966 -1331 
L 506 -1331 
L 506 -850 
L 844 -850 
Q 1081 -850 1212 -737 
Q 1344 -625 1503 -206 
L 1606 56 
L 191 3500 
L 800 3500 
L 1894 763 
L 2988 3500 
L 3597 3500 
L 2059 -325 
z
" transform="scale(0.015625)"/>
      <path id="DejaVuSans-76" d="M 191 3500 
L 800 3500 
L 1894 563 
L 2988 3500 
L 3597 3500 
L 2284 0 
L 1503 0 
L 191 3500 
z
" transform="scale(0.015625)"/>
      <path id="DejaVuSans-42" d="M 1259 2228 
L 1259 519 
L 2272 519 
Q 2781 519 3026 730 
Q 3272 941 3272 1375 
Q 3272 1813 3026 2020 
Q 2781 2228 2272 2228 
L 1259 2228 
z
M 1259 4147 
L 1259 2741 
L 2194 2741 
Q 2656 2741 2882 2914 
Q 3109 3088 3109 3444 
Q 3109 3797 2882 3972 
Q 2656 4147 2194 4147 
L 1259 4147 
z
M 628 4666 
L 2241 4666 
Q 2963 4666 3353 4366 
Q 3744 4066 3744 3513 
Q 3744 3084 3544 2831 
Q 3344 2578 2956 2516 
Q 3422 2416 3680 2098 
Q 3938 1781 3938 1306 
Q 3938 681 3513 340 
Q 3088 0 2303 0 
L 628 0 
L 628 4666 
z
" transform="scale(0.015625)"/>
      <path id="DejaVuSans-61" d="M 2194 1759 
Q 1497 1759 1228 1600 
Q 959 1441 959 1056 
Q 959 750 1161 570 
Q 1363 391 1709 391 
Q 2188 391 2477 730 
Q 2766 1069 2766 1631 
L 2766 1759 
L 2194 1759 
z
M 3341 1997 
L 3341 0 
L 2766 0 
L 2766 531 
Q 2569 213 2275 61 
Q 1981 -91 1556 -91 
Q 1019 -91 701 211 
Q 384 513 384 1019 
Q 384 1609 779 1909 
Q 1175 2209 1959 2209 
L 2766 2209 
L 2766 2266 
Q 2766 2663 2505 2880 
Q 2244 3097 1772 3097 
Q 1472 3097 1187 3025 
Q 903 2953 641 2809 
L 641 3341 
Q 956 3463 1253 3523 
Q 1550 3584 1831 3584 
Q 2591 3584 2966 3190 
Q 3341 2797 3341 1997 
z
" transform="scale(0.015625)"/>
     </defs>
     <use xlink:href="#DejaVuSans-45"/>
     <use xlink:href="#DejaVuSans-6e" x="63.183594"/>
     <use xlink:href="#DejaVuSans-74" x="126.5625"/>
     <use xlink:href="#DejaVuSans-72" x="165.771484"/>
     <use xlink:href="#DejaVuSans-6f" x="204.634766"/>
     <use xlink:href="#DejaVuSans-70" x="265.816406"/>
     <use xlink:href="#DejaVuSans-79" x="329.292969"/>
     <use xlink:href="#DejaVuSans-20" x="388.472656"/>
     <use xlink:href="#DejaVuSans-76" x="420.259766"/>
     <use xlink:href="#DejaVuSans-73" x="479.439453"/>
     <use xlink:href="#DejaVuSans-20" x="531.539062"/>
     <use xlink:href="#DejaVuSans-42" x="563.326172"/>
     <use xlink:href="#DejaVuSans-69" x="631.929688"/>
     <use xlink:href="#DejaVuSans-74" x="659.712891"/>
     <use xlink:href="#DejaVuSans-72" x="698.921875"/>
     <use xlink:href="#DejaVuSans-61" x="740.035156"/>
     <use xlink:href="#DejaVuSans-74" x="801.314453"/>
     <use xlink:href="#DejaVuSans-65" x="840.523438"/>
    </g>
   </g>
   <g id="legend_1">
    <g id="patch_151">
     <path d="M 958.951562 123.75625 
L 1029.8 123.75625 
Q 1031.8 123.75625 1031.8 121.75625 
L 1031.8 93.4 
Q 1031.8 91.4 1029.8 91.4 
L 958.951562 91.4 
Q 956.951562 91.4 956.951562 93.4 
L 956.951562 121.75625 
Q 956.951562 123.75625 958.951562 123.75625 
z
" style="fill: #ffffff; opacity: 0.8; stroke: #cccccc; stroke-linejoin: miter"/>
    </g>
    <g id="patch_152">
     <path d="M 960.951562 102.998437 
L 980.951562 102.998437 
L 980.951562 95.998437 
L 960.951562 95.998437 
z
" style="fill: #008000"/>
    </g>
    <g id="text_21">
     <!-- Bitrate -->
     <g transform="translate(988.951562 102.998437)scale(0.1 -0.1)">
      <use xlink:href="#DejaVuSans-42"/>
      <use xlink:href="#DejaVuSans-69" x="68.603516"/>
      <use xlink:href="#DejaVuSans-74" x="96.386719"/>
      <use xlink:href="#DejaVuSans-72" x="135.595703"/>
      <use xlink:href="#DejaVuSans-61" x="176.708984"/>
      <use xlink:href="#DejaVuSans-74" x="237.988281"/>
      <use xlink:href="#DejaVuSans-65" x="277.197266"/>
     </g>
    </g>
    <g id="patch_153">
     <path d="M 960.951562 117.676562 
L 980.951562 117.676562 
L 980.951562 110.676562 
L 960.951562 110.676562 
z
" style="fill: #bfbf00"/>
    </g>
    <g id="text_22">
     <!-- Entropy -->
     <g transform="translate(988.951562 117.676562)scale(0.1 -0.1)">
      <use xlink:href="#DejaVuSans-45"/>
      <use xlink:href="#DejaVuSans-6e" x="63.183594"/>
      <use xlink:href="#DejaVuSans-74" x="126.5625"/>
      <use xlink:href="#DejaVuSans-72" x="165.771484"/>
      <use xlink:href="#DejaVuSans-6f" x="204.634766"/>
      <use xlink:href="#DejaVuSans-70" x="265.816406"/>
      <use xlink:href="#DejaVuSans-79" x="329.292969"/>
     </g>
    </g>
   </g>
  </g>
  <g id="text_23">
   <!-- Each bar represents different image in order: -->
   <g transform="translate(57.6 674.672222)scale(0.0833 -0.0833)">
    <defs>
     <path id="DejaVuSans-66" d="M 2375 4863 
L 2375 4384 
L 1825 4384 
Q 1516 4384 1395 4259 
Q 1275 4134 1275 3809 
L 1275 3500 
L 2222 3500 
L 2222 3053 
L 1275 3053 
L 1275 0 
L 697 0 
L 697 3053 
L 147 3053 
L 147 3500 
L 697 3500 
L 697 3744 
Q 697 4328 969 4595 
Q 1241 4863 1831 4863 
L 2375 4863 
z
" transform="scale(0.015625)"/>
     <path id="DejaVuSans-6d" d="M 3328 2828 
Q 3544 3216 3844 3400 
Q 4144 3584 4550 3584 
Q 5097 3584 5394 3201 
Q 5691 2819 5691 2113 
L 5691 0 
L 5113 0 
L 5113 2094 
Q 5113 2597 4934 2840 
Q 4756 3084 4391 3084 
Q 3944 3084 3684 2787 
Q 3425 2491 3425 1978 
L 3425 0 
L 2847 0 
L 2847 2094 
Q 2847 2600 2669 2842 
Q 2491 3084 2119 3084 
Q 1678 3084 1418 2786 
Q 1159 2488 1159 1978 
L 1159 0 
L 581 0 
L 581 3500 
L 1159 3500 
L 1159 2956 
Q 1356 3278 1631 3431 
Q 1906 3584 2284 3584 
Q 2666 3584 2933 3390 
Q 3200 3197 3328 2828 
z
" transform="scale(0.015625)"/>
     <path id="DejaVuSans-3a" d="M 750 794 
L 1409 794 
L 1409 0 
L 750 0 
L 750 794 
z
M 750 3309 
L 1409 3309 
L 1409 2516 
L 750 2516 
L 750 3309 
z
" transform="scale(0.015625)"/>
    </defs>
    <use xlink:href="#DejaVuSans-45"/>
    <use xlink:href="#DejaVuSans-61" x="63.183594"/>
    <use xlink:href="#DejaVuSans-63" x="124.462891"/>
    <use xlink:href="#DejaVuSans-68" x="179.443359"/>
    <use xlink:href="#DejaVuSans-20" x="242.822266"/>
    <use xlink:href="#DejaVuSans-62" x="274.609375"/>
    <use xlink:href="#DejaVuSans-61" x="338.085938"/>
    <use xlink:href="#DejaVuSans-72" x="399.365234"/>
    <use xlink:href="#DejaVuSans-20" x="440.478516"/>
    <use xlink:href="#DejaVuSans-72" x="472.265625"/>
    <use xlink:href="#DejaVuSans-65" x="511.128906"/>
    <use xlink:href="#DejaVuSans-70" x="572.652344"/>
    <use xlink:href="#DejaVuSans-72" x="636.128906"/>
    <use xlink:href="#DejaVuSans-65" x="674.992188"/>
    <use xlink:href="#DejaVuSans-73" x="736.515625"/>
    <use xlink:href="#DejaVuSans-65" x="788.615234"/>
    <use xlink:href="#DejaVuSans-6e" x="850.138672"/>
    <use xlink:href="#DejaVuSans-74" x="913.517578"/>
    <use xlink:href="#DejaVuSans-73" x="952.726562"/>
    <use xlink:href="#DejaVuSans-20" x="1004.826172"/>
    <use xlink:href="#DejaVuSans-64" x="1036.613281"/>
    <use xlink:href="#DejaVuSans-69" x="1100.089844"/>
    <use xlink:href="#DejaVuSans-66" x="1127.873047"/>
    <use xlink:href="#DejaVuSans-66" x="1163.078125"/>
    <use xlink:href="#DejaVuSans-65" x="1198.283203"/>
    <use xlink:href="#DejaVuSans-72" x="1259.806641"/>
    <use xlink:href="#DejaVuSans-65" x="1298.669922"/>
    <use xlink:href="#DejaVuSans-6e" x="1360.193359"/>
    <use xlink:href="#DejaVuSans-74" x="1423.572266"/>
    <use xlink:href="#DejaVuSans-20" x="1462.78125"/>
    <use xlink:href="#DejaVuSans-69" x="1494.568359"/>
    <use xlink:href="#DejaVuSans-6d" x="1522.351562"/>
    <use xlink:href="#DejaVuSans-61" x="1619.763672"/>
    <use xlink:href="#DejaVuSans-67" x="1681.042969"/>
    <use xlink:href="#DejaVuSans-65" x="1744.519531"/>
    <use xlink:href="#DejaVuSans-20" x="1806.042969"/>
    <use xlink:href="#DejaVuSans-69" x="1837.830078"/>
    <use xlink:href="#DejaVuSans-6e" x="1865.613281"/>
    <use xlink:href="#DejaVuSans-20" x="1928.992188"/>
    <use xlink:href="#DejaVuSans-6f" x="1960.779297"/>
    <use xlink:href="#DejaVuSans-72" x="2021.960938"/>
    <use xlink:href="#DejaVuSans-64" x="2061.324219"/>
    <use xlink:href="#DejaVuSans-65" x="2124.800781"/>
    <use xlink:href="#DejaVuSans-72" x="2186.324219"/>
    <use xlink:href="#DejaVuSans-3a" x="2225.6875"/>
   </g>
   <!--   lena.pgm, mandril.pgm, boat.pgm, chronometer.pgm, barbara.pgm, peppers.pgm -->
   <g transform="translate(57.6 684)scale(0.0833 -0.0833)">
    <defs>
     <path id="DejaVuSans-2e" d="M 684 794 
L 1344 794 
L 1344 0 
L 684 0 
L 684 794 
z
" transform="scale(0.015625)"/>
     <path id="DejaVuSans-2c" d="M 750 794 
L 1409 794 
L 1409 256 
L 897 -744 
L 494 -744 
L 750 256 
L 750 794 
z
" transform="scale(0.015625)"/>
    </defs>
    <use xlink:href="#DejaVuSans-20"/>
    <use xlink:href="#DejaVuSans-20" x="31.787109"/>
    <use xlink:href="#DejaVuSans-6c" x="63.574219"/>
    <use xlink:href="#DejaVuSans-65" x="91.357422"/>
    <use xlink:href="#DejaVuSans-6e" x="152.880859"/>
    <use xlink:href="#DejaVuSans-61" x="216.259766"/>
    <use xlink:href="#DejaVuSans-2e" x="277.539062"/>
    <use xlink:href="#DejaVuSans-70" x="309.326172"/>
    <use xlink:href="#DejaVuSans-67" x="372.802734"/>
    <use xlink:href="#DejaVuSans-6d" x="436.279297"/>
    <use xlink:href="#DejaVuSans-2c" x="533.691406"/>
    <use xlink:href="#DejaVuSans-20" x="565.478516"/>
    <use xlink:href="#DejaVuSans-6d" x="597.265625"/>
    <use xlink:href="#DejaVuSans-61" x="694.677734"/>
    <use xlink:href="#DejaVuSans-6e" x="755.957031"/>
    <use xlink:href="#DejaVuSans-64" x="819.335938"/>
    <use xlink:href="#DejaVuSans-72" x="882.8125"/>
    <use xlink:href="#DejaVuSans-69" x="923.925781"/>
    <use xlink:href="#DejaVuSans-6c" x="951.708984"/>
    <use xlink:href="#DejaVuSans-2e" x="979.492188"/>
    <use xlink:href="#DejaVuSans-70" x="1011.279297"/>
    <use xlink:href="#DejaVuSans-67" x="1074.755859"/>
    <use xlink:href="#DejaVuSans-6d" x="1138.232422"/>
    <use xlink:href="#DejaVuSans-2c" x="1235.644531"/>
    <use xlink:href="#DejaVuSans-20" x="1267.431641"/>
    <use xlink:href="#DejaVuSans-62" x="1299.21875"/>
    <use xlink:href="#DejaVuSans-6f" x="1362.695312"/>
    <use xlink:href="#DejaVuSans-61" x="1423.876953"/>
    <use xlink:href="#DejaVuSans-74" x="1485.15625"/>
    <use xlink:href="#DejaVuSans-2e" x="1524.365234"/>
    <use xlink:href="#DejaVuSans-70" x="1556.152344"/>
    <use xlink:href="#DejaVuSans-67" x="1619.628906"/>
    <use xlink:href="#DejaVuSans-6d" x="1683.105469"/>
    <use xlink:href="#DejaVuSans-2c" x="1780.517578"/>
    <use xlink:href="#DejaVuSans-20" x="1812.304688"/>
    <use xlink:href="#DejaVuSans-63" x="1844.091797"/>
    <use xlink:href="#DejaVuSans-68" x="1899.072266"/>
    <use xlink:href="#DejaVuSans-72" x="1962.451172"/>
    <use xlink:href="#DejaVuSans-6f" x="2001.314453"/>
    <use xlink:href="#DejaVuSans-6e" x="2062.496094"/>
    <use xlink:href="#DejaVuSans-6f" x="2125.875"/>
    <use xlink:href="#DejaVuSans-6d" x="2187.056641"/>
    <use xlink:href="#DejaVuSans-65" x="2284.46875"/>
    <use xlink:href="#DejaVuSans-74" x="2345.992188"/>
    <use xlink:href="#DejaVuSans-65" x="2385.201172"/>
    <use xlink:href="#DejaVuSans-72" x="2446.724609"/>
    <use xlink:href="#DejaVuSans-2e" x="2478.712891"/>
    <use xlink:href="#DejaVuSans-70" x="2510.5"/>
    <use xlink:href="#DejaVuSans-67" x="2573.976562"/>
    <use xlink:href="#DejaVuSans-6d" x="2637.453125"/>
    <use xlink:href="#DejaVuSans-2c" x="2734.865234"/>
    <use xlink:href="#DejaVuSans-20" x="2766.652344"/>
    <use xlink:href="#DejaVuSans-62" x="2798.439453"/>
    <use xlink:href="#DejaVuSans-61" x="2861.916016"/>
    <use xlink:href="#DejaVuSans-72" x="2923.195312"/>
    <use xlink:href="#DejaVuSans-62" x="2964.308594"/>
    <use xlink:href="#DejaVuSans-61" x="3027.785156"/>
    <use xlink:href="#DejaVuSans-72" x="3089.064453"/>
    <use xlink:href="#DejaVuSans-61" x="3130.177734"/>
    <use xlink:href="#DejaVuSans-2e" x="3191.457031"/>
    <use xlink:href="#DejaVuSans-70" x="3223.244141"/>
    <use xlink:href="#DejaVuSans-67" x="3286.720703"/>
    <use xlink:href="#DejaVuSans-6d" x="3350.197266"/>
    <use xlink:href="#DejaVuSans-2c" x="3447.609375"/>
    <use xlink:href="#DejaVuSans-20" x="3479.396484"/>
    <use xlink:href="#DejaVuSans-70" x="3511.183594"/>
    <use xlink:href="#DejaVuSans-65" x="3574.660156"/>
    <use xlink:href="#DejaVuSans-70" x="3636.183594"/>
    <use xlink:href="#DejaVuSans-70" x="3699.660156"/>
    <use xlink:href="#DejaVuSans-65" x="3763.136719"/>
    <use xlink:href="#DejaVuSans-72" x="3824.660156"/>
    <use xlink:href="#DejaVuSans-73" x="3865.773438"/>
    <use xlink:href="#DejaVuSans-2e" x="3917.873047"/>
    <use xlink:href="#DejaVuSans-70" x="3949.660156"/>
    <use xlink:href="#DejaVuSans-67" x="4013.136719"/>
    <use xlink:href="#DejaVuSans-6d" x="4076.613281"/>
   </g>
  </g>
 </g>
 <defs>
  <clipPath id="p298225bf16">
   <rect x="144" y="86.4" width="892.8" height="554.4"/>
  </clipPath>
 </defs>
</svg>
