<?xml version="1.0" encoding="utf-8" standalone="no"?>
<!DOCTYPE svg PUBLIC "-//W3C//DTD SVG 1.1//EN"
  "http://www.w3.org/Graphics/SVG/1.1/DTD/svg11.dtd">
<svg xmlns:xlink="http://www.w3.org/1999/xlink" width="1152pt" height="720pt" viewBox="0 0 1152 720" xmlns="http://www.w3.org/2000/svg" version="1.1">
 <metadata>
  <rdf:RDF xmlns:dc="http://purl.org/dc/elements/1.1/" xmlns:cc="http://creativecommons.org/ns#" xmlns:rdf="http://www.w3.org/1999/02/22-rdf-syntax-ns#">
   <cc:Work>
    <dc:type rdf:resource="http://purl.org/dc/dcmitype/StillImage"/>
    <dc:date>2022-06-05T12:43:54.019618</dc:date>
    <dc:format>image/svg+xml</dc:format>
    <dc:creator>
     <cc:Agent>
      <dc:title>Matplotlib v3.5.2, https://matplotlib.org/</dc:title>
     </cc:Agent>
    </dc:creator>
   </cc:Work>
  </rdf:RDF>
 </metadata>
 <defs>
  <style type="text/css">*{stroke-linejoin: round; stroke-linecap: butt}</style>
 </defs>
 <g id="figure_1">
  <g id="patch_1">
   <path d="M 0 720 
L 1152 720 
L 1152 0 
L 0 0 
z
" style="fill: #ffffff"/>
  </g>
  <g id="axes_1">
   <g id="patch_2">
    <path d="M 144 640.8 
L 1036.8 640.8 
L 1036.8 86.4 
L 144 86.4 
z
" style="fill: #ffffff"/>
   </g>
   <g id="patch_3">
    <path d="M 184.581818 640.8 
L 191.199557 640.8 
L 191.199557 330.972589 
L 184.581818 330.972589 
z
" clip-path="url(#p70fb58dd03)" style="fill: #bfbf00"/>
   </g>
   <g id="patch_4">
    <path d="M 276.72755 640.8 
L 283.345289 640.8 
L 283.345289 330.972589 
L 276.72755 330.972589 
z
" clip-path="url(#p70fb58dd03)" style="fill: #bfbf00"/>
   </g>
   <g id="patch_5">
    <path d="M 368.873283 640.8 
L 375.491022 640.8 
L 375.491022 330.972589 
L 368.873283 330.972589 
z
" clip-path="url(#p70fb58dd03)" style="fill: #bfbf00"/>
   </g>
   <g id="patch_6">
    <path d="M 461.019015 640.8 
L 467.636754 640.8 
L 467.636754 330.972589 
L 461.019015 330.972589 
z
" clip-path="url(#p70fb58dd03)" style="fill: #bfbf00"/>
   </g>
   <g id="patch_7">
    <path d="M 553.164747 640.8 
L 559.782486 640.8 
L 559.782486 330.972589 
L 553.164747 330.972589 
z
" clip-path="url(#p70fb58dd03)" style="fill: #bfbf00"/>
   </g>
   <g id="patch_8">
    <path d="M 645.31048 640.8 
L 651.928219 640.8 
L 651.928219 330.972589 
L 645.31048 330.972589 
z
" clip-path="url(#p70fb58dd03)" style="fill: #bfbf00"/>
   </g>
   <g id="patch_9">
    <path d="M 737.456212 640.8 
L 744.073951 640.8 
L 744.073951 330.972589 
L 737.456212 330.972589 
z
" clip-path="url(#p70fb58dd03)" style="fill: #bfbf00"/>
   </g>
   <g id="patch_10">
    <path d="M 829.601944 640.8 
L 836.219683 640.8 
L 836.219683 330.972589 
L 829.601944 330.972589 
z
" clip-path="url(#p70fb58dd03)" style="fill: #bfbf00"/>
   </g>
   <g id="patch_11">
    <path d="M 921.747676 640.8 
L 928.365415 640.8 
L 928.365415 330.972589 
L 921.747676 330.972589 
z
" clip-path="url(#p70fb58dd03)" style="fill: #bfbf00"/>
   </g>
   <g id="patch_12">
    <path d="M 184.581818 640.8 
L 191.199557 640.8 
L 191.199557 580.804577 
L 184.581818 580.804577 
z
" clip-path="url(#p70fb58dd03)" style="fill: #008000"/>
   </g>
   <g id="patch_13">
    <path d="M 276.72755 640.8 
L 283.345289 640.8 
L 283.345289 582.434022 
L 276.72755 582.434022 
z
" clip-path="url(#p70fb58dd03)" style="fill: #008000"/>
   </g>
   <g id="patch_14">
    <path d="M 368.873283 640.8 
L 375.491022 640.8 
L 375.491022 588.211445 
L 368.873283 588.211445 
z
" clip-path="url(#p70fb58dd03)" style="fill: #008000"/>
   </g>
   <g id="patch_15">
    <path d="M 461.019015 640.8 
L 467.636754 640.8 
L 467.636754 591.65281 
L 461.019015 591.65281 
z
" clip-path="url(#p70fb58dd03)" style="fill: #008000"/>
   </g>
   <g id="patch_16">
    <path d="M 553.164747 640.8 
L 559.782486 640.8 
L 559.782486 592.019776 
L 553.164747 592.019776 
z
" clip-path="url(#p70fb58dd03)" style="fill: #008000"/>
   </g>
   <g id="patch_17">
    <path d="M 645.31048 640.8 
L 651.928219 640.8 
L 651.928219 592.785874 
L 645.31048 592.785874 
z
" clip-path="url(#p70fb58dd03)" style="fill: #008000"/>
   </g>
   <g id="patch_18">
    <path d="M 737.456212 640.8 
L 744.073951 640.8 
L 744.073951 593.965381 
L 737.456212 593.965381 
z
" clip-path="url(#p70fb58dd03)" style="fill: #008000"/>
   </g>
   <g id="patch_19">
    <path d="M 829.601944 640.8 
L 836.219683 640.8 
L 836.219683 594.85445 
L 829.601944 594.85445 
z
" clip-path="url(#p70fb58dd03)" style="fill: #008000"/>
   </g>
   <g id="patch_20">
    <path d="M 921.747676 640.8 
L 928.365415 640.8 
L 928.365415 595.171281 
L 921.747676 595.171281 
z
" clip-path="url(#p70fb58dd03)" style="fill: #008000"/>
   </g>
   <g id="patch_21">
    <path d="M 192.121014 640.8 
L 198.738753 640.8 
L 198.738753 260.098593 
L 192.121014 260.098593 
z
" clip-path="url(#p70fb58dd03)" style="fill: #bfbf00"/>
   </g>
   <g id="patch_22">
    <path d="M 284.266747 640.8 
L 290.884486 640.8 
L 290.884486 260.098593 
L 284.266747 260.098593 
z
" clip-path="url(#p70fb58dd03)" style="fill: #bfbf00"/>
   </g>
   <g id="patch_23">
    <path d="M 376.412479 640.8 
L 383.030218 640.8 
L 383.030218 260.098593 
L 376.412479 260.098593 
z
" clip-path="url(#p70fb58dd03)" style="fill: #bfbf00"/>
   </g>
   <g id="patch_24">
    <path d="M 468.558211 640.8 
L 475.17595 640.8 
L 475.17595 260.098593 
L 468.558211 260.098593 
z
" clip-path="url(#p70fb58dd03)" style="fill: #bfbf00"/>
   </g>
   <g id="patch_25">
    <path d="M 560.703944 640.8 
L 567.321683 640.8 
L 567.321683 260.098593 
L 560.703944 260.098593 
z
" clip-path="url(#p70fb58dd03)" style="fill: #bfbf00"/>
   </g>
   <g id="patch_26">
    <path d="M 652.849676 640.8 
L 659.467415 640.8 
L 659.467415 260.098593 
L 652.849676 260.098593 
z
" clip-path="url(#p70fb58dd03)" style="fill: #bfbf00"/>
   </g>
   <g id="patch_27">
    <path d="M 744.995408 640.8 
L 751.613147 640.8 
L 751.613147 260.098593 
L 744.995408 260.098593 
z
" clip-path="url(#p70fb58dd03)" style="fill: #bfbf00"/>
   </g>
   <g id="patch_28">
    <path d="M 837.14114 640.8 
L 843.758879 640.8 
L 843.758879 260.098593 
L 837.14114 260.098593 
z
" clip-path="url(#p70fb58dd03)" style="fill: #bfbf00"/>
   </g>
   <g id="patch_29">
    <path d="M 929.286873 640.8 
L 935.904612 640.8 
L 935.904612 260.098593 
L 929.286873 260.098593 
z
" clip-path="url(#p70fb58dd03)" style="fill: #bfbf00"/>
   </g>
   <g id="patch_30">
    <path d="M 192.121014 640.8 
L 198.738753 640.8 
L 198.738753 574.794385 
L 192.121014 574.794385 
z
" clip-path="url(#p70fb58dd03)" style="fill: #008000"/>
   </g>
   <g id="patch_31">
    <path d="M 284.266747 640.8 
L 290.884486 640.8 
L 290.884486 570.008387 
L 284.266747 570.008387 
z
" clip-path="url(#p70fb58dd03)" style="fill: #008000"/>
   </g>
   <g id="patch_32">
    <path d="M 376.412479 640.8 
L 383.030218 640.8 
L 383.030218 568.431413 
L 376.412479 568.431413 
z
" clip-path="url(#p70fb58dd03)" style="fill: #008000"/>
   </g>
   <g id="patch_33">
    <path d="M 468.558211 640.8 
L 475.17595 640.8 
L 475.17595 572.456312 
L 468.558211 572.456312 
z
" clip-path="url(#p70fb58dd03)" style="fill: #008000"/>
   </g>
   <g id="patch_34">
    <path d="M 560.703944 640.8 
L 567.321683 640.8 
L 567.321683 578.566383 
L 560.703944 578.566383 
z
" clip-path="url(#p70fb58dd03)" style="fill: #008000"/>
   </g>
   <g id="patch_35">
    <path d="M 652.849676 640.8 
L 659.467415 640.8 
L 659.467415 582.836835 
L 652.849676 582.836835 
z
" clip-path="url(#p70fb58dd03)" style="fill: #008000"/>
   </g>
   <g id="patch_36">
    <path d="M 744.995408 640.8 
L 751.613147 640.8 
L 751.613147 582.718594 
L 744.995408 582.718594 
z
" clip-path="url(#p70fb58dd03)" style="fill: #008000"/>
   </g>
   <g id="patch_37">
    <path d="M 837.14114 640.8 
L 843.758879 640.8 
L 843.758879 582.218185 
L 837.14114 582.218185 
z
" clip-path="url(#p70fb58dd03)" style="fill: #008000"/>
   </g>
   <g id="patch_38">
    <path d="M 929.286873 640.8 
L 935.904612 640.8 
L 935.904612 582.869912 
L 929.286873 582.869912 
z
" clip-path="url(#p70fb58dd03)" style="fill: #008000"/>
   </g>
   <g id="patch_39">
    <path d="M 199.660211 640.8 
L 206.27795 640.8 
L 206.27795 135.568013 
L 199.660211 135.568013 
z
" clip-path="url(#p70fb58dd03)" style="fill: #bfbf00"/>
   </g>
   <g id="patch_40">
    <path d="M 291.805943 640.8 
L 298.423682 640.8 
L 298.423682 135.568013 
L 291.805943 135.568013 
z
" clip-path="url(#p70fb58dd03)" style="fill: #bfbf00"/>
   </g>
   <g id="patch_41">
    <path d="M 383.951675 640.8 
L 390.569414 640.8 
L 390.569414 135.568013 
L 383.951675 135.568013 
z
" clip-path="url(#p70fb58dd03)" style="fill: #bfbf00"/>
   </g>
   <g id="patch_42">
    <path d="M 476.097408 640.8 
L 482.715147 640.8 
L 482.715147 135.568013 
L 476.097408 135.568013 
z
" clip-path="url(#p70fb58dd03)" style="fill: #bfbf00"/>
   </g>
   <g id="patch_43">
    <path d="M 568.24314 640.8 
L 574.860879 640.8 
L 574.860879 135.568013 
L 568.24314 135.568013 
z
" clip-path="url(#p70fb58dd03)" style="fill: #bfbf00"/>
   </g>
   <g id="patch_44">
    <path d="M 660.388872 640.8 
L 667.006611 640.8 
L 667.006611 135.568013 
L 660.388872 135.568013 
z
" clip-path="url(#p70fb58dd03)" style="fill: #bfbf00"/>
   </g>
   <g id="patch_45">
    <path d="M 752.534604 640.8 
L 759.152343 640.8 
L 759.152343 135.568013 
L 752.534604 135.568013 
z
" clip-path="url(#p70fb58dd03)" style="fill: #bfbf00"/>
   </g>
   <g id="patch_46">
    <path d="M 844.680337 640.8 
L 851.298076 640.8 
L 851.298076 135.568013 
L 844.680337 135.568013 
z
" clip-path="url(#p70fb58dd03)" style="fill: #bfbf00"/>
   </g>
   <g id="patch_47">
    <path d="M 936.826069 640.8 
L 943.443808 640.8 
L 943.443808 135.568013 
L 936.826069 135.568013 
z
" clip-path="url(#p70fb58dd03)" style="fill: #bfbf00"/>
   </g>
   <g id="patch_48">
    <path d="M 199.660211 640.8 
L 206.27795 640.8 
L 206.27795 574.794385 
L 199.660211 574.794385 
z
" clip-path="url(#p70fb58dd03)" style="fill: #008000"/>
   </g>
   <g id="patch_49">
    <path d="M 291.805943 640.8 
L 298.423682 640.8 
L 298.423682 567.340746 
L 291.805943 567.340746 
z
" clip-path="url(#p70fb58dd03)" style="fill: #008000"/>
   </g>
   <g id="patch_50">
    <path d="M 383.951675 640.8 
L 390.569414 640.8 
L 390.569414 560.84663 
L 383.951675 560.84663 
z
" clip-path="url(#p70fb58dd03)" style="fill: #008000"/>
   </g>
   <g id="patch_51">
    <path d="M 476.097408 640.8 
L 482.715147 640.8 
L 482.715147 556.230487 
L 476.097408 556.230487 
z
" clip-path="url(#p70fb58dd03)" style="fill: #008000"/>
   </g>
   <g id="patch_52">
    <path d="M 568.24314 640.8 
L 574.860879 640.8 
L 574.860879 554.828214 
L 568.24314 554.828214 
z
" clip-path="url(#p70fb58dd03)" style="fill: #008000"/>
   </g>
   <g id="patch_53">
    <path d="M 660.388872 640.8 
L 667.006611 640.8 
L 667.006611 557.701683 
L 660.388872 557.701683 
z
" clip-path="url(#p70fb58dd03)" style="fill: #008000"/>
   </g>
   <g id="patch_54">
    <path d="M 752.534604 640.8 
L 759.152343 640.8 
L 759.152343 564.302207 
L 752.534604 564.302207 
z
" clip-path="url(#p70fb58dd03)" style="fill: #008000"/>
   </g>
   <g id="patch_55">
    <path d="M 844.680337 640.8 
L 851.298076 640.8 
L 851.298076 571.348722 
L 844.680337 571.348722 
z
" clip-path="url(#p70fb58dd03)" style="fill: #008000"/>
   </g>
   <g id="patch_56">
    <path d="M 936.826069 640.8 
L 943.443808 640.8 
L 943.443808 574.7682 
L 936.826069 574.7682 
z
" clip-path="url(#p70fb58dd03)" style="fill: #008000"/>
   </g>
   <g id="patch_57">
    <path d="M 207.199407 640.8 
L 213.817146 640.8 
L 213.817146 508.668989 
L 207.199407 508.668989 
z
" clip-path="url(#p70fb58dd03)" style="fill: #bfbf00"/>
   </g>
   <g id="patch_58">
    <path d="M 299.345139 640.8 
L 305.962878 640.8 
L 305.962878 508.668989 
L 299.345139 508.668989 
z
" clip-path="url(#p70fb58dd03)" style="fill: #bfbf00"/>
   </g>
   <g id="patch_59">
    <path d="M 391.490872 640.8 
L 398.108611 640.8 
L 398.108611 508.668989 
L 391.490872 508.668989 
z
" clip-path="url(#p70fb58dd03)" style="fill: #bfbf00"/>
   </g>
   <g id="patch_60">
    <path d="M 483.636604 640.8 
L 490.254343 640.8 
L 490.254343 508.668989 
L 483.636604 508.668989 
z
" clip-path="url(#p70fb58dd03)" style="fill: #bfbf00"/>
   </g>
   <g id="patch_61">
    <path d="M 575.782336 640.8 
L 582.400075 640.8 
L 582.400075 508.668989 
L 575.782336 508.668989 
z
" clip-path="url(#p70fb58dd03)" style="fill: #bfbf00"/>
   </g>
   <g id="patch_62">
    <path d="M 667.928068 640.8 
L 674.545807 640.8 
L 674.545807 508.668989 
L 667.928068 508.668989 
z
" clip-path="url(#p70fb58dd03)" style="fill: #bfbf00"/>
   </g>
   <g id="patch_63">
    <path d="M 760.073801 640.8 
L 766.69154 640.8 
L 766.69154 508.668989 
L 760.073801 508.668989 
z
" clip-path="url(#p70fb58dd03)" style="fill: #bfbf00"/>
   </g>
   <g id="patch_64">
    <path d="M 852.219533 640.8 
L 858.837272 640.8 
L 858.837272 508.668989 
L 852.219533 508.668989 
z
" clip-path="url(#p70fb58dd03)" style="fill: #bfbf00"/>
   </g>
   <g id="patch_65">
    <path d="M 944.365265 640.8 
L 950.983004 640.8 
L 950.983004 508.668989 
L 944.365265 508.668989 
z
" clip-path="url(#p70fb58dd03)" style="fill: #bfbf00"/>
   </g>
   <g id="patch_66">
    <path d="M 207.199407 640.8 
L 213.817146 640.8 
L 213.817146 616.23805 
L 207.199407 616.23805 
z
" clip-path="url(#p70fb58dd03)" style="fill: #008000"/>
   </g>
   <g id="patch_67">
    <path d="M 299.345139 640.8 
L 305.962878 640.8 
L 305.962878 617.701509 
L 299.345139 617.701509 
z
" clip-path="url(#p70fb58dd03)" style="fill: #008000"/>
   </g>
   <g id="patch_68">
    <path d="M 391.490872 640.8 
L 398.108611 640.8 
L 398.108611 618.61221 
L 391.490872 618.61221 
z
" clip-path="url(#p70fb58dd03)" style="fill: #008000"/>
   </g>
   <g id="patch_69">
    <path d="M 483.636604 640.8 
L 490.254343 640.8 
L 490.254343 619.31377 
L 483.636604 619.31377 
z
" clip-path="url(#p70fb58dd03)" style="fill: #008000"/>
   </g>
   <g id="patch_70">
    <path d="M 575.782336 640.8 
L 582.400075 640.8 
L 582.400075 619.855562 
L 575.782336 619.855562 
z
" clip-path="url(#p70fb58dd03)" style="fill: #008000"/>
   </g>
   <g id="patch_71">
    <path d="M 667.928068 640.8 
L 674.545807 640.8 
L 674.545807 620.270385 
L 667.928068 620.270385 
z
" clip-path="url(#p70fb58dd03)" style="fill: #008000"/>
   </g>
   <g id="patch_72">
    <path d="M 760.073801 640.8 
L 766.69154 640.8 
L 766.69154 620.614707 
L 760.073801 620.614707 
z
" clip-path="url(#p70fb58dd03)" style="fill: #008000"/>
   </g>
   <g id="patch_73">
    <path d="M 852.219533 640.8 
L 858.837272 640.8 
L 858.837272 620.921119 
L 852.219533 620.921119 
z
" clip-path="url(#p70fb58dd03)" style="fill: #008000"/>
   </g>
   <g id="patch_74">
    <path d="M 944.365265 640.8 
L 950.983004 640.8 
L 950.983004 621.171517 
L 944.365265 621.171517 
z
" clip-path="url(#p70fb58dd03)" style="fill: #008000"/>
   </g>
   <g id="patch_75">
    <path d="M 214.738603 640.8 
L 221.356342 640.8 
L 221.356342 135.880511 
L 214.738603 135.880511 
z
" clip-path="url(#p70fb58dd03)" style="fill: #bfbf00"/>
   </g>
   <g id="patch_76">
    <path d="M 306.884336 640.8 
L 313.502075 640.8 
L 313.502075 135.880511 
L 306.884336 135.880511 
z
" clip-path="url(#p70fb58dd03)" style="fill: #bfbf00"/>
   </g>
   <g id="patch_77">
    <path d="M 399.030068 640.8 
L 405.647807 640.8 
L 405.647807 135.880511 
L 399.030068 135.880511 
z
" clip-path="url(#p70fb58dd03)" style="fill: #bfbf00"/>
   </g>
   <g id="patch_78">
    <path d="M 491.1758 640.8 
L 497.793539 640.8 
L 497.793539 135.880511 
L 491.1758 135.880511 
z
" clip-path="url(#p70fb58dd03)" style="fill: #bfbf00"/>
   </g>
   <g id="patch_79">
    <path d="M 583.321532 640.8 
L 589.939271 640.8 
L 589.939271 135.880511 
L 583.321532 135.880511 
z
" clip-path="url(#p70fb58dd03)" style="fill: #bfbf00"/>
   </g>
   <g id="patch_80">
    <path d="M 675.467265 640.8 
L 682.085004 640.8 
L 682.085004 135.880511 
L 675.467265 135.880511 
z
" clip-path="url(#p70fb58dd03)" style="fill: #bfbf00"/>
   </g>
   <g id="patch_81">
    <path d="M 767.612997 640.8 
L 774.230736 640.8 
L 774.230736 135.880511 
L 767.612997 135.880511 
z
" clip-path="url(#p70fb58dd03)" style="fill: #bfbf00"/>
   </g>
   <g id="patch_82">
    <path d="M 859.758729 640.8 
L 866.376468 640.8 
L 866.376468 135.880511 
L 859.758729 135.880511 
z
" clip-path="url(#p70fb58dd03)" style="fill: #bfbf00"/>
   </g>
   <g id="patch_83">
    <path d="M 951.904461 640.8 
L 958.5222 640.8 
L 958.5222 135.880511 
L 951.904461 135.880511 
z
" clip-path="url(#p70fb58dd03)" style="fill: #bfbf00"/>
   </g>
   <g id="patch_84">
    <path d="M 214.738603 640.8 
L 221.356342 640.8 
L 221.356342 574.794385 
L 214.738603 574.794385 
z
" clip-path="url(#p70fb58dd03)" style="fill: #008000"/>
   </g>
   <g id="patch_85">
    <path d="M 306.884336 640.8 
L 313.502075 640.8 
L 313.502075 567.14842 
L 306.884336 567.14842 
z
" clip-path="url(#p70fb58dd03)" style="fill: #008000"/>
   </g>
   <g id="patch_86">
    <path d="M 399.030068 640.8 
L 405.647807 640.8 
L 405.647807 560.269116 
L 399.030068 560.269116 
z
" clip-path="url(#p70fb58dd03)" style="fill: #008000"/>
   </g>
   <g id="patch_87">
    <path d="M 491.1758 640.8 
L 497.793539 640.8 
L 497.793539 554.932261 
L 491.1758 554.932261 
z
" clip-path="url(#p70fb58dd03)" style="fill: #008000"/>
   </g>
   <g id="patch_88">
    <path d="M 583.321532 640.8 
L 589.939271 640.8 
L 589.939271 552.455719 
L 583.321532 552.455719 
z
" clip-path="url(#p70fb58dd03)" style="fill: #008000"/>
   </g>
   <g id="patch_89">
    <path d="M 675.467265 640.8 
L 682.085004 640.8 
L 682.085004 554.575053 
L 675.467265 554.575053 
z
" clip-path="url(#p70fb58dd03)" style="fill: #008000"/>
   </g>
   <g id="patch_90">
    <path d="M 767.612997 640.8 
L 774.230736 640.8 
L 774.230736 562.276283 
L 767.612997 562.276283 
z
" clip-path="url(#p70fb58dd03)" style="fill: #008000"/>
   </g>
   <g id="patch_91">
    <path d="M 859.758729 640.8 
L 866.376468 640.8 
L 866.376468 571.839896 
L 859.758729 571.839896 
z
" clip-path="url(#p70fb58dd03)" style="fill: #008000"/>
   </g>
   <g id="patch_92">
    <path d="M 951.904461 640.8 
L 958.5222 640.8 
L 958.5222 574.777012 
L 951.904461 574.777012 
z
" clip-path="url(#p70fb58dd03)" style="fill: #008000"/>
   </g>
   <g id="patch_93">
    <path d="M 222.2778 640.8 
L 228.895539 640.8 
L 228.895539 181.756549 
L 222.2778 181.756549 
z
" clip-path="url(#p70fb58dd03)" style="fill: #bfbf00"/>
   </g>
   <g id="patch_94">
    <path d="M 314.423532 640.8 
L 321.041271 640.8 
L 321.041271 181.756549 
L 314.423532 181.756549 
z
" clip-path="url(#p70fb58dd03)" style="fill: #bfbf00"/>
   </g>
   <g id="patch_95">
    <path d="M 406.569264 640.8 
L 413.187003 640.8 
L 413.187003 181.756549 
L 406.569264 181.756549 
z
" clip-path="url(#p70fb58dd03)" style="fill: #bfbf00"/>
   </g>
   <g id="patch_96">
    <path d="M 498.714996 640.8 
L 505.332735 640.8 
L 505.332735 181.756549 
L 498.714996 181.756549 
z
" clip-path="url(#p70fb58dd03)" style="fill: #bfbf00"/>
   </g>
   <g id="patch_97">
    <path d="M 590.860729 640.8 
L 597.478468 640.8 
L 597.478468 181.756549 
L 590.860729 181.756549 
z
" clip-path="url(#p70fb58dd03)" style="fill: #bfbf00"/>
   </g>
   <g id="patch_98">
    <path d="M 683.006461 640.8 
L 689.6242 640.8 
L 689.6242 181.756549 
L 683.006461 181.756549 
z
" clip-path="url(#p70fb58dd03)" style="fill: #bfbf00"/>
   </g>
   <g id="patch_99">
    <path d="M 775.152193 640.8 
L 781.769932 640.8 
L 781.769932 181.756549 
L 775.152193 181.756549 
z
" clip-path="url(#p70fb58dd03)" style="fill: #bfbf00"/>
   </g>
   <g id="patch_100">
    <path d="M 867.297925 640.8 
L 873.915664 640.8 
L 873.915664 181.756549 
L 867.297925 181.756549 
z
" clip-path="url(#p70fb58dd03)" style="fill: #bfbf00"/>
   </g>
   <g id="patch_101">
    <path d="M 959.443658 640.8 
L 966.061397 640.8 
L 966.061397 181.756549 
L 959.443658 181.756549 
z
" clip-path="url(#p70fb58dd03)" style="fill: #bfbf00"/>
   </g>
   <g id="patch_102">
    <path d="M 222.2778 640.8 
L 228.895539 640.8 
L 228.895539 574.794385 
L 222.2778 574.794385 
z
" clip-path="url(#p70fb58dd03)" style="fill: #008000"/>
   </g>
   <g id="patch_103">
    <path d="M 314.423532 640.8 
L 321.041271 640.8 
L 321.041271 567.516077 
L 314.423532 567.516077 
z
" clip-path="url(#p70fb58dd03)" style="fill: #008000"/>
   </g>
   <g id="patch_104">
    <path d="M 406.569264 640.8 
L 413.187003 640.8 
L 413.187003 561.452153 
L 406.569264 561.452153 
z
" clip-path="url(#p70fb58dd03)" style="fill: #008000"/>
   </g>
   <g id="patch_105">
    <path d="M 498.714996 640.8 
L 505.332735 640.8 
L 505.332735 557.704924 
L 498.714996 557.704924 
z
" clip-path="url(#p70fb58dd03)" style="fill: #008000"/>
   </g>
   <g id="patch_106">
    <path d="M 590.860729 640.8 
L 597.478468 640.8 
L 597.478468 558.008914 
L 590.860729 558.008914 
z
" clip-path="url(#p70fb58dd03)" style="fill: #008000"/>
   </g>
   <g id="patch_107">
    <path d="M 683.006461 640.8 
L 689.6242 640.8 
L 689.6242 564.500851 
L 683.006461 564.500851 
z
" clip-path="url(#p70fb58dd03)" style="fill: #008000"/>
   </g>
   <g id="patch_108">
    <path d="M 775.152193 640.8 
L 781.769932 640.8 
L 781.769932 573.938529 
L 775.152193 573.938529 
z
" clip-path="url(#p70fb58dd03)" style="fill: #008000"/>
   </g>
   <g id="patch_109">
    <path d="M 867.297925 640.8 
L 873.915664 640.8 
L 873.915664 578.127107 
L 867.297925 578.127107 
z
" clip-path="url(#p70fb58dd03)" style="fill: #008000"/>
   </g>
   <g id="patch_110">
    <path d="M 959.443658 640.8 
L 966.061397 640.8 
L 966.061397 575.240032 
L 959.443658 575.240032 
z
" clip-path="url(#p70fb58dd03)" style="fill: #008000"/>
   </g>
   <g id="patch_111">
    <path d="M 229.816996 640.8 
L 236.434735 640.8 
L 236.434735 112.8 
L 229.816996 112.8 
z
" clip-path="url(#p70fb58dd03)" style="fill: #bfbf00"/>
   </g>
   <g id="patch_112">
    <path d="M 321.962728 640.8 
L 328.580467 640.8 
L 328.580467 112.8 
L 321.962728 112.8 
z
" clip-path="url(#p70fb58dd03)" style="fill: #bfbf00"/>
   </g>
   <g id="patch_113">
    <path d="M 414.10846 640.8 
L 420.726199 640.8 
L 420.726199 112.8 
L 414.10846 112.8 
z
" clip-path="url(#p70fb58dd03)" style="fill: #bfbf00"/>
   </g>
   <g id="patch_114">
    <path d="M 506.254193 640.8 
L 512.871932 640.8 
L 512.871932 112.8 
L 506.254193 112.8 
z
" clip-path="url(#p70fb58dd03)" style="fill: #bfbf00"/>
   </g>
   <g id="patch_115">
    <path d="M 598.399925 640.8 
L 605.017664 640.8 
L 605.017664 112.8 
L 598.399925 112.8 
z
" clip-path="url(#p70fb58dd03)" style="fill: #bfbf00"/>
   </g>
   <g id="patch_116">
    <path d="M 690.545657 640.8 
L 697.163396 640.8 
L 697.163396 112.8 
L 690.545657 112.8 
z
" clip-path="url(#p70fb58dd03)" style="fill: #bfbf00"/>
   </g>
   <g id="patch_117">
    <path d="M 782.691389 640.8 
L 789.309128 640.8 
L 789.309128 112.8 
L 782.691389 112.8 
z
" clip-path="url(#p70fb58dd03)" style="fill: #bfbf00"/>
   </g>
   <g id="patch_118">
    <path d="M 874.837122 640.8 
L 881.454861 640.8 
L 881.454861 112.8 
L 874.837122 112.8 
z
" clip-path="url(#p70fb58dd03)" style="fill: #bfbf00"/>
   </g>
   <g id="patch_119">
    <path d="M 966.982854 640.8 
L 973.600593 640.8 
L 973.600593 112.8 
L 966.982854 112.8 
z
" clip-path="url(#p70fb58dd03)" style="fill: #bfbf00"/>
   </g>
   <g id="patch_120">
    <path d="M 229.816996 640.8 
L 236.434735 640.8 
L 236.434735 574.794385 
L 229.816996 574.794385 
z
" clip-path="url(#p70fb58dd03)" style="fill: #008000"/>
   </g>
   <g id="patch_121">
    <path d="M 321.962728 640.8 
L 328.580467 640.8 
L 328.580467 566.856107 
L 321.962728 566.856107 
z
" clip-path="url(#p70fb58dd03)" style="fill: #008000"/>
   </g>
   <g id="patch_122">
    <path d="M 414.10846 640.8 
L 420.726199 640.8 
L 420.726199 559.322434 
L 414.10846 559.322434 
z
" clip-path="url(#p70fb58dd03)" style="fill: #008000"/>
   </g>
   <g id="patch_123">
    <path d="M 506.254193 640.8 
L 512.871932 640.8 
L 512.871932 552.633537 
L 506.254193 552.633537 
z
" clip-path="url(#p70fb58dd03)" style="fill: #008000"/>
   </g>
   <g id="patch_124">
    <path d="M 598.399925 640.8 
L 605.017664 640.8 
L 605.017664 547.606494 
L 598.399925 547.606494 
z
" clip-path="url(#p70fb58dd03)" style="fill: #008000"/>
   </g>
   <g id="patch_125">
    <path d="M 690.545657 640.8 
L 697.163396 640.8 
L 697.163396 545.671398 
L 690.545657 545.671398 
z
" clip-path="url(#p70fb58dd03)" style="fill: #008000"/>
   </g>
   <g id="patch_126">
    <path d="M 782.691389 640.8 
L 789.309128 640.8 
L 789.309128 548.798029 
L 782.691389 548.798029 
z
" clip-path="url(#p70fb58dd03)" style="fill: #008000"/>
   </g>
   <g id="patch_127">
    <path d="M 874.837122 640.8 
L 881.454861 640.8 
L 881.454861 558.723994 
L 874.837122 558.723994 
z
" clip-path="url(#p70fb58dd03)" style="fill: #008000"/>
   </g>
   <g id="patch_128">
    <path d="M 966.982854 640.8 
L 973.600593 640.8 
L 973.600593 574.678316 
L 966.982854 574.678316 
z
" clip-path="url(#p70fb58dd03)" style="fill: #008000"/>
   </g>
   <g id="patch_129">
    <path d="M 237.356192 640.8 
L 243.973931 640.8 
L 243.973931 286.389315 
L 237.356192 286.389315 
z
" clip-path="url(#p70fb58dd03)" style="fill: #bfbf00"/>
   </g>
   <g id="patch_130">
    <path d="M 329.501924 640.8 
L 336.119663 640.8 
L 336.119663 286.389315 
L 329.501924 286.389315 
z
" clip-path="url(#p70fb58dd03)" style="fill: #bfbf00"/>
   </g>
   <g id="patch_131">
    <path d="M 421.647657 640.8 
L 428.265396 640.8 
L 428.265396 286.389315 
L 421.647657 286.389315 
z
" clip-path="url(#p70fb58dd03)" style="fill: #bfbf00"/>
   </g>
   <g id="patch_132">
    <path d="M 513.793389 640.8 
L 520.411128 640.8 
L 520.411128 286.389315 
L 513.793389 286.389315 
z
" clip-path="url(#p70fb58dd03)" style="fill: #bfbf00"/>
   </g>
   <g id="patch_133">
    <path d="M 605.939121 640.8 
L 612.55686 640.8 
L 612.55686 286.389315 
L 605.939121 286.389315 
z
" clip-path="url(#p70fb58dd03)" style="fill: #bfbf00"/>
   </g>
   <g id="patch_134">
    <path d="M 698.084853 640.8 
L 704.702592 640.8 
L 704.702592 286.389315 
L 698.084853 286.389315 
z
" clip-path="url(#p70fb58dd03)" style="fill: #bfbf00"/>
   </g>
   <g id="patch_135">
    <path d="M 790.230586 640.8 
L 796.848325 640.8 
L 796.848325 286.389315 
L 790.230586 286.389315 
z
" clip-path="url(#p70fb58dd03)" style="fill: #bfbf00"/>
   </g>
   <g id="patch_136">
    <path d="M 882.376318 640.8 
L 888.994057 640.8 
L 888.994057 286.389315 
L 882.376318 286.389315 
z
" clip-path="url(#p70fb58dd03)" style="fill: #bfbf00"/>
   </g>
   <g id="patch_137">
    <path d="M 974.52205 640.8 
L 981.139789 640.8 
L 981.139789 286.389315 
L 974.52205 286.389315 
z
" clip-path="url(#p70fb58dd03)" style="fill: #bfbf00"/>
   </g>
   <g id="patch_138">
    <path d="M 237.356192 640.8 
L 243.973931 640.8 
L 243.973931 577.322236 
L 237.356192 577.322236 
z
" clip-path="url(#p70fb58dd03)" style="fill: #008000"/>
   </g>
   <g id="patch_139">
    <path d="M 329.501924 640.8 
L 336.119663 640.8 
L 336.119663 576.684891 
L 329.501924 576.684891 
z
" clip-path="url(#p70fb58dd03)" style="fill: #008000"/>
   </g>
   <g id="patch_140">
    <path d="M 421.647657 640.8 
L 428.265396 640.8 
L 428.265396 579.557125 
L 421.647657 579.557125 
z
" clip-path="url(#p70fb58dd03)" style="fill: #008000"/>
   </g>
   <g id="patch_141">
    <path d="M 513.793389 640.8 
L 520.411128 640.8 
L 520.411128 586.865835 
L 513.793389 586.865835 
z
" clip-path="url(#p70fb58dd03)" style="fill: #008000"/>
   </g>
   <g id="patch_142">
    <path d="M 605.939121 640.8 
L 612.55686 640.8 
L 612.55686 590.388633 
L 605.939121 590.388633 
z
" clip-path="url(#p70fb58dd03)" style="fill: #008000"/>
   </g>
   <g id="patch_143">
    <path d="M 698.084853 640.8 
L 704.702592 640.8 
L 704.702592 588.307227 
L 698.084853 588.307227 
z
" clip-path="url(#p70fb58dd03)" style="fill: #008000"/>
   </g>
   <g id="patch_144">
    <path d="M 790.230586 640.8 
L 796.848325 640.8 
L 796.848325 587.476994 
L 790.230586 587.476994 
z
" clip-path="url(#p70fb58dd03)" style="fill: #008000"/>
   </g>
   <g id="patch_145">
    <path d="M 882.376318 640.8 
L 888.994057 640.8 
L 888.994057 588.533994 
L 882.376318 588.533994 
z
" clip-path="url(#p70fb58dd03)" style="fill: #008000"/>
   </g>
   <g id="patch_146">
    <path d="M 974.52205 640.8 
L 981.139789 640.8 
L 981.139789 590.714116 
L 974.52205 590.714116 
z
" clip-path="url(#p70fb58dd03)" style="fill: #008000"/>
   </g>
   <g id="patch_147">
    <path d="M 244.895388 640.8 
L 251.513127 640.8 
L 251.513127 159.799883 
L 244.895388 159.799883 
z
" clip-path="url(#p70fb58dd03)" style="fill: #bfbf00"/>
   </g>
   <g id="patch_148">
    <path d="M 337.041121 640.8 
L 343.65886 640.8 
L 343.65886 159.799883 
L 337.041121 159.799883 
z
" clip-path="url(#p70fb58dd03)" style="fill: #bfbf00"/>
   </g>
   <g id="patch_149">
    <path d="M 429.186853 640.8 
L 435.804592 640.8 
L 435.804592 159.799883 
L 429.186853 159.799883 
z
" clip-path="url(#p70fb58dd03)" style="fill: #bfbf00"/>
   </g>
   <g id="patch_150">
    <path d="M 521.332585 640.8 
L 527.950324 640.8 
L 527.950324 159.799883 
L 521.332585 159.799883 
z
" clip-path="url(#p70fb58dd03)" style="fill: #bfbf00"/>
   </g>
   <g id="patch_151">
    <path d="M 613.478317 640.8 
L 620.096056 640.8 
L 620.096056 159.799883 
L 613.478317 159.799883 
z
" clip-path="url(#p70fb58dd03)" style="fill: #bfbf00"/>
   </g>
   <g id="patch_152">
    <path d="M 705.62405 640.8 
L 712.241789 640.8 
L 712.241789 159.799883 
L 705.62405 159.799883 
z
" clip-path="url(#p70fb58dd03)" style="fill: #bfbf00"/>
   </g>
   <g id="patch_153">
    <path d="M 797.769782 640.8 
L 804.387521 640.8 
L 804.387521 159.799883 
L 797.769782 159.799883 
z
" clip-path="url(#p70fb58dd03)" style="fill: #bfbf00"/>
   </g>
   <g id="patch_154">
    <path d="M 889.915514 640.8 
L 896.533253 640.8 
L 896.533253 159.799883 
L 889.915514 159.799883 
z
" clip-path="url(#p70fb58dd03)" style="fill: #bfbf00"/>
   </g>
   <g id="patch_155">
    <path d="M 982.061247 640.8 
L 988.678986 640.8 
L 988.678986 159.799883 
L 982.061247 159.799883 
z
" clip-path="url(#p70fb58dd03)" style="fill: #bfbf00"/>
   </g>
   <g id="patch_156">
    <path d="M 244.895388 640.8 
L 251.513127 640.8 
L 251.513127 574.794385 
L 244.895388 574.794385 
z
" clip-path="url(#p70fb58dd03)" style="fill: #008000"/>
   </g>
   <g id="patch_157">
    <path d="M 337.041121 640.8 
L 343.65886 640.8 
L 343.65886 567.755706 
L 337.041121 567.755706 
z
" clip-path="url(#p70fb58dd03)" style="fill: #008000"/>
   </g>
   <g id="patch_158">
    <path d="M 429.186853 640.8 
L 435.804592 640.8 
L 435.804592 562.11653 
L 429.186853 562.11653 
z
" clip-path="url(#p70fb58dd03)" style="fill: #008000"/>
   </g>
   <g id="patch_159">
    <path d="M 521.332585 640.8 
L 527.950324 640.8 
L 527.950324 559.041231 
L 521.332585 559.041231 
z
" clip-path="url(#p70fb58dd03)" style="fill: #008000"/>
   </g>
   <g id="patch_160">
    <path d="M 613.478317 640.8 
L 620.096056 640.8 
L 620.096056 559.675552 
L 613.478317 559.675552 
z
" clip-path="url(#p70fb58dd03)" style="fill: #008000"/>
   </g>
   <g id="patch_161">
    <path d="M 705.62405 640.8 
L 712.241789 640.8 
L 712.241789 564.3016 
L 705.62405 564.3016 
z
" clip-path="url(#p70fb58dd03)" style="fill: #008000"/>
   </g>
   <g id="patch_162">
    <path d="M 797.769782 640.8 
L 804.387521 640.8 
L 804.387521 570.828693 
L 797.769782 570.828693 
z
" clip-path="url(#p70fb58dd03)" style="fill: #008000"/>
   </g>
   <g id="patch_163">
    <path d="M 889.915514 640.8 
L 896.533253 640.8 
L 896.533253 574.974532 
L 889.915514 574.974532 
z
" clip-path="url(#p70fb58dd03)" style="fill: #008000"/>
   </g>
   <g id="patch_164">
    <path d="M 982.061247 640.8 
L 988.678986 640.8 
L 988.678986 574.781292 
L 982.061247 574.781292 
z
" clip-path="url(#p70fb58dd03)" style="fill: #008000"/>
   </g>
   <g id="patch_165">
    <path d="M 252.434585 640.8 
L 259.052324 640.8 
L 259.052324 194.81838 
L 252.434585 194.81838 
z
" clip-path="url(#p70fb58dd03)" style="fill: #bfbf00"/>
   </g>
   <g id="patch_166">
    <path d="M 344.580317 640.8 
L 351.198056 640.8 
L 351.198056 194.81838 
L 344.580317 194.81838 
z
" clip-path="url(#p70fb58dd03)" style="fill: #bfbf00"/>
   </g>
   <g id="patch_167">
    <path d="M 436.726049 640.8 
L 443.343788 640.8 
L 443.343788 194.81838 
L 436.726049 194.81838 
z
" clip-path="url(#p70fb58dd03)" style="fill: #bfbf00"/>
   </g>
   <g id="patch_168">
    <path d="M 528.871781 640.8 
L 535.48952 640.8 
L 535.48952 194.81838 
L 528.871781 194.81838 
z
" clip-path="url(#p70fb58dd03)" style="fill: #bfbf00"/>
   </g>
   <g id="patch_169">
    <path d="M 621.017514 640.8 
L 627.635253 640.8 
L 627.635253 194.81838 
L 621.017514 194.81838 
z
" clip-path="url(#p70fb58dd03)" style="fill: #bfbf00"/>
   </g>
   <g id="patch_170">
    <path d="M 713.163246 640.8 
L 719.780985 640.8 
L 719.780985 194.81838 
L 713.163246 194.81838 
z
" clip-path="url(#p70fb58dd03)" style="fill: #bfbf00"/>
   </g>
   <g id="patch_171">
    <path d="M 805.308978 640.8 
L 811.926717 640.8 
L 811.926717 194.81838 
L 805.308978 194.81838 
z
" clip-path="url(#p70fb58dd03)" style="fill: #bfbf00"/>
   </g>
   <g id="patch_172">
    <path d="M 897.454711 640.8 
L 904.07245 640.8 
L 904.07245 194.81838 
L 897.454711 194.81838 
z
" clip-path="url(#p70fb58dd03)" style="fill: #bfbf00"/>
   </g>
   <g id="patch_173">
    <path d="M 989.600443 640.8 
L 996.218182 640.8 
L 996.218182 194.81838 
L 989.600443 194.81838 
z
" clip-path="url(#p70fb58dd03)" style="fill: #bfbf00"/>
   </g>
   <g id="patch_174">
    <path d="M 252.434585 640.8 
L 259.052324 640.8 
L 259.052324 574.794385 
L 252.434585 574.794385 
z
" clip-path="url(#p70fb58dd03)" style="fill: #008000"/>
   </g>
   <g id="patch_175">
    <path d="M 344.580317 640.8 
L 351.198056 640.8 
L 351.198056 568.330702 
L 344.580317 568.330702 
z
" clip-path="url(#p70fb58dd03)" style="fill: #008000"/>
   </g>
   <g id="patch_176">
    <path d="M 436.726049 640.8 
L 443.343788 640.8 
L 443.343788 563.825152 
L 436.726049 563.825152 
z
" clip-path="url(#p70fb58dd03)" style="fill: #008000"/>
   </g>
   <g id="patch_177">
    <path d="M 528.871781 640.8 
L 535.48952 640.8 
L 535.48952 562.511474 
L 528.871781 562.511474 
z
" clip-path="url(#p70fb58dd03)" style="fill: #008000"/>
   </g>
   <g id="patch_178">
    <path d="M 621.017514 640.8 
L 627.635253 640.8 
L 627.635253 565.241587 
L 621.017514 565.241587 
z
" clip-path="url(#p70fb58dd03)" style="fill: #008000"/>
   </g>
   <g id="patch_179">
    <path d="M 713.163246 640.8 
L 719.780985 640.8 
L 719.780985 571.053482 
L 713.163246 571.053482 
z
" clip-path="url(#p70fb58dd03)" style="fill: #008000"/>
   </g>
   <g id="patch_180">
    <path d="M 805.308978 640.8 
L 811.926717 640.8 
L 811.926717 576.375356 
L 805.308978 576.375356 
z
" clip-path="url(#p70fb58dd03)" style="fill: #008000"/>
   </g>
   <g id="patch_181">
    <path d="M 897.454711 640.8 
L 904.07245 640.8 
L 904.07245 577.610648 
L 897.454711 577.610648 
z
" clip-path="url(#p70fb58dd03)" style="fill: #008000"/>
   </g>
   <g id="patch_182">
    <path d="M 989.600443 640.8 
L 996.218182 640.8 
L 996.218182 575.753155 
L 989.600443 575.753155 
z
" clip-path="url(#p70fb58dd03)" style="fill: #008000"/>
   </g>
   <g id="matplotlib.axis_1">
    <g id="xtick_1">
     <g id="line2d_1">
      <defs>
       <path id="m643491e97b" d="M 0 0 
L 0 3.5 
" style="stroke: #000000; stroke-width: 0.8"/>
      </defs>
      <g>
       <use xlink:href="#m643491e97b" x="225.586669" y="640.8" style="stroke: #000000; stroke-width: 0.8"/>
      </g>
     </g>
     <g id="text_1">
      <!-- 8 -->
      <g transform="translate(222.405419 655.398438)scale(0.1 -0.1)">
       <defs>
        <path id="DejaVuSans-38" d="M 2034 2216 
Q 1584 2216 1326 1975 
Q 1069 1734 1069 1313 
Q 1069 891 1326 650 
Q 1584 409 2034 409 
Q 2484 409 2743 651 
Q 3003 894 3003 1313 
Q 3003 1734 2745 1975 
Q 2488 2216 2034 2216 
z
M 1403 2484 
Q 997 2584 770 2862 
Q 544 3141 544 3541 
Q 544 4100 942 4425 
Q 1341 4750 2034 4750 
Q 2731 4750 3128 4425 
Q 3525 4100 3525 3541 
Q 3525 3141 3298 2862 
Q 3072 2584 2669 2484 
Q 3125 2378 3379 2068 
Q 3634 1759 3634 1313 
Q 3634 634 3220 271 
Q 2806 -91 2034 -91 
Q 1263 -91 848 271 
Q 434 634 434 1313 
Q 434 1759 690 2068 
Q 947 2378 1403 2484 
z
M 1172 3481 
Q 1172 3119 1398 2916 
Q 1625 2713 2034 2713 
Q 2441 2713 2670 2916 
Q 2900 3119 2900 3481 
Q 2900 3844 2670 4047 
Q 2441 4250 2034 4250 
Q 1625 4250 1398 4047 
Q 1172 3844 1172 3481 
z
" transform="scale(0.015625)"/>
       </defs>
       <use xlink:href="#DejaVuSans-38"/>
      </g>
     </g>
    </g>
    <g id="xtick_2">
     <g id="line2d_2">
      <g>
       <use xlink:href="#m643491e97b" x="317.732401" y="640.8" style="stroke: #000000; stroke-width: 0.8"/>
      </g>
     </g>
     <g id="text_2">
      <!-- 9 -->
      <g transform="translate(314.551151 655.398438)scale(0.1 -0.1)">
       <defs>
        <path id="DejaVuSans-39" d="M 703 97 
L 703 672 
Q 941 559 1184 500 
Q 1428 441 1663 441 
Q 2288 441 2617 861 
Q 2947 1281 2994 2138 
Q 2813 1869 2534 1725 
Q 2256 1581 1919 1581 
Q 1219 1581 811 2004 
Q 403 2428 403 3163 
Q 403 3881 828 4315 
Q 1253 4750 1959 4750 
Q 2769 4750 3195 4129 
Q 3622 3509 3622 2328 
Q 3622 1225 3098 567 
Q 2575 -91 1691 -91 
Q 1453 -91 1209 -44 
Q 966 3 703 97 
z
M 1959 2075 
Q 2384 2075 2632 2365 
Q 2881 2656 2881 3163 
Q 2881 3666 2632 3958 
Q 2384 4250 1959 4250 
Q 1534 4250 1286 3958 
Q 1038 3666 1038 3163 
Q 1038 2656 1286 2365 
Q 1534 2075 1959 2075 
z
" transform="scale(0.015625)"/>
       </defs>
       <use xlink:href="#DejaVuSans-39"/>
      </g>
     </g>
    </g>
    <g id="xtick_3">
     <g id="line2d_3">
      <g>
       <use xlink:href="#m643491e97b" x="409.878134" y="640.8" style="stroke: #000000; stroke-width: 0.8"/>
      </g>
     </g>
     <g id="text_3">
      <!-- 10 -->
      <g transform="translate(403.515634 655.398438)scale(0.1 -0.1)">
       <defs>
        <path id="DejaVuSans-31" d="M 794 531 
L 1825 531 
L 1825 4091 
L 703 3866 
L 703 4441 
L 1819 4666 
L 2450 4666 
L 2450 531 
L 3481 531 
L 3481 0 
L 794 0 
L 794 531 
z
" transform="scale(0.015625)"/>
        <path id="DejaVuSans-30" d="M 2034 4250 
Q 1547 4250 1301 3770 
Q 1056 3291 1056 2328 
Q 1056 1369 1301 889 
Q 1547 409 2034 409 
Q 2525 409 2770 889 
Q 3016 1369 3016 2328 
Q 3016 3291 2770 3770 
Q 2525 4250 2034 4250 
z
M 2034 4750 
Q 2819 4750 3233 4129 
Q 3647 3509 3647 2328 
Q 3647 1150 3233 529 
Q 2819 -91 2034 -91 
Q 1250 -91 836 529 
Q 422 1150 422 2328 
Q 422 3509 836 4129 
Q 1250 4750 2034 4750 
z
" transform="scale(0.015625)"/>
       </defs>
       <use xlink:href="#DejaVuSans-31"/>
       <use xlink:href="#DejaVuSans-30" x="63.623047"/>
      </g>
     </g>
    </g>
    <g id="xtick_4">
     <g id="line2d_4">
      <g>
       <use xlink:href="#m643491e97b" x="502.023866" y="640.8" style="stroke: #000000; stroke-width: 0.8"/>
      </g>
     </g>
     <g id="text_4">
      <!-- 11 -->
      <g transform="translate(495.661366 655.398438)scale(0.1 -0.1)">
       <use xlink:href="#DejaVuSans-31"/>
       <use xlink:href="#DejaVuSans-31" x="63.623047"/>
      </g>
     </g>
    </g>
    <g id="xtick_5">
     <g id="line2d_5">
      <g>
       <use xlink:href="#m643491e97b" x="594.169598" y="640.8" style="stroke: #000000; stroke-width: 0.8"/>
      </g>
     </g>
     <g id="text_5">
      <!-- 12 -->
      <g transform="translate(587.807098 655.398438)scale(0.1 -0.1)">
       <defs>
        <path id="DejaVuSans-32" d="M 1228 531 
L 3431 531 
L 3431 0 
L 469 0 
L 469 531 
Q 828 903 1448 1529 
Q 2069 2156 2228 2338 
Q 2531 2678 2651 2914 
Q 2772 3150 2772 3378 
Q 2772 3750 2511 3984 
Q 2250 4219 1831 4219 
Q 1534 4219 1204 4116 
Q 875 4013 500 3803 
L 500 4441 
Q 881 4594 1212 4672 
Q 1544 4750 1819 4750 
Q 2544 4750 2975 4387 
Q 3406 4025 3406 3419 
Q 3406 3131 3298 2873 
Q 3191 2616 2906 2266 
Q 2828 2175 2409 1742 
Q 1991 1309 1228 531 
z
" transform="scale(0.015625)"/>
       </defs>
       <use xlink:href="#DejaVuSans-31"/>
       <use xlink:href="#DejaVuSans-32" x="63.623047"/>
      </g>
     </g>
    </g>
    <g id="xtick_6">
     <g id="line2d_6">
      <g>
       <use xlink:href="#m643491e97b" x="686.31533" y="640.8" style="stroke: #000000; stroke-width: 0.8"/>
      </g>
     </g>
     <g id="text_6">
      <!-- 13 -->
      <g transform="translate(679.95283 655.398438)scale(0.1 -0.1)">
       <defs>
        <path id="DejaVuSans-33" d="M 2597 2516 
Q 3050 2419 3304 2112 
Q 3559 1806 3559 1356 
Q 3559 666 3084 287 
Q 2609 -91 1734 -91 
Q 1441 -91 1130 -33 
Q 819 25 488 141 
L 488 750 
Q 750 597 1062 519 
Q 1375 441 1716 441 
Q 2309 441 2620 675 
Q 2931 909 2931 1356 
Q 2931 1769 2642 2001 
Q 2353 2234 1838 2234 
L 1294 2234 
L 1294 2753 
L 1863 2753 
Q 2328 2753 2575 2939 
Q 2822 3125 2822 3475 
Q 2822 3834 2567 4026 
Q 2313 4219 1838 4219 
Q 1578 4219 1281 4162 
Q 984 4106 628 3988 
L 628 4550 
Q 988 4650 1302 4700 
Q 1616 4750 1894 4750 
Q 2613 4750 3031 4423 
Q 3450 4097 3450 3541 
Q 3450 3153 3228 2886 
Q 3006 2619 2597 2516 
z
" transform="scale(0.015625)"/>
       </defs>
       <use xlink:href="#DejaVuSans-31"/>
       <use xlink:href="#DejaVuSans-33" x="63.623047"/>
      </g>
     </g>
    </g>
    <g id="xtick_7">
     <g id="line2d_7">
      <g>
       <use xlink:href="#m643491e97b" x="778.461063" y="640.8" style="stroke: #000000; stroke-width: 0.8"/>
      </g>
     </g>
     <g id="text_7">
      <!-- 14 -->
      <g transform="translate(772.098563 655.398438)scale(0.1 -0.1)">
       <defs>
        <path id="DejaVuSans-34" d="M 2419 4116 
L 825 1625 
L 2419 1625 
L 2419 4116 
z
M 2253 4666 
L 3047 4666 
L 3047 1625 
L 3713 1625 
L 3713 1100 
L 3047 1100 
L 3047 0 
L 2419 0 
L 2419 1100 
L 313 1100 
L 313 1709 
L 2253 4666 
z
" transform="scale(0.015625)"/>
       </defs>
       <use xlink:href="#DejaVuSans-31"/>
       <use xlink:href="#DejaVuSans-34" x="63.623047"/>
      </g>
     </g>
    </g>
    <g id="xtick_8">
     <g id="line2d_8">
      <g>
       <use xlink:href="#m643491e97b" x="870.606795" y="640.8" style="stroke: #000000; stroke-width: 0.8"/>
      </g>
     </g>
     <g id="text_8">
      <!-- 15 -->
      <g transform="translate(864.244295 655.398438)scale(0.1 -0.1)">
       <defs>
        <path id="DejaVuSans-35" d="M 691 4666 
L 3169 4666 
L 3169 4134 
L 1269 4134 
L 1269 2991 
Q 1406 3038 1543 3061 
Q 1681 3084 1819 3084 
Q 2600 3084 3056 2656 
Q 3513 2228 3513 1497 
Q 3513 744 3044 326 
Q 2575 -91 1722 -91 
Q 1428 -91 1123 -41 
Q 819 9 494 109 
L 494 744 
Q 775 591 1075 516 
Q 1375 441 1709 441 
Q 2250 441 2565 725 
Q 2881 1009 2881 1497 
Q 2881 1984 2565 2268 
Q 2250 2553 1709 2553 
Q 1456 2553 1204 2497 
Q 953 2441 691 2322 
L 691 4666 
z
" transform="scale(0.015625)"/>
       </defs>
       <use xlink:href="#DejaVuSans-31"/>
       <use xlink:href="#DejaVuSans-35" x="63.623047"/>
      </g>
     </g>
    </g>
    <g id="xtick_9">
     <g id="line2d_9">
      <g>
       <use xlink:href="#m643491e97b" x="962.752527" y="640.8" style="stroke: #000000; stroke-width: 0.8"/>
      </g>
     </g>
     <g id="text_9">
      <!-- 16 -->
      <g transform="translate(956.390027 655.398438)scale(0.1 -0.1)">
       <defs>
        <path id="DejaVuSans-36" d="M 2113 2584 
Q 1688 2584 1439 2293 
Q 1191 2003 1191 1497 
Q 1191 994 1439 701 
Q 1688 409 2113 409 
Q 2538 409 2786 701 
Q 3034 994 3034 1497 
Q 3034 2003 2786 2293 
Q 2538 2584 2113 2584 
z
M 3366 4563 
L 3366 3988 
Q 3128 4100 2886 4159 
Q 2644 4219 2406 4219 
Q 1781 4219 1451 3797 
Q 1122 3375 1075 2522 
Q 1259 2794 1537 2939 
Q 1816 3084 2150 3084 
Q 2853 3084 3261 2657 
Q 3669 2231 3669 1497 
Q 3669 778 3244 343 
Q 2819 -91 2113 -91 
Q 1303 -91 875 529 
Q 447 1150 447 2328 
Q 447 3434 972 4092 
Q 1497 4750 2381 4750 
Q 2619 4750 2861 4703 
Q 3103 4656 3366 4563 
z
" transform="scale(0.015625)"/>
       </defs>
       <use xlink:href="#DejaVuSans-31"/>
       <use xlink:href="#DejaVuSans-36" x="63.623047"/>
      </g>
     </g>
    </g>
    <g id="text_10">
     <!-- code length [bits] -->
     <g transform="translate(546.195312 669.076563)scale(0.1 -0.1)">
      <defs>
       <path id="DejaVuSans-63" d="M 3122 3366 
L 3122 2828 
Q 2878 2963 2633 3030 
Q 2388 3097 2138 3097 
Q 1578 3097 1268 2742 
Q 959 2388 959 1747 
Q 959 1106 1268 751 
Q 1578 397 2138 397 
Q 2388 397 2633 464 
Q 2878 531 3122 666 
L 3122 134 
Q 2881 22 2623 -34 
Q 2366 -91 2075 -91 
Q 1284 -91 818 406 
Q 353 903 353 1747 
Q 353 2603 823 3093 
Q 1294 3584 2113 3584 
Q 2378 3584 2631 3529 
Q 2884 3475 3122 3366 
z
" transform="scale(0.015625)"/>
       <path id="DejaVuSans-6f" d="M 1959 3097 
Q 1497 3097 1228 2736 
Q 959 2375 959 1747 
Q 959 1119 1226 758 
Q 1494 397 1959 397 
Q 2419 397 2687 759 
Q 2956 1122 2956 1747 
Q 2956 2369 2687 2733 
Q 2419 3097 1959 3097 
z
M 1959 3584 
Q 2709 3584 3137 3096 
Q 3566 2609 3566 1747 
Q 3566 888 3137 398 
Q 2709 -91 1959 -91 
Q 1206 -91 779 398 
Q 353 888 353 1747 
Q 353 2609 779 3096 
Q 1206 3584 1959 3584 
z
" transform="scale(0.015625)"/>
       <path id="DejaVuSans-64" d="M 2906 2969 
L 2906 4863 
L 3481 4863 
L 3481 0 
L 2906 0 
L 2906 525 
Q 2725 213 2448 61 
Q 2172 -91 1784 -91 
Q 1150 -91 751 415 
Q 353 922 353 1747 
Q 353 2572 751 3078 
Q 1150 3584 1784 3584 
Q 2172 3584 2448 3432 
Q 2725 3281 2906 2969 
z
M 947 1747 
Q 947 1113 1208 752 
Q 1469 391 1925 391 
Q 2381 391 2643 752 
Q 2906 1113 2906 1747 
Q 2906 2381 2643 2742 
Q 2381 3103 1925 3103 
Q 1469 3103 1208 2742 
Q 947 2381 947 1747 
z
" transform="scale(0.015625)"/>
       <path id="DejaVuSans-65" d="M 3597 1894 
L 3597 1613 
L 953 1613 
Q 991 1019 1311 708 
Q 1631 397 2203 397 
Q 2534 397 2845 478 
Q 3156 559 3463 722 
L 3463 178 
Q 3153 47 2828 -22 
Q 2503 -91 2169 -91 
Q 1331 -91 842 396 
Q 353 884 353 1716 
Q 353 2575 817 3079 
Q 1281 3584 2069 3584 
Q 2775 3584 3186 3129 
Q 3597 2675 3597 1894 
z
M 3022 2063 
Q 3016 2534 2758 2815 
Q 2500 3097 2075 3097 
Q 1594 3097 1305 2825 
Q 1016 2553 972 2059 
L 3022 2063 
z
" transform="scale(0.015625)"/>
       <path id="DejaVuSans-20" transform="scale(0.015625)"/>
       <path id="DejaVuSans-6c" d="M 603 4863 
L 1178 4863 
L 1178 0 
L 603 0 
L 603 4863 
z
" transform="scale(0.015625)"/>
       <path id="DejaVuSans-6e" d="M 3513 2113 
L 3513 0 
L 2938 0 
L 2938 2094 
Q 2938 2591 2744 2837 
Q 2550 3084 2163 3084 
Q 1697 3084 1428 2787 
Q 1159 2491 1159 1978 
L 1159 0 
L 581 0 
L 581 3500 
L 1159 3500 
L 1159 2956 
Q 1366 3272 1645 3428 
Q 1925 3584 2291 3584 
Q 2894 3584 3203 3211 
Q 3513 2838 3513 2113 
z
" transform="scale(0.015625)"/>
       <path id="DejaVuSans-67" d="M 2906 1791 
Q 2906 2416 2648 2759 
Q 2391 3103 1925 3103 
Q 1463 3103 1205 2759 
Q 947 2416 947 1791 
Q 947 1169 1205 825 
Q 1463 481 1925 481 
Q 2391 481 2648 825 
Q 2906 1169 2906 1791 
z
M 3481 434 
Q 3481 -459 3084 -895 
Q 2688 -1331 1869 -1331 
Q 1566 -1331 1297 -1286 
Q 1028 -1241 775 -1147 
L 775 -588 
Q 1028 -725 1275 -790 
Q 1522 -856 1778 -856 
Q 2344 -856 2625 -561 
Q 2906 -266 2906 331 
L 2906 616 
Q 2728 306 2450 153 
Q 2172 0 1784 0 
Q 1141 0 747 490 
Q 353 981 353 1791 
Q 353 2603 747 3093 
Q 1141 3584 1784 3584 
Q 2172 3584 2450 3431 
Q 2728 3278 2906 2969 
L 2906 3500 
L 3481 3500 
L 3481 434 
z
" transform="scale(0.015625)"/>
       <path id="DejaVuSans-74" d="M 1172 4494 
L 1172 3500 
L 2356 3500 
L 2356 3053 
L 1172 3053 
L 1172 1153 
Q 1172 725 1289 603 
Q 1406 481 1766 481 
L 2356 481 
L 2356 0 
L 1766 0 
Q 1100 0 847 248 
Q 594 497 594 1153 
L 594 3053 
L 172 3053 
L 172 3500 
L 594 3500 
L 594 4494 
L 1172 4494 
z
" transform="scale(0.015625)"/>
       <path id="DejaVuSans-68" d="M 3513 2113 
L 3513 0 
L 2938 0 
L 2938 2094 
Q 2938 2591 2744 2837 
Q 2550 3084 2163 3084 
Q 1697 3084 1428 2787 
Q 1159 2491 1159 1978 
L 1159 0 
L 581 0 
L 581 4863 
L 1159 4863 
L 1159 2956 
Q 1366 3272 1645 3428 
Q 1925 3584 2291 3584 
Q 2894 3584 3203 3211 
Q 3513 2838 3513 2113 
z
" transform="scale(0.015625)"/>
       <path id="DejaVuSans-5b" d="M 550 4863 
L 1875 4863 
L 1875 4416 
L 1125 4416 
L 1125 -397 
L 1875 -397 
L 1875 -844 
L 550 -844 
L 550 4863 
z
" transform="scale(0.015625)"/>
       <path id="DejaVuSans-62" d="M 3116 1747 
Q 3116 2381 2855 2742 
Q 2594 3103 2138 3103 
Q 1681 3103 1420 2742 
Q 1159 2381 1159 1747 
Q 1159 1113 1420 752 
Q 1681 391 2138 391 
Q 2594 391 2855 752 
Q 3116 1113 3116 1747 
z
M 1159 2969 
Q 1341 3281 1617 3432 
Q 1894 3584 2278 3584 
Q 2916 3584 3314 3078 
Q 3713 2572 3713 1747 
Q 3713 922 3314 415 
Q 2916 -91 2278 -91 
Q 1894 -91 1617 61 
Q 1341 213 1159 525 
L 1159 0 
L 581 0 
L 581 4863 
L 1159 4863 
L 1159 2969 
z
" transform="scale(0.015625)"/>
       <path id="DejaVuSans-69" d="M 603 3500 
L 1178 3500 
L 1178 0 
L 603 0 
L 603 3500 
z
M 603 4863 
L 1178 4863 
L 1178 4134 
L 603 4134 
L 603 4863 
z
" transform="scale(0.015625)"/>
       <path id="DejaVuSans-73" d="M 2834 3397 
L 2834 2853 
Q 2591 2978 2328 3040 
Q 2066 3103 1784 3103 
Q 1356 3103 1142 2972 
Q 928 2841 928 2578 
Q 928 2378 1081 2264 
Q 1234 2150 1697 2047 
L 1894 2003 
Q 2506 1872 2764 1633 
Q 3022 1394 3022 966 
Q 3022 478 2636 193 
Q 2250 -91 1575 -91 
Q 1294 -91 989 -36 
Q 684 19 347 128 
L 347 722 
Q 666 556 975 473 
Q 1284 391 1588 391 
Q 1994 391 2212 530 
Q 2431 669 2431 922 
Q 2431 1156 2273 1281 
Q 2116 1406 1581 1522 
L 1381 1569 
Q 847 1681 609 1914 
Q 372 2147 372 2553 
Q 372 3047 722 3315 
Q 1072 3584 1716 3584 
Q 2034 3584 2315 3537 
Q 2597 3491 2834 3397 
z
" transform="scale(0.015625)"/>
       <path id="DejaVuSans-5d" d="M 1947 4863 
L 1947 -844 
L 622 -844 
L 622 -397 
L 1369 -397 
L 1369 4416 
L 622 4416 
L 622 4863 
L 1947 4863 
z
" transform="scale(0.015625)"/>
      </defs>
      <use xlink:href="#DejaVuSans-63"/>
      <use xlink:href="#DejaVuSans-6f" x="54.980469"/>
      <use xlink:href="#DejaVuSans-64" x="116.162109"/>
      <use xlink:href="#DejaVuSans-65" x="179.638672"/>
      <use xlink:href="#DejaVuSans-20" x="241.162109"/>
      <use xlink:href="#DejaVuSans-6c" x="272.949219"/>
      <use xlink:href="#DejaVuSans-65" x="300.732422"/>
      <use xlink:href="#DejaVuSans-6e" x="362.255859"/>
      <use xlink:href="#DejaVuSans-67" x="425.634766"/>
      <use xlink:href="#DejaVuSans-74" x="489.111328"/>
      <use xlink:href="#DejaVuSans-68" x="528.320312"/>
      <use xlink:href="#DejaVuSans-20" x="591.699219"/>
      <use xlink:href="#DejaVuSans-5b" x="623.486328"/>
      <use xlink:href="#DejaVuSans-62" x="662.5"/>
      <use xlink:href="#DejaVuSans-69" x="725.976562"/>
      <use xlink:href="#DejaVuSans-74" x="753.759766"/>
      <use xlink:href="#DejaVuSans-73" x="792.96875"/>
      <use xlink:href="#DejaVuSans-5d" x="845.068359"/>
     </g>
    </g>
   </g>
   <g id="matplotlib.axis_2">
    <g id="ytick_1">
     <g id="line2d_10">
      <defs>
       <path id="mbf518ae430" d="M 0 0 
L -3.5 0 
" style="stroke: #000000; stroke-width: 0.8"/>
      </defs>
      <g>
       <use xlink:href="#mbf518ae430" x="144" y="640.8" style="stroke: #000000; stroke-width: 0.8"/>
      </g>
     </g>
     <g id="text_11">
      <!-- 0 -->
      <g transform="translate(130.6375 644.599219)scale(0.1 -0.1)">
       <use xlink:href="#DejaVuSans-30"/>
      </g>
     </g>
    </g>
    <g id="ytick_2">
     <g id="line2d_11">
      <g>
       <use xlink:href="#mbf518ae430" x="144" y="574.794385" style="stroke: #000000; stroke-width: 0.8"/>
      </g>
     </g>
     <g id="text_12">
      <!-- 1 -->
      <g transform="translate(130.6375 578.593604)scale(0.1 -0.1)">
       <use xlink:href="#DejaVuSans-31"/>
      </g>
     </g>
    </g>
    <g id="ytick_3">
     <g id="line2d_12">
      <g>
       <use xlink:href="#mbf518ae430" x="144" y="508.78877" style="stroke: #000000; stroke-width: 0.8"/>
      </g>
     </g>
     <g id="text_13">
      <!-- 2 -->
      <g transform="translate(130.6375 512.587989)scale(0.1 -0.1)">
       <use xlink:href="#DejaVuSans-32"/>
      </g>
     </g>
    </g>
    <g id="ytick_4">
     <g id="line2d_13">
      <g>
       <use xlink:href="#mbf518ae430" x="144" y="442.783155" style="stroke: #000000; stroke-width: 0.8"/>
      </g>
     </g>
     <g id="text_14">
      <!-- 3 -->
      <g transform="translate(130.6375 446.582373)scale(0.1 -0.1)">
       <use xlink:href="#DejaVuSans-33"/>
      </g>
     </g>
    </g>
    <g id="ytick_5">
     <g id="line2d_14">
      <g>
       <use xlink:href="#mbf518ae430" x="144" y="376.77754" style="stroke: #000000; stroke-width: 0.8"/>
      </g>
     </g>
     <g id="text_15">
      <!-- 4 -->
      <g transform="translate(130.6375 380.576758)scale(0.1 -0.1)">
       <use xlink:href="#DejaVuSans-34"/>
      </g>
     </g>
    </g>
    <g id="ytick_6">
     <g id="line2d_15">
      <g>
       <use xlink:href="#mbf518ae430" x="144" y="310.771924" style="stroke: #000000; stroke-width: 0.8"/>
      </g>
     </g>
     <g id="text_16">
      <!-- 5 -->
      <g transform="translate(130.6375 314.571143)scale(0.1 -0.1)">
       <use xlink:href="#DejaVuSans-35"/>
      </g>
     </g>
    </g>
    <g id="ytick_7">
     <g id="line2d_16">
      <g>
       <use xlink:href="#mbf518ae430" x="144" y="244.766309" style="stroke: #000000; stroke-width: 0.8"/>
      </g>
     </g>
     <g id="text_17">
      <!-- 6 -->
      <g transform="translate(130.6375 248.565528)scale(0.1 -0.1)">
       <use xlink:href="#DejaVuSans-36"/>
      </g>
     </g>
    </g>
    <g id="ytick_8">
     <g id="line2d_17">
      <g>
       <use xlink:href="#mbf518ae430" x="144" y="178.760694" style="stroke: #000000; stroke-width: 0.8"/>
      </g>
     </g>
     <g id="text_18">
      <!-- 7 -->
      <g transform="translate(130.6375 182.559913)scale(0.1 -0.1)">
       <defs>
        <path id="DejaVuSans-37" d="M 525 4666 
L 3525 4666 
L 3525 4397 
L 1831 0 
L 1172 0 
L 2766 4134 
L 525 4134 
L 525 4666 
z
" transform="scale(0.015625)"/>
       </defs>
       <use xlink:href="#DejaVuSans-37"/>
      </g>
     </g>
    </g>
    <g id="ytick_9">
     <g id="line2d_18">
      <g>
       <use xlink:href="#mbf518ae430" x="144" y="112.755079" style="stroke: #000000; stroke-width: 0.8"/>
      </g>
     </g>
     <g id="text_19">
      <!-- 8 -->
      <g transform="translate(130.6375 116.554298)scale(0.1 -0.1)">
       <use xlink:href="#DejaVuSans-38"/>
      </g>
     </g>
    </g>
   </g>
   <g id="patch_183">
    <path d="M 144 640.8 
L 144 86.4 
" style="fill: none; stroke: #000000; stroke-width: 0.8; stroke-linejoin: miter; stroke-linecap: square"/>
   </g>
   <g id="patch_184">
    <path d="M 1036.8 640.8 
L 1036.8 86.4 
" style="fill: none; stroke: #000000; stroke-width: 0.8; stroke-linejoin: miter; stroke-linecap: square"/>
   </g>
   <g id="patch_185">
    <path d="M 144 640.8 
L 1036.8 640.8 
" style="fill: none; stroke: #000000; stroke-width: 0.8; stroke-linejoin: miter; stroke-linecap: square"/>
   </g>
   <g id="patch_186">
    <path d="M 144 86.4 
L 1036.8 86.4 
" style="fill: none; stroke: #000000; stroke-width: 0.8; stroke-linejoin: miter; stroke-linecap: square"/>
   </g>
   <g id="text_20">
    <!-- Entropy vs Bitrate -->
    <g transform="translate(536.277187 80.4)scale(0.12 -0.12)">
     <defs>
      <path id="DejaVuSans-45" d="M 628 4666 
L 3578 4666 
L 3578 4134 
L 1259 4134 
L 1259 2753 
L 3481 2753 
L 3481 2222 
L 1259 2222 
L 1259 531 
L 3634 531 
L 3634 0 
L 628 0 
L 628 4666 
z
" transform="scale(0.015625)"/>
      <path id="DejaVuSans-72" d="M 2631 2963 
Q 2534 3019 2420 3045 
Q 2306 3072 2169 3072 
Q 1681 3072 1420 2755 
Q 1159 2438 1159 1844 
L 1159 0 
L 581 0 
L 581 3500 
L 1159 3500 
L 1159 2956 
Q 1341 3275 1631 3429 
Q 1922 3584 2338 3584 
Q 2397 3584 2469 3576 
Q 2541 3569 2628 3553 
L 2631 2963 
z
" transform="scale(0.015625)"/>
      <path id="DejaVuSans-70" d="M 1159 525 
L 1159 -1331 
L 581 -1331 
L 581 3500 
L 1159 3500 
L 1159 2969 
Q 1341 3281 1617 3432 
Q 1894 3584 2278 3584 
Q 2916 3584 3314 3078 
Q 3713 2572 3713 1747 
Q 3713 922 3314 415 
Q 2916 -91 2278 -91 
Q 1894 -91 1617 61 
Q 1341 213 1159 525 
z
M 3116 1747 
Q 3116 2381 2855 2742 
Q 2594 3103 2138 3103 
Q 1681 3103 1420 2742 
Q 1159 2381 1159 1747 
Q 1159 1113 1420 752 
Q 1681 391 2138 391 
Q 2594 391 2855 752 
Q 3116 1113 3116 1747 
z
" transform="scale(0.015625)"/>
      <path id="DejaVuSans-79" d="M 2059 -325 
Q 1816 -950 1584 -1140 
Q 1353 -1331 966 -1331 
L 506 -1331 
L 506 -850 
L 844 -850 
Q 1081 -850 1212 -737 
Q 1344 -625 1503 -206 
L 1606 56 
L 191 3500 
L 800 3500 
L 1894 763 
L 2988 3500 
L 3597 3500 
L 2059 -325 
z
" transform="scale(0.015625)"/>
      <path id="DejaVuSans-76" d="M 191 3500 
L 800 3500 
L 1894 563 
L 2988 3500 
L 3597 3500 
L 2284 0 
L 1503 0 
L 191 3500 
z
" transform="scale(0.015625)"/>
      <path id="DejaVuSans-42" d="M 1259 2228 
L 1259 519 
L 2272 519 
Q 2781 519 3026 730 
Q 3272 941 3272 1375 
Q 3272 1813 3026 2020 
Q 2781 2228 2272 2228 
L 1259 2228 
z
M 1259 4147 
L 1259 2741 
L 2194 2741 
Q 2656 2741 2882 2914 
Q 3109 3088 3109 3444 
Q 3109 3797 2882 3972 
Q 2656 4147 2194 4147 
L 1259 4147 
z
M 628 4666 
L 2241 4666 
Q 2963 4666 3353 4366 
Q 3744 4066 3744 3513 
Q 3744 3084 3544 2831 
Q 3344 2578 2956 2516 
Q 3422 2416 3680 2098 
Q 3938 1781 3938 1306 
Q 3938 681 3513 340 
Q 3088 0 2303 0 
L 628 0 
L 628 4666 
z
" transform="scale(0.015625)"/>
      <path id="DejaVuSans-61" d="M 2194 1759 
Q 1497 1759 1228 1600 
Q 959 1441 959 1056 
Q 959 750 1161 570 
Q 1363 391 1709 391 
Q 2188 391 2477 730 
Q 2766 1069 2766 1631 
L 2766 1759 
L 2194 1759 
z
M 3341 1997 
L 3341 0 
L 2766 0 
L 2766 531 
Q 2569 213 2275 61 
Q 1981 -91 1556 -91 
Q 1019 -91 701 211 
Q 384 513 384 1019 
Q 384 1609 779 1909 
Q 1175 2209 1959 2209 
L 2766 2209 
L 2766 2266 
Q 2766 2663 2505 2880 
Q 2244 3097 1772 3097 
Q 1472 3097 1187 3025 
Q 903 2953 641 2809 
L 641 3341 
Q 956 3463 1253 3523 
Q 1550 3584 1831 3584 
Q 2591 3584 2966 3190 
Q 3341 2797 3341 1997 
z
" transform="scale(0.015625)"/>
     </defs>
     <use xlink:href="#DejaVuSans-45"/>
     <use xlink:href="#DejaVuSans-6e" x="63.183594"/>
     <use xlink:href="#DejaVuSans-74" x="126.5625"/>
     <use xlink:href="#DejaVuSans-72" x="165.771484"/>
     <use xlink:href="#DejaVuSans-6f" x="204.634766"/>
     <use xlink:href="#DejaVuSans-70" x="265.816406"/>
     <use xlink:href="#DejaVuSans-79" x="329.292969"/>
     <use xlink:href="#DejaVuSans-20" x="388.472656"/>
     <use xlink:href="#DejaVuSans-76" x="420.259766"/>
     <use xlink:href="#DejaVuSans-73" x="479.439453"/>
     <use xlink:href="#DejaVuSans-20" x="531.539062"/>
     <use xlink:href="#DejaVuSans-42" x="563.326172"/>
     <use xlink:href="#DejaVuSans-69" x="631.929688"/>
     <use xlink:href="#DejaVuSans-74" x="659.712891"/>
     <use xlink:href="#DejaVuSans-72" x="698.921875"/>
     <use xlink:href="#DejaVuSans-61" x="740.035156"/>
     <use xlink:href="#DejaVuSans-74" x="801.314453"/>
     <use xlink:href="#DejaVuSans-65" x="840.523438"/>
    </g>
   </g>
   <g id="legend_1">
    <g id="patch_187">
     <path d="M 151 123.75625 
L 221.848437 123.75625 
Q 223.848437 123.75625 223.848437 121.75625 
L 223.848437 93.4 
Q 223.848437 91.4 221.848437 91.4 
L 151 91.4 
Q 149 91.4 149 93.4 
L 149 121.75625 
Q 149 123.75625 151 123.75625 
z
" style="fill: #ffffff; opacity: 0.8; stroke: #cccccc; stroke-linejoin: miter"/>
    </g>
    <g id="patch_188">
     <path d="M 153 102.998437 
L 173 102.998437 
L 173 95.998437 
L 153 95.998437 
z
" style="fill: #bfbf00"/>
    </g>
    <g id="text_21">
     <!-- Entropy -->
     <g transform="translate(181 102.998437)scale(0.1 -0.1)">
      <use xlink:href="#DejaVuSans-45"/>
      <use xlink:href="#DejaVuSans-6e" x="63.183594"/>
      <use xlink:href="#DejaVuSans-74" x="126.5625"/>
      <use xlink:href="#DejaVuSans-72" x="165.771484"/>
      <use xlink:href="#DejaVuSans-6f" x="204.634766"/>
      <use xlink:href="#DejaVuSans-70" x="265.816406"/>
      <use xlink:href="#DejaVuSans-79" x="329.292969"/>
     </g>
    </g>
    <g id="patch_189">
     <path d="M 153 117.676562 
L 173 117.676562 
L 173 110.676562 
L 153 110.676562 
z
" style="fill: #008000"/>
    </g>
    <g id="text_22">
     <!-- Bitrate -->
     <g transform="translate(181 117.676562)scale(0.1 -0.1)">
      <use xlink:href="#DejaVuSans-42"/>
      <use xlink:href="#DejaVuSans-69" x="68.603516"/>
      <use xlink:href="#DejaVuSans-74" x="96.386719"/>
      <use xlink:href="#DejaVuSans-72" x="135.595703"/>
      <use xlink:href="#DejaVuSans-61" x="176.708984"/>
      <use xlink:href="#DejaVuSans-74" x="237.988281"/>
      <use xlink:href="#DejaVuSans-65" x="277.197266"/>
     </g>
    </g>
   </g>
  </g>
  <g id="text_23">
   <!-- Each bar represents different image in order: -->
   <g transform="translate(57.6 674.672222)scale(0.0833 -0.0833)">
    <defs>
     <path id="DejaVuSans-66" d="M 2375 4863 
L 2375 4384 
L 1825 4384 
Q 1516 4384 1395 4259 
Q 1275 4134 1275 3809 
L 1275 3500 
L 2222 3500 
L 2222 3053 
L 1275 3053 
L 1275 0 
L 697 0 
L 697 3053 
L 147 3053 
L 147 3500 
L 697 3500 
L 697 3744 
Q 697 4328 969 4595 
Q 1241 4863 1831 4863 
L 2375 4863 
z
" transform="scale(0.015625)"/>
     <path id="DejaVuSans-6d" d="M 3328 2828 
Q 3544 3216 3844 3400 
Q 4144 3584 4550 3584 
Q 5097 3584 5394 3201 
Q 5691 2819 5691 2113 
L 5691 0 
L 5113 0 
L 5113 2094 
Q 5113 2597 4934 2840 
Q 4756 3084 4391 3084 
Q 3944 3084 3684 2787 
Q 3425 2491 3425 1978 
L 3425 0 
L 2847 0 
L 2847 2094 
Q 2847 2600 2669 2842 
Q 2491 3084 2119 3084 
Q 1678 3084 1418 2786 
Q 1159 2488 1159 1978 
L 1159 0 
L 581 0 
L 581 3500 
L 1159 3500 
L 1159 2956 
Q 1356 3278 1631 3431 
Q 1906 3584 2284 3584 
Q 2666 3584 2933 3390 
Q 3200 3197 3328 2828 
z
" transform="scale(0.015625)"/>
     <path id="DejaVuSans-3a" d="M 750 794 
L 1409 794 
L 1409 0 
L 750 0 
L 750 794 
z
M 750 3309 
L 1409 3309 
L 1409 2516 
L 750 2516 
L 750 3309 
z
" transform="scale(0.015625)"/>
    </defs>
    <use xlink:href="#DejaVuSans-45"/>
    <use xlink:href="#DejaVuSans-61" x="63.183594"/>
    <use xlink:href="#DejaVuSans-63" x="124.462891"/>
    <use xlink:href="#DejaVuSans-68" x="179.443359"/>
    <use xlink:href="#DejaVuSans-20" x="242.822266"/>
    <use xlink:href="#DejaVuSans-62" x="274.609375"/>
    <use xlink:href="#DejaVuSans-61" x="338.085938"/>
    <use xlink:href="#DejaVuSans-72" x="399.365234"/>
    <use xlink:href="#DejaVuSans-20" x="440.478516"/>
    <use xlink:href="#DejaVuSans-72" x="472.265625"/>
    <use xlink:href="#DejaVuSans-65" x="511.128906"/>
    <use xlink:href="#DejaVuSans-70" x="572.652344"/>
    <use xlink:href="#DejaVuSans-72" x="636.128906"/>
    <use xlink:href="#DejaVuSans-65" x="674.992188"/>
    <use xlink:href="#DejaVuSans-73" x="736.515625"/>
    <use xlink:href="#DejaVuSans-65" x="788.615234"/>
    <use xlink:href="#DejaVuSans-6e" x="850.138672"/>
    <use xlink:href="#DejaVuSans-74" x="913.517578"/>
    <use xlink:href="#DejaVuSans-73" x="952.726562"/>
    <use xlink:href="#DejaVuSans-20" x="1004.826172"/>
    <use xlink:href="#DejaVuSans-64" x="1036.613281"/>
    <use xlink:href="#DejaVuSans-69" x="1100.089844"/>
    <use xlink:href="#DejaVuSans-66" x="1127.873047"/>
    <use xlink:href="#DejaVuSans-66" x="1163.078125"/>
    <use xlink:href="#DejaVuSans-65" x="1198.283203"/>
    <use xlink:href="#DejaVuSans-72" x="1259.806641"/>
    <use xlink:href="#DejaVuSans-65" x="1298.669922"/>
    <use xlink:href="#DejaVuSans-6e" x="1360.193359"/>
    <use xlink:href="#DejaVuSans-74" x="1423.572266"/>
    <use xlink:href="#DejaVuSans-20" x="1462.78125"/>
    <use xlink:href="#DejaVuSans-69" x="1494.568359"/>
    <use xlink:href="#DejaVuSans-6d" x="1522.351562"/>
    <use xlink:href="#DejaVuSans-61" x="1619.763672"/>
    <use xlink:href="#DejaVuSans-67" x="1681.042969"/>
    <use xlink:href="#DejaVuSans-65" x="1744.519531"/>
    <use xlink:href="#DejaVuSans-20" x="1806.042969"/>
    <use xlink:href="#DejaVuSans-69" x="1837.830078"/>
    <use xlink:href="#DejaVuSans-6e" x="1865.613281"/>
    <use xlink:href="#DejaVuSans-20" x="1928.992188"/>
    <use xlink:href="#DejaVuSans-6f" x="1960.779297"/>
    <use xlink:href="#DejaVuSans-72" x="2021.960938"/>
    <use xlink:href="#DejaVuSans-64" x="2061.324219"/>
    <use xlink:href="#DejaVuSans-65" x="2124.800781"/>
    <use xlink:href="#DejaVuSans-72" x="2186.324219"/>
    <use xlink:href="#DejaVuSans-3a" x="2225.6875"/>
   </g>
   <!--   geometr_09.pgm, laplace_10.pgm, geometr_099.pgm, geometr_05.pgm, normal_50.pgm, normal_30.pgm, uniform.pgm, normal_10.pgm, laplace_30.pgm, laplace_20.pgm -->
   <g transform="translate(57.6 684)scale(0.0833 -0.0833)">
    <defs>
     <path id="DejaVuSans-5f" d="M 3263 -1063 
L 3263 -1509 
L -63 -1509 
L -63 -1063 
L 3263 -1063 
z
" transform="scale(0.015625)"/>
     <path id="DejaVuSans-2e" d="M 684 794 
L 1344 794 
L 1344 0 
L 684 0 
L 684 794 
z
" transform="scale(0.015625)"/>
     <path id="DejaVuSans-2c" d="M 750 794 
L 1409 794 
L 1409 256 
L 897 -744 
L 494 -744 
L 750 256 
L 750 794 
z
" transform="scale(0.015625)"/>
     <path id="DejaVuSans-75" d="M 544 1381 
L 544 3500 
L 1119 3500 
L 1119 1403 
Q 1119 906 1312 657 
Q 1506 409 1894 409 
Q 2359 409 2629 706 
Q 2900 1003 2900 1516 
L 2900 3500 
L 3475 3500 
L 3475 0 
L 2900 0 
L 2900 538 
Q 2691 219 2414 64 
Q 2138 -91 1772 -91 
Q 1169 -91 856 284 
Q 544 659 544 1381 
z
M 1991 3584 
L 1991 3584 
z
" transform="scale(0.015625)"/>
    </defs>
    <use xlink:href="#DejaVuSans-20"/>
    <use xlink:href="#DejaVuSans-20" x="31.787109"/>
    <use xlink:href="#DejaVuSans-67" x="63.574219"/>
    <use xlink:href="#DejaVuSans-65" x="127.050781"/>
    <use xlink:href="#DejaVuSans-6f" x="188.574219"/>
    <use xlink:href="#DejaVuSans-6d" x="249.755859"/>
    <use xlink:href="#DejaVuSans-65" x="347.167969"/>
    <use xlink:href="#DejaVuSans-74" x="408.691406"/>
    <use xlink:href="#DejaVuSans-72" x="447.900391"/>
    <use xlink:href="#DejaVuSans-5f" x="489.013672"/>
    <use xlink:href="#DejaVuSans-30" x="539.013672"/>
    <use xlink:href="#DejaVuSans-39" x="602.636719"/>
    <use xlink:href="#DejaVuSans-2e" x="666.259766"/>
    <use xlink:href="#DejaVuSans-70" x="698.046875"/>
    <use xlink:href="#DejaVuSans-67" x="761.523438"/>
    <use xlink:href="#DejaVuSans-6d" x="825"/>
    <use xlink:href="#DejaVuSans-2c" x="922.412109"/>
    <use xlink:href="#DejaVuSans-20" x="954.199219"/>
    <use xlink:href="#DejaVuSans-6c" x="985.986328"/>
    <use xlink:href="#DejaVuSans-61" x="1013.769531"/>
    <use xlink:href="#DejaVuSans-70" x="1075.048828"/>
    <use xlink:href="#DejaVuSans-6c" x="1138.525391"/>
    <use xlink:href="#DejaVuSans-61" x="1166.308594"/>
    <use xlink:href="#DejaVuSans-63" x="1227.587891"/>
    <use xlink:href="#DejaVuSans-65" x="1282.568359"/>
    <use xlink:href="#DejaVuSans-5f" x="1344.091797"/>
    <use xlink:href="#DejaVuSans-31" x="1394.091797"/>
    <use xlink:href="#DejaVuSans-30" x="1457.714844"/>
    <use xlink:href="#DejaVuSans-2e" x="1521.337891"/>
    <use xlink:href="#DejaVuSans-70" x="1553.125"/>
    <use xlink:href="#DejaVuSans-67" x="1616.601562"/>
    <use xlink:href="#DejaVuSans-6d" x="1680.078125"/>
    <use xlink:href="#DejaVuSans-2c" x="1777.490234"/>
    <use xlink:href="#DejaVuSans-20" x="1809.277344"/>
    <use xlink:href="#DejaVuSans-67" x="1841.064453"/>
    <use xlink:href="#DejaVuSans-65" x="1904.541016"/>
    <use xlink:href="#DejaVuSans-6f" x="1966.064453"/>
    <use xlink:href="#DejaVuSans-6d" x="2027.246094"/>
    <use xlink:href="#DejaVuSans-65" x="2124.658203"/>
    <use xlink:href="#DejaVuSans-74" x="2186.181641"/>
    <use xlink:href="#DejaVuSans-72" x="2225.390625"/>
    <use xlink:href="#DejaVuSans-5f" x="2266.503906"/>
    <use xlink:href="#DejaVuSans-30" x="2316.503906"/>
    <use xlink:href="#DejaVuSans-39" x="2380.126953"/>
    <use xlink:href="#DejaVuSans-39" x="2443.75"/>
    <use xlink:href="#DejaVuSans-2e" x="2507.373047"/>
    <use xlink:href="#DejaVuSans-70" x="2539.160156"/>
    <use xlink:href="#DejaVuSans-67" x="2602.636719"/>
    <use xlink:href="#DejaVuSans-6d" x="2666.113281"/>
    <use xlink:href="#DejaVuSans-2c" x="2763.525391"/>
    <use xlink:href="#DejaVuSans-20" x="2795.3125"/>
    <use xlink:href="#DejaVuSans-67" x="2827.099609"/>
    <use xlink:href="#DejaVuSans-65" x="2890.576172"/>
    <use xlink:href="#DejaVuSans-6f" x="2952.099609"/>
    <use xlink:href="#DejaVuSans-6d" x="3013.28125"/>
    <use xlink:href="#DejaVuSans-65" x="3110.693359"/>
    <use xlink:href="#DejaVuSans-74" x="3172.216797"/>
    <use xlink:href="#DejaVuSans-72" x="3211.425781"/>
    <use xlink:href="#DejaVuSans-5f" x="3252.539062"/>
    <use xlink:href="#DejaVuSans-30" x="3302.539062"/>
    <use xlink:href="#DejaVuSans-35" x="3366.162109"/>
    <use xlink:href="#DejaVuSans-2e" x="3429.785156"/>
    <use xlink:href="#DejaVuSans-70" x="3461.572266"/>
    <use xlink:href="#DejaVuSans-67" x="3525.048828"/>
    <use xlink:href="#DejaVuSans-6d" x="3588.525391"/>
    <use xlink:href="#DejaVuSans-2c" x="3685.9375"/>
    <use xlink:href="#DejaVuSans-20" x="3717.724609"/>
    <use xlink:href="#DejaVuSans-6e" x="3749.511719"/>
    <use xlink:href="#DejaVuSans-6f" x="3812.890625"/>
    <use xlink:href="#DejaVuSans-72" x="3874.072266"/>
    <use xlink:href="#DejaVuSans-6d" x="3913.435547"/>
    <use xlink:href="#DejaVuSans-61" x="4010.847656"/>
    <use xlink:href="#DejaVuSans-6c" x="4072.126953"/>
    <use xlink:href="#DejaVuSans-5f" x="4099.910156"/>
    <use xlink:href="#DejaVuSans-35" x="4149.910156"/>
    <use xlink:href="#DejaVuSans-30" x="4213.533203"/>
    <use xlink:href="#DejaVuSans-2e" x="4277.15625"/>
    <use xlink:href="#DejaVuSans-70" x="4308.943359"/>
    <use xlink:href="#DejaVuSans-67" x="4372.419922"/>
    <use xlink:href="#DejaVuSans-6d" x="4435.896484"/>
    <use xlink:href="#DejaVuSans-2c" x="4533.308594"/>
    <use xlink:href="#DejaVuSans-20" x="4565.095703"/>
    <use xlink:href="#DejaVuSans-6e" x="4596.882812"/>
    <use xlink:href="#DejaVuSans-6f" x="4660.261719"/>
    <use xlink:href="#DejaVuSans-72" x="4721.443359"/>
    <use xlink:href="#DejaVuSans-6d" x="4760.806641"/>
    <use xlink:href="#DejaVuSans-61" x="4858.21875"/>
    <use xlink:href="#DejaVuSans-6c" x="4919.498047"/>
    <use xlink:href="#DejaVuSans-5f" x="4947.28125"/>
    <use xlink:href="#DejaVuSans-33" x="4997.28125"/>
    <use xlink:href="#DejaVuSans-30" x="5060.904297"/>
    <use xlink:href="#DejaVuSans-2e" x="5124.527344"/>
    <use xlink:href="#DejaVuSans-70" x="5156.314453"/>
    <use xlink:href="#DejaVuSans-67" x="5219.791016"/>
    <use xlink:href="#DejaVuSans-6d" x="5283.267578"/>
    <use xlink:href="#DejaVuSans-2c" x="5380.679688"/>
    <use xlink:href="#DejaVuSans-20" x="5412.466797"/>
    <use xlink:href="#DejaVuSans-75" x="5444.253906"/>
    <use xlink:href="#DejaVuSans-6e" x="5507.632812"/>
    <use xlink:href="#DejaVuSans-69" x="5571.011719"/>
    <use xlink:href="#DejaVuSans-66" x="5598.794922"/>
    <use xlink:href="#DejaVuSans-6f" x="5634"/>
    <use xlink:href="#DejaVuSans-72" x="5695.181641"/>
    <use xlink:href="#DejaVuSans-6d" x="5734.544922"/>
    <use xlink:href="#DejaVuSans-2e" x="5831.957031"/>
    <use xlink:href="#DejaVuSans-70" x="5863.744141"/>
    <use xlink:href="#DejaVuSans-67" x="5927.220703"/>
    <use xlink:href="#DejaVuSans-6d" x="5990.697266"/>
    <use xlink:href="#DejaVuSans-2c" x="6088.109375"/>
    <use xlink:href="#DejaVuSans-20" x="6119.896484"/>
    <use xlink:href="#DejaVuSans-6e" x="6151.683594"/>
    <use xlink:href="#DejaVuSans-6f" x="6215.0625"/>
    <use xlink:href="#DejaVuSans-72" x="6276.244141"/>
    <use xlink:href="#DejaVuSans-6d" x="6315.607422"/>
    <use xlink:href="#DejaVuSans-61" x="6413.019531"/>
    <use xlink:href="#DejaVuSans-6c" x="6474.298828"/>
    <use xlink:href="#DejaVuSans-5f" x="6502.082031"/>
    <use xlink:href="#DejaVuSans-31" x="6552.082031"/>
    <use xlink:href="#DejaVuSans-30" x="6615.705078"/>
    <use xlink:href="#DejaVuSans-2e" x="6679.328125"/>
    <use xlink:href="#DejaVuSans-70" x="6711.115234"/>
    <use xlink:href="#DejaVuSans-67" x="6774.591797"/>
    <use xlink:href="#DejaVuSans-6d" x="6838.068359"/>
    <use xlink:href="#DejaVuSans-2c" x="6935.480469"/>
    <use xlink:href="#DejaVuSans-20" x="6967.267578"/>
    <use xlink:href="#DejaVuSans-6c" x="6999.054688"/>
    <use xlink:href="#DejaVuSans-61" x="7026.837891"/>
    <use xlink:href="#DejaVuSans-70" x="7088.117188"/>
    <use xlink:href="#DejaVuSans-6c" x="7151.59375"/>
    <use xlink:href="#DejaVuSans-61" x="7179.376953"/>
    <use xlink:href="#DejaVuSans-63" x="7240.65625"/>
    <use xlink:href="#DejaVuSans-65" x="7295.636719"/>
    <use xlink:href="#DejaVuSans-5f" x="7357.160156"/>
    <use xlink:href="#DejaVuSans-33" x="7407.160156"/>
    <use xlink:href="#DejaVuSans-30" x="7470.783203"/>
    <use xlink:href="#DejaVuSans-2e" x="7534.40625"/>
    <use xlink:href="#DejaVuSans-70" x="7566.193359"/>
    <use xlink:href="#DejaVuSans-67" x="7629.669922"/>
    <use xlink:href="#DejaVuSans-6d" x="7693.146484"/>
    <use xlink:href="#DejaVuSans-2c" x="7790.558594"/>
    <use xlink:href="#DejaVuSans-20" x="7822.345703"/>
    <use xlink:href="#DejaVuSans-6c" x="7854.132812"/>
    <use xlink:href="#DejaVuSans-61" x="7881.916016"/>
    <use xlink:href="#DejaVuSans-70" x="7943.195312"/>
    <use xlink:href="#DejaVuSans-6c" x="8006.671875"/>
    <use xlink:href="#DejaVuSans-61" x="8034.455078"/>
    <use xlink:href="#DejaVuSans-63" x="8095.734375"/>
    <use xlink:href="#DejaVuSans-65" x="8150.714844"/>
    <use xlink:href="#DejaVuSans-5f" x="8212.238281"/>
    <use xlink:href="#DejaVuSans-32" x="8262.238281"/>
    <use xlink:href="#DejaVuSans-30" x="8325.861328"/>
    <use xlink:href="#DejaVuSans-2e" x="8389.484375"/>
    <use xlink:href="#DejaVuSans-70" x="8421.271484"/>
    <use xlink:href="#DejaVuSans-67" x="8484.748047"/>
    <use xlink:href="#DejaVuSans-6d" x="8548.224609"/>
   </g>
  </g>
 </g>
 <defs>
  <clipPath id="p70fb58dd03">
   <rect x="144" y="86.4" width="892.8" height="554.4"/>
  </clipPath>
 </defs>
</svg>
